<svg width="79" height="6" viewBox="0 0 79 6" fill="none" xmlns="http://www.w3.org/2000/svg">
<path d="M16.6318 4.364C16.501 4.29773 16.4153 4.29052 16.1964 4.32738C16.0227 4.35665 15.952 4.35652 15.5052 4.32609C15.3327 4.31435 14.9597 4.2942 14.6763 4.28133C14.3929 4.26847 14.1456 4.25595 14.1267 4.25353C14.06 4.24497 14.1509 4.19146 14.2685 4.17008C14.3946 4.14715 14.4043 4.13363 14.3442 4.06398C14.3088 4.02297 14.2689 4.01393 14.0505 3.99748C13.7579 3.97544 13.5817 3.93197 13.5736 3.87981C13.5649 3.82379 13.7176 3.77557 13.9161 3.7717C14.098 3.76815 14.2334 3.74149 14.2356 3.7088C14.2363 3.69861 14.2073 3.67198 14.1712 3.64964C14.1176 3.61649 14.0595 3.60849 13.8556 3.60617C13.6961 3.60436 13.5538 3.58989 13.4625 3.56619C13.2345 3.50705 12.7197 3.46135 12.5184 3.48238C12.3294 3.50213 11.936 3.49636 11.9118 3.47348C11.8711 3.43488 12.0528 3.40049 12.4557 3.37053C12.5811 3.36121 12.7534 3.34673 12.8384 3.33837C12.9235 3.33 13.0457 3.33113 13.11 3.34088C13.2484 3.36187 13.4062 3.31675 13.4741 3.23682L13.5174 3.18579L13.4268 3.19736C13.3687 3.2048 13.3369 3.2006 13.3379 3.18561C13.3408 3.14225 13.2431 3.10829 13.1986 3.13723C13.1633 3.16023 13.1647 3.16562 13.2099 3.18183C13.2381 3.19197 13.2606 3.21033 13.2598 3.22263C13.2575 3.25582 13.1095 3.24493 12.9577 3.2004C12.7972 3.15334 12.6265 3.16196 12.5216 3.22242C12.4469 3.26551 12.1103 3.31627 11.9363 3.31069C11.8843 3.30902 11.7385 3.28405 11.6123 3.2552C11.4095 3.20881 11.3333 3.20272 10.9543 3.20258C10.7186 3.2025 10.4117 3.21155 10.2723 3.22269C10.1329 3.23384 9.97921 3.24206 9.93075 3.24096C9.6862 3.2354 9.22463 3.26663 9.13934 3.2945C9.08618 3.31187 9.02734 3.345 9.00859 3.36812C8.98194 3.40098 8.94697 3.40926 8.84831 3.40606C8.77891 3.40381 8.68329 3.3902 8.63581 3.37582C8.50273 3.33549 7.88015 3.30767 7.83165 3.33988C7.77686 3.37627 7.66766 3.39253 7.47515 3.39297C7.35501 3.39324 7.27719 3.40758 7.18366 3.44666C7.00332 3.52201 6.86577 3.51443 6.75579 3.42307C6.63408 3.32196 6.53751 3.31544 6.17183 3.38365C5.8645 3.44097 5.85613 3.44133 5.61466 3.4073C5.36126 3.37159 4.80987 3.37112 4.07085 3.40599C3.71984 3.42254 3.56419 3.398 3.52144 3.31934C3.5014 3.28247 3.50782 3.27276 3.56269 3.25692C3.70026 3.2172 4.01692 3.20788 4.18679 3.23856C4.38605 3.27454 4.49508 3.25631 4.66443 3.15867C4.7658 3.10023 4.77344 3.09065 4.73084 3.07537C4.63006 3.03922 3.93063 2.89928 3.83531 2.89619C3.78039 2.89441 3.72907 2.88689 3.72126 2.87948C3.71345 2.87208 3.73067 2.83111 3.75951 2.78844C3.78836 2.74578 3.82079 2.68573 3.83157 2.655C3.85031 2.6016 3.84569 2.59839 3.72725 2.58236C3.65908 2.57313 3.531 2.53418 3.44261 2.49579C3.30449 2.43581 3.27953 2.41574 3.26505 2.35302C3.24824 2.28023 3.24771 2.27999 3.05707 2.25869C2.95195 2.24694 2.83298 2.2211 2.7927 2.20126C2.75242 2.18143 2.68777 2.16424 2.64903 2.16308C2.53805 2.15975 2.18185 2.22658 2.14291 2.25804C2.12354 2.2737 2.04001 2.41134 1.9573 2.56391C1.82525 2.80751 1.80059 2.87369 1.75487 3.10709C1.72623 3.25326 1.68256 3.4033 1.65782 3.4405C1.59107 3.54086 1.48276 3.62334 1.42038 3.62132C1.39012 3.62034 1.31689 3.63243 1.25764 3.6482C1.19839 3.66396 1.00571 3.68228 0.829465 3.68892C0.653218 3.69555 0.418269 3.71697 0.307355 3.73652C0.0848228 3.77575 0.0244619 3.7633 0.00462811 3.67409C-0.0137366 3.59149 0.0186945 3.54799 0.145096 3.48571C0.253427 3.43234 0.263115 3.42078 0.269174 3.33774C0.275029 3.25748 0.2872 3.24132 0.380834 3.18941L0.485923 3.13114L0.403513 3.04437C0.358188 2.99664 0.293869 2.91572 0.260581 2.86455C0.208695 2.78479 0.203483 2.7574 0.224054 2.67258C0.237251 2.61817 0.256182 2.53895 0.266123 2.49653C0.278757 2.44262 0.264036 2.36045 0.217215 2.22353C0.158663 2.0523 0.152958 2.00679 0.171883 1.8619C0.18599 1.75389 0.210074 1.67666 0.24102 1.6402C0.297573 1.57356 0.586454 1.42295 0.653551 1.42513C0.679514 1.42597 0.768123 1.40963 0.850459 1.38881C1.01626 1.34689 1.63087 1.30484 1.93497 1.31461C2.04259 1.31806 2.31349 1.30108 2.53696 1.27686C2.76044 1.25264 3.03434 1.22837 3.14563 1.22293C3.25692 1.21749 3.43385 1.20118 3.53882 1.18669C3.64378 1.1722 3.83511 1.15708 3.96398 1.15308C4.09286 1.14909 4.23546 1.13731 4.28087 1.12692C4.32628 1.11653 4.57343 1.10625 4.83009 1.10409C5.08675 1.10193 5.44492 1.08976 5.62603 1.07705C5.80714 1.06434 6.3475 1.04205 6.82685 1.02751C7.30619 1.01297 7.71572 0.996203 7.73692 0.99025C7.75812 0.984298 7.90558 0.98462 8.06461 0.990966C8.35311 1.00248 8.91151 0.980067 9.39173 0.937698C9.53121 0.925392 9.7982 0.919618 9.98504 0.924866C10.1719 0.930115 10.4729 0.924768 10.6539 0.912966C10.835 0.901172 11.2045 0.888739 11.4751 0.885337C11.7457 0.881936 12.0244 0.870305 12.0945 0.85949C12.1645 0.848677 12.4315 0.842727 12.6878 0.846268C13.1196 0.852234 13.6374 0.829712 14.3566 0.773689C14.9665 0.726176 15.0848 0.720223 15.2925 0.726566C15.4101 0.730156 15.5863 0.725553 15.684 0.716335C15.7817 0.707117 16.0373 0.701636 16.252 0.704154C16.4668 0.706672 16.7519 0.697182 16.8856 0.683065C17.0193 0.668948 17.1841 0.664735 17.2518 0.673703C17.3211 0.682885 17.4748 0.678159 17.6036 0.662886C17.7293 0.647969 17.8889 0.637512 17.9581 0.63965C18.0272 0.641787 18.1299 0.634117 18.1861 0.622605C18.2423 0.611094 18.4243 0.604624 18.5904 0.608229C18.9411 0.615837 19.5942 0.595805 20.0304 0.564067C20.5203 0.528417 20.9134 0.519053 21.3464 0.532719C21.6736 0.543047 21.8175 0.537036 22.0922 0.501561C22.3189 0.472279 22.5967 0.455879 22.9245 0.452432C23.6799 0.444487 24.2127 0.4292 24.339 0.41185C24.402 0.403196 24.5667 0.399121 24.7051 0.402794C24.8435 0.406468 25.0027 0.401986 25.0588 0.392835C25.1936 0.370832 25.7383 0.344245 26.0072 0.346543C26.125 0.34755 26.3297 0.340275 26.4621 0.330375C26.5945 0.320476 26.8783 0.318037 27.0927 0.324954C27.3266 0.332497 27.5739 0.327224 27.7107 0.311782C27.8594 0.294992 27.9941 0.29298 28.0979 0.306C28.1855 0.316983 28.3275 0.318161 28.4135 0.308619C28.7843 0.267471 29.3531 0.246026 30.0296 0.247688C30.4287 0.248668 30.7645 0.254891 30.7758 0.261516C30.7871 0.268142 30.8294 0.265273 30.8698 0.255141C31.0089 0.220262 31.7548 0.195931 32.6982 0.195505C33.2181 0.19527 33.7688 0.188989 33.9218 0.181547C34.3217 0.162101 34.8065 0.155616 35.1835 0.164671C35.3634 0.168994 35.7152 0.167161 35.9653 0.160597C36.2153 0.154033 36.4819 0.153684 36.5578 0.159822C36.7804 0.177837 37.0504 0.175579 37.4154 0.152649C37.6034 0.140841 38.0069 0.128577 38.3122 0.125396C38.6174 0.122215 39.0489 0.116775 39.271 0.113306C39.4931 0.109837 39.9503 0.110944 40.287 0.115767C40.6238 0.12059 40.9182 0.116296 40.9413 0.106224C40.9645 0.0961533 41.1423 0.098056 41.3366 0.110453C41.5426 0.123594 41.8375 0.12587 42.044 0.115911C42.2387 0.106517 42.4659 0.102697 42.5488 0.107423C42.6316 0.11215 42.8022 0.105611 42.9279 0.0928943C43.0912 0.0763642 43.278 0.0771825 43.5832 0.0957642C43.933 0.11707 44.0454 0.116166 44.2062 0.0907505C44.3141 0.0736972 44.413 0.0659348 44.4259 0.0735009C44.4389 0.081067 44.6576 0.0834274 44.9121 0.0787464C45.1666 0.0740652 45.5449 0.0721333 45.7527 0.0744531C45.9605 0.0767731 46.2331 0.0717498 46.3585 0.0632903C46.4839 0.054831 46.6736 0.0506539 46.7801 0.0540084C46.8866 0.0573627 47.1026 0.0505955 47.2601 0.0389702C47.4497 0.0249751 47.8066 0.0263488 48.3164 0.0430361C48.8477 0.0604271 49.1036 0.0610805 49.142 0.0451442C49.179 0.0297507 49.2706 0.0290385 49.4167 0.043008C49.5569 0.0564151 49.7908 0.0556407 50.066 0.040859C50.621 0.0110394 51.0852 0.0226267 51.2489 0.0703902C51.3929 0.112408 51.869 0.128944 51.923 0.0938019C52.0099 0.0372254 54.7631 0.030323 55.1229 0.0857796C55.2815 0.110208 55.3502 0.110301 55.5137 0.0863117C55.6326 0.06886 55.9342 0.0569352 56.2667 0.0565427C56.5718 0.056183 56.955 0.0502132 57.1183 0.0432773C57.2816 0.0363417 57.8829 0.0355802 58.4546 0.0415852C59.0262 0.0475902 59.5434 0.0480004 59.604 0.0424966C59.6645 0.0369928 59.7898 0.0474268 59.8825 0.065683C60.0124 0.0912921 60.0794 0.0941223 60.1756 0.0780696C60.5857 0.00965447 62.5784 -0.0217351 64.0846 0.0164934C64.8258 0.0353039 65.5005 0.0373441 65.7104 0.0214093C65.801 0.0145306 66.2879 0.0275051 66.7925 0.0502416C67.2971 0.0729779 67.7228 0.0847532 67.7385 0.0764088C67.7542 0.0680645 67.7722 0.0662033 67.7786 0.0722729C67.785 0.0783424 68.2305 0.103181 68.7684 0.12747C70.1083 0.18796 70.233 0.196043 70.3581 0.230466C70.4455 0.254501 70.501 0.255875 70.635 0.237325C70.8292 0.210445 71.2604 0.223539 71.4045 0.260696C71.465 0.276284 71.7638 0.291565 72.1708 0.299894C73.6264 0.329676 74.1037 0.35217 74.7303 0.420516C75.3189 0.484723 75.3422 0.485737 75.4187 0.450462C75.486 0.419479 75.5307 0.417246 75.7136 0.435714C75.8322 0.447684 76.1437 0.473315 76.4059 0.492672C76.7029 0.5146 76.9277 0.54186 77.0023 0.564988C77.076 0.587834 77.1385 0.595515 77.1648 0.584963C77.1884 0.575533 77.3772 0.576079 77.5845 0.586175C78.0083 0.606816 78.1992 0.651131 78.3962 0.774621C78.625 0.918042 78.5736 0.942272 78.0182 0.952668C77.6375 0.959794 77.5234 0.980012 77.5579 1.03424C77.5838 1.07501 77.7289 1.11954 77.9731 1.16169C78.1068 1.18477 78.2394 1.21547 78.2678 1.2299L78.3193 1.25614L78.2667 1.27089C78.1899 1.29242 77.6481 1.27708 77.1988 1.24065C76.8131 1.20939 76.8068 1.20805 76.6479 1.12366C76.5595 1.07671 76.472 1.0378 76.4534 1.0372C76.4347 1.03659 76.3201 1.08151 76.1987 1.13701C76.0282 1.21492 75.9533 1.23724 75.8701 1.23493C75.8042 1.2331 75.7566 1.24295 75.7476 1.26029C75.7273 1.29935 75.7699 1.40674 75.8299 1.46754C75.8913 1.52988 76.0016 1.53598 76.503 1.50479C76.8894 1.48076 77.011 1.49645 77.0911 1.58069C77.1156 1.6064 77.1745 1.64326 77.222 1.6626C77.3713 1.72336 77.7449 1.81338 77.9916 1.84803C78.2889 1.88978 78.5131 1.95681 78.5792 2.02368C78.6363 2.0814 78.6965 2.23925 78.6913 2.31735C78.6891 2.35055 78.6291 2.41705 78.5211 2.50618C78.3772 2.62487 78.3401 2.64447 78.2508 2.64886C78.1938 2.65166 78.1157 2.66304 78.0772 2.67415C78.0388 2.68526 77.9161 2.6914 77.8047 2.68779C77.6146 2.68162 77.6028 2.6839 77.6124 2.72498C77.6191 2.75342 77.6103 2.76834 77.5873 2.76759C77.5679 2.76696 77.5529 2.75182 77.5541 2.73395C77.5553 2.71607 77.5393 2.7009 77.5186 2.70022C77.4978 2.69955 77.4798 2.71363 77.4787 2.7315C77.4774 2.74938 77.4643 2.76116 77.4493 2.75769C77.4178 2.75035 77.3543 2.81708 77.3745 2.83631C77.3951 2.85578 77.8513 2.87272 77.9178 2.85648C77.9614 2.84581 77.9749 2.85082 77.9731 2.87711C77.9714 2.9033 77.9819 2.9073 78.0161 2.89339C78.0433 2.88233 78.0851 2.88357 78.1205 2.89649C78.178 2.9175 78.1788 2.9225 78.1523 3.10018C78.1333 3.22709 78.104 3.31654 78.0555 3.39512C78.0173 3.45716 77.9756 3.54178 77.963 3.58316C77.9345 3.67613 77.8801 3.75878 77.823 3.79598C77.7992 3.8115 77.7474 3.87251 77.708 3.93156C77.6685 3.99061 77.5494 4.13882 77.4433 4.26091C77.3372 4.383 77.2146 4.54789 77.171 4.62734C77.0896 4.77544 76.9471 4.9525 76.8745 4.99575C76.7523 5.06862 76.0766 5.12407 75.7833 5.0853C75.6939 5.07348 75.0492 5.04267 74.3507 5.01684C73.6522 4.99101 72.9905 4.96156 72.8803 4.95139C72.7701 4.94122 71.9161 4.90221 70.9827 4.86471C70.0493 4.82721 69.1953 4.7895 69.0849 4.78093C68.9746 4.77235 68.8617 4.76368 68.8341 4.76167C68.8065 4.75965 68.7437 4.75915 68.6944 4.76055C68.6452 4.76195 68.4796 4.74088 68.3265 4.71371C68.0727 4.66871 68.0282 4.66642 67.8251 4.68797C67.7025 4.70098 67.5343 4.70801 67.4514 4.70358C66.7448 4.66588 65.3089 4.62681 65.0608 4.63853C64.8404 4.64895 64.6647 4.64344 64.4193 4.61839C64.2334 4.59943 64.0359 4.58381 63.9804 4.58369C63.6656 4.58298 63.5568 4.56779 63.2078 4.47575C62.8258 4.375 62.7887 4.37282 62.66 4.44347C62.609 4.47144 62.6121 4.47434 62.722 4.50215C62.9882 4.56949 62.8499 4.59516 62.3246 4.57592C62.113 4.56817 61.9002 4.56082 61.8517 4.55957C61.5333 4.55139 61.1178 4.51652 61.0174 4.48955C60.845 4.44325 60.538 4.4537 60.3949 4.51074C60.2861 4.55412 60.2765 4.55451 60.1981 4.51881C60.0997 4.47397 60.0599 4.47123 59.9486 4.50166C59.8752 4.52171 59.8486 4.51771 59.7442 4.47095C59.6289 4.4193 59.6215 4.41857 59.5555 4.45239C59.4761 4.49309 59.4769 4.49127 59.5136 4.54837C59.573 4.64078 59.499 4.64103 59.1924 4.54944C58.5546 4.35892 58.3627 4.32902 58.357 4.41927C58.3557 4.4399 58.3875 4.47449 58.4275 4.49613C58.4676 4.51777 58.4997 4.54568 58.4988 4.55815C58.4966 4.59169 58.471 4.58523 58.3537 4.52163C58.2209 4.44956 58.1963 4.4491 58.0323 4.51572L57.8989 4.56992L57.7284 4.53016C57.6347 4.5083 57.4646 4.46567 57.3505 4.43544C57.1886 4.39254 57.1295 4.38519 57.0817 4.40197C56.9938 4.43282 57.0039 4.46018 57.1111 4.48119C57.2568 4.50975 57.3642 4.56022 57.3616 4.59892C57.3584 4.6472 57.2696 4.62633 56.919 4.49487C56.5316 4.34963 56.4602 4.35353 56.4168 4.52232C56.3944 4.60972 56.3773 4.61422 56.2783 4.55876C56.2178 4.52487 56.1881 4.52219 56.0615 4.53922C55.9791 4.55028 55.7733 4.55068 55.5926 4.54012C55.2879 4.52231 55.2681 4.51838 55.2264 4.46762C55.2021 4.4381 55.1468 4.40661 55.1035 4.39764C55.008 4.37786 54.846 4.4069 54.7849 4.45474C54.7501 4.48198 54.6885 4.48882 54.508 4.4854C54.3804 4.48299 54.2632 4.48714 54.2477 4.49463C54.2322 4.50212 54.2097 4.49111 54.1977 4.47016C54.1812 4.44111 54.1251 4.42656 53.9614 4.4088C53.7392 4.3847 53.6562 4.35705 53.6074 4.29087C53.5658 4.23447 53.3739 4.19681 53.1176 4.19474C52.861 4.19266 52.8197 4.21849 52.9568 4.29524L53.0451 4.34462L52.9903 4.39028C52.9602 4.4154 52.9347 4.44751 52.9338 4.46163C52.9316 4.49426 52.8548 4.49209 52.7656 4.45688C52.7275 4.44187 52.5101 4.41661 52.2824 4.40074C51.8357 4.36963 51.7615 4.35489 51.8121 4.30735C51.8291 4.29138 51.8671 4.2788 51.8965 4.27939C51.999 4.28145 51.8851 4.24188 51.6233 4.18451L51.3694 4.12887L51.2235 4.18033C51.0547 4.23983 51.0031 4.24151 50.8593 4.19216C50.7114 4.14138 50.686 4.14444 50.6818 4.21355C50.6763 4.30449 50.6993 4.32036 50.8658 4.34048C50.9981 4.35648 51.0292 4.35309 51.0891 4.31609L51.1588 4.27312L51.1374 4.33451C51.1257 4.36827 51.1052 4.4067 51.0919 4.4199C51.0652 4.44644 50.6264 4.43957 50.4885 4.41045L50.4064 4.39312L50.5041 4.34592C50.5871 4.30588 50.5974 4.29353 50.5721 4.26446C50.5475 4.23616 50.4981 4.23093 50.2877 4.23436C50.1477 4.23664 49.9893 4.22811 49.9357 4.2154C49.5522 4.12437 49.2369 4.09729 48.1412 4.06121C47.537 4.04132 47.0346 4.01728 47.0246 4.0078C46.9708 3.95683 47.0596 3.94705 47.7256 3.93059C47.8575 3.92733 47.954 3.91759 47.94 3.90894C47.8947 3.88096 47.4845 3.82878 47.3478 3.83359C47.2747 3.83617 47.1614 3.84982 47.0961 3.86393C46.9967 3.88538 46.9486 3.88395 46.8029 3.85524C46.514 3.79831 46.2214 3.84534 46.212 3.95022C46.2111 3.95967 46.3722 3.96612 46.5699 3.96455C46.8192 3.96257 46.9212 3.96837 46.9027 3.98348C46.888 3.99546 46.8073 4.01415 46.7234 4.02502C46.5422 4.04847 45.4502 4.0534 45.3209 4.03134C45.2666 4.02209 45.2061 4.02662 45.1688 4.04273C45.1327 4.05834 45.0178 4.06772 44.893 4.06526C44.7753 4.06293 44.6134 4.06645 44.5332 4.07308C44.4119 4.0831 44.3878 4.07967 44.3896 4.0527C44.3932 3.99866 44.6072 3.97435 45.0325 3.97966C45.4186 3.98449 45.6307 3.96548 45.6334 3.92581C45.6341 3.91521 45.5701 3.89741 45.4911 3.88625C45.318 3.86179 43.9324 3.84166 43.5077 3.85744C43.0385 3.87486 42.1559 3.88497 42.0444 3.8742C41.7333 3.84415 40.7434 3.86243 40.3791 3.90496C39.9564 3.95429 39.8613 3.95611 39.838 3.91533C39.8204 3.88441 39.7744 3.88469 39.3908 3.91805C39.0269 3.9497 38.8303 3.95231 38.0696 3.93555C37.1116 3.91445 37.1219 3.9145 36.4566 3.928C35.9595 3.93809 35.4871 3.95661 35.1675 3.97851C35.0491 3.98663 34.5953 3.9871 34.159 3.97956C33.399 3.96642 33.3597 3.96374 33.2203 3.91567C33.0172 3.84566 32.8965 3.84668 32.7386 3.91974C32.6136 3.97757 32.5965 3.97955 32.3012 3.97034C32.0965 3.96395 31.9066 3.97257 31.7323 3.99618C31.5884 4.01566 31.2832 4.03528 31.0541 4.03977C30.825 4.04426 30.5467 4.05457 30.4356 4.06267C30.3244 4.07078 30.0747 4.07256 29.8807 4.06664C29.4009 4.052 29.1962 4.07072 29.0151 4.14577C28.934 4.17936 28.8438 4.20622 28.8146 4.20546C28.7854 4.2047 28.7439 4.21383 28.7223 4.22575C28.6406 4.2708 28.9463 4.2375 29.0783 4.18696L29.2108 4.13625L29.23 4.18844C29.2436 4.22518 29.2664 4.23962 29.3069 4.23722C29.344 4.23502 29.3638 4.24539 29.3624 4.26631C29.3608 4.29078 29.3165 4.30084 29.1832 4.30702C29.0858 4.31153 28.8322 4.3255 28.6195 4.33806C28.3226 4.3556 28.2207 4.35469 28.1804 4.33416C28.1291 4.30805 28.129 4.30678 28.1781 4.27865C28.2057 4.26281 28.2611 4.25368 28.3012 4.25836C28.4114 4.27119 28.4135 4.21979 28.304 4.19064C28.151 4.14995 27.8682 4.14444 26.8081 4.16154C26.225 4.17094 26.2077 4.17 25.9871 4.11695C25.6704 4.04081 25.4292 4.04322 25.4059 4.12275C25.4 4.14294 25.4102 4.16009 25.4285 4.16086C25.454 4.16194 25.453 4.16659 25.4242 4.18083C25.3438 4.22057 24.9791 4.2161 24.7028 4.17199C24.3918 4.12233 24.255 4.12942 23.9769 4.20963C23.8811 4.23724 23.7706 4.2588 23.7314 4.25752C23.6691 4.25551 23.6619 4.24844 23.6753 4.20243C23.695 4.13471 23.6186 4.11273 23.3998 4.12318C23.3138 4.12729 23.1999 4.12066 23.1467 4.10845C23.065 4.08967 23.0334 4.09387 22.942 4.13563C22.8728 4.16724 22.7939 4.18397 22.7229 4.1821C22.6618 4.1805 22.5889 4.1928 22.5609 4.20942C22.5328 4.22605 22.4728 4.23845 22.4275 4.23698C22.3822 4.23551 22.3057 4.24881 22.2576 4.26653C22.1771 4.29618 22.1592 4.2956 22.0328 4.25924C21.781 4.18681 21.3702 4.21258 21.2393 4.30902C21.1464 4.37744 21.027 4.38931 20.7411 4.35851C20.4909 4.33156 20.3322 4.33691 20.191 4.37706C20.1556 4.38712 19.8103 4.3835 19.4226 4.36901C18.8071 4.346 18.7054 4.33736 18.6151 4.30034C18.5131 4.25856 18.5106 4.2586 18.4308 4.30309C18.3682 4.33805 18.3293 4.34455 18.2578 4.332C18.0679 4.29866 17.3518 4.24128 17.2646 4.25242C17.2148 4.25878 17.1352 4.29183 17.0877 4.32586C17.0077 4.38315 16.8748 4.42575 16.7843 4.4231C16.7634 4.42249 16.6948 4.39589 16.6318 4.364ZM14.9873 4.09475C15.0623 4.08021 15.1389 4.07394 15.1575 4.08082C15.2009 4.09693 15.4364 4.03862 15.4752 4.00216C15.5279 3.95263 15.4358 3.9425 15.1789 3.96956C15.0447 3.98369 14.8979 3.99912 14.8527 4.00384C14.8075 4.00855 14.7583 4.02985 14.7433 4.05117C14.6918 4.12451 14.7657 4.13771 14.9873 4.09475ZM21.0449 4.26239C21.0234 4.24202 20.9509 4.27565 20.9658 4.29908C20.976 4.31515 20.9925 4.31476 21.0185 4.29784C21.0393 4.28429 21.0512 4.26834 21.0449 4.26239ZM14.5873 3.74358C14.6644 3.71152 14.6507 3.68626 14.5461 3.66747C14.4021 3.64159 14.2124 3.71158 14.2901 3.76192C14.3252 3.78464 14.5169 3.77281 14.5873 3.74358ZM14.9429 3.68811C14.9436 3.67747 14.9272 3.66821 14.9065 3.66754C14.8857 3.66686 14.8678 3.68063 14.8666 3.69813C14.8653 3.71752 14.8795 3.72556 14.903 3.7187C14.9243 3.71252 14.9422 3.69875 14.9429 3.68811ZM13.6596 3.30066C13.6872 3.28919 13.7104 3.2704 13.7111 3.25891C13.7135 3.22302 13.6471 3.23388 13.5964 3.27767C13.5432 3.32364 13.5758 3.33549 13.6596 3.30066ZM12.1271 3.19567C12.1297 3.15741 12.0751 3.16232 12.0568 3.20199C12.0504 3.21596 12.0631 3.22797 12.085 3.22868C12.1069 3.22939 12.1258 3.21454 12.1271 3.19567ZM13.8863 3.27853C13.8866 3.27384 13.8703 3.26385 13.85 3.25632C13.8297 3.24879 13.8124 3.25207 13.8117 3.26361C13.8109 3.27515 13.8272 3.28515 13.848 3.28582C13.8687 3.28649 13.886 3.28321 13.8863 3.27853ZM14.5855 3.2127C14.6507 3.17399 14.6062 3.17207 14.5211 3.20992C14.4795 3.22846 14.4702 3.23958 14.4953 3.24089C14.5169 3.24201 14.5574 3.22932 14.5855 3.2127ZM13.8967 3.12326C13.8978 3.10609 13.8875 3.09168 13.8736 3.09123C13.8598 3.09078 13.8471 3.11049 13.8455 3.13502C13.8438 3.15956 13.8542 3.17398 13.8685 3.16706C13.8829 3.16014 13.8955 3.14044 13.8967 3.12326ZM55.7185 4.45566C55.7713 4.44028 55.7279 4.3825 55.662 4.38037C55.6021 4.37843 55.5431 4.43317 55.5869 4.45011C55.6326 4.46778 55.6714 4.46942 55.7185 4.45566ZM56.1517 4.4074C56.1553 4.3543 56.0956 4.33969 56.0297 4.37751C55.9646 4.41479 55.9954 4.46068 56.0816 4.45493C56.1292 4.45175 56.1497 4.43786 56.1517 4.4074ZM53.7484 4.25729C53.7548 4.24331 53.7422 4.2313 53.7203 4.23059C53.6984 4.22988 53.6794 4.24474 53.6781 4.2636C53.6756 4.30186 53.7302 4.29696 53.7484 4.25729ZM55.5285 4.30212C55.5315 4.25846 55.4604 4.20304 55.431 4.22607C55.4212 4.23374 55.4189 4.26572 55.4259 4.29715C55.4407 4.36361 55.5241 4.36764 55.5285 4.30212ZM61.8311 4.49811C61.8921 4.51245 61.8864 4.45176 61.8243 4.42464C61.7472 4.391 61.7056 4.41563 61.722 4.48531C61.7306 4.52225 61.7419 4.52914 61.7671 4.51278C61.7855 4.50076 61.8143 4.49416 61.8311 4.49811ZM62.439 4.44845C62.4409 4.42024 62.2607 4.33366 62.1958 4.33156C62.1093 4.32875 62.136 4.3652 62.2584 4.41696C62.3876 4.47164 62.4369 4.48023 62.439 4.44845ZM59.9461 4.11208C59.9644 4.06277 59.9487 4.01638 59.9186 4.03091C59.888 4.04566 59.8805 4.14795 59.9099 4.14891C59.9221 4.1493 59.9384 4.13273 59.9461 4.11208ZM74.5863 4.4645C74.5718 4.43263 74.5502 4.40624 74.5382 4.40585C74.5263 4.40546 74.5326 4.43589 74.5522 4.47346C74.5949 4.55508 74.624 4.54744 74.5863 4.4645ZM51.4092 3.71953C51.4359 3.68625 51.3855 3.64733 51.3349 3.6621C51.2998 3.67233 51.2971 3.68095 51.3206 3.70795C51.3549 3.74735 51.3838 3.75113 51.4092 3.71953ZM72.5695 4.3199C72.5624 4.29602 72.5472 4.27619 72.5358 4.27582C72.4979 4.27459 72.4797 4.34158 72.5052 4.38844C72.5279 4.43021 72.5327 4.4312 72.5563 4.39894C72.5707 4.37934 72.5766 4.34377 72.5695 4.3199ZM74.9217 4.39657C74.9233 4.37273 74.9133 4.35287 74.8994 4.35242C74.8856 4.35197 74.8736 4.36169 74.8728 4.37403C74.8718 4.38947 74.8566 4.38896 74.824 4.37239C74.7632 4.34142 74.7286 4.37923 74.7878 4.41194C74.8588 4.45115 74.9185 4.44429 74.9217 4.39657ZM74.8312 4.24164C74.832 4.22972 74.8101 4.21924 74.7824 4.21834C74.7547 4.21745 74.7314 4.22646 74.7306 4.23838C74.7298 4.25029 74.7518 4.26078 74.7795 4.26168C74.8072 4.26257 74.8304 4.25356 74.8312 4.24164ZM76.4306 4.26452C76.4344 4.20805 76.3848 4.20999 76.3716 4.26684C76.3635 4.30172 76.3705 4.31504 76.394 4.30918C76.4128 4.30448 76.4292 4.28438 76.4306 4.26452ZM73.9151 3.99377C73.9157 3.98383 73.9044 3.96875 73.8899 3.96026C73.8562 3.94053 73.8042 3.98015 73.8236 4.01072C73.8398 4.03619 73.9131 4.02259 73.9151 3.99377ZM64.8884 3.63586C64.8892 3.62464 64.8785 3.6151 64.8647 3.61465C64.8508 3.61421 64.8385 3.62904 64.8372 3.64762C64.836 3.66619 64.8467 3.67574 64.861 3.66882C64.8754 3.6619 64.8877 3.64707 64.8884 3.63586ZM60.8601 3.43737C60.8532 3.41983 60.8469 3.42477 60.844 3.44997C60.8414 3.47278 60.8465 3.48577 60.8553 3.47884C60.8641 3.47191 60.8663 3.45325 60.8601 3.43737ZM63.6014 3.2793C63.6026 3.26072 63.5919 3.25118 63.5776 3.2581C63.5633 3.26501 63.5509 3.27985 63.5502 3.29106C63.5494 3.30227 63.5601 3.31182 63.574 3.31226C63.5878 3.31271 63.6001 3.29788 63.6014 3.2793ZM75.2364 2.74334C75.2898 2.6931 75.2094 2.6471 75.0596 2.64225C74.9092 2.63737 74.8934 2.68224 75.0267 2.73545C75.1458 2.78303 75.1923 2.78477 75.2364 2.74334ZM77.2598 2.80215C77.2413 2.7846 77.1777 2.76632 77.1185 2.76154C77.0593 2.75676 76.8588 2.73617 76.673 2.7158C76.4871 2.69542 76.2814 2.67573 76.2158 2.67204C76.0917 2.66505 76.0686 2.64772 76.1412 2.6161C76.198 2.59135 76.1741 2.56007 76.0425 2.48689C75.9568 2.43927 75.9258 2.43143 75.9012 2.45117C75.8767 2.47077 75.8912 2.49398 75.9653 2.55437C76.0586 2.63043 76.0597 2.63304 76.0084 2.66392C75.9681 2.68816 75.9222 2.69113 75.8121 2.67664C75.71 2.66319 75.6679 2.66502 75.6667 2.68297C75.6657 2.69836 75.6458 2.70222 75.6157 2.69284C75.5867 2.6838 75.5656 2.68731 75.5647 2.70134C75.5635 2.71825 75.5493 2.71821 75.5159 2.70123C75.4533 2.66933 75.4407 2.67038 75.4382 2.70772C75.4336 2.77648 75.5215 2.78575 76.4073 2.8099C77.1727 2.83077 77.2889 2.82972 77.2598 2.80215ZM74.2783 2.71024C74.2798 2.68883 74.1324 2.54706 74.1079 2.54626C74.067 2.54494 74.0859 2.5991 74.1477 2.66036C74.2068 2.71893 74.276 2.74534 74.2783 2.71024ZM74.733 2.69757C74.7348 2.67023 74.6525 2.62886 74.5943 2.62789C74.5546 2.62723 74.5561 2.63299 74.6051 2.67167C74.6652 2.719 74.7307 2.73225 74.733 2.69757ZM73.5882 2.47514C73.5894 2.45726 73.5734 2.44209 73.5526 2.44142C73.5319 2.44074 73.5139 2.45482 73.5127 2.47269C73.5115 2.49057 73.5275 2.50574 73.5483 2.50641C73.569 2.50709 73.587 2.49301 73.5882 2.47514ZM74.1881 2.45868C74.2102 2.44137 74.2121 2.42238 74.195 2.39083C74.1758 2.3555 74.1665 2.3527 74.1471 2.37632C74.1169 2.41313 74.1106 2.48121 74.1373 2.48208C74.1484 2.48244 74.1712 2.47191 74.1881 2.45868ZM75.1059 1.8676C75.0804 1.84343 75.0639 1.87559 75.0801 1.91783C75.0953 1.95745 75.0966 1.95757 75.108 1.92014C75.1145 1.89852 75.1136 1.87488 75.1059 1.8676ZM75.4065 1.67466C75.4086 1.64473 75.3316 1.6756 75.3031 1.71616C75.263 1.77332 75.3042 1.79058 75.3577 1.73903C75.3839 1.71385 75.4059 1.68489 75.4065 1.67466ZM53.3223 0.91991C53.323 0.909452 53.3074 0.888209 53.2876 0.872701C53.2486 0.842096 53.243 0.848933 53.2631 0.902701C53.2768 0.939504 53.3201 0.952092 53.3223 0.91991ZM73.9352 1.42862C73.9386 1.38478 73.8675 1.34388 73.7855 1.34246C73.7299 1.3415 73.7309 1.34445 73.8049 1.40438C73.8476 1.43899 73.8818 1.48123 73.8809 1.49825C73.8784 1.54481 73.9315 1.47669 73.9352 1.42862ZM56.3733 0.911904C56.3748 0.889118 56.3233 0.840801 56.2965 0.839934C56.285 0.83956 56.2863 0.859146 56.2995 0.883459C56.3233 0.92711 56.371 0.945534 56.3733 0.911904ZM73.1741 1.30813C73.2024 1.29266 73.2501 1.2808 73.2799 1.28177C73.3097 1.28273 73.3466 1.27171 73.362 1.25728C73.3837 1.23677 73.3533 1.22942 73.2223 1.22361C73.103 1.21831 72.9697 1.18969 72.7585 1.12397C72.5955 1.07325 72.4313 1.0262 72.3937 1.0194C72.3298 1.00788 72.3248 1.01214 72.3201 1.08299C72.3154 1.15205 72.3244 1.16261 72.4194 1.19959C72.4768 1.22196 72.6242 1.26651 72.7468 1.29859C72.9747 1.35821 73.0779 1.36051 73.1741 1.30813ZM74.4616 1.26423C74.5344 1.20722 74.5181 1.15456 74.422 1.13571C74.3145 1.11463 74.1309 1.14816 74.1281 1.18939C74.1254 1.23001 74.1667 1.25183 74.2864 1.27291C74.3412 1.28256 74.3936 1.29193 74.4029 1.29373C74.4122 1.29553 74.4386 1.28225 74.4616 1.26423ZM52.9439 0.546717C52.9451 0.528843 52.9347 0.513851 52.9209 0.513403C52.9071 0.512954 52.8948 0.527212 52.8936 0.545087C52.8924 0.562962 52.9027 0.577953 52.9166 0.578402C52.9304 0.57885 52.9427 0.564592 52.9439 0.546717ZM71.8557 1.04364C71.8362 1.02425 71.7415 1.06465 71.7395 1.09319C71.7378 1.11957 71.7486 1.1187 71.8004 1.08827C71.8351 1.06793 71.86 1.04785 71.8557 1.04364ZM74.2423 0.887284C74.2345 0.879813 74.2128 0.87834 74.1943 0.884011C74.1737 0.890277 74.1793 0.895604 74.2086 0.897593C74.235 0.899393 74.2502 0.894754 74.2423 0.887284ZM63.5625 0.204422C63.5225 0.166478 63.4697 0.199643 63.5051 0.240439C63.5247 0.262967 63.5419 0.266255 63.5611 0.251176C63.5804 0.236097 63.5808 0.22178 63.5625 0.204422ZM21.2951 4.33839C21.2762 4.32043 21.3011 4.28733 21.3329 4.28836C21.3459 4.28878 21.3556 4.30375 21.3544 4.32163C21.3521 4.35513 21.3218 4.36371 21.2951 4.33839ZM5.47483 3.70914C5.45762 3.68206 5.52839 3.65812 5.56399 3.67897C5.57797 3.68715 5.5888 3.70303 5.58805 3.71424C5.58622 3.74156 5.49277 3.73735 5.47483 3.70914ZM5.99345 3.68395C5.99686 3.63295 6.03714 3.61045 6.08993 3.63004C6.12486 3.643 6.12392 3.64894 6.08107 3.68596C6.0204 3.7384 5.98985 3.7377 5.99345 3.68395ZM27.268 4.35766C27.2332 4.32465 27.2596 4.30873 27.3661 4.29851C27.5104 4.28467 27.5969 4.30886 27.5525 4.35061C27.5202 4.38093 27.2983 4.38642 27.268 4.35766ZM6.92842 3.65132C6.93255 3.5897 7.28983 3.54538 7.67836 3.55827C7.84438 3.56378 8.00063 3.55997 8.02557 3.54981C8.05925 3.53609 8.07037 3.53976 8.06874 3.56404C8.06516 3.61756 7.92996 3.65627 7.69193 3.67194C7.42037 3.68982 6.92673 3.67648 6.92842 3.65132ZM29.4743 4.29222C29.4016 4.24867 29.492 4.2249 29.6819 4.23764L29.8677 4.25011L29.7847 4.28542C29.6949 4.32357 29.5326 4.32713 29.4743 4.29222ZM6.02192 3.51758C5.99101 3.48826 6.00819 3.46601 6.06045 3.46771C6.08973 3.46866 6.1077 3.48062 6.10118 3.49481C6.0868 3.52608 6.04388 3.5384 6.02192 3.51758ZM6.18196 3.50422C6.20038 3.4869 6.23951 3.47382 6.26893 3.47515C6.32135 3.47753 6.3214 3.47817 6.27144 3.50781C6.20068 3.54978 6.13624 3.54719 6.18196 3.50422ZM8.74788 3.5928C8.75302 3.52962 8.80567 3.50227 8.92294 3.50187C9.25747 3.50072 9.42846 3.49485 9.49048 3.48237C9.52811 3.4748 9.57725 3.47835 9.59967 3.49027C9.63585 3.50951 9.63262 3.51677 9.57094 3.55483C9.47485 3.61412 9.29082 3.63754 8.99601 3.62798C8.81231 3.62203 8.74627 3.61267 8.74788 3.5928ZM30.0814 4.25885C30.0827 4.23998 30.1016 4.22512 30.1235 4.22583C30.168 4.22727 30.1571 4.27366 30.1096 4.28554C30.0928 4.28973 30.0801 4.27772 30.0814 4.25885ZM30.3624 4.25844C30.3143 4.22842 30.3569 4.21511 30.5699 4.19369C30.7755 4.17301 30.9429 4.19401 30.9398 4.24009C30.9387 4.25615 30.9234 4.27317 30.9058 4.27791C30.8433 4.2947 30.3947 4.27863 30.3624 4.25844ZM31.1173 4.22547C31.1185 4.20759 31.1378 4.19356 31.1603 4.19429C31.1937 4.19538 31.195 4.20131 31.1676 4.2271C31.1492 4.24442 31.1298 4.25845 31.1246 4.25828C31.1194 4.25811 31.1161 4.24334 31.1173 4.22547ZM31.3577 4.2235C31.3417 4.1983 31.5091 4.17332 31.5467 4.19531C31.5611 4.20375 31.5658 4.21953 31.5571 4.23036C31.5363 4.2562 31.375 4.25064 31.3577 4.2235ZM10.6799 3.51112C10.7001 3.48598 11.0883 3.46971 11.127 3.49238C11.1793 3.52297 11.0722 3.54011 10.8613 3.53491C10.7515 3.53221 10.6714 3.52171 10.6799 3.51112ZM9.34087 3.39074C9.34212 3.37216 9.35446 3.35733 9.36829 3.35777C9.38213 3.35822 9.39283 3.36776 9.39208 3.37898C9.39133 3.39019 9.37899 3.40502 9.36466 3.41194C9.35034 3.41886 9.33963 3.40932 9.34087 3.39074ZM35.9623 4.15682C35.964 4.13195 36.0286 4.11322 36.1043 4.11567C36.176 4.118 36.2047 4.15269 36.1483 4.16911C36.0868 4.18704 35.9608 4.17872 35.9623 4.15682ZM36.5555 4.14377C36.5136 4.1148 36.5183 4.11143 36.6157 4.10052C36.7449 4.08606 36.8005 4.11009 36.7307 4.15014C36.669 4.18548 36.6129 4.18344 36.5555 4.14377ZM37.5271 4.14092C37.4275 4.08124 37.6397 4.05741 38.2377 4.06111C39.0167 4.06594 39.051 4.06737 39.0601 4.09549C39.0724 4.13364 38.9439 4.14608 38.5766 4.14232C38.3942 4.14046 38.1029 4.1444 37.9291 4.15109C37.5423 4.16597 37.5701 4.16667 37.5271 4.14092ZM39.6921 4.09887C39.6304 4.06272 39.7206 4.0331 39.877 4.03817C40.0363 4.04333 40.0801 4.05728 40.0367 4.08903C40.003 4.11363 39.7306 4.12141 39.6921 4.09887ZM48.8175 4.39942C48.7977 4.36831 48.8281 4.36024 49.047 4.33851C49.3693 4.30651 49.4518 4.30532 49.5222 4.33161C49.6554 4.38137 49.5809 4.41128 49.3428 4.4036C49.2196 4.39962 49.0545 4.40257 48.9759 4.41016C48.8773 4.41969 48.8282 4.41636 48.8175 4.39942ZM40.36 4.076C40.3751 4.04321 40.5049 4.04146 40.512 4.07395C40.5147 4.08598 40.4787 4.09772 40.432 4.10005C40.3704 4.10311 40.3506 4.09651 40.36 4.076ZM41.1083 4.1109C40.9912 4.09038 40.9758 4.0805 41.0104 4.04797C41.0568 4.00443 41.4958 4.01908 41.4728 4.0634C41.464 4.08028 41.4323 4.09753 41.4024 4.10174C41.289 4.11767 41.1684 4.12143 41.1083 4.1109ZM41.5535 4.10148C41.5265 4.05909 41.6106 4.03471 41.8345 4.01997C42.1173 4.00136 42.318 4.00691 42.3351 4.03382C42.3579 4.06964 42.2926 4.08418 42.0694 4.09304C41.9502 4.09778 41.7885 4.10653 41.71 4.1125C41.6232 4.11911 41.5619 4.11479 41.5535 4.10148ZM51.4397 4.37396C51.4327 4.36291 51.4506 4.34403 51.4795 4.332C51.521 4.31478 51.5317 4.31671 51.5301 4.34109C51.5276 4.37766 51.4581 4.40293 51.4397 4.37396ZM51.5664 4.37942C51.5495 4.35289 51.5986 4.32874 51.6309 4.34766C51.658 4.36355 51.6369 4.40192 51.6017 4.40078C51.5895 4.40038 51.5736 4.39077 51.5664 4.37942ZM42.8021 4.05131C42.7326 4.00964 42.8131 3.99644 43.1221 3.99889C43.4451 4.00144 43.5278 4.02762 43.3361 4.06662C43.2174 4.09079 42.8505 4.08026 42.8021 4.05131ZM43.5746 4.06169C43.5343 4.02342 43.5652 3.99634 43.6363 4.00772C43.703 4.01841 43.7435 4.05925 43.6854 4.05737C43.6727 4.05696 43.6463 4.06129 43.6268 4.067C43.6072 4.07271 43.5837 4.07032 43.5746 4.06169ZM44.003 4.05319C43.9943 4.04495 43.9877 4.03121 43.9882 4.02267C43.9899 3.99822 44.1208 3.98736 44.1759 4.00711C44.2252 4.02481 44.2252 4.0252 44.17 4.04813C44.1083 4.0738 44.0273 4.07625 44.003 4.05319Z" fill="#FF6600"/>
</svg>
