<svg width="269" height="90" viewBox="0 0 269 90" fill="none" xmlns="http://www.w3.org/2000/svg">
<path d="M118.558 0.168984C119.933 -0.0585655 121.581 -0.056005 122.847 0.174843C123.452 0.285064 124.645 0.332586 125.499 0.281289C126.352 0.22999 127.255 0.283821 127.506 0.400429C128.24 0.742785 129.156 0.765579 130.417 0.473671C131.066 0.323325 132.445 0.213596 133.482 0.229531C134.519 0.245499 135.986 0.252325 136.742 0.245156C137.498 0.238019 139.045 0.357674 140.179 0.510781C141.314 0.66386 142.316 0.65968 142.405 0.501015C142.494 0.342425 143.094 0.412664 143.738 0.657265C144.421 0.91669 145.418 1.01955 146.128 0.903359C146.797 0.793776 147.57 0.781765 147.845 0.876992C148.121 0.972219 148.705 0.903511 149.144 0.724648C149.715 0.492009 150.347 0.547125 151.36 0.917031C152.522 1.34115 152.904 1.35137 153.475 0.973671C153.859 0.720383 154.201 0.615661 154.237 0.74125C154.273 0.867168 155.011 0.954287 155.878 0.934609C156.744 0.914913 158.027 0.967007 158.728 1.05082C159.429 1.13465 160.358 1.11373 160.792 1.00394C161.225 0.894281 161.871 0.868283 162.228 0.946328C162.585 1.0245 163.324 0.962765 163.87 0.808632C164.527 0.62305 165.734 0.723951 167.442 1.10844C169.222 1.50911 170.088 1.5769 170.235 1.32621C170.377 1.08418 170.687 1.09309 171.167 1.35258C171.627 1.60174 172.42 1.64037 173.368 1.46098C175.279 1.09915 176.838 1.39101 177.341 2.20414C177.784 2.91929 179.378 3.29374 179.598 2.73441C179.953 1.83351 189.281 2.3318 190.441 3.31352C190.952 3.74589 191.185 3.76291 191.763 3.40922C192.184 3.15174 193.219 3.02448 194.345 3.09184C195.378 3.1536 196.681 3.14102 197.242 3.06449C197.802 2.98791 199.839 3.10958 201.768 3.33402C203.697 3.5584 205.447 3.6795 205.659 3.60355C205.87 3.52749 206.283 3.72474 206.577 4.04203C206.989 4.48733 207.213 4.5483 207.556 4.30863C209.018 3.28682 215.798 3.21802 220.857 4.17387C223.346 4.64419 225.629 4.82693 226.356 4.6143C226.67 4.52258 228.305 4.84166 229.989 5.32328C231.673 5.80488 233.101 6.09103 233.164 5.95902C233.226 5.82692 233.289 5.80066 233.304 5.90043C233.32 6.00057 234.802 6.50324 236.597 7.01762C241.069 8.29855 241.483 8.45833 241.87 9.04594C242.14 9.45598 242.326 9.49069 242.799 9.21879C243.486 8.82467 244.932 9.13324 245.381 9.76957C245.569 10.0365 246.564 10.3515 247.933 10.5772C252.829 11.3843 254.421 11.8561 256.469 13.1065C258.394 14.2814 258.472 14.3029 258.769 13.7461C259.03 13.2574 259.183 13.2314 259.783 13.5723C260.172 13.7933 261.199 14.2785 262.066 14.6514C263.048 15.0738 263.78 15.5673 264.008 15.96C264.234 16.3479 264.437 16.4871 264.538 16.3213C264.628 16.1733 265.266 16.2236 265.957 16.4336C267.37 16.8633 267.969 17.6268 268.505 19.6787C269.126 22.0622 268.926 22.4453 267.035 22.4912C265.738 22.5227 265.33 22.8262 265.389 23.7159C265.434 24.3847 265.878 25.1411 266.66 25.8809C267.088 26.286 267.504 26.8147 267.585 27.0557L267.731 27.4942L267.537 27.7217C267.254 28.0548 265.436 27.6853 263.954 26.9932C262.681 26.3993 262.661 26.3761 262.214 24.9688C261.965 24.1868 261.71 23.5345 261.647 23.5186C261.585 23.5047 261.149 24.2103 260.678 25.086C260.018 26.315 259.741 26.6612 259.462 26.6055C259.24 26.5611 259.068 26.7113 259.019 26.9912C258.909 27.6223 258.939 29.3778 259.077 30.3799C259.218 31.4075 259.586 31.5318 261.317 31.1358C262.651 30.8307 263.046 31.1123 263.227 32.5C263.283 32.9236 263.442 33.5363 263.583 33.8614C264.023 34.8827 265.193 36.4294 265.991 37.0479C266.953 37.7929 267.641 38.9329 267.794 40.0352C267.925 40.9866 267.961 43.5678 267.86 44.837C267.817 45.3764 267.543 46.4447 267.083 47.8702C266.469 49.7682 266.322 50.0792 266.015 50.1309C265.82 50.1638 265.543 50.3318 265.401 50.5039C265.259 50.6761 264.837 50.7485 264.464 50.6651C263.826 50.5227 263.784 50.5572 263.773 51.2276C263.765 51.6916 263.719 51.9323 263.642 51.9151C263.577 51.9003 263.543 51.6507 263.566 51.3604C263.589 51.07 263.551 50.8193 263.481 50.8037C263.412 50.7889 263.336 51.0138 263.313 51.3037C263.29 51.5936 263.233 51.7823 263.186 51.7237C263.087 51.5973 262.8 52.668 262.848 52.9854C262.897 53.3066 264.424 53.683 264.667 53.4336C264.826 53.2702 264.866 53.3555 264.832 53.7823C264.798 54.2074 264.83 54.2751 264.961 54.0567C265.064 53.8828 265.204 53.912 265.31 54.1299C265.483 54.4843 265.48 54.5666 265.201 57.4502C265.001 59.51 264.807 60.9583 264.559 62.2256C264.364 63.2261 264.133 64.5934 264.046 65.2637C263.85 66.7694 263.577 68.102 263.344 68.6944C263.247 68.9424 263.007 69.923 262.81 70.8741C262.614 71.8261 262.052 74.21 261.563 76.1719C261.074 78.1341 260.484 80.7889 260.252 82.0713C259.818 84.4622 259.147 87.3107 258.855 87.9981C258.363 89.156 256.017 89.9076 255.065 89.212C254.775 88.9998 252.625 88.3563 250.288 87.7813C247.95 87.2063 245.741 86.5805 245.379 86.3907C245.016 86.2007 242.167 85.3765 239.047 84.5596C235.927 83.7428 233.076 82.9407 232.711 82.7764C232.346 82.6124 231.973 82.4462 231.881 82.4073C231.79 82.3684 231.578 82.3456 231.41 82.3575C231.241 82.369 230.704 81.9901 230.214 81.5147C229.403 80.7264 229.254 80.6789 228.544 80.9844C228.115 81.1687 227.538 81.2456 227.262 81.1553C224.91 80.3855 220.092 79.4321 219.238 79.5674C218.481 79.6879 217.891 79.5594 217.087 79.0977C216.478 78.7482 215.826 78.4501 215.638 78.4356C214.573 78.3542 214.221 78.0832 213.137 76.5088C211.951 74.7856 211.828 74.7418 211.317 75.8623C211.115 76.3058 211.122 76.3536 211.464 76.8301C212.294 77.9843 211.798 78.3716 210.041 77.9424C209.332 77.7695 208.619 77.6023 208.457 77.5713C207.387 77.3677 206.018 76.708 205.707 76.2471C205.172 75.4558 204.121 75.5581 203.576 76.4541C203.161 77.1352 203.128 77.1398 202.901 76.542C202.616 75.7909 202.484 75.7371 202.075 76.2071C201.805 76.517 201.719 76.4459 201.416 75.6621C201.08 74.7971 201.056 74.7834 200.797 75.3184C200.484 75.9627 200.489 75.9343 200.552 76.8711C200.655 78.3869 200.404 78.3739 199.464 76.8164C197.507 73.5765 196.889 73.0482 196.774 74.5147C196.748 74.85 196.818 75.4195 196.93 75.7803C197.043 76.1412 197.122 76.6021 197.106 76.8047C197.063 77.3495 196.983 77.2389 196.654 76.1787C196.281 74.9772 196.198 74.9639 195.572 76.0108L195.062 76.8633L194.528 76.1787C194.234 75.8023 193.703 75.0708 193.349 74.5537C192.847 73.8202 192.654 73.688 192.474 73.9502C192.144 74.4325 192.149 74.8797 192.49 75.2452C192.953 75.7419 193.263 76.587 193.213 77.2159C193.15 78.0001 192.872 77.6404 191.825 75.4248C190.668 72.9767 190.422 73.0244 190.095 75.7598C189.926 77.1763 189.864 77.246 189.588 76.3223C189.419 75.7576 189.321 75.7073 188.874 75.9561C188.583 76.1176 187.886 76.0789 187.286 75.8672C186.273 75.51 186.21 75.4413 186.123 74.6065C186.072 74.1214 185.919 73.5974 185.782 73.4414C185.48 73.0985 184.9 73.5344 184.642 74.2989C184.495 74.7343 184.279 74.8319 183.672 74.7364C183.243 74.669 182.842 74.7103 182.781 74.8282C182.72 74.9465 182.656 74.7631 182.637 74.42C182.612 73.9438 182.438 73.6943 181.903 73.3692C181.177 72.928 180.925 72.4599 180.83 71.3731C180.749 70.4464 180.14 69.7908 179.274 69.7002C178.408 69.6096 178.24 70.0205 178.623 71.2989L178.869 72.1221L178.634 72.8526C178.506 73.2544 178.385 73.7714 178.367 74.001C178.325 74.5307 178.067 74.4782 177.802 73.8858C177.689 73.6332 176.98 73.1737 176.226 72.8653C174.747 72.2602 174.512 72.0042 174.734 71.2422C174.809 70.9864 174.95 70.7905 175.049 70.8067C175.394 70.8629 175.05 70.1934 174.225 69.2022L173.425 68.2412L172.877 69.0459C172.242 69.9762 172.065 69.9918 171.631 69.1573C171.184 68.299 171.095 68.3432 171.007 69.4659C170.892 70.9438 170.953 71.2071 171.495 71.5713C171.926 71.8608 172.035 71.8128 172.277 71.2246L172.558 70.5411L172.421 71.5342C172.345 72.0807 172.234 72.7013 172.175 72.9131C172.057 73.3389 170.578 73.1302 170.142 72.626L169.883 72.3252L170.264 71.5801C170.588 70.9472 170.636 70.7479 170.582 70.2696C170.528 69.804 170.366 69.7077 169.65 69.7168C169.174 69.7228 168.647 69.5495 168.479 69.3311C167.278 67.7655 166.239 67.2547 162.567 66.4248C160.543 65.9674 158.867 65.4651 158.843 65.3086C158.716 64.4676 159.027 64.328 161.299 64.208C161.75 64.1843 162.087 64.0471 162.048 63.9034C161.925 63.4383 160.592 62.499 160.124 62.5469C159.874 62.5725 159.475 62.7694 159.239 62.9844C158.88 63.3111 158.718 63.2774 158.256 62.7784C157.338 61.7883 156.298 62.4879 156.154 64.1914C156.141 64.345 156.679 64.4857 157.35 64.5039C158.196 64.527 158.535 64.6441 158.457 64.8858C158.394 65.0774 158.101 65.3635 157.805 65.5215C157.166 65.8626 153.465 65.7008 153.05 65.3135C152.876 65.1509 152.666 65.2111 152.523 65.4649C152.384 65.7107 151.985 65.8383 151.565 65.7705C151.169 65.7067 150.617 65.7274 150.339 65.8174C149.918 65.9534 149.84 65.8923 149.875 65.4541C149.945 64.5762 150.695 64.2285 152.13 64.4092C153.431 64.5732 154.17 64.3106 154.221 63.6661C154.235 63.4938 154.036 63.1901 153.781 62.9912C153.22 62.5551 148.551 61.9207 147.096 62.083C145.489 62.2623 142.492 62.2311 142.125 62.0313C141.104 61.4735 137.733 61.5513 136.454 62.1621C134.971 62.8706 134.646 62.879 134.611 62.211C134.584 61.7042 134.428 61.6978 133.093 62.1553C131.827 62.5894 131.159 62.5888 128.601 62.1475C125.38 61.5919 125.415 61.5949 123.148 61.667C121.455 61.7209 119.835 61.9168 118.73 62.2022C118.321 62.3079 116.783 62.2156 115.314 61.9961C112.755 61.6139 112.625 61.5609 112.204 60.7481C111.591 59.5648 111.181 59.5548 110.569 60.708C110.084 61.6205 110.024 61.6489 109.035 61.4336C108.349 61.2843 107.696 61.3825 107.081 61.7276C106.573 62.0126 105.518 62.2639 104.738 62.2862C103.958 62.3084 103.005 62.4144 102.62 62.5215C102.235 62.6287 101.387 62.6023 100.736 62.4629C99.1274 62.1186 98.4144 62.3781 97.7213 63.5586C97.4112 64.0869 97.0772 64.5033 96.9791 64.4844C96.8811 64.4656 96.731 64.605 96.6452 64.794C96.3208 65.5086 97.3905 65.0349 97.8912 64.2422L98.3942 63.4473L98.4039 64.2998C98.4107 64.9001 98.4721 65.1401 98.6119 65.1104C98.7399 65.0829 98.7962 65.2559 98.7692 65.5957C98.7376 65.9933 98.5766 66.1468 98.1188 66.2178C97.7843 66.2697 96.9107 66.4406 96.1774 66.5977C95.1536 66.817 94.8097 66.7801 94.695 66.4375C94.5491 66.0015 94.5498 65.9805 94.7457 65.5342C94.8561 65.2829 95.0534 65.1467 95.1842 65.2315C95.5435 65.4646 95.6057 64.6293 95.2662 64.1309C94.7918 63.4351 93.8395 63.2823 90.2321 63.3252C88.2481 63.3488 88.1903 63.3298 87.4996 62.418C86.5085 61.1096 85.6896 61.0955 85.526 62.3838C85.4846 62.7106 85.5011 62.9911 85.5621 63.0079C85.6474 63.0311 85.6387 63.1069 85.526 63.3321C85.2115 63.9606 83.9817 63.8071 83.0934 63.0284C82.0933 62.1516 81.6224 62.2366 80.5953 63.4795C80.242 63.907 79.8455 64.2328 79.7135 64.2041C79.505 64.1575 79.4874 64.0409 79.5817 63.2959C79.7205 62.199 79.4857 61.8241 78.734 61.9454C78.4385 61.9931 78.0592 61.8599 77.8922 61.6495C77.6357 61.3264 77.5242 61.3876 77.1705 62.0459C76.9026 62.5448 76.6172 62.8 76.3786 62.7539C76.1735 62.7147 75.914 62.8981 75.8014 63.1621C75.6889 63.4261 75.4728 63.6146 75.3209 63.5811C75.1691 63.5472 74.8953 63.746 74.7135 64.0235C74.4093 64.4878 74.3497 64.4746 73.9606 63.8555C73.1852 62.6216 71.7672 62.9498 71.2213 64.4893C70.834 65.5815 70.4162 65.748 69.4811 65.1836C68.6629 64.6898 68.1202 64.7417 67.5993 65.3633C67.4687 65.5191 66.3029 65.3833 65.0055 65.0616C62.9465 64.5509 62.6119 64.3878 62.3453 63.7657C62.0445 63.0635 62.0358 63.0636 61.7184 63.7696C61.469 64.3243 61.3308 64.4211 61.1022 64.2012C60.4948 63.6169 58.131 62.5249 57.8239 62.6866C57.6484 62.779 57.3442 63.299 57.1471 63.8418C56.8154 64.7559 56.319 65.4196 56.0153 65.3565C55.9449 65.3404 55.7411 64.8932 55.5621 64.3614C55.1898 63.2546 54.9076 63.1182 54.1276 63.669C53.508 64.1065 53.2689 64.089 51.7887 63.4952C51.2171 63.2658 49.9756 62.8552 49.0299 62.583C48.0844 62.3109 47.2605 62.0525 47.1989 62.0088C46.9822 61.8548 47.3465 61.0056 47.7672 60.6836C48.2186 60.3387 48.2666 60.1198 48.1373 58.9737C48.0612 58.2991 47.9353 58.1431 47.2135 57.8272C46.2463 57.4038 45.6961 56.6578 45.7243 55.8077C45.7545 54.8948 46.3228 54.1441 46.9987 54.125C47.6183 54.1077 48.1058 53.7041 48.1481 53.1729C48.1611 53.0069 48.0912 52.5675 47.9928 52.1963C47.8467 51.6455 47.6581 51.5028 46.9703 51.42C46.4326 51.3552 45.9663 51.0881 45.6823 50.6827C44.9736 49.6702 43.2789 48.812 42.5748 49.1094C41.914 49.3887 40.5882 49.2076 40.5309 48.8301C40.4344 48.1933 41.0861 47.6743 42.4821 47.2764C42.9166 47.1526 43.5153 46.9551 43.8121 46.8379C44.109 46.7209 44.521 46.7669 44.7282 46.9395C45.1744 47.3116 45.7571 46.6123 46.0719 45.3272L46.2731 44.5069L45.9547 44.6758C45.7499 44.7838 45.6464 44.7081 45.6657 44.4649C45.7217 43.7602 45.427 43.186 45.2457 43.6465C45.1017 44.0128 45.1002 44.1014 45.236 44.375C45.3208 44.5462 45.3777 44.8491 45.3619 45.0489C45.3191 45.5881 44.8296 45.3787 44.3629 44.6211C43.8697 43.8202 43.2824 43.922 42.8629 44.8819C42.5639 45.5661 41.3697 46.3179 40.7868 46.1885C40.6122 46.1494 40.1458 45.7107 39.7496 45.2139C39.1123 44.4145 38.8605 44.2983 37.5778 44.212C36.7798 44.1583 35.7306 44.2373 35.2467 44.3877C34.7629 44.5381 34.2338 44.6381 34.0709 44.6094C33.2489 44.4648 31.6531 44.8703 31.3346 45.3047C31.1362 45.5756 30.9012 46.1009 30.8131 46.4727C30.6879 47.0013 30.5607 47.1286 30.2301 47.0547C29.9976 47.0027 29.688 46.7601 29.5426 46.5157C29.1351 45.8305 27.0588 45.2398 26.859 45.752C26.6348 46.3316 26.2474 46.5726 25.5953 46.5371C25.1883 46.515 24.9097 46.7308 24.5514 47.3457C23.8606 48.5313 23.4026 48.3773 23.1276 46.8672C22.8232 45.1958 22.5028 45.0675 21.192 46.0957C20.0905 46.9598 20.062 46.9643 19.2809 46.3575C18.461 45.7205 16.5945 45.5901 14.0553 45.9932C12.8492 46.1847 12.3487 45.7508 12.2877 44.462C12.2592 43.8582 12.2912 43.7015 12.4938 43.4561C13.002 42.8408 14.0842 42.7594 14.6266 43.2959C15.2628 43.9252 15.6514 43.6528 16.3287 42.1026C16.734 41.175 16.77 41.0205 16.6422 40.7627C16.3395 40.1525 14.1199 37.7208 13.8004 37.6495C13.6166 37.6082 13.4508 37.4747 13.4323 37.3526C13.4137 37.2303 13.5157 36.5674 13.6588 35.8799C13.8019 35.1924 13.9763 34.223 14.0455 33.7256C14.1658 32.8616 14.153 32.8085 13.7692 32.5215C13.5482 32.3564 13.1564 31.6938 12.8981 31.0498C12.4944 30.0437 12.4311 29.7118 12.4489 28.6885C12.4695 27.5011 12.4678 27.497 11.8453 27.1084C11.5019 26.8941 11.1266 26.4469 11.0114 26.1153C10.8961 25.7837 10.695 25.4904 10.5651 25.4629C10.1924 25.3849 8.91616 26.3917 8.75062 26.8946C8.66833 27.1449 8.23908 29.3651 7.79652 31.8282C7.08988 35.761 6.9363 36.8323 6.53285 40.6182C6.28017 42.9893 5.97169 45.4199 5.84828 46.0196C5.51546 47.6366 5.06131 48.9541 4.85218 48.9082C4.75077 48.8856 4.4895 49.0664 4.27211 49.3096C4.05435 49.5527 3.38242 49.8073 2.77894 49.876C2.17518 49.9448 1.35687 50.2418 0.960582 50.5352C0.165598 51.1236 -0.0253184 50.9074 0.00257457 49.4522C0.0284123 48.1049 0.184215 47.4047 0.678356 46.42C1.102 45.5758 1.14749 45.3894 1.25648 44.0401C1.3618 42.7363 1.42032 42.4759 1.79261 41.6524L2.21058 40.7286L2.02406 39.2989C1.92145 38.5125 1.78927 37.1815 1.73109 36.3418C1.64043 35.0334 1.65217 34.5866 1.81214 33.212C1.9148 32.3299 2.06337 31.0452 2.14222 30.3575C2.24242 29.4835 2.27986 28.1436 2.26722 25.9063C2.25142 23.1084 2.28121 22.367 2.49964 20.0147C2.66248 18.2612 2.82575 17.0101 2.96937 16.4239C3.23176 15.3529 4.36998 12.9689 4.59535 13.0176C4.68235 13.037 5.00047 12.791 5.3014 12.4707C5.90743 11.8257 8.03319 11.2776 9.05238 11.5039C9.4134 11.5838 10.3484 11.3677 11.1305 11.0235C11.9129 10.6792 12.8661 10.3451 13.2487 10.2813C13.6313 10.2174 14.248 9.9917 14.6188 9.77934C14.9895 9.56704 15.6529 9.36366 16.0934 9.32719C16.534 9.29079 17.0301 9.1307 17.195 8.97172C17.3601 8.81281 18.2077 8.69996 19.0787 8.72172C19.95 8.74344 21.1758 8.62557 21.8024 8.45902C22.4294 8.29245 24.2824 8.04911 25.9205 7.91898C27.5589 7.78883 28.9635 7.6068 29.0416 7.51469C29.1208 7.42304 29.6191 7.46134 30.15 7.59965C31.1145 7.85088 33.0289 7.60993 34.6998 7.02738C35.1851 6.85818 36.0953 6.82348 36.7223 6.95023C37.3492 7.07703 38.3741 7.05705 38.9996 6.90531C39.6251 6.75366 40.8894 6.63309 41.8092 6.63773C42.7291 6.64242 43.6855 6.51488 43.9342 6.35453C44.183 6.19422 45.0938 6.15709 45.9577 6.27152C47.4129 6.46419 49.1899 6.21254 51.6842 5.46098C53.8 4.82346 54.2072 4.75314 54.9039 4.90238C55.2983 4.98675 55.8995 4.95052 56.2399 4.8223C56.5805 4.69408 57.4521 4.66146 58.1764 4.75004C58.9007 4.83855 59.8756 4.74776 60.3434 4.54789C60.8111 4.34795 61.3737 4.31578 61.5934 4.4766C61.8182 4.64127 62.3433 4.59865 62.7955 4.37894C63.2373 4.16421 63.7892 4.02903 64.0211 4.07914C64.2531 4.1292 64.6085 4.02731 64.8112 3.85258C65.0139 3.67796 65.6365 3.61367 66.195 3.70902C67.3741 3.91053 69.6073 3.72909 71.1178 3.30961C72.8145 2.83842 74.1556 2.77353 75.6071 3.09184C76.7037 3.3323 77.197 3.26601 78.1647 2.75004C78.9636 2.32405 79.9225 2.11916 81.0358 2.13578C83.6014 2.17406 85.4217 2.0442 85.8678 1.79008C86.0902 1.6633 86.6522 1.63327 87.1168 1.72367C87.5815 1.81412 88.1252 1.77609 88.3248 1.63969C88.8049 1.31173 90.6776 1.00067 91.5856 1.09769C91.9833 1.14019 92.6844 1.06723 93.1432 0.935586C93.6021 0.804006 94.5652 0.827293 95.2838 0.987343C96.0675 1.16186 96.9108 1.13102 97.3903 0.910195C97.9115 0.670114 98.3701 0.666622 98.7077 0.901406C98.9924 1.09936 99.4718 1.15079 99.7731 1.01469C101.072 0.427687 103.021 0.204839 105.309 0.381875C106.659 0.486333 107.79 0.662228 107.821 0.7725C107.852 0.882249 107.999 0.844949 108.146 0.689492C108.654 0.153045 111.206 -0.0772345 114.4 0.125039C116.161 0.236543 118.032 0.256086 118.558 0.168984ZM173.825 72.3604C173.796 71.9253 173.989 71.5429 174.078 71.8575C174.153 72.1219 174.04 72.7413 173.922 72.7149C173.881 72.7047 173.837 72.5458 173.825 72.3604ZM173.582 71.5694C173.74 71.2987 173.774 71.3326 173.743 71.7286C173.696 72.3228 173.433 72.7185 173.402 72.2432C173.39 72.0619 173.471 71.7585 173.582 71.5694ZM165.339 71.1358C166.464 70.6869 166.744 70.6859 166.955 71.1289C167.353 71.9679 167.069 72.4376 166.271 72.2598C165.858 72.1678 165.296 72.1793 165.022 72.2852C164.678 72.4182 164.515 72.3538 164.497 72.0762C164.463 71.5659 164.574 71.4406 165.339 71.1358ZM91.9762 65.6768C92.4791 65.4841 92.7461 65.8964 92.5514 66.5655C92.4099 67.0513 91.6528 67.0917 91.5807 66.6172C91.498 66.0725 91.6047 65.8194 91.9762 65.6768ZM99.1207 66.042C98.9209 65.3177 99.2522 64.9509 99.8815 65.2002L100.497 65.4444L100.178 66C99.8339 66.6006 99.2809 66.6227 99.1207 66.042ZM102.934 64.6827C103.652 64.3919 104.197 64.7707 104.137 65.5196C104.117 65.7805 104.047 66.0538 103.982 66.127C103.752 66.3861 102.251 66.025 102.163 65.6895C102.032 65.1908 102.191 64.9837 102.934 64.6827ZM101.389 65.1065C101.538 65.1405 101.451 65.8917 101.278 66.0743C101.217 66.1386 101.187 65.9404 101.212 65.6338C101.236 65.3273 101.316 65.0901 101.389 65.1065ZM141.258 64.3555C142.236 64.1155 142.91 64.2501 142.939 64.6914C142.978 65.279 142.741 65.5011 141.976 65.5957C141.568 65.6462 141.011 65.7533 140.739 65.833C140.438 65.9212 140.235 65.8372 140.22 65.6192C140.174 64.9239 140.485 64.5456 141.258 64.3555ZM104.933 64.8233C105.045 64.8485 105.043 64.9457 104.922 65.3584C104.842 65.6358 104.761 65.86 104.744 65.8565C104.726 65.8526 104.73 65.6108 104.754 65.3204C104.777 65.0301 104.858 64.8065 104.933 64.8233ZM138.439 64.628C138.642 63.9303 140.113 64.2659 139.988 64.9815C139.94 65.2541 139.815 65.528 139.709 65.5899C139.308 65.8239 138.895 65.8575 138.703 65.6729C138.328 65.3134 138.287 65.1492 138.439 64.628ZM105.57 65.3418C105.543 64.9286 106.136 64.56 106.24 64.9258C106.28 65.0665 106.279 65.3239 106.238 65.4981C106.14 65.9135 105.599 65.787 105.57 65.3418ZM123.504 64.5079C123.956 64.3015 124.119 64.705 123.839 65.3409C123.593 65.9017 123.406 65.856 123.254 65.1983C123.143 64.7177 123.162 64.6637 123.504 64.5079ZM126.547 65.3672C126.273 64.3745 127.016 64.0338 129.037 64.2266C131.669 64.4778 131.784 64.5095 131.785 64.9688C131.785 65.5916 131.337 65.7656 130.097 65.6231C129.482 65.5524 128.491 65.5519 127.896 65.6221C126.571 65.7783 126.665 65.7955 126.547 65.3672ZM121.756 64.6407C121.996 64.6944 122.056 65.2648 121.848 65.5196C121.621 65.7977 121.203 65.6343 121.231 65.2784C121.263 64.8746 121.502 64.5842 121.756 64.6407ZM148.547 64.877C148.579 64.4798 149.034 64.332 149.2 64.6651C149.348 64.9638 149.347 64.9706 149.136 65.3311C148.9 65.7348 148.623 65.7571 148.565 65.377C148.544 65.241 148.536 65.0158 148.547 64.877ZM144.502 65.0801C144.31 64.387 144.597 64.1896 145.64 64.2979C146.731 64.4111 146.983 64.8554 146.293 65.4473C145.865 65.8135 144.635 65.5614 144.502 65.0801ZM147.106 65.42C147.01 64.7887 147.143 64.3551 147.372 64.5557C147.586 64.7443 147.68 65.4165 147.486 65.3741C147.443 65.3646 147.349 65.4293 147.277 65.5176C147.205 65.6061 147.128 65.5622 147.106 65.42ZM133.921 65.1631C133.75 64.5617 134.088 64.0997 134.612 64.2168C135.145 64.3361 135.279 64.5735 135.098 65.0801C134.958 65.4726 134.027 65.5382 133.921 65.1631ZM136.207 64.9395C136.293 64.4096 136.734 64.4104 136.723 64.9405C136.719 65.1365 136.585 65.3193 136.424 65.3467C136.213 65.3828 136.153 65.2708 136.207 64.9395ZM71.5592 64.1739C71.6028 64.1836 71.6204 64.4293 71.5973 64.7198C71.554 65.2638 71.442 65.3966 71.3786 64.9795C71.3336 64.6835 71.453 64.1514 71.5592 64.1739ZM18.486 51.2354C18.4566 50.7913 18.7216 50.4177 18.82 50.7647C18.8586 50.901 18.8784 51.1616 18.8639 51.3438C18.8286 51.7878 18.5166 51.6983 18.486 51.2354ZM20.2682 50.9414C20.3341 50.1127 20.4951 49.7556 20.653 50.086C20.7572 50.3042 20.7475 50.4009 20.5631 50.9932C20.3019 51.8324 20.1988 51.8144 20.2682 50.9414ZM27.2916 49.21C27.4203 48.9943 27.4539 49.0566 27.4225 49.4512C27.3533 50.3207 26.8543 50.92 26.0319 51.1221C25.0934 51.3527 23.4359 51.0262 23.4684 50.6172C23.5483 49.6162 24.8055 48.9747 26.1071 49.2705C26.6633 49.397 27.1963 49.3697 27.2916 49.21ZM32.3229 48.4375C32.4584 48.3227 32.621 48.392 32.6842 48.5909C32.7862 48.9117 32.7676 49.0294 32.5182 49.6348C32.1297 50.5775 31.4816 50.9171 30.4938 50.6963C29.8784 50.5588 29.6644 50.3921 29.6911 50.0694C29.7757 49.0433 29.9833 48.6098 30.3805 48.6289C31.5144 48.6845 32.0996 48.6267 32.3229 48.4375ZM36.32 49.169C36.4159 48.7648 37.7463 48.5867 37.8532 48.9639C37.9973 49.4728 37.6169 49.7278 36.9088 49.5967C36.54 49.5284 36.2799 49.3393 36.32 49.169ZM21.4235 47.6065C21.5984 47.6568 21.5978 47.6668 21.3971 48.1377C21.1129 48.8045 20.8978 48.7483 21.0983 48.0596C21.1791 47.7821 21.3253 47.5783 21.4235 47.6065ZM20.7252 47.4385C20.8233 47.4604 20.8718 47.6593 20.8346 47.8887C20.7526 48.394 20.5938 48.5849 20.5416 48.2412C20.4683 47.758 20.5505 47.4001 20.7252 47.4385ZM32.0426 46.3838C32.0888 46.3946 32.1147 46.5525 32.1002 46.7344C32.0857 46.9166 32.0282 47.1554 31.9723 47.2647C31.9165 47.3737 31.8907 47.2159 31.9147 46.9141C31.9387 46.6123 31.9963 46.3735 32.0426 46.3838ZM64.1188 20C62.8289 20.0001 61.7261 20.5049 60.8112 21.5157C59.8963 22.5264 59.1993 23.9756 58.7194 25.8623C58.2394 27.7266 57.9996 29.9502 57.9996 32.5332C57.9996 35.1162 58.2394 37.3399 58.7194 39.2041C59.1993 41.0685 59.8962 42.5068 60.8112 43.5176C61.7261 44.5059 62.8289 45 64.1188 45C65.7237 45 67.0289 44.2022 68.0338 42.6075C69.0537 40.9903 69.6909 38.7217 69.9459 35.8018L66.6842 35.5655C66.5342 37.2501 66.2263 38.542 65.7614 39.4405C65.3114 40.3164 64.7637 40.7539 64.1188 40.7539C63.5189 40.7539 63.0094 40.4395 62.5895 39.8106C62.1696 39.1592 61.8467 38.2275 61.6217 37.0147C61.3967 35.7793 61.2838 34.2853 61.2838 32.5332C61.2838 30.7588 61.3967 29.254 61.6217 28.0186C61.8467 26.7832 62.1695 25.8506 62.5895 25.2217C63.0094 24.5707 63.519 24.2452 64.1188 24.2452C64.7487 24.2452 65.2815 24.6603 65.7164 25.4912C66.1514 26.3223 66.4509 27.5244 66.6159 29.0967L69.901 28.8604C69.616 26.0304 68.9713 23.8516 67.9664 22.3243C66.9615 20.7744 65.6787 20 64.1188 20ZM77.5192 20C76.2294 20.0001 75.1349 20.4942 74.235 21.4825C73.35 22.4483 72.6671 23.8632 72.1871 25.7276C71.7222 27.5919 71.4899 29.8604 71.4899 32.5332C71.4899 35.206 71.7222 37.4746 72.1871 39.3389C72.6671 41.1808 73.35 42.585 74.235 43.5508C75.1349 44.5165 76.2294 45 77.5192 45C78.8091 45 79.9044 44.5167 80.8043 43.5508C81.7043 42.585 82.3862 41.1807 82.8512 39.3389C83.3161 37.4746 83.5494 35.2061 83.5494 32.5332C83.5494 29.8604 83.3162 27.5919 82.8512 25.7276C82.3863 23.8634 81.7042 22.4483 80.8043 21.4825C79.9044 20.4941 78.8091 20 77.5192 20ZM131.571 20C130.281 20.0001 129.179 20.5051 128.264 21.5157C127.349 22.5264 126.651 23.9756 126.172 25.8623C125.692 27.7266 125.452 29.9503 125.452 32.5332C125.452 35.1162 125.692 37.3399 126.172 39.2041C126.651 41.0685 127.349 42.5068 128.264 43.5176C129.179 44.5056 130.281 45 131.571 45C133.176 45 134.481 44.2022 135.486 42.6075C136.506 40.9903 137.143 38.7217 137.398 35.8018L134.136 35.5655C133.986 37.2501 133.678 38.542 133.214 39.4405C132.764 40.3164 132.216 40.7539 131.571 40.7539C130.971 40.7538 130.462 40.4394 130.042 39.8106C129.622 39.1592 129.299 38.2274 129.074 37.0147C128.849 35.7793 128.736 34.2853 128.736 32.5332C128.736 30.7588 128.849 29.254 129.074 28.0186C129.299 26.7832 129.622 25.8506 130.042 25.2217C130.461 24.5707 130.971 24.2453 131.571 24.2452C132.201 24.2452 132.734 24.6603 133.169 25.4912C133.604 26.3223 133.904 27.5244 134.069 29.0967L137.353 28.8604C137.068 26.0304 136.423 23.8516 135.419 22.3243C134.414 20.7745 133.131 20 131.571 20ZM212.424 20C211.135 20 210.039 20.4941 209.139 21.4825C208.254 22.4483 207.571 23.8634 207.091 25.7276C206.627 27.5918 206.394 29.8605 206.394 32.5332C206.394 35.206 206.627 37.4747 207.091 39.3389C207.571 41.1808 208.254 42.585 209.139 43.5508C210.039 44.5167 211.135 45 212.424 45C213.714 44.9999 214.809 44.5165 215.709 43.5508C216.609 42.585 217.292 41.1808 217.756 39.3389C218.221 37.4746 218.454 35.206 218.454 32.5332C218.454 29.8604 218.221 27.5918 217.756 25.7276C217.292 23.8633 216.609 22.4483 215.709 21.4825C214.809 20.4942 213.714 20.0001 212.424 20ZM85.6998 20.5391V44.461H88.7604V28.9952L93.192 44.461H96.32V20.5391H93.2594V36.0039L88.8278 20.5391H85.6998ZM98.651 20.5391V24.8516H102.903V44.461H106.097V24.8516H110.35V20.5391H98.651ZM116.034 20.5391L111.669 44.461H114.886L115.757 39.3731H120.224L121.095 44.461H124.313L119.948 20.5391H116.034ZM139.122 20.5391V24.8516H143.375V44.461H146.569V24.8516H150.822V20.5391H139.122ZM153.602 20.5391V44.461H163.772V40.1475H156.797V34.5889H163.322V30.3428H156.797V24.8516H163.592V20.5391H153.602ZM166.598 20.5391V24.8516H173.775L166.193 40.1475V44.461H177.713V40.1475H170.018L177.533 24.8516V20.5391H166.598ZM193.173 20.5391V44.461H196.099V29.3028L197.966 41.1582H199.901L201.768 29.3028V44.461H204.693V20.5391H201.093L198.933 33.1954L196.774 20.5391H193.173ZM220.83 20.5391V24.8516H224.317V40.1475H220.83V44.461H231V40.1475H227.512V24.8516H231V20.5391H220.83ZM77.5192 24.2452C78.1191 24.2452 78.622 24.5371 79.027 25.1211C79.4318 25.7051 79.7389 26.6146 79.9489 27.8496C80.1588 29.0626 80.2643 30.624 80.2643 32.5332C80.2643 34.4425 80.1589 36.0039 79.9489 37.2168C79.7389 38.4296 79.4319 39.3282 79.027 39.9121C78.622 40.4737 78.1191 40.7539 77.5192 40.7539C76.9344 40.7539 76.4322 40.4735 76.0123 39.9121C75.6074 39.3282 75.2995 38.4297 75.0895 37.2168C74.8795 36.0039 74.775 34.4425 74.775 32.5332C74.775 30.624 74.8795 29.0626 75.0895 27.8496C75.2995 26.6144 75.6074 25.7051 76.0123 25.1211C76.4323 24.5372 76.9343 24.2452 77.5192 24.2452ZM212.424 24.2452C213.024 24.2453 213.526 24.5372 213.931 25.1211C214.336 25.7051 214.644 26.6144 214.854 27.8496C215.064 29.0626 215.169 30.624 215.169 32.5332C215.169 34.4425 215.064 36.0039 214.854 37.2168C214.644 38.4297 214.336 39.3282 213.931 39.9121C213.526 40.4735 213.024 40.7538 212.424 40.7539C211.84 40.7539 211.337 40.4737 210.917 39.9121C210.512 39.3282 210.204 38.4297 209.994 37.2168C209.784 36.0039 209.679 34.4425 209.679 32.5332C209.679 30.624 209.784 29.0626 209.994 27.8496C210.204 26.6145 210.512 25.7051 210.917 25.1211C211.337 24.5371 211.839 24.2452 212.424 24.2452ZM119.508 35.1954H116.473L117.991 26.334L119.508 35.1954Z" fill="#FF6900"/>
</svg>
