<svg width="273" height="102" viewBox="0 0 273 102" fill="none" xmlns="http://www.w3.org/2000/svg">
<mask id="path-1-inside-1_101_33" fill="white">
<path d="M56.1282 74.6696C56.9083 74.1187 57.1909 74.255 57.5633 75.3618C57.7425 75.8946 57.9464 76.3424 58.0164 76.3569C58.3202 76.42 58.8156 75.7567 59.1474 74.8427C59.3444 74.2997 59.6492 73.7798 59.8247 73.6873C60.1316 73.5255 62.4951 74.6176 63.1026 75.202C63.3312 75.4219 63.4698 75.3249 63.7192 74.7701C64.0365 74.0641 64.045 74.0641 64.3458 74.7663C64.6124 75.3884 64.9472 75.5515 67.0067 76.0623C68.3041 76.384 69.4691 76.5194 69.5997 76.3637C70.1206 75.742 70.6637 75.6901 71.4819 76.184C72.4171 76.7483 72.8343 76.5818 73.2216 75.4894C73.7675 73.9499 75.1857 73.6219 75.9611 74.8558C76.3504 75.4751 76.4104 75.4886 76.7146 75.0242C76.8964 74.7467 77.1694 74.5474 77.3213 74.5813C77.4731 74.6152 77.6895 74.4268 77.8021 74.1627C77.9147 73.8985 78.1746 73.7147 78.3797 73.7542C78.6184 73.8003 78.9031 73.5458 79.1711 73.0469C79.5251 72.3879 79.6365 72.3267 79.8934 72.6502C80.0604 72.8606 80.4388 72.9937 80.7344 72.946C81.4864 72.8245 81.7217 73.1989 81.5828 74.296C81.4885 75.0414 81.5053 75.158 81.7139 75.2046C81.8455 75.234 82.2425 74.9079 82.5961 74.48C83.6232 73.2371 84.094 73.1521 85.0941 74.0289C85.9824 74.8076 87.2127 74.9612 87.5271 74.3326C87.6398 74.1074 87.6481 74.0321 87.5628 74.0088C87.5017 73.9921 87.4856 73.711 87.5271 73.384C87.6907 72.0956 88.5097 72.1099 89.5008 73.4185C90.1915 74.3303 90.2489 74.3494 92.233 74.3257C95.8405 74.2828 96.7922 74.4351 97.2667 75.1309C97.6065 75.6292 97.5447 76.4649 97.1853 76.2316C97.0545 76.1467 96.8571 76.283 96.7467 76.5344C96.5506 76.981 96.5495 77.0017 96.6953 77.4379C96.81 77.7807 97.154 77.818 98.1781 77.5986C98.9115 77.4415 99.7852 77.2706 100.12 77.2188C100.577 77.1478 100.738 76.994 100.77 76.5963C100.797 76.2565 100.741 76.0834 100.613 76.1109C100.473 76.1409 100.411 75.9011 100.405 75.3005L100.395 74.4474L99.8925 75.2428C99.3917 76.0355 98.3212 76.5093 98.6456 75.7946C98.7314 75.6055 98.8818 75.4663 98.9799 75.4852C99.0779 75.5041 99.4119 75.0872 99.7221 74.5588C100.415 73.3782 101.128 73.1192 102.737 73.4637C103.388 73.6031 104.235 73.6294 104.62 73.5222C105.005 73.4151 105.958 73.3092 106.739 73.2869C107.519 73.2647 108.573 73.0133 109.081 72.7283C109.697 72.3831 110.349 72.2849 111.035 72.4342C112.025 72.6496 112.085 72.6211 112.57 71.7083C113.182 70.555 113.592 70.5651 114.205 71.7489C114.626 72.5617 114.756 72.6139 117.315 72.9962C118.784 73.2156 120.321 73.3087 120.731 73.2029C121.836 72.9174 123.456 72.7212 125.149 72.6673C127.416 72.5951 127.381 72.5921 130.602 73.1478C133.16 73.589 133.828 73.5903 135.094 73.1562C136.428 72.6986 136.584 72.7043 136.611 73.211C136.647 73.8796 136.971 73.871 138.454 73.1624C139.733 72.5515 143.104 72.4737 144.125 73.0315C144.491 73.2314 147.49 73.2627 149.097 73.0833C150.552 72.921 155.222 73.5557 155.782 73.9918C156.038 74.1908 156.235 74.4946 156.222 74.6668C156.17 75.3114 155.432 75.5736 154.13 75.4095C152.696 75.2287 151.945 75.5767 151.875 76.4549C151.84 76.8932 151.919 76.9543 152.34 76.8181C152.618 76.7281 153.17 76.7068 153.566 76.7707C153.986 76.8385 154.385 76.7113 154.524 76.4655C154.668 76.2117 154.877 76.1514 155.051 76.314C155.466 76.7014 159.168 76.8635 159.806 76.5222C160.102 76.3641 160.395 76.078 160.458 75.8863C160.536 75.6446 160.197 75.5277 159.351 75.5047C158.68 75.4864 158.142 75.3458 158.155 75.1922C158.298 73.4885 159.339 72.7884 160.256 73.7785C160.719 74.2777 160.881 74.3116 161.24 73.9848C161.476 73.7697 161.874 73.5728 162.124 73.5472C162.592 73.4992 163.926 74.439 164.049 74.904C164.087 75.0478 163.75 75.1849 163.3 75.2086C161.028 75.3286 160.717 75.468 160.844 76.309C160.868 76.4655 162.544 76.9677 164.568 77.4253C168.24 78.2551 169.278 78.7656 170.48 80.3311C170.647 80.5498 171.175 80.7237 171.651 80.7176C172.367 80.7085 172.529 80.8046 172.582 81.2704C172.637 81.7487 172.589 81.9473 172.265 82.5802L171.884 83.3262L172.143 83.6263C172.579 84.1305 174.058 84.3395 174.176 83.9137C174.235 83.702 174.346 83.0815 174.421 82.535L174.559 81.5412L174.278 82.2248C174.035 82.8132 173.926 82.8615 173.495 82.5719C172.953 82.2077 172.892 81.9444 173.008 80.4665C173.096 79.3435 173.185 79.2993 173.632 80.158C174.066 80.9925 174.242 80.9767 174.877 80.0464L175.426 79.2418L176.226 80.203C177.051 81.1942 177.395 81.8631 177.05 81.8069C176.951 81.7908 176.809 81.9869 176.735 82.2429C176.513 83.0049 176.748 83.2611 178.227 83.8662C178.981 84.1748 179.691 84.6338 179.803 84.8864C180.068 85.4789 180.326 85.5313 180.368 85.001C180.386 84.7715 180.506 84.2549 180.635 83.8531L180.869 83.1226L180.623 82.2998C180.241 81.0211 180.408 80.6102 181.275 80.7008C182.14 80.7913 182.75 81.4464 182.83 82.3731C182.925 83.4602 183.177 83.9284 183.903 84.3697C184.439 84.6948 184.613 84.9439 184.638 85.4201C184.656 85.7634 184.721 85.9475 184.781 85.8291C184.842 85.7108 185.243 85.6693 185.673 85.7368C186.28 85.8323 186.496 85.7349 186.643 85.2995C186.9 84.5349 187.48 84.0986 187.782 84.4415C187.919 84.5969 188.073 85.1213 188.124 85.6068C188.211 86.4418 188.274 86.51 189.286 86.8672C189.887 87.0791 190.584 87.1184 190.875 86.9566C191.322 86.7078 191.419 86.758 191.588 87.3227C191.864 88.2465 191.927 88.1772 192.096 86.7606C192.423 84.0249 192.668 83.9773 193.825 86.4256C194.872 88.6414 195.151 89.0006 195.213 88.216C195.263 87.5872 194.953 86.7424 194.49 86.2456C194.15 85.8801 194.145 85.4329 194.475 84.9505C194.655 84.6882 194.847 84.8209 195.35 85.5545C195.704 86.0716 196.234 86.8026 196.528 87.1791L197.063 87.8635L197.573 87.0115C198.199 85.9644 198.282 85.9773 198.655 87.1789C198.984 88.2395 199.064 88.3501 199.107 87.8051C199.123 87.6025 199.044 87.1414 198.931 86.7805C198.819 86.4197 198.748 85.8501 198.775 85.5148C198.89 84.0482 199.508 84.5771 201.464 87.8174C202.405 89.375 202.656 89.3874 202.553 87.8712C202.489 86.9343 202.485 86.9636 202.797 86.3193C203.057 85.7838 203.081 85.7974 203.416 86.663C203.72 87.4468 203.806 87.5178 204.076 87.2078C204.485 86.7377 204.617 86.791 204.902 87.5422C205.129 88.1402 205.162 88.1359 205.577 87.4545C206.122 86.5585 207.173 86.4566 207.707 87.2479C208.018 87.7088 209.388 88.3682 210.457 88.5719C210.62 88.6029 211.333 88.7697 212.041 88.9427C213.799 89.372 214.295 88.9852 213.465 87.831C213.123 87.3543 213.115 87.3064 213.318 86.8628C213.829 85.7423 213.952 85.7859 215.138 87.5092C216.222 89.0837 216.574 89.3549 217.639 89.4362C217.826 89.4506 218.478 89.7484 219.088 90.0981C219.892 90.5598 220.481 90.6884 221.238 90.5679C222.091 90.4322 226.911 91.3862 229.263 92.1561C229.539 92.2465 230.116 92.1695 230.545 91.9851C231.256 91.6796 231.404 91.7267 232.215 92.515C232.704 92.9907 233.243 93.3703 233.411 93.3584C233.579 93.3465 233.791 93.3686 233.883 93.4075C233.974 93.4464 234.347 93.6124 234.711 93.7764C235.076 93.9404 237.927 94.743 241.047 95.56C244.168 96.377 247.017 97.2008 247.38 97.3907C247.742 97.5806 249.951 98.2064 252.288 98.7814C254.626 99.3564 256.776 100 257.066 100.213C258.017 100.908 260.364 100.156 260.856 98.9981C261.148 98.3107 261.819 95.4625 262.252 93.0716C262.484 91.7891 263.075 89.1344 263.564 87.1721C264.054 85.2099 264.615 82.8258 264.811 81.8741C265.008 80.9224 265.248 79.9415 265.345 79.6944C265.578 79.102 265.851 77.7698 266.046 76.264C266.133 75.5936 266.364 74.2266 266.56 73.2261C266.807 71.9587 267.002 70.5104 267.201 68.4504C267.481 65.5663 267.483 65.4847 267.311 65.1302C267.205 64.9123 267.065 64.8829 266.961 65.0567C266.83 65.2754 266.799 65.208 266.833 64.7823C266.867 64.3552 266.826 64.2707 266.667 64.4346C266.425 64.684 264.898 64.3072 264.849 63.986C264.801 63.6688 265.087 62.5975 265.186 62.7239C265.233 62.7837 265.29 62.5949 265.314 62.3044C265.337 62.014 265.413 61.789 265.482 61.8046C265.552 61.8201 265.59 62.0705 265.567 62.361C265.543 62.6514 265.578 62.901 265.643 62.9156C265.72 62.9328 265.766 62.6921 265.774 62.2281C265.785 61.5577 265.827 61.5233 266.464 61.6657C266.838 61.7492 267.259 61.6765 267.401 61.5044C267.544 61.3322 267.82 61.1644 268.016 61.1315C268.323 61.08 268.469 60.7694 269.083 58.8709C269.544 57.4452 269.818 56.3767 269.861 55.8373C269.961 54.5681 269.926 51.9874 269.794 51.036C269.641 49.9337 268.954 48.7938 267.992 48.0487C267.193 47.4303 266.024 45.8833 265.584 44.862C265.443 44.5369 265.283 43.9244 265.228 43.5007C265.046 42.1128 264.651 41.8306 263.317 42.1358C261.586 42.5319 261.22 42.4082 261.078 41.3807C260.94 40.3785 260.91 38.6223 261.02 37.9914C261.069 37.7115 261.241 37.5618 261.462 37.6062C261.741 37.6622 262.018 37.3158 262.679 36.0864C263.149 35.2106 263.585 34.5055 263.647 34.5195C263.71 34.5334 263.965 35.1857 264.214 35.9689C264.662 37.3767 264.682 37.3999 265.955 37.994C267.437 38.686 269.255 39.0557 269.538 38.7226L269.732 38.4944L269.585 38.0562C269.505 37.8151 269.088 37.2865 268.66 36.8814C267.878 36.1417 267.434 35.3852 267.39 34.7164C267.331 33.8267 267.739 33.5231 269.035 33.4917C270.927 33.4458 271.127 33.0631 270.505 30.6796C269.97 28.6274 269.371 27.8643 267.958 27.4345C267.267 27.2243 266.628 27.1736 266.538 27.3217C266.438 27.4875 266.234 27.3487 266.009 26.9608C265.781 26.5681 265.049 26.0748 264.067 25.6523C263.2 25.2793 262.173 24.7934 261.784 24.5724C261.184 24.2314 261.03 24.2578 260.77 24.7468C260.473 25.3036 260.395 25.2819 258.47 24.1071C256.422 22.8565 254.83 22.3848 249.934 21.5775C248.564 21.3518 247.569 21.037 247.381 20.77C246.932 20.1337 245.486 19.8251 244.8 20.2192C244.327 20.4912 244.14 20.4566 243.87 20.0463C243.483 19.4587 243.069 19.2995 238.598 18.0185C236.802 17.5041 235.32 17.0013 235.305 16.9012C235.29 16.8011 235.227 16.8273 235.165 16.9596C235.103 17.0918 233.674 16.8059 231.99 16.3242C230.306 15.8424 228.671 15.5234 228.357 15.6152C227.629 15.8278 225.347 15.645 222.858 15.1747C217.799 14.2188 211.019 14.2874 209.557 15.3092C209.214 15.549 208.991 15.4881 208.578 15.0428C208.284 14.7253 207.871 14.5278 207.66 14.6039C207.449 14.68 205.698 14.5586 203.769 14.3341C201.84 14.1097 199.803 13.9887 199.243 14.0653C198.683 14.1419 197.379 14.154 196.346 14.0922C195.22 14.0248 194.186 14.1519 193.764 14.4093C193.185 14.7633 192.953 14.7465 192.442 14.314C191.283 13.3322 181.954 12.8339 181.599 13.7348C181.379 14.2944 179.785 13.9199 179.342 13.2045C178.839 12.3913 177.279 12.0999 175.368 12.4618C174.421 12.6412 173.628 12.602 173.168 12.3528C172.688 12.0932 172.377 12.0845 172.235 12.3266C172.089 12.5773 171.223 12.5099 169.443 12.1092C167.734 11.7247 166.527 11.6233 165.871 11.8088C165.325 11.963 164.586 12.0251 164.229 11.947C163.872 11.8688 163.225 11.8946 162.792 12.0044C162.359 12.1142 161.43 12.1355 160.729 12.0516C160.028 11.9678 158.745 11.9153 157.879 11.935C157.012 11.9547 156.274 11.8678 156.238 11.7419C156.202 11.616 155.859 11.7203 155.476 11.9737C154.904 12.3514 154.523 12.3412 153.361 11.9171C152.348 11.5472 151.716 11.4924 151.145 11.7251C150.706 11.9041 150.122 11.9726 149.846 11.8773C149.571 11.782 148.798 11.7938 148.128 11.9034C147.419 12.0196 146.422 11.9172 145.739 11.6577C145.094 11.413 144.494 11.3426 144.405 11.5013C144.316 11.66 143.315 11.6645 142.18 11.5114C141.045 11.3583 139.498 11.2389 138.742 11.246C137.987 11.2532 136.52 11.246 135.483 11.23C134.446 11.2141 133.067 11.324 132.418 11.4744C131.157 11.7664 130.241 11.7432 129.506 11.4008C129.256 11.2842 128.353 11.2307 127.5 11.282C126.646 11.3333 125.453 11.2851 124.848 11.1749C123.582 10.944 121.933 10.942 120.559 11.1696C120.033 11.2567 118.162 11.2367 116.401 11.1252C113.207 10.9229 110.655 11.1532 110.147 11.6897C109.999 11.8455 109.853 11.8828 109.822 11.7725C109.791 11.6623 108.66 11.4866 107.31 11.3821C105.022 11.205 103.073 11.4277 101.774 12.0147C101.472 12.1509 100.993 12.1002 100.708 11.9021C100.37 11.6673 99.912 11.6702 99.3908 11.9103C98.9113 12.1311 98.0682 12.162 97.2845 11.9875C96.5658 11.8274 95.6024 11.8042 95.1436 11.9358C94.6849 12.0674 93.9841 12.1404 93.5863 12.0979C92.6783 12.0009 90.8056 12.3125 90.3257 12.6404C90.1261 12.7769 89.5825 12.8145 89.1178 12.724C88.6531 12.6336 88.0909 12.6633 87.8684 12.7901C87.4225 13.0443 85.6021 13.1747 83.0361 13.1364C81.9228 13.1198 80.9647 13.3249 80.1658 13.7509C79.1979 14.267 78.7044 14.3328 77.6075 14.0923C76.156 13.774 74.8153 13.8391 73.1185 14.3103C71.6081 14.7298 69.3753 14.9107 68.1962 14.7092C67.6375 14.6137 67.0146 14.6786 66.8119 14.8534C66.6092 15.0281 66.2536 15.1301 66.0217 15.08C65.7897 15.0299 65.2385 15.1646 64.7967 15.3793C64.3443 15.5992 63.819 15.642 63.5941 15.4772C63.3745 15.3164 62.8121 15.3483 62.3444 15.5483C61.8766 15.7483 60.9012 15.8394 60.1768 15.7508C59.4524 15.6622 58.5811 15.6947 58.2405 15.8229C57.9 15.9512 57.2987 15.987 56.9043 15.9025C56.2076 15.7533 55.801 15.8239 53.6852 16.4614C51.1905 17.2131 49.4133 17.4646 47.9579 17.2718C47.094 17.1573 46.1837 17.1949 45.935 17.3552C45.6863 17.5156 44.7302 17.643 43.8104 17.6383C42.8905 17.6336 41.6261 17.7538 41.0006 17.9055C40.3751 18.0573 39.3503 18.0775 38.7233 17.9507C38.0963 17.8239 37.1862 17.8586 36.7008 18.0278C35.0298 18.6105 33.1153 18.8512 32.1508 18.5999C31.6191 18.4614 31.1202 18.4235 31.0421 18.5156C30.964 18.6077 29.5596 18.7896 27.9211 18.9197C26.2827 19.0499 24.4294 19.2926 23.8027 19.4592C23.176 19.6258 21.9503 19.7443 21.0791 19.7225C20.2078 19.7007 19.36 19.813 19.1952 19.972C19.0304 20.131 18.5351 20.2908 18.0945 20.3272C17.6539 20.3636 16.99 20.5672 16.6192 20.7796C16.2483 20.992 15.6319 21.218 15.2493 21.2818C14.8667 21.3456 13.9135 21.6796 13.1311 22.0239C12.3487 22.3683 11.4134 22.5845 11.0527 22.5044C10.0335 22.2781 7.90778 22.8257 7.30175 23.4707C7.00081 23.7911 6.68339 24.0372 6.59638 24.0178C6.37153 23.9675 5.23299 26.353 4.97052 27.4244C4.82689 28.0106 4.66306 29.2614 4.50022 31.015C4.28178 33.3674 4.25261 34.1088 4.26841 36.9069C4.28105 39.1443 4.24334 40.4841 4.14313 41.3581C4.06428 42.0458 3.91578 43.3301 3.81313 44.2122C3.65311 45.5872 3.64157 46.0339 3.73226 47.3427C3.79045 48.1823 3.922 49.5127 4.02461 50.299L4.21118 51.7287L3.7933 52.653C3.42097 53.4766 3.36253 53.7368 3.2572 55.0409C3.14821 56.3902 3.1031 56.576 2.67945 57.4201C2.18513 58.4051 2.02899 59.1053 2.00316 60.4529C1.97527 61.9082 2.16637 62.1241 2.9616 61.5354C3.35795 61.242 4.17625 60.9457 4.78004 60.877C5.38383 60.8082 6.05571 60.5529 6.2731 60.3096C6.4905 60.0664 6.75134 59.8859 6.85275 59.9086C7.06179 59.9553 7.51637 58.6377 7.8493 57.0202C7.9727 56.4207 8.28042 53.99 8.53311 51.6188C8.93657 47.8328 9.09059 46.7619 9.79724 42.829C10.2398 40.3658 10.6693 38.1457 10.7515 37.8953C10.9169 37.3923 12.1941 36.3843 12.5663 36.4631C12.6962 36.4906 12.8968 36.7844 13.012 37.1159C13.1273 37.4475 13.5025 37.8942 13.8459 38.1086C14.4687 38.4973 14.4702 38.5013 14.4496 39.689C14.4318 40.7123 14.4949 41.0443 14.8986 42.0505C15.157 42.6945 15.5492 43.3565 15.7701 43.5216C16.1541 43.8086 16.1663 43.862 16.0459 44.7263C15.9767 45.2237 15.8029 46.1932 15.6598 46.8807C15.5167 47.5683 15.4147 48.2308 15.4333 48.353C15.4518 48.4752 15.6176 48.6089 15.8016 48.65C16.1211 48.7214 18.34 51.1527 18.6427 51.763C18.7707 52.021 18.7346 52.1751 18.3291 53.1032C17.6518 54.6536 17.2632 54.926 16.6269 54.2966C16.0844 53.7599 15.0024 53.8412 14.4943 54.4568C14.2916 54.7022 14.2595 54.8588 14.2881 55.4629C14.349 56.7517 14.8499 57.1855 16.056 56.994C18.5952 56.5909 20.4616 56.7208 21.2815 57.3578C22.0628 57.9648 22.0915 57.9609 23.1931 57.0967C24.5039 56.0685 24.8239 56.1959 25.1282 57.8674C25.4033 59.3778 25.8609 59.5316 26.5517 58.3459C26.91 57.731 27.1888 57.5151 27.5958 57.5373C28.2481 57.5729 28.6351 57.3326 28.8594 56.753C29.058 56.2398 31.1362 56.8304 31.5438 57.5158C31.6892 57.7603 31.9985 58.0029 32.2311 58.0549C32.5617 58.1288 32.6889 58.0019 32.8141 57.4733C32.9023 57.1015 33.1368 56.5757 33.3353 56.3049C33.6537 55.8704 35.2497 55.4649 36.0718 55.6096C36.2347 55.6382 36.7639 55.5386 37.2477 55.3882C37.7316 55.2378 38.7803 55.1588 39.5783 55.2124C40.8612 55.2987 41.1126 55.4147 41.75 56.2141C42.1465 56.7113 42.6136 57.1498 42.7879 57.1885C43.3709 57.3179 44.5646 56.5669 44.8636 55.8826C45.2831 54.9225 45.8701 54.8202 46.3633 55.6211C46.8301 56.3791 47.3196 56.5891 47.3625 56.0497C47.3784 55.8499 47.3219 55.5463 47.237 55.3751C47.1013 55.1014 47.1024 55.0134 47.2465 54.6472C47.4278 54.1864 47.7224 54.7603 47.6664 55.465C47.647 55.7086 47.7502 55.7839 47.9551 55.6758L48.2739 55.5077L48.0729 56.3281C47.7581 57.6132 47.1755 58.312 46.7293 57.9399C46.522 57.7671 46.1095 57.7216 45.8126 57.8388C45.5157 57.956 44.9172 58.1532 44.4827 58.2771C43.0865 58.675 42.4348 59.194 42.5315 59.8309C42.5888 60.2084 43.9147 60.3895 44.5755 60.1102C45.2795 59.8126 46.974 60.6702 47.6827 61.6827C47.9667 62.0884 48.4331 62.3554 48.9711 62.4202C49.659 62.503 49.8472 62.6461 49.9933 63.1971C50.0919 63.5685 50.1617 64.008 50.1485 64.1737C50.1062 64.7049 49.6192 65.1085 48.9996 65.1259C48.3236 65.1448 47.755 65.8952 47.7248 66.8083C47.6966 67.6584 48.2469 68.4046 49.2141 68.828C49.9361 69.144 50.0616 69.2998 50.1376 69.9746C50.2669 71.1208 50.2198 71.3387 49.7684 71.6837C49.3475 72.0053 48.9827 72.8555 49.1994 73.0095C49.2607 73.0531 50.0847 73.3114 51.0304 73.5836C51.9762 73.8557 53.2177 74.2661 53.7893 74.4954C55.2697 75.0893 55.5087 75.1071 56.1282 74.6696Z"/>
<path d="M73.5604 75.1742C73.4541 75.1504 73.3342 75.6832 73.3792 75.9795C73.4426 76.3973 73.5544 76.2645 73.5977 75.72C73.6208 75.4295 73.604 75.1839 73.5604 75.1742Z"/>
<path d="M20.8205 61.7652C20.7221 61.4182 20.457 61.792 20.4865 62.2361C20.5171 62.699 20.829 62.7883 20.8643 62.3442C20.8788 62.162 20.8591 61.9015 20.8205 61.7652Z"/>
<path d="M22.6533 61.0861C22.4954 60.7557 22.3351 61.1127 22.2692 61.9415C22.1997 62.8148 22.3024 62.833 22.5637 61.9937C22.7482 61.4009 22.7577 61.3046 22.6533 61.0861Z"/>
<path d="M93.9766 76.6773C93.605 76.8199 93.4987 77.0729 93.5814 77.6177C93.6534 78.0922 94.4104 78.052 94.5519 77.5661C94.7468 76.8968 94.4797 76.4843 93.9766 76.6773Z"/>
<path d="M28.1078 60.271C26.806 59.9751 25.5491 60.6169 25.4695 61.6181C25.437 62.027 27.0941 62.3534 28.0326 62.1229C28.8552 61.9208 29.3542 61.3211 29.4233 60.4515C29.4547 60.0568 29.421 59.9948 29.2923 60.2104C29.1971 60.3702 28.664 60.3975 28.1078 60.271Z"/>
<path d="M101.882 76.201C101.253 75.9516 100.921 76.3182 101.121 77.0426C101.281 77.6233 101.835 77.6014 102.179 77.0008L102.498 76.445L101.882 76.201Z"/>
<path d="M22.7264 58.4392C22.5513 58.4001 22.4694 58.758 22.5429 59.2418C22.595 59.5854 22.7535 59.3944 22.8354 58.8891C22.8727 58.6597 22.8245 58.4611 22.7264 58.4392Z"/>
<path d="M23.4243 58.6066C23.3262 58.5784 23.1797 58.7824 23.0989 59.0599C22.8984 59.7488 23.1138 59.8051 23.3981 59.1382C23.5988 58.6673 23.5993 58.6568 23.4243 58.6066Z"/>
<path d="M32.3816 59.6297C31.9842 59.6102 31.7768 60.0434 31.6921 61.0699C31.6654 61.3926 31.8791 61.5596 32.4947 61.6971C33.4827 61.9179 34.1307 61.5779 34.5192 60.6348C34.7686 60.0294 34.7873 59.912 34.6852 59.5911C34.622 59.3923 34.4594 59.3236 34.324 59.4384C34.1007 59.6276 33.5155 59.6852 32.3816 59.6297Z"/>
<path d="M103.39 76.1068C103.316 76.0904 103.236 76.3279 103.212 76.6345C103.188 76.9411 103.218 77.1393 103.279 77.0749C103.453 76.8922 103.539 76.1401 103.39 76.1068Z"/>
<path d="M104.935 75.6831C104.191 75.9843 104.033 76.1912 104.164 76.6901C104.252 77.0256 105.753 77.3866 105.983 77.1274C106.048 77.0542 106.118 76.7808 106.138 76.5198C106.198 75.771 105.653 75.3923 104.935 75.6831Z"/>
<path d="M106.934 75.8237C106.858 75.8069 106.778 76.0308 106.755 76.3213C106.732 76.6118 106.727 76.8526 106.745 76.8565C106.762 76.8604 106.843 76.6365 106.923 76.359C107.044 75.9457 107.046 75.8488 106.934 75.8237Z"/>
<path d="M108.241 75.9259C108.137 75.56 107.543 75.9292 107.571 76.3426C107.6 76.7878 108.141 76.914 108.239 76.4985C108.28 76.3242 108.28 76.0665 108.241 75.9259Z"/>
<path d="M39.8542 59.9641C39.7473 59.5868 38.4157 59.7654 38.3205 60.1698C38.2805 60.3401 38.5403 60.5287 38.9091 60.597C39.6176 60.7283 39.9985 60.4733 39.8542 59.9641Z"/>
<path d="M34.043 57.3848C33.9967 57.3744 33.9391 57.613 33.9151 57.9148C33.8911 58.2167 33.9171 58.3743 33.973 58.265C34.0289 58.1557 34.0865 57.9171 34.101 57.7349C34.1155 57.5527 34.0894 57.3951 34.043 57.3848Z"/>
<path d="M123.756 75.6415C123.503 75.5848 123.264 75.8752 123.232 76.2793C123.204 76.6352 123.621 76.7985 123.849 76.5204C124.057 76.2658 123.997 75.6952 123.756 75.6415Z"/>
<path d="M125.504 75.5086C125.163 75.6644 125.143 75.7181 125.254 76.1987C125.406 76.8566 125.594 76.9022 125.84 76.3411C126.12 75.7051 125.957 75.3019 125.504 75.5086Z"/>
<path d="M131.038 75.2273C129.017 75.0344 128.273 75.375 128.547 76.3677C128.665 76.7961 128.571 76.7785 129.897 76.6222C130.492 76.5521 131.483 76.5526 132.098 76.6233C133.338 76.7659 133.786 76.592 133.785 75.9688C133.785 75.5095 133.67 75.4785 131.038 75.2273Z"/>
<path d="M136.612 75.2178C136.088 75.1006 135.751 75.5623 135.922 76.1639C136.028 76.539 136.959 76.4729 137.099 76.0803C137.279 75.5736 137.146 75.337 136.612 75.2178Z"/>
<path d="M167.339 82.1365C166.575 82.4413 166.464 82.5659 166.497 83.0762C166.516 83.3542 166.678 83.4192 167.022 83.2861C167.297 83.18 167.859 83.1686 168.272 83.2607C169.07 83.4385 169.354 82.9686 168.956 82.1297C168.745 81.6863 168.465 81.6875 167.339 82.1365Z"/>
<path d="M138.724 75.9405C138.735 75.4104 138.294 75.4101 138.208 75.9402C138.154 76.2716 138.214 76.3834 138.425 76.3472C138.586 76.3198 138.721 76.1368 138.724 75.9405Z"/>
<path d="M140.439 75.6285C140.288 76.1499 140.329 76.314 140.704 76.6737C140.896 76.8583 141.308 76.824 141.709 76.59C141.815 76.5282 141.941 76.2546 141.988 75.982C142.114 75.2663 140.643 74.9306 140.439 75.6285Z"/>
<path d="M143.259 75.3559C142.486 75.5459 142.175 75.9239 142.221 76.6193C142.235 76.8376 142.438 76.9214 142.739 76.8332C143.011 76.7535 143.568 76.647 143.977 76.5965C144.742 76.5018 144.978 76.2798 144.94 75.6922C144.91 75.2507 144.237 75.1158 143.259 75.3559Z"/>
<path d="M175.582 82.5701C175.472 82.7593 175.391 83.0624 175.403 83.2436C175.434 83.719 175.696 83.3233 175.744 82.729C175.775 82.333 175.741 82.2992 175.582 82.5701Z"/>
<path d="M176.078 82.8583C175.989 82.5434 175.797 82.9254 175.826 83.3606C175.838 83.5468 175.882 83.7067 175.923 83.7158C176.041 83.7422 176.153 83.1227 176.078 82.8583Z"/>
<path d="M147.641 75.2985C146.598 75.1901 146.311 75.3869 146.502 76.0801C146.635 76.5618 147.866 76.8143 148.294 76.4477C148.984 75.8558 148.732 75.4117 147.641 75.2985Z"/>
<path d="M149.373 75.5562C149.144 75.3553 149.011 75.789 149.106 76.4204C149.128 76.5627 149.205 76.6068 149.277 76.5183C149.35 76.4298 149.444 76.3652 149.486 76.3747C149.681 76.4181 149.587 75.7449 149.373 75.5562Z"/>
<path d="M150.548 75.8774C150.537 76.0162 150.545 76.241 150.566 76.377C150.624 76.7576 150.9 76.7356 151.137 76.3318C151.348 75.971 151.349 75.9648 151.2 75.666C151.035 75.3326 150.58 75.4801 150.548 75.8774Z"/>
</mask>
<path d="M56.1282 74.6696C56.9083 74.1187 57.1909 74.255 57.5633 75.3618C57.7425 75.8946 57.9464 76.3424 58.0164 76.3569C58.3202 76.42 58.8156 75.7567 59.1474 74.8427C59.3444 74.2997 59.6492 73.7798 59.8247 73.6873C60.1316 73.5255 62.4951 74.6176 63.1026 75.202C63.3312 75.4219 63.4698 75.3249 63.7192 74.7701C64.0365 74.0641 64.045 74.0641 64.3458 74.7663C64.6124 75.3884 64.9472 75.5515 67.0067 76.0623C68.3041 76.384 69.4691 76.5194 69.5997 76.3637C70.1206 75.742 70.6637 75.6901 71.4819 76.184C72.4171 76.7483 72.8343 76.5818 73.2216 75.4894C73.7675 73.9499 75.1857 73.6219 75.9611 74.8558C76.3504 75.4751 76.4104 75.4886 76.7146 75.0242C76.8964 74.7467 77.1694 74.5474 77.3213 74.5813C77.4731 74.6152 77.6895 74.4268 77.8021 74.1627C77.9147 73.8985 78.1746 73.7147 78.3797 73.7542C78.6184 73.8003 78.9031 73.5458 79.1711 73.0469C79.5251 72.3879 79.6365 72.3267 79.8934 72.6502C80.0604 72.8606 80.4388 72.9937 80.7344 72.946C81.4864 72.8245 81.7217 73.1989 81.5828 74.296C81.4885 75.0414 81.5053 75.158 81.7139 75.2046C81.8455 75.234 82.2425 74.9079 82.5961 74.48C83.6232 73.2371 84.094 73.1521 85.0941 74.0289C85.9824 74.8076 87.2127 74.9612 87.5271 74.3326C87.6398 74.1074 87.6481 74.0321 87.5628 74.0088C87.5017 73.9921 87.4856 73.711 87.5271 73.384C87.6907 72.0956 88.5097 72.1099 89.5008 73.4185C90.1915 74.3303 90.2489 74.3494 92.233 74.3257C95.8405 74.2828 96.7922 74.4351 97.2667 75.1309C97.6065 75.6292 97.5447 76.4649 97.1853 76.2316C97.0545 76.1467 96.8571 76.283 96.7467 76.5344C96.5506 76.981 96.5495 77.0017 96.6953 77.4379C96.81 77.7807 97.154 77.818 98.1781 77.5986C98.9115 77.4415 99.7852 77.2706 100.12 77.2188C100.577 77.1478 100.738 76.994 100.77 76.5963C100.797 76.2565 100.741 76.0834 100.613 76.1109C100.473 76.1409 100.411 75.9011 100.405 75.3005L100.395 74.4474L99.8925 75.2428C99.3917 76.0355 98.3212 76.5093 98.6456 75.7946C98.7314 75.6055 98.8818 75.4663 98.9799 75.4852C99.0779 75.5041 99.4119 75.0872 99.7221 74.5588C100.415 73.3782 101.128 73.1192 102.737 73.4637C103.388 73.6031 104.235 73.6294 104.62 73.5222C105.005 73.4151 105.958 73.3092 106.739 73.2869C107.519 73.2647 108.573 73.0133 109.081 72.7283C109.697 72.3831 110.349 72.2849 111.035 72.4342C112.025 72.6496 112.085 72.6211 112.57 71.7083C113.182 70.555 113.592 70.5651 114.205 71.7489C114.626 72.5617 114.756 72.6139 117.315 72.9962C118.784 73.2156 120.321 73.3087 120.731 73.2029C121.836 72.9174 123.456 72.7212 125.149 72.6673C127.416 72.5951 127.381 72.5921 130.602 73.1478C133.16 73.589 133.828 73.5903 135.094 73.1562C136.428 72.6986 136.584 72.7043 136.611 73.211C136.647 73.8796 136.971 73.871 138.454 73.1624C139.733 72.5515 143.104 72.4737 144.125 73.0315C144.491 73.2314 147.49 73.2627 149.097 73.0833C150.552 72.921 155.222 73.5557 155.782 73.9918C156.038 74.1908 156.235 74.4946 156.222 74.6668C156.17 75.3114 155.432 75.5736 154.13 75.4095C152.696 75.2287 151.945 75.5767 151.875 76.4549C151.84 76.8932 151.919 76.9543 152.34 76.8181C152.618 76.7281 153.17 76.7068 153.566 76.7707C153.986 76.8385 154.385 76.7113 154.524 76.4655C154.668 76.2117 154.877 76.1514 155.051 76.314C155.466 76.7014 159.168 76.8635 159.806 76.5222C160.102 76.3641 160.395 76.078 160.458 75.8863C160.536 75.6446 160.197 75.5277 159.351 75.5047C158.68 75.4864 158.142 75.3458 158.155 75.1922C158.298 73.4885 159.339 72.7884 160.256 73.7785C160.719 74.2777 160.881 74.3116 161.24 73.9848C161.476 73.7697 161.874 73.5728 162.124 73.5472C162.592 73.4992 163.926 74.439 164.049 74.904C164.087 75.0478 163.75 75.1849 163.3 75.2086C161.028 75.3286 160.717 75.468 160.844 76.309C160.868 76.4655 162.544 76.9677 164.568 77.4253C168.24 78.2551 169.278 78.7656 170.48 80.3311C170.647 80.5498 171.175 80.7237 171.651 80.7176C172.367 80.7085 172.529 80.8046 172.582 81.2704C172.637 81.7487 172.589 81.9473 172.265 82.5802L171.884 83.3262L172.143 83.6263C172.579 84.1305 174.058 84.3395 174.176 83.9137C174.235 83.702 174.346 83.0815 174.421 82.535L174.559 81.5412L174.278 82.2248C174.035 82.8132 173.926 82.8615 173.495 82.5719C172.953 82.2077 172.892 81.9444 173.008 80.4665C173.096 79.3435 173.185 79.2993 173.632 80.158C174.066 80.9925 174.242 80.9767 174.877 80.0464L175.426 79.2418L176.226 80.203C177.051 81.1942 177.395 81.8631 177.05 81.8069C176.951 81.7908 176.809 81.9869 176.735 82.2429C176.513 83.0049 176.748 83.2611 178.227 83.8662C178.981 84.1748 179.691 84.6338 179.803 84.8864C180.068 85.4789 180.326 85.5313 180.368 85.001C180.386 84.7715 180.506 84.2549 180.635 83.8531L180.869 83.1226L180.623 82.2998C180.241 81.0211 180.408 80.6102 181.275 80.7008C182.14 80.7913 182.75 81.4464 182.83 82.3731C182.925 83.4602 183.177 83.9284 183.903 84.3697C184.439 84.6948 184.613 84.9439 184.638 85.4201C184.656 85.7634 184.721 85.9475 184.781 85.8291C184.842 85.7108 185.243 85.6693 185.673 85.7368C186.28 85.8323 186.496 85.7349 186.643 85.2995C186.9 84.5349 187.48 84.0986 187.782 84.4415C187.919 84.5969 188.073 85.1213 188.124 85.6068C188.211 86.4418 188.274 86.51 189.286 86.8672C189.887 87.0791 190.584 87.1184 190.875 86.9566C191.322 86.7078 191.419 86.758 191.588 87.3227C191.864 88.2465 191.927 88.1772 192.096 86.7606C192.423 84.0249 192.668 83.9773 193.825 86.4256C194.872 88.6414 195.151 89.0006 195.213 88.216C195.263 87.5872 194.953 86.7424 194.49 86.2456C194.15 85.8801 194.145 85.4329 194.475 84.9505C194.655 84.6882 194.847 84.8209 195.35 85.5545C195.704 86.0716 196.234 86.8026 196.528 87.1791L197.063 87.8635L197.573 87.0115C198.199 85.9644 198.282 85.9773 198.655 87.1789C198.984 88.2395 199.064 88.3501 199.107 87.8051C199.123 87.6025 199.044 87.1414 198.931 86.7805C198.819 86.4197 198.748 85.8501 198.775 85.5148C198.89 84.0482 199.508 84.5771 201.464 87.8174C202.405 89.375 202.656 89.3874 202.553 87.8712C202.489 86.9343 202.485 86.9636 202.797 86.3193C203.057 85.7838 203.081 85.7974 203.416 86.663C203.72 87.4468 203.806 87.5178 204.076 87.2078C204.485 86.7377 204.617 86.791 204.902 87.5422C205.129 88.1402 205.162 88.1359 205.577 87.4545C206.122 86.5585 207.173 86.4566 207.707 87.2479C208.018 87.7088 209.388 88.3682 210.457 88.5719C210.62 88.6029 211.333 88.7697 212.041 88.9427C213.799 89.372 214.295 88.9852 213.465 87.831C213.123 87.3543 213.115 87.3064 213.318 86.8628C213.829 85.7423 213.952 85.7859 215.138 87.5092C216.222 89.0837 216.574 89.3549 217.639 89.4362C217.826 89.4506 218.478 89.7484 219.088 90.0981C219.892 90.5598 220.481 90.6884 221.238 90.5679C222.091 90.4322 226.911 91.3862 229.263 92.1561C229.539 92.2465 230.116 92.1695 230.545 91.9851C231.256 91.6796 231.404 91.7267 232.215 92.515C232.704 92.9907 233.243 93.3703 233.411 93.3584C233.579 93.3465 233.791 93.3686 233.883 93.4075C233.974 93.4464 234.347 93.6124 234.711 93.7764C235.076 93.9404 237.927 94.743 241.047 95.56C244.168 96.377 247.017 97.2008 247.38 97.3907C247.742 97.5806 249.951 98.2064 252.288 98.7814C254.626 99.3564 256.776 100 257.066 100.213C258.017 100.908 260.364 100.156 260.856 98.9981C261.148 98.3107 261.819 95.4625 262.252 93.0716C262.484 91.7891 263.075 89.1344 263.564 87.1721C264.054 85.2099 264.615 82.8258 264.811 81.8741C265.008 80.9224 265.248 79.9415 265.345 79.6944C265.578 79.102 265.851 77.7698 266.046 76.264C266.133 75.5936 266.364 74.2266 266.56 73.2261C266.807 71.9587 267.002 70.5104 267.201 68.4504C267.481 65.5663 267.483 65.4847 267.311 65.1302C267.205 64.9123 267.065 64.8829 266.961 65.0567C266.83 65.2754 266.799 65.208 266.833 64.7823C266.867 64.3552 266.826 64.2707 266.667 64.4346C266.425 64.684 264.898 64.3072 264.849 63.986C264.801 63.6688 265.087 62.5975 265.186 62.7239C265.233 62.7837 265.29 62.5949 265.314 62.3044C265.337 62.014 265.413 61.789 265.482 61.8046C265.552 61.8201 265.59 62.0705 265.567 62.361C265.543 62.6514 265.578 62.901 265.643 62.9156C265.72 62.9328 265.766 62.6921 265.774 62.2281C265.785 61.5577 265.827 61.5233 266.464 61.6657C266.838 61.7492 267.259 61.6765 267.401 61.5044C267.544 61.3322 267.82 61.1644 268.016 61.1315C268.323 61.08 268.469 60.7694 269.083 58.8709C269.544 57.4452 269.818 56.3767 269.861 55.8373C269.961 54.5681 269.926 51.9874 269.794 51.036C269.641 49.9337 268.954 48.7938 267.992 48.0487C267.193 47.4303 266.024 45.8833 265.584 44.862C265.443 44.5369 265.283 43.9244 265.228 43.5007C265.046 42.1128 264.651 41.8306 263.317 42.1358C261.586 42.5319 261.22 42.4082 261.078 41.3807C260.94 40.3785 260.91 38.6223 261.02 37.9914C261.069 37.7115 261.241 37.5618 261.462 37.6062C261.741 37.6622 262.018 37.3158 262.679 36.0864C263.149 35.2106 263.585 34.5055 263.647 34.5195C263.71 34.5334 263.965 35.1857 264.214 35.9689C264.662 37.3767 264.682 37.3999 265.955 37.994C267.437 38.686 269.255 39.0557 269.538 38.7226L269.732 38.4944L269.585 38.0562C269.505 37.8151 269.088 37.2865 268.66 36.8814C267.878 36.1417 267.434 35.3852 267.39 34.7164C267.331 33.8267 267.739 33.5231 269.035 33.4917C270.927 33.4458 271.127 33.0631 270.505 30.6796C269.97 28.6274 269.371 27.8643 267.958 27.4345C267.267 27.2243 266.628 27.1736 266.538 27.3217C266.438 27.4875 266.234 27.3487 266.009 26.9608C265.781 26.5681 265.049 26.0748 264.067 25.6523C263.2 25.2793 262.173 24.7934 261.784 24.5724C261.184 24.2314 261.03 24.2578 260.77 24.7468C260.473 25.3036 260.395 25.2819 258.47 24.1071C256.422 22.8565 254.83 22.3848 249.934 21.5775C248.564 21.3518 247.569 21.037 247.381 20.77C246.932 20.1337 245.486 19.8251 244.8 20.2192C244.327 20.4912 244.14 20.4566 243.87 20.0463C243.483 19.4587 243.069 19.2995 238.598 18.0185C236.802 17.5041 235.32 17.0013 235.305 16.9012C235.29 16.8011 235.227 16.8273 235.165 16.9596C235.103 17.0918 233.674 16.8059 231.99 16.3242C230.306 15.8424 228.671 15.5234 228.357 15.6152C227.629 15.8278 225.347 15.645 222.858 15.1747C217.799 14.2188 211.019 14.2874 209.557 15.3092C209.214 15.549 208.991 15.4881 208.578 15.0428C208.284 14.7253 207.871 14.5278 207.66 14.6039C207.449 14.68 205.698 14.5586 203.769 14.3341C201.84 14.1097 199.803 13.9887 199.243 14.0653C198.683 14.1419 197.379 14.154 196.346 14.0922C195.22 14.0248 194.186 14.1519 193.764 14.4093C193.185 14.7633 192.953 14.7465 192.442 14.314C191.283 13.3322 181.954 12.8339 181.599 13.7348C181.379 14.2944 179.785 13.9199 179.342 13.2045C178.839 12.3913 177.279 12.0999 175.368 12.4618C174.421 12.6412 173.628 12.602 173.168 12.3528C172.688 12.0932 172.377 12.0845 172.235 12.3266C172.089 12.5773 171.223 12.5099 169.443 12.1092C167.734 11.7247 166.527 11.6233 165.871 11.8088C165.325 11.963 164.586 12.0251 164.229 11.947C163.872 11.8688 163.225 11.8946 162.792 12.0044C162.359 12.1142 161.43 12.1355 160.729 12.0516C160.028 11.9678 158.745 11.9153 157.879 11.935C157.012 11.9547 156.274 11.8678 156.238 11.7419C156.202 11.616 155.859 11.7203 155.476 11.9737C154.904 12.3514 154.523 12.3412 153.361 11.9171C152.348 11.5472 151.716 11.4924 151.145 11.7251C150.706 11.9041 150.122 11.9726 149.846 11.8773C149.571 11.782 148.798 11.7938 148.128 11.9034C147.419 12.0196 146.422 11.9172 145.739 11.6577C145.094 11.413 144.494 11.3426 144.405 11.5013C144.316 11.66 143.315 11.6645 142.18 11.5114C141.045 11.3583 139.498 11.2389 138.742 11.246C137.987 11.2532 136.52 11.246 135.483 11.23C134.446 11.2141 133.067 11.324 132.418 11.4744C131.157 11.7664 130.241 11.7432 129.506 11.4008C129.256 11.2842 128.353 11.2307 127.5 11.282C126.646 11.3333 125.453 11.2851 124.848 11.1749C123.582 10.944 121.933 10.942 120.559 11.1696C120.033 11.2567 118.162 11.2367 116.401 11.1252C113.207 10.9229 110.655 11.1532 110.147 11.6897C109.999 11.8455 109.853 11.8828 109.822 11.7725C109.791 11.6623 108.66 11.4866 107.31 11.3821C105.022 11.205 103.073 11.4277 101.774 12.0147C101.472 12.1509 100.993 12.1002 100.708 11.9021C100.37 11.6673 99.912 11.6702 99.3908 11.9103C98.9113 12.1311 98.0682 12.162 97.2845 11.9875C96.5658 11.8274 95.6024 11.8042 95.1436 11.9358C94.6849 12.0674 93.9841 12.1404 93.5863 12.0979C92.6783 12.0009 90.8056 12.3125 90.3257 12.6404C90.1261 12.7769 89.5825 12.8145 89.1178 12.724C88.6531 12.6336 88.0909 12.6633 87.8684 12.7901C87.4225 13.0443 85.6021 13.1747 83.0361 13.1364C81.9228 13.1198 80.9647 13.3249 80.1658 13.7509C79.1979 14.267 78.7044 14.3328 77.6075 14.0923C76.156 13.774 74.8153 13.8391 73.1185 14.3103C71.6081 14.7298 69.3753 14.9107 68.1962 14.7092C67.6375 14.6137 67.0146 14.6786 66.8119 14.8534C66.6092 15.0281 66.2536 15.1301 66.0217 15.08C65.7897 15.0299 65.2385 15.1646 64.7967 15.3793C64.3443 15.5992 63.819 15.642 63.5941 15.4772C63.3745 15.3164 62.8121 15.3483 62.3444 15.5483C61.8766 15.7483 60.9012 15.8394 60.1768 15.7508C59.4524 15.6622 58.5811 15.6947 58.2405 15.8229C57.9 15.9512 57.2987 15.987 56.9043 15.9025C56.2076 15.7533 55.801 15.8239 53.6852 16.4614C51.1905 17.2131 49.4133 17.4646 47.9579 17.2718C47.094 17.1573 46.1837 17.1949 45.935 17.3552C45.6863 17.5156 44.7302 17.643 43.8104 17.6383C42.8905 17.6336 41.6261 17.7538 41.0006 17.9055C40.3751 18.0573 39.3503 18.0775 38.7233 17.9507C38.0963 17.8239 37.1862 17.8586 36.7008 18.0278C35.0298 18.6105 33.1153 18.8512 32.1508 18.5999C31.6191 18.4614 31.1202 18.4235 31.0421 18.5156C30.964 18.6077 29.5596 18.7896 27.9211 18.9197C26.2827 19.0499 24.4294 19.2926 23.8027 19.4592C23.176 19.6258 21.9503 19.7443 21.0791 19.7225C20.2078 19.7007 19.36 19.813 19.1952 19.972C19.0304 20.131 18.5351 20.2908 18.0945 20.3272C17.6539 20.3636 16.99 20.5672 16.6192 20.7796C16.2483 20.992 15.6319 21.218 15.2493 21.2818C14.8667 21.3456 13.9135 21.6796 13.1311 22.0239C12.3487 22.3683 11.4134 22.5845 11.0527 22.5044C10.0335 22.2781 7.90778 22.8257 7.30175 23.4707C7.00081 23.7911 6.68339 24.0372 6.59638 24.0178C6.37153 23.9675 5.23299 26.353 4.97052 27.4244C4.82689 28.0106 4.66306 29.2614 4.50022 31.015C4.28178 33.3674 4.25261 34.1088 4.26841 36.9069C4.28105 39.1443 4.24334 40.4841 4.14313 41.3581C4.06428 42.0458 3.91578 43.3301 3.81313 44.2122C3.65311 45.5872 3.64157 46.0339 3.73226 47.3427C3.79045 48.1823 3.922 49.5127 4.02461 50.299L4.21118 51.7287L3.7933 52.653C3.42097 53.4766 3.36253 53.7368 3.2572 55.0409C3.14821 56.3902 3.1031 56.576 2.67945 57.4201C2.18513 58.4051 2.02899 59.1053 2.00316 60.4529C1.97527 61.9082 2.16637 62.1241 2.9616 61.5354C3.35795 61.242 4.17625 60.9457 4.78004 60.877C5.38383 60.8082 6.05571 60.5529 6.2731 60.3096C6.4905 60.0664 6.75134 59.8859 6.85275 59.9086C7.06179 59.9553 7.51637 58.6377 7.8493 57.0202C7.9727 56.4207 8.28042 53.99 8.53311 51.6188C8.93657 47.8328 9.09059 46.7619 9.79724 42.829C10.2398 40.3658 10.6693 38.1457 10.7515 37.8953C10.9169 37.3923 12.1941 36.3843 12.5663 36.4631C12.6962 36.4906 12.8968 36.7844 13.012 37.1159C13.1273 37.4475 13.5025 37.8942 13.8459 38.1086C14.4687 38.4973 14.4702 38.5013 14.4496 39.689C14.4318 40.7123 14.4949 41.0443 14.8986 42.0505C15.157 42.6945 15.5492 43.3565 15.7701 43.5216C16.1541 43.8086 16.1663 43.862 16.0459 44.7263C15.9767 45.2237 15.8029 46.1932 15.6598 46.8807C15.5167 47.5683 15.4147 48.2308 15.4333 48.353C15.4518 48.4752 15.6176 48.6089 15.8016 48.65C16.1211 48.7214 18.34 51.1527 18.6427 51.763C18.7707 52.021 18.7346 52.1751 18.3291 53.1032C17.6518 54.6536 17.2632 54.926 16.6269 54.2966C16.0844 53.7599 15.0024 53.8412 14.4943 54.4568C14.2916 54.7022 14.2595 54.8588 14.2881 55.4629C14.349 56.7517 14.8499 57.1855 16.056 56.994C18.5952 56.5909 20.4616 56.7208 21.2815 57.3578C22.0628 57.9648 22.0915 57.9609 23.1931 57.0967C24.5039 56.0685 24.8239 56.1959 25.1282 57.8674C25.4033 59.3778 25.8609 59.5316 26.5517 58.3459C26.91 57.731 27.1888 57.5151 27.5958 57.5373C28.2481 57.5729 28.6351 57.3326 28.8594 56.753C29.058 56.2398 31.1362 56.8304 31.5438 57.5158C31.6892 57.7603 31.9985 58.0029 32.2311 58.0549C32.5617 58.1288 32.6889 58.0019 32.8141 57.4733C32.9023 57.1015 33.1368 56.5757 33.3353 56.3049C33.6537 55.8704 35.2497 55.4649 36.0718 55.6096C36.2347 55.6382 36.7639 55.5386 37.2477 55.3882C37.7316 55.2378 38.7803 55.1588 39.5783 55.2124C40.8612 55.2987 41.1126 55.4147 41.75 56.2141C42.1465 56.7113 42.6136 57.1498 42.7879 57.1885C43.3709 57.3179 44.5646 56.5669 44.8636 55.8826C45.2831 54.9225 45.8701 54.8202 46.3633 55.6211C46.8301 56.3791 47.3196 56.5891 47.3625 56.0497C47.3784 55.8499 47.3219 55.5463 47.237 55.3751C47.1013 55.1014 47.1024 55.0134 47.2465 54.6472C47.4278 54.1864 47.7224 54.7603 47.6664 55.465C47.647 55.7086 47.7502 55.7839 47.9551 55.6758L48.2739 55.5077L48.0729 56.3281C47.7581 57.6132 47.1755 58.312 46.7293 57.9399C46.522 57.7671 46.1095 57.7216 45.8126 57.8388C45.5157 57.956 44.9172 58.1532 44.4827 58.2771C43.0865 58.675 42.4348 59.194 42.5315 59.8309C42.5888 60.2084 43.9147 60.3895 44.5755 60.1102C45.2795 59.8126 46.974 60.6702 47.6827 61.6827C47.9667 62.0884 48.4331 62.3554 48.9711 62.4202C49.659 62.503 49.8472 62.6461 49.9933 63.1971C50.0919 63.5685 50.1617 64.008 50.1485 64.1737C50.1062 64.7049 49.6192 65.1085 48.9996 65.1259C48.3236 65.1448 47.755 65.8952 47.7248 66.8083C47.6966 67.6584 48.2469 68.4046 49.2141 68.828C49.9361 69.144 50.0616 69.2998 50.1376 69.9746C50.2669 71.1208 50.2198 71.3387 49.7684 71.6837C49.3475 72.0053 48.9827 72.8555 49.1994 73.0095C49.2607 73.0531 50.0847 73.3114 51.0304 73.5836C51.9762 73.8557 53.2177 74.2661 53.7893 74.4954C55.2697 75.0893 55.5087 75.1071 56.1282 74.6696Z" fill="#FF6900"/>
<path d="M73.5604 75.1742C73.4541 75.1504 73.3342 75.6832 73.3792 75.9795C73.4426 76.3973 73.5544 76.2645 73.5977 75.72C73.6208 75.4295 73.604 75.1839 73.5604 75.1742Z" fill="#FF6900"/>
<path d="M20.8205 61.7652C20.7221 61.4182 20.457 61.792 20.4865 62.2361C20.5171 62.699 20.829 62.7883 20.8643 62.3442C20.8788 62.162 20.8591 61.9015 20.8205 61.7652Z" fill="#FF6900"/>
<path d="M22.6533 61.0861C22.4954 60.7557 22.3351 61.1127 22.2692 61.9415C22.1997 62.8148 22.3024 62.833 22.5637 61.9937C22.7482 61.4009 22.7577 61.3046 22.6533 61.0861Z" fill="#FF6900"/>
<path d="M93.9766 76.6773C93.605 76.8199 93.4987 77.0729 93.5814 77.6177C93.6534 78.0922 94.4104 78.052 94.5519 77.5661C94.7468 76.8968 94.4797 76.4843 93.9766 76.6773Z" fill="#FF6900"/>
<path d="M28.1078 60.271C26.806 59.9751 25.5491 60.6169 25.4695 61.6181C25.437 62.027 27.0941 62.3534 28.0326 62.1229C28.8552 61.9208 29.3542 61.3211 29.4233 60.4515C29.4547 60.0568 29.421 59.9948 29.2923 60.2104C29.1971 60.3702 28.664 60.3975 28.1078 60.271Z" fill="#FF6900"/>
<path d="M101.882 76.201C101.253 75.9516 100.921 76.3182 101.121 77.0426C101.281 77.6233 101.835 77.6014 102.179 77.0008L102.498 76.445L101.882 76.201Z" fill="#FF6900"/>
<path d="M22.7264 58.4392C22.5513 58.4001 22.4694 58.758 22.5429 59.2418C22.595 59.5854 22.7535 59.3944 22.8354 58.8891C22.8727 58.6597 22.8245 58.4611 22.7264 58.4392Z" fill="#FF6900"/>
<path d="M23.4243 58.6066C23.3262 58.5784 23.1797 58.7824 23.0989 59.0599C22.8984 59.7488 23.1138 59.8051 23.3981 59.1382C23.5988 58.6673 23.5993 58.6568 23.4243 58.6066Z" fill="#FF6900"/>
<path d="M32.3816 59.6297C31.9842 59.6102 31.7768 60.0434 31.6921 61.0699C31.6654 61.3926 31.8791 61.5596 32.4947 61.6971C33.4827 61.9179 34.1307 61.5779 34.5192 60.6348C34.7686 60.0294 34.7873 59.912 34.6852 59.5911C34.622 59.3923 34.4594 59.3236 34.324 59.4384C34.1007 59.6276 33.5155 59.6852 32.3816 59.6297Z" fill="#FF6900"/>
<path d="M103.39 76.1068C103.316 76.0904 103.236 76.3279 103.212 76.6345C103.188 76.9411 103.218 77.1393 103.279 77.0749C103.453 76.8922 103.539 76.1401 103.39 76.1068Z" fill="#FF6900"/>
<path d="M104.935 75.6831C104.191 75.9843 104.033 76.1912 104.164 76.6901C104.252 77.0256 105.753 77.3866 105.983 77.1274C106.048 77.0542 106.118 76.7808 106.138 76.5198C106.198 75.771 105.653 75.3923 104.935 75.6831Z" fill="#FF6900"/>
<path d="M106.934 75.8237C106.858 75.8069 106.778 76.0308 106.755 76.3213C106.732 76.6118 106.727 76.8526 106.745 76.8565C106.762 76.8604 106.843 76.6365 106.923 76.359C107.044 75.9457 107.046 75.8488 106.934 75.8237Z" fill="#FF6900"/>
<path d="M108.241 75.9259C108.137 75.56 107.543 75.9292 107.571 76.3426C107.6 76.7878 108.141 76.914 108.239 76.4985C108.28 76.3242 108.28 76.0665 108.241 75.9259Z" fill="#FF6900"/>
<path d="M39.8542 59.9641C39.7473 59.5868 38.4157 59.7654 38.3205 60.1698C38.2805 60.3401 38.5403 60.5287 38.9091 60.597C39.6176 60.7283 39.9985 60.4733 39.8542 59.9641Z" fill="#FF6900"/>
<path d="M34.043 57.3848C33.9967 57.3744 33.9391 57.613 33.9151 57.9148C33.8911 58.2167 33.9171 58.3743 33.973 58.265C34.0289 58.1557 34.0865 57.9171 34.101 57.7349C34.1155 57.5527 34.0894 57.3951 34.043 57.3848Z" fill="#FF6900"/>
<path d="M123.756 75.6415C123.503 75.5848 123.264 75.8752 123.232 76.2793C123.204 76.6352 123.621 76.7985 123.849 76.5204C124.057 76.2658 123.997 75.6952 123.756 75.6415Z" fill="#FF6900"/>
<path d="M125.504 75.5086C125.163 75.6644 125.143 75.7181 125.254 76.1987C125.406 76.8566 125.594 76.9022 125.84 76.3411C126.12 75.7051 125.957 75.3019 125.504 75.5086Z" fill="#FF6900"/>
<path d="M131.038 75.2273C129.017 75.0344 128.273 75.375 128.547 76.3677C128.665 76.7961 128.571 76.7785 129.897 76.6222C130.492 76.5521 131.483 76.5526 132.098 76.6233C133.338 76.7659 133.786 76.592 133.785 75.9688C133.785 75.5095 133.67 75.4785 131.038 75.2273Z" fill="#FF6900"/>
<path d="M136.612 75.2178C136.088 75.1006 135.751 75.5623 135.922 76.1639C136.028 76.539 136.959 76.4729 137.099 76.0803C137.279 75.5736 137.146 75.337 136.612 75.2178Z" fill="#FF6900"/>
<path d="M167.339 82.1365C166.575 82.4413 166.464 82.5659 166.497 83.0762C166.516 83.3542 166.678 83.4192 167.022 83.2861C167.297 83.18 167.859 83.1686 168.272 83.2607C169.07 83.4385 169.354 82.9686 168.956 82.1297C168.745 81.6863 168.465 81.6875 167.339 82.1365Z" fill="#FF6900"/>
<path d="M138.724 75.9405C138.735 75.4104 138.294 75.4101 138.208 75.9402C138.154 76.2716 138.214 76.3834 138.425 76.3472C138.586 76.3198 138.721 76.1368 138.724 75.9405Z" fill="#FF6900"/>
<path d="M140.439 75.6285C140.288 76.1499 140.329 76.314 140.704 76.6737C140.896 76.8583 141.308 76.824 141.709 76.59C141.815 76.5282 141.941 76.2546 141.988 75.982C142.114 75.2663 140.643 74.9306 140.439 75.6285Z" fill="#FF6900"/>
<path d="M143.259 75.3559C142.486 75.5459 142.175 75.9239 142.221 76.6193C142.235 76.8376 142.438 76.9214 142.739 76.8332C143.011 76.7535 143.568 76.647 143.977 76.5965C144.742 76.5018 144.978 76.2798 144.94 75.6922C144.91 75.2507 144.237 75.1158 143.259 75.3559Z" fill="#FF6900"/>
<path d="M175.582 82.5701C175.472 82.7593 175.391 83.0624 175.403 83.2436C175.434 83.719 175.696 83.3233 175.744 82.729C175.775 82.333 175.741 82.2992 175.582 82.5701Z" fill="#FF6900"/>
<path d="M176.078 82.8583C175.989 82.5434 175.797 82.9254 175.826 83.3606C175.838 83.5468 175.882 83.7067 175.923 83.7158C176.041 83.7422 176.153 83.1227 176.078 82.8583Z" fill="#FF6900"/>
<path d="M147.641 75.2985C146.598 75.1901 146.311 75.3869 146.502 76.0801C146.635 76.5618 147.866 76.8143 148.294 76.4477C148.984 75.8558 148.732 75.4117 147.641 75.2985Z" fill="#FF6900"/>
<path d="M149.373 75.5562C149.144 75.3553 149.011 75.789 149.106 76.4204C149.128 76.5627 149.205 76.6068 149.277 76.5183C149.35 76.4298 149.444 76.3652 149.486 76.3747C149.681 76.4181 149.587 75.7449 149.373 75.5562Z" fill="#FF6900"/>
<path d="M150.548 75.8774C150.537 76.0162 150.545 76.241 150.566 76.377C150.624 76.7576 150.9 76.7356 151.137 76.3318C151.348 75.971 151.349 75.9648 151.2 75.666C151.035 75.3326 150.58 75.4801 150.548 75.8774Z" fill="#FF6900"/>
<path d="M56.1282 74.6696C56.9083 74.1187 57.1909 74.255 57.5633 75.3618C57.7425 75.8946 57.9464 76.3424 58.0164 76.3569C58.3202 76.42 58.8156 75.7567 59.1474 74.8427C59.3444 74.2997 59.6492 73.7798 59.8247 73.6873C60.1316 73.5255 62.4951 74.6176 63.1026 75.202C63.3312 75.4219 63.4698 75.3249 63.7192 74.7701C64.0365 74.0641 64.045 74.0641 64.3458 74.7663C64.6124 75.3884 64.9472 75.5515 67.0067 76.0623C68.3041 76.384 69.4691 76.5194 69.5997 76.3637C70.1206 75.742 70.6637 75.6901 71.4819 76.184C72.4171 76.7483 72.8343 76.5818 73.2216 75.4894C73.7675 73.9499 75.1857 73.6219 75.9611 74.8558C76.3504 75.4751 76.4104 75.4886 76.7146 75.0242C76.8964 74.7467 77.1694 74.5474 77.3213 74.5813C77.4731 74.6152 77.6895 74.4268 77.8021 74.1627C77.9147 73.8985 78.1746 73.7147 78.3797 73.7542C78.6184 73.8003 78.9031 73.5458 79.1711 73.0469C79.5251 72.3879 79.6365 72.3267 79.8934 72.6502C80.0604 72.8606 80.4388 72.9937 80.7344 72.946C81.4864 72.8245 81.7217 73.1989 81.5828 74.296C81.4885 75.0414 81.5053 75.158 81.7139 75.2046C81.8455 75.234 82.2425 74.9079 82.5961 74.48C83.6232 73.2371 84.094 73.1521 85.0941 74.0289C85.9824 74.8076 87.2127 74.9612 87.5271 74.3326C87.6398 74.1074 87.6481 74.0321 87.5628 74.0088C87.5017 73.9921 87.4856 73.711 87.5271 73.384C87.6907 72.0956 88.5097 72.1099 89.5008 73.4185C90.1915 74.3303 90.2489 74.3494 92.233 74.3257C95.8405 74.2828 96.7922 74.4351 97.2667 75.1309C97.6065 75.6292 97.5447 76.4649 97.1853 76.2316C97.0545 76.1467 96.8571 76.283 96.7467 76.5344C96.5506 76.981 96.5495 77.0017 96.6953 77.4379C96.81 77.7807 97.154 77.818 98.1781 77.5986C98.9115 77.4415 99.7852 77.2706 100.12 77.2188C100.577 77.1478 100.738 76.994 100.77 76.5963C100.797 76.2565 100.741 76.0834 100.613 76.1109C100.473 76.1409 100.411 75.9011 100.405 75.3005L100.395 74.4474L99.8925 75.2428C99.3917 76.0355 98.3212 76.5093 98.6456 75.7946C98.7314 75.6055 98.8818 75.4663 98.9799 75.4852C99.0779 75.5041 99.4119 75.0872 99.7221 74.5588C100.415 73.3782 101.128 73.1192 102.737 73.4637C103.388 73.6031 104.235 73.6294 104.62 73.5222C105.005 73.4151 105.958 73.3092 106.739 73.2869C107.519 73.2647 108.573 73.0133 109.081 72.7283C109.697 72.3831 110.349 72.2849 111.035 72.4342C112.025 72.6496 112.085 72.6211 112.57 71.7083C113.182 70.555 113.592 70.5651 114.205 71.7489C114.626 72.5617 114.756 72.6139 117.315 72.9962C118.784 73.2156 120.321 73.3087 120.731 73.2029C121.836 72.9174 123.456 72.7212 125.149 72.6673C127.416 72.5951 127.381 72.5921 130.602 73.1478C133.16 73.589 133.828 73.5903 135.094 73.1562C136.428 72.6986 136.584 72.7043 136.611 73.211C136.647 73.8796 136.971 73.871 138.454 73.1624C139.733 72.5515 143.104 72.4737 144.125 73.0315C144.491 73.2314 147.49 73.2627 149.097 73.0833C150.552 72.921 155.222 73.5557 155.782 73.9918C156.038 74.1908 156.235 74.4946 156.222 74.6668C156.17 75.3114 155.432 75.5736 154.13 75.4095C152.696 75.2287 151.945 75.5767 151.875 76.4549C151.84 76.8932 151.919 76.9543 152.34 76.8181C152.618 76.7281 153.17 76.7068 153.566 76.7707C153.986 76.8385 154.385 76.7113 154.524 76.4655C154.668 76.2117 154.877 76.1514 155.051 76.314C155.466 76.7014 159.168 76.8635 159.806 76.5222C160.102 76.3641 160.395 76.078 160.458 75.8863C160.536 75.6446 160.197 75.5277 159.351 75.5047C158.68 75.4864 158.142 75.3458 158.155 75.1922C158.298 73.4885 159.339 72.7884 160.256 73.7785C160.719 74.2777 160.881 74.3116 161.24 73.9848C161.476 73.7697 161.874 73.5728 162.124 73.5472C162.592 73.4992 163.926 74.439 164.049 74.904C164.087 75.0478 163.75 75.1849 163.3 75.2086C161.028 75.3286 160.717 75.468 160.844 76.309C160.868 76.4655 162.544 76.9677 164.568 77.4253C168.24 78.2551 169.278 78.7656 170.48 80.3311C170.647 80.5498 171.175 80.7237 171.651 80.7176C172.367 80.7085 172.529 80.8046 172.582 81.2704C172.637 81.7487 172.589 81.9473 172.265 82.5802L171.884 83.3262L172.143 83.6263C172.579 84.1305 174.058 84.3395 174.176 83.9137C174.235 83.702 174.346 83.0815 174.421 82.535L174.559 81.5412L174.278 82.2248C174.035 82.8132 173.926 82.8615 173.495 82.5719C172.953 82.2077 172.892 81.9444 173.008 80.4665C173.096 79.3435 173.185 79.2993 173.632 80.158C174.066 80.9925 174.242 80.9767 174.877 80.0464L175.426 79.2418L176.226 80.203C177.051 81.1942 177.395 81.8631 177.05 81.8069C176.951 81.7908 176.809 81.9869 176.735 82.2429C176.513 83.0049 176.748 83.2611 178.227 83.8662C178.981 84.1748 179.691 84.6338 179.803 84.8864C180.068 85.4789 180.326 85.5313 180.368 85.001C180.386 84.7715 180.506 84.2549 180.635 83.8531L180.869 83.1226L180.623 82.2998C180.241 81.0211 180.408 80.6102 181.275 80.7008C182.14 80.7913 182.75 81.4464 182.83 82.3731C182.925 83.4602 183.177 83.9284 183.903 84.3697C184.439 84.6948 184.613 84.9439 184.638 85.4201C184.656 85.7634 184.721 85.9475 184.781 85.8291C184.842 85.7108 185.243 85.6693 185.673 85.7368C186.28 85.8323 186.496 85.7349 186.643 85.2995C186.9 84.5349 187.48 84.0986 187.782 84.4415C187.919 84.5969 188.073 85.1213 188.124 85.6068C188.211 86.4418 188.274 86.51 189.286 86.8672C189.887 87.0791 190.584 87.1184 190.875 86.9566C191.322 86.7078 191.419 86.758 191.588 87.3227C191.864 88.2465 191.927 88.1772 192.096 86.7606C192.423 84.0249 192.668 83.9773 193.825 86.4256C194.872 88.6414 195.151 89.0006 195.213 88.216C195.263 87.5872 194.953 86.7424 194.49 86.2456C194.15 85.8801 194.145 85.4329 194.475 84.9505C194.655 84.6882 194.847 84.8209 195.35 85.5545C195.704 86.0716 196.234 86.8026 196.528 87.1791L197.063 87.8635L197.573 87.0115C198.199 85.9644 198.282 85.9773 198.655 87.1789C198.984 88.2395 199.064 88.3501 199.107 87.8051C199.123 87.6025 199.044 87.1414 198.931 86.7805C198.819 86.4197 198.748 85.8501 198.775 85.5148C198.89 84.0482 199.508 84.5771 201.464 87.8174C202.405 89.375 202.656 89.3874 202.553 87.8712C202.489 86.9343 202.485 86.9636 202.797 86.3193C203.057 85.7838 203.081 85.7974 203.416 86.663C203.72 87.4468 203.806 87.5178 204.076 87.2078C204.485 86.7377 204.617 86.791 204.902 87.5422C205.129 88.1402 205.162 88.1359 205.577 87.4545C206.122 86.5585 207.173 86.4566 207.707 87.2479C208.018 87.7088 209.388 88.3682 210.457 88.5719C210.62 88.6029 211.333 88.7697 212.041 88.9427C213.799 89.372 214.295 88.9852 213.465 87.831C213.123 87.3543 213.115 87.3064 213.318 86.8628C213.829 85.7423 213.952 85.7859 215.138 87.5092C216.222 89.0837 216.574 89.3549 217.639 89.4362C217.826 89.4506 218.478 89.7484 219.088 90.0981C219.892 90.5598 220.481 90.6884 221.238 90.5679C222.091 90.4322 226.911 91.3862 229.263 92.1561C229.539 92.2465 230.116 92.1695 230.545 91.9851C231.256 91.6796 231.404 91.7267 232.215 92.515C232.704 92.9907 233.243 93.3703 233.411 93.3584C233.579 93.3465 233.791 93.3686 233.883 93.4075C233.974 93.4464 234.347 93.6124 234.711 93.7764C235.076 93.9404 237.927 94.743 241.047 95.56C244.168 96.377 247.017 97.2008 247.38 97.3907C247.742 97.5806 249.951 98.2064 252.288 98.7814C254.626 99.3564 256.776 100 257.066 100.213C258.017 100.908 260.364 100.156 260.856 98.9981C261.148 98.3107 261.819 95.4625 262.252 93.0716C262.484 91.7891 263.075 89.1344 263.564 87.1721C264.054 85.2099 264.615 82.8258 264.811 81.8741C265.008 80.9224 265.248 79.9415 265.345 79.6944C265.578 79.102 265.851 77.7698 266.046 76.264C266.133 75.5936 266.364 74.2266 266.56 73.2261C266.807 71.9587 267.002 70.5104 267.201 68.4504C267.481 65.5663 267.483 65.4847 267.311 65.1302C267.205 64.9123 267.065 64.8829 266.961 65.0567C266.83 65.2754 266.799 65.208 266.833 64.7823C266.867 64.3552 266.826 64.2707 266.667 64.4346C266.425 64.684 264.898 64.3072 264.849 63.986C264.801 63.6688 265.087 62.5975 265.186 62.7239C265.233 62.7837 265.29 62.5949 265.314 62.3044C265.337 62.014 265.413 61.789 265.482 61.8046C265.552 61.8201 265.59 62.0705 265.567 62.361C265.543 62.6514 265.578 62.901 265.643 62.9156C265.72 62.9328 265.766 62.6921 265.774 62.2281C265.785 61.5577 265.827 61.5233 266.464 61.6657C266.838 61.7492 267.259 61.6765 267.401 61.5044C267.544 61.3322 267.82 61.1644 268.016 61.1315C268.323 61.08 268.469 60.7694 269.083 58.8709C269.544 57.4452 269.818 56.3767 269.861 55.8373C269.961 54.5681 269.926 51.9874 269.794 51.036C269.641 49.9337 268.954 48.7938 267.992 48.0487C267.193 47.4303 266.024 45.8833 265.584 44.862C265.443 44.5369 265.283 43.9244 265.228 43.5007C265.046 42.1128 264.651 41.8306 263.317 42.1358C261.586 42.5319 261.22 42.4082 261.078 41.3807C260.94 40.3785 260.91 38.6223 261.02 37.9914C261.069 37.7115 261.241 37.5618 261.462 37.6062C261.741 37.6622 262.018 37.3158 262.679 36.0864C263.149 35.2106 263.585 34.5055 263.647 34.5195C263.71 34.5334 263.965 35.1857 264.214 35.9689C264.662 37.3767 264.682 37.3999 265.955 37.994C267.437 38.686 269.255 39.0557 269.538 38.7226L269.732 38.4944L269.585 38.0562C269.505 37.8151 269.088 37.2865 268.66 36.8814C267.878 36.1417 267.434 35.3852 267.39 34.7164C267.331 33.8267 267.739 33.5231 269.035 33.4917C270.927 33.4458 271.127 33.0631 270.505 30.6796C269.97 28.6274 269.371 27.8643 267.958 27.4345C267.267 27.2243 266.628 27.1736 266.538 27.3217C266.438 27.4875 266.234 27.3487 266.009 26.9608C265.781 26.5681 265.049 26.0748 264.067 25.6523C263.2 25.2793 262.173 24.7934 261.784 24.5724C261.184 24.2314 261.03 24.2578 260.77 24.7468C260.473 25.3036 260.395 25.2819 258.47 24.1071C256.422 22.8565 254.83 22.3848 249.934 21.5775C248.564 21.3518 247.569 21.037 247.381 20.77C246.932 20.1337 245.486 19.8251 244.8 20.2192C244.327 20.4912 244.14 20.4566 243.87 20.0463C243.483 19.4587 243.069 19.2995 238.598 18.0185C236.802 17.5041 235.32 17.0013 235.305 16.9012C235.29 16.8011 235.227 16.8273 235.165 16.9596C235.103 17.0918 233.674 16.8059 231.99 16.3242C230.306 15.8424 228.671 15.5234 228.357 15.6152C227.629 15.8278 225.347 15.645 222.858 15.1747C217.799 14.2188 211.019 14.2874 209.557 15.3092C209.214 15.549 208.991 15.4881 208.578 15.0428C208.284 14.7253 207.871 14.5278 207.66 14.6039C207.449 14.68 205.698 14.5586 203.769 14.3341C201.84 14.1097 199.803 13.9887 199.243 14.0653C198.683 14.1419 197.379 14.154 196.346 14.0922C195.22 14.0248 194.186 14.1519 193.764 14.4093C193.185 14.7633 192.953 14.7465 192.442 14.314C191.283 13.3322 181.954 12.8339 181.599 13.7348C181.379 14.2944 179.785 13.9199 179.342 13.2045C178.839 12.3913 177.279 12.0999 175.368 12.4618C174.421 12.6412 173.628 12.602 173.168 12.3528C172.688 12.0932 172.377 12.0845 172.235 12.3266C172.089 12.5773 171.223 12.5099 169.443 12.1092C167.734 11.7247 166.527 11.6233 165.871 11.8088C165.325 11.963 164.586 12.0251 164.229 11.947C163.872 11.8688 163.225 11.8946 162.792 12.0044C162.359 12.1142 161.43 12.1355 160.729 12.0516C160.028 11.9678 158.745 11.9153 157.879 11.935C157.012 11.9547 156.274 11.8678 156.238 11.7419C156.202 11.616 155.859 11.7203 155.476 11.9737C154.904 12.3514 154.523 12.3412 153.361 11.9171C152.348 11.5472 151.716 11.4924 151.145 11.7251C150.706 11.9041 150.122 11.9726 149.846 11.8773C149.571 11.782 148.798 11.7938 148.128 11.9034C147.419 12.0196 146.422 11.9172 145.739 11.6577C145.094 11.413 144.494 11.3426 144.405 11.5013C144.316 11.66 143.315 11.6645 142.18 11.5114C141.045 11.3583 139.498 11.2389 138.742 11.246C137.987 11.2532 136.52 11.246 135.483 11.23C134.446 11.2141 133.067 11.324 132.418 11.4744C131.157 11.7664 130.241 11.7432 129.506 11.4008C129.256 11.2842 128.353 11.2307 127.5 11.282C126.646 11.3333 125.453 11.2851 124.848 11.1749C123.582 10.944 121.933 10.942 120.559 11.1696C120.033 11.2567 118.162 11.2367 116.401 11.1252C113.207 10.9229 110.655 11.1532 110.147 11.6897C109.999 11.8455 109.853 11.8828 109.822 11.7725C109.791 11.6623 108.66 11.4866 107.31 11.3821C105.022 11.205 103.073 11.4277 101.774 12.0147C101.472 12.1509 100.993 12.1002 100.708 11.9021C100.37 11.6673 99.912 11.6702 99.3908 11.9103C98.9113 12.1311 98.0682 12.162 97.2845 11.9875C96.5658 11.8274 95.6024 11.8042 95.1436 11.9358C94.6849 12.0674 93.9841 12.1404 93.5863 12.0979C92.6783 12.0009 90.8056 12.3125 90.3257 12.6404C90.1261 12.7769 89.5825 12.8145 89.1178 12.724C88.6531 12.6336 88.0909 12.6633 87.8684 12.7901C87.4225 13.0443 85.6021 13.1747 83.0361 13.1364C81.9228 13.1198 80.9647 13.3249 80.1658 13.7509C79.1979 14.267 78.7044 14.3328 77.6075 14.0923C76.156 13.774 74.8153 13.8391 73.1185 14.3103C71.6081 14.7298 69.3753 14.9107 68.1962 14.7092C67.6375 14.6137 67.0146 14.6786 66.8119 14.8534C66.6092 15.0281 66.2536 15.1301 66.0217 15.08C65.7897 15.0299 65.2385 15.1646 64.7967 15.3793C64.3443 15.5992 63.819 15.642 63.5941 15.4772C63.3745 15.3164 62.8121 15.3483 62.3444 15.5483C61.8766 15.7483 60.9012 15.8394 60.1768 15.7508C59.4524 15.6622 58.5811 15.6947 58.2405 15.8229C57.9 15.9512 57.2987 15.987 56.9043 15.9025C56.2076 15.7533 55.801 15.8239 53.6852 16.4614C51.1905 17.2131 49.4133 17.4646 47.9579 17.2718C47.094 17.1573 46.1837 17.1949 45.935 17.3552C45.6863 17.5156 44.7302 17.643 43.8104 17.6383C42.8905 17.6336 41.6261 17.7538 41.0006 17.9055C40.3751 18.0573 39.3503 18.0775 38.7233 17.9507C38.0963 17.8239 37.1862 17.8586 36.7008 18.0278C35.0298 18.6105 33.1153 18.8512 32.1508 18.5999C31.6191 18.4614 31.1202 18.4235 31.0421 18.5156C30.964 18.6077 29.5596 18.7896 27.9211 18.9197C26.2827 19.0499 24.4294 19.2926 23.8027 19.4592C23.176 19.6258 21.9503 19.7443 21.0791 19.7225C20.2078 19.7007 19.36 19.813 19.1952 19.972C19.0304 20.131 18.5351 20.2908 18.0945 20.3272C17.6539 20.3636 16.99 20.5672 16.6192 20.7796C16.2483 20.992 15.6319 21.218 15.2493 21.2818C14.8667 21.3456 13.9135 21.6796 13.1311 22.0239C12.3487 22.3683 11.4134 22.5845 11.0527 22.5044C10.0335 22.2781 7.90778 22.8257 7.30175 23.4707C7.00081 23.7911 6.68339 24.0372 6.59638 24.0178C6.37153 23.9675 5.23299 26.353 4.97052 27.4244C4.82689 28.0106 4.66306 29.2614 4.50022 31.015C4.28178 33.3674 4.25261 34.1088 4.26841 36.9069C4.28105 39.1443 4.24334 40.4841 4.14313 41.3581C4.06428 42.0458 3.91578 43.3301 3.81313 44.2122C3.65311 45.5872 3.64157 46.0339 3.73226 47.3427C3.79045 48.1823 3.922 49.5127 4.02461 50.299L4.21118 51.7287L3.7933 52.653C3.42097 53.4766 3.36253 53.7368 3.2572 55.0409C3.14821 56.3902 3.1031 56.576 2.67945 57.4201C2.18513 58.4051 2.02899 59.1053 2.00316 60.4529C1.97527 61.9082 2.16637 62.1241 2.9616 61.5354C3.35795 61.242 4.17625 60.9457 4.78004 60.877C5.38383 60.8082 6.05571 60.5529 6.2731 60.3096C6.4905 60.0664 6.75134 59.8859 6.85275 59.9086C7.06179 59.9553 7.51637 58.6377 7.8493 57.0202C7.9727 56.4207 8.28042 53.99 8.53311 51.6188C8.93657 47.8328 9.09059 46.7619 9.79724 42.829C10.2398 40.3658 10.6693 38.1457 10.7515 37.8953C10.9169 37.3923 12.1941 36.3843 12.5663 36.4631C12.6962 36.4906 12.8968 36.7844 13.012 37.1159C13.1273 37.4475 13.5025 37.8942 13.8459 38.1086C14.4687 38.4973 14.4702 38.5013 14.4496 39.689C14.4318 40.7123 14.4949 41.0443 14.8986 42.0505C15.157 42.6945 15.5492 43.3565 15.7701 43.5216C16.1541 43.8086 16.1663 43.862 16.0459 44.7263C15.9767 45.2237 15.8029 46.1932 15.6598 46.8807C15.5167 47.5683 15.4147 48.2308 15.4333 48.353C15.4518 48.4752 15.6176 48.6089 15.8016 48.65C16.1211 48.7214 18.34 51.1527 18.6427 51.763C18.7707 52.021 18.7346 52.1751 18.3291 53.1032C17.6518 54.6536 17.2632 54.926 16.6269 54.2966C16.0844 53.7599 15.0024 53.8412 14.4943 54.4568C14.2916 54.7022 14.2595 54.8588 14.2881 55.4629C14.349 56.7517 14.8499 57.1855 16.056 56.994C18.5952 56.5909 20.4616 56.7208 21.2815 57.3578C22.0628 57.9648 22.0915 57.9609 23.1931 57.0967C24.5039 56.0685 24.8239 56.1959 25.1282 57.8674C25.4033 59.3778 25.8609 59.5316 26.5517 58.3459C26.91 57.731 27.1888 57.5151 27.5958 57.5373C28.2481 57.5729 28.6351 57.3326 28.8594 56.753C29.058 56.2398 31.1362 56.8304 31.5438 57.5158C31.6892 57.7603 31.9985 58.0029 32.2311 58.0549C32.5617 58.1288 32.6889 58.0019 32.8141 57.4733C32.9023 57.1015 33.1368 56.5757 33.3353 56.3049C33.6537 55.8704 35.2497 55.4649 36.0718 55.6096C36.2347 55.6382 36.7639 55.5386 37.2477 55.3882C37.7316 55.2378 38.7803 55.1588 39.5783 55.2124C40.8612 55.2987 41.1126 55.4147 41.75 56.2141C42.1465 56.7113 42.6136 57.1498 42.7879 57.1885C43.3709 57.3179 44.5646 56.5669 44.8636 55.8826C45.2831 54.9225 45.8701 54.8202 46.3633 55.6211C46.8301 56.3791 47.3196 56.5891 47.3625 56.0497C47.3784 55.8499 47.3219 55.5463 47.237 55.3751C47.1013 55.1014 47.1024 55.0134 47.2465 54.6472C47.4278 54.1864 47.7224 54.7603 47.6664 55.465C47.647 55.7086 47.7502 55.7839 47.9551 55.6758L48.2739 55.5077L48.0729 56.3281C47.7581 57.6132 47.1755 58.312 46.7293 57.9399C46.522 57.7671 46.1095 57.7216 45.8126 57.8388C45.5157 57.956 44.9172 58.1532 44.4827 58.2771C43.0865 58.675 42.4348 59.194 42.5315 59.8309C42.5888 60.2084 43.9147 60.3895 44.5755 60.1102C45.2795 59.8126 46.974 60.6702 47.6827 61.6827C47.9667 62.0884 48.4331 62.3554 48.9711 62.4202C49.659 62.503 49.8472 62.6461 49.9933 63.1971C50.0919 63.5685 50.1617 64.008 50.1485 64.1737C50.1062 64.7049 49.6192 65.1085 48.9996 65.1259C48.3236 65.1448 47.755 65.8952 47.7248 66.8083C47.6966 67.6584 48.2469 68.4046 49.2141 68.828C49.9361 69.144 50.0616 69.2998 50.1376 69.9746C50.2669 71.1208 50.2198 71.3387 49.7684 71.6837C49.3475 72.0053 48.9827 72.8555 49.1994 73.0095C49.2607 73.0531 50.0847 73.3114 51.0304 73.5836C51.9762 73.8557 53.2177 74.2661 53.7893 74.4954C55.2697 75.0893 55.5087 75.1071 56.1282 74.6696Z" stroke="#FF6900" stroke-width="6" mask="url(#path-1-inside-1_101_33)"/>
<path d="M73.5604 75.1742C73.4541 75.1504 73.3342 75.6832 73.3792 75.9795C73.4426 76.3973 73.5544 76.2645 73.5977 75.72C73.6208 75.4295 73.604 75.1839 73.5604 75.1742Z" stroke="#FF6900" stroke-width="6" mask="url(#path-1-inside-1_101_33)"/>
<path d="M20.8205 61.7652C20.7221 61.4182 20.457 61.792 20.4865 62.2361C20.5171 62.699 20.829 62.7883 20.8643 62.3442C20.8788 62.162 20.8591 61.9015 20.8205 61.7652Z" stroke="#FF6900" stroke-width="6" mask="url(#path-1-inside-1_101_33)"/>
<path d="M22.6533 61.0861C22.4954 60.7557 22.3351 61.1127 22.2692 61.9415C22.1997 62.8148 22.3024 62.833 22.5637 61.9937C22.7482 61.4009 22.7577 61.3046 22.6533 61.0861Z" stroke="#FF6900" stroke-width="6" mask="url(#path-1-inside-1_101_33)"/>
<path d="M93.9766 76.6773C93.605 76.8199 93.4987 77.0729 93.5814 77.6177C93.6534 78.0922 94.4104 78.052 94.5519 77.5661C94.7468 76.8968 94.4797 76.4843 93.9766 76.6773Z" stroke="#FF6900" stroke-width="6" mask="url(#path-1-inside-1_101_33)"/>
<path d="M28.1078 60.271C26.806 59.9751 25.5491 60.6169 25.4695 61.6181C25.437 62.027 27.0941 62.3534 28.0326 62.1229C28.8552 61.9208 29.3542 61.3211 29.4233 60.4515C29.4547 60.0568 29.421 59.9948 29.2923 60.2104C29.1971 60.3702 28.664 60.3975 28.1078 60.271Z" stroke="#FF6900" stroke-width="6" mask="url(#path-1-inside-1_101_33)"/>
<path d="M101.882 76.201C101.253 75.9516 100.921 76.3182 101.121 77.0426C101.281 77.6233 101.835 77.6014 102.179 77.0008L102.498 76.445L101.882 76.201Z" stroke="#FF6900" stroke-width="6" mask="url(#path-1-inside-1_101_33)"/>
<path d="M22.7264 58.4392C22.5513 58.4001 22.4694 58.758 22.5429 59.2418C22.595 59.5854 22.7535 59.3944 22.8354 58.8891C22.8727 58.6597 22.8245 58.4611 22.7264 58.4392Z" stroke="#FF6900" stroke-width="6" mask="url(#path-1-inside-1_101_33)"/>
<path d="M23.4243 58.6066C23.3262 58.5784 23.1797 58.7824 23.0989 59.0599C22.8984 59.7488 23.1138 59.8051 23.3981 59.1382C23.5988 58.6673 23.5993 58.6568 23.4243 58.6066Z" stroke="#FF6900" stroke-width="6" mask="url(#path-1-inside-1_101_33)"/>
<path d="M32.3816 59.6297C31.9842 59.6102 31.7768 60.0434 31.6921 61.0699C31.6654 61.3926 31.8791 61.5596 32.4947 61.6971C33.4827 61.9179 34.1307 61.5779 34.5192 60.6348C34.7686 60.0294 34.7873 59.912 34.6852 59.5911C34.622 59.3923 34.4594 59.3236 34.324 59.4384C34.1007 59.6276 33.5155 59.6852 32.3816 59.6297Z" stroke="#FF6900" stroke-width="6" mask="url(#path-1-inside-1_101_33)"/>
<path d="M103.39 76.1068C103.316 76.0904 103.236 76.3279 103.212 76.6345C103.188 76.9411 103.218 77.1393 103.279 77.0749C103.453 76.8922 103.539 76.1401 103.39 76.1068Z" stroke="#FF6900" stroke-width="6" mask="url(#path-1-inside-1_101_33)"/>
<path d="M104.935 75.6831C104.191 75.9843 104.033 76.1912 104.164 76.6901C104.252 77.0256 105.753 77.3866 105.983 77.1274C106.048 77.0542 106.118 76.7808 106.138 76.5198C106.198 75.771 105.653 75.3923 104.935 75.6831Z" stroke="#FF6900" stroke-width="6" mask="url(#path-1-inside-1_101_33)"/>
<path d="M106.934 75.8237C106.858 75.8069 106.778 76.0308 106.755 76.3213C106.732 76.6118 106.727 76.8526 106.745 76.8565C106.762 76.8604 106.843 76.6365 106.923 76.359C107.044 75.9457 107.046 75.8488 106.934 75.8237Z" stroke="#FF6900" stroke-width="6" mask="url(#path-1-inside-1_101_33)"/>
<path d="M108.241 75.9259C108.137 75.56 107.543 75.9292 107.571 76.3426C107.6 76.7878 108.141 76.914 108.239 76.4985C108.28 76.3242 108.28 76.0665 108.241 75.9259Z" stroke="#FF6900" stroke-width="6" mask="url(#path-1-inside-1_101_33)"/>
<path d="M39.8542 59.9641C39.7473 59.5868 38.4157 59.7654 38.3205 60.1698C38.2805 60.3401 38.5403 60.5287 38.9091 60.597C39.6176 60.7283 39.9985 60.4733 39.8542 59.9641Z" stroke="#FF6900" stroke-width="6" mask="url(#path-1-inside-1_101_33)"/>
<path d="M34.043 57.3848C33.9967 57.3744 33.9391 57.613 33.9151 57.9148C33.8911 58.2167 33.9171 58.3743 33.973 58.265C34.0289 58.1557 34.0865 57.9171 34.101 57.7349C34.1155 57.5527 34.0894 57.3951 34.043 57.3848Z" stroke="#FF6900" stroke-width="6" mask="url(#path-1-inside-1_101_33)"/>
<path d="M123.756 75.6415C123.503 75.5848 123.264 75.8752 123.232 76.2793C123.204 76.6352 123.621 76.7985 123.849 76.5204C124.057 76.2658 123.997 75.6952 123.756 75.6415Z" stroke="#FF6900" stroke-width="6" mask="url(#path-1-inside-1_101_33)"/>
<path d="M125.504 75.5086C125.163 75.6644 125.143 75.7181 125.254 76.1987C125.406 76.8566 125.594 76.9022 125.84 76.3411C126.12 75.7051 125.957 75.3019 125.504 75.5086Z" stroke="#FF6900" stroke-width="6" mask="url(#path-1-inside-1_101_33)"/>
<path d="M131.038 75.2273C129.017 75.0344 128.273 75.375 128.547 76.3677C128.665 76.7961 128.571 76.7785 129.897 76.6222C130.492 76.5521 131.483 76.5526 132.098 76.6233C133.338 76.7659 133.786 76.592 133.785 75.9688C133.785 75.5095 133.67 75.4785 131.038 75.2273Z" stroke="#FF6900" stroke-width="6" mask="url(#path-1-inside-1_101_33)"/>
<path d="M136.612 75.2178C136.088 75.1006 135.751 75.5623 135.922 76.1639C136.028 76.539 136.959 76.4729 137.099 76.0803C137.279 75.5736 137.146 75.337 136.612 75.2178Z" stroke="#FF6900" stroke-width="6" mask="url(#path-1-inside-1_101_33)"/>
<path d="M167.339 82.1365C166.575 82.4413 166.464 82.5659 166.497 83.0762C166.516 83.3542 166.678 83.4192 167.022 83.2861C167.297 83.18 167.859 83.1686 168.272 83.2607C169.07 83.4385 169.354 82.9686 168.956 82.1297C168.745 81.6863 168.465 81.6875 167.339 82.1365Z" stroke="#FF6900" stroke-width="6" mask="url(#path-1-inside-1_101_33)"/>
<path d="M138.724 75.9405C138.735 75.4104 138.294 75.4101 138.208 75.9402C138.154 76.2716 138.214 76.3834 138.425 76.3472C138.586 76.3198 138.721 76.1368 138.724 75.9405Z" stroke="#FF6900" stroke-width="6" mask="url(#path-1-inside-1_101_33)"/>
<path d="M140.439 75.6285C140.288 76.1499 140.329 76.314 140.704 76.6737C140.896 76.8583 141.308 76.824 141.709 76.59C141.815 76.5282 141.941 76.2546 141.988 75.982C142.114 75.2663 140.643 74.9306 140.439 75.6285Z" stroke="#FF6900" stroke-width="6" mask="url(#path-1-inside-1_101_33)"/>
<path d="M143.259 75.3559C142.486 75.5459 142.175 75.9239 142.221 76.6193C142.235 76.8376 142.438 76.9214 142.739 76.8332C143.011 76.7535 143.568 76.647 143.977 76.5965C144.742 76.5018 144.978 76.2798 144.94 75.6922C144.91 75.2507 144.237 75.1158 143.259 75.3559Z" stroke="#FF6900" stroke-width="6" mask="url(#path-1-inside-1_101_33)"/>
<path d="M175.582 82.5701C175.472 82.7593 175.391 83.0624 175.403 83.2436C175.434 83.719 175.696 83.3233 175.744 82.729C175.775 82.333 175.741 82.2992 175.582 82.5701Z" stroke="#FF6900" stroke-width="6" mask="url(#path-1-inside-1_101_33)"/>
<path d="M176.078 82.8583C175.989 82.5434 175.797 82.9254 175.826 83.3606C175.838 83.5468 175.882 83.7067 175.923 83.7158C176.041 83.7422 176.153 83.1227 176.078 82.8583Z" stroke="#FF6900" stroke-width="6" mask="url(#path-1-inside-1_101_33)"/>
<path d="M147.641 75.2985C146.598 75.1901 146.311 75.3869 146.502 76.0801C146.635 76.5618 147.866 76.8143 148.294 76.4477C148.984 75.8558 148.732 75.4117 147.641 75.2985Z" stroke="#FF6900" stroke-width="6" mask="url(#path-1-inside-1_101_33)"/>
<path d="M149.373 75.5562C149.144 75.3553 149.011 75.789 149.106 76.4204C149.128 76.5627 149.205 76.6068 149.277 76.5183C149.35 76.4298 149.444 76.3652 149.486 76.3747C149.681 76.4181 149.587 75.7449 149.373 75.5562Z" stroke="#FF6900" stroke-width="6" mask="url(#path-1-inside-1_101_33)"/>
<path d="M150.548 75.8774C150.537 76.0162 150.545 76.241 150.566 76.377C150.624 76.7576 150.9 76.7356 151.137 76.3318C151.348 75.971 151.349 75.9648 151.2 75.666C151.035 75.3326 150.58 75.4801 150.548 75.8774Z" stroke="#FF6900" stroke-width="6" mask="url(#path-1-inside-1_101_33)"/>
<path d="M66.1197 56C64.8297 56 63.7273 55.5058 62.8123 54.5175C61.8974 53.5067 61.1999 52.0692 60.72 50.2049C60.24 48.3405 60 46.1168 60 43.5337C60 40.9506 60.24 38.7269 60.72 36.8625C61.1999 34.9757 61.8974 33.527 62.8123 32.5162C63.7273 31.5054 64.8297 31 66.1197 31C67.6796 31 68.962 31.7749 69.967 33.3248C70.9719 34.8522 71.6169 37.031 71.9018 39.8612L68.617 40.097C68.452 38.5247 68.1521 37.323 67.7171 36.4919C67.2821 35.6608 66.7496 35.2453 66.1197 35.2453C65.5197 35.2453 65.0097 35.571 64.5897 36.2224C64.1698 36.8513 63.8473 37.7835 63.6223 39.0189C63.3973 40.2543 63.2848 41.7592 63.2848 43.5337C63.2848 45.2857 63.3973 46.7794 63.6223 48.0148C63.8473 49.2278 64.1698 50.1599 64.5897 50.8113C65.0097 51.4403 65.5197 51.7547 66.1197 51.7547C66.7646 51.7547 67.3121 51.3167 67.7621 50.4407C68.227 49.5422 68.5345 48.2507 68.6845 46.566L71.9468 46.8019C71.6919 49.7219 71.0544 51.9906 70.0344 53.6078C69.0295 55.2026 67.7246 56 66.1197 56Z" fill="white"/>
<path d="M79.5201 56C78.2302 56 77.1353 55.5171 76.2353 54.5512C75.3504 53.5854 74.6679 52.1815 74.1879 50.3396C73.723 48.4753 73.4905 46.2066 73.4905 43.5337C73.4905 40.8607 73.723 38.5921 74.1879 36.7278C74.6679 34.8634 75.3504 33.4483 76.2353 32.4825C77.1353 31.4942 78.2302 31 79.5201 31C80.8101 31 81.905 31.4942 82.805 32.4825C83.7049 33.4483 84.3874 34.8634 84.8523 36.7278C85.3173 38.5921 85.5498 40.8607 85.5498 43.5337C85.5498 46.2066 85.3173 48.4753 84.8523 50.3396C84.3874 52.1815 83.7049 53.5854 82.805 54.5512C81.905 55.5171 80.8101 56 79.5201 56ZM79.5201 51.7547C80.1201 51.7547 80.6226 51.4739 81.0276 50.9124C81.4325 50.3284 81.74 49.4299 81.95 48.217C82.16 47.004 82.265 45.4429 82.265 43.5337C82.265 41.6244 82.16 40.0633 81.95 38.8504C81.74 37.615 81.4325 36.7053 81.0276 36.1213C80.6226 35.5373 80.1201 35.2453 79.5201 35.2453C78.9352 35.2453 78.4327 35.5373 78.0127 36.1213C77.6077 36.7053 77.3003 37.615 77.0903 38.8504C76.8803 40.0633 76.7753 41.6244 76.7753 43.5337C76.7753 45.4429 76.8803 47.004 77.0903 48.217C77.3003 49.4299 77.6077 50.3284 78.0127 50.9124C78.4327 51.4739 78.9352 51.7547 79.5201 51.7547Z" fill="white"/>
<path d="M87.7009 55.4609V31.5391H90.8282L95.2605 47.004V31.5391H98.3203V55.4609H95.193L90.7607 39.996V55.4609H87.7009Z" fill="white"/>
<path d="M104.904 55.4609V35.8518H100.651V31.5391H112.351V35.8518H108.098V55.4609H104.904Z" fill="white"/>
<path d="M113.669 55.4609L118.034 31.5391H121.949L126.314 55.4609H123.096L119.992 37.3342L116.887 55.4609H113.669ZM116.617 50.3733L117.427 46.1954H122.556L123.366 50.3733H116.617Z" fill="white"/>
<path d="M133.572 56C132.282 56 131.18 55.5058 130.265 54.5175C129.35 53.5067 128.652 52.0692 128.172 50.2049C127.692 48.3405 127.452 46.1168 127.452 43.5337C127.452 40.9506 127.692 38.7269 128.172 36.8625C128.652 34.9757 129.35 33.527 130.265 32.5162C131.18 31.5054 132.282 31 133.572 31C135.132 31 136.414 31.7749 137.419 33.3248C138.424 34.8522 139.069 37.031 139.354 39.8612L136.069 40.097C135.904 38.5247 135.604 37.323 135.169 36.4919C134.734 35.6608 134.202 35.2453 133.572 35.2453C132.972 35.2453 132.462 35.571 132.042 36.2224C131.622 36.8513 131.3 37.7835 131.075 39.0189C130.85 40.2543 130.737 41.7592 130.737 43.5337C130.737 45.2857 130.85 46.7794 131.075 48.0148C131.3 49.2278 131.622 50.1599 132.042 50.8113C132.462 51.4403 132.972 51.7547 133.572 51.7547C134.217 51.7547 134.764 51.3167 135.214 50.4407C135.679 49.5422 135.987 48.2507 136.137 46.566L139.399 46.8019C139.144 49.7219 138.507 51.9906 137.487 53.6078C136.482 55.2026 135.177 56 133.572 56Z" fill="white"/>
<path d="M145.375 55.4609V35.8518H141.123V31.5391H152.822V35.8518H148.57V55.4609H145.375Z" fill="white"/>
<path d="M155.603 55.4609V31.5391H165.593V35.8518H158.798V41.3437H165.323V45.5889H158.798V51.1482H165.773V55.4609H155.603Z" fill="white"/>
<path d="M168.194 55.4609V51.1482L175.776 35.8518H168.599V31.5391H179.533V35.8518L172.019 51.1482H179.713V55.4609H168.194Z" fill="white"/>
<path d="M199.967 52.159L197.717 37.8733L198.1 37.7385V55.4609H195.175V31.5391H198.774L201.362 46.7008H200.507L203.094 31.5391H206.694V55.4609H203.769V37.7385L204.152 37.8733L201.902 52.159H199.967Z" fill="white"/>
<path d="M214.425 56C213.135 56 212.04 55.5171 211.14 54.5512C210.255 53.5854 209.573 52.1815 209.093 50.3396C208.628 48.4753 208.395 46.2066 208.395 43.5337C208.395 40.8607 208.628 38.5921 209.093 36.7278C209.573 34.8634 210.255 33.4483 211.14 32.4825C212.04 31.4942 213.135 31 214.425 31C215.715 31 216.81 31.4942 217.71 32.4825C218.61 33.4483 219.292 34.8634 219.757 36.7278C220.222 38.5921 220.454 40.8607 220.454 43.5337C220.454 46.2066 220.222 48.4753 219.757 50.3396C219.292 52.1815 218.61 53.5854 217.71 54.5512C216.81 55.5171 215.715 56 214.425 56ZM214.425 51.7547C215.025 51.7547 215.527 51.4739 215.932 50.9124C216.337 50.3284 216.645 49.4299 216.855 48.217C217.065 47.004 217.17 45.4429 217.17 43.5337C217.17 41.6244 217.065 40.0633 216.855 38.8504C216.645 37.615 216.337 36.7053 215.932 36.1213C215.527 35.5373 215.025 35.2453 214.425 35.2453C213.84 35.2453 213.337 35.5373 212.917 36.1213C212.512 36.7053 212.205 37.615 211.995 38.8504C211.785 40.0633 211.68 41.6244 211.68 43.5337C211.68 45.4429 211.785 47.004 211.995 48.217C212.205 49.4299 212.512 50.3284 212.917 50.9124C213.337 51.4739 213.84 51.7547 214.425 51.7547Z" fill="white"/>
<path d="M222.831 55.4609V51.1482H226.318V35.8518H222.831V31.5391H233V35.8518H229.513V51.1482H233V55.4609H222.831Z" fill="white"/>
</svg>
