<svg width="269" height="90" viewBox="0 0 269 90" fill="none" xmlns="http://www.w3.org/2000/svg">
<rect x="56" y="17" width="189" height="39" fill="#F8FAFC"/>
<path d="M118.558 0.168945C119.933 -0.0586505 121.582 -0.0560844 122.848 0.174805C123.453 0.28495 124.646 0.332509 125.499 0.28125C126.352 0.229971 127.255 0.283875 127.506 0.400391C128.24 0.74278 129.157 0.76563 130.418 0.473633C131.067 0.32331 132.446 0.213528 133.483 0.229492C134.52 0.245457 135.986 0.253262 136.742 0.246094C137.498 0.238929 139.044 0.357618 140.179 0.510742C141.314 0.66386 142.316 0.659654 142.405 0.500977C142.494 0.342403 143.095 0.412546 143.739 0.657227C144.422 0.916568 145.418 1.01947 146.128 0.90332C146.797 0.793758 147.57 0.781829 147.845 0.876953C148.121 0.972208 148.706 0.903587 149.145 0.724609C149.716 0.492137 150.347 0.547246 151.36 0.916992C152.522 1.34109 152.904 1.35126 153.475 0.973633C153.859 0.720334 154.202 0.615598 154.238 0.741211C154.274 0.867117 155.011 0.954226 155.878 0.93457C156.744 0.914875 158.027 0.967956 158.728 1.05176C159.429 1.13559 160.358 1.1137 160.792 1.00391C161.225 0.894154 161.872 0.868114 162.229 0.946289C162.586 1.02439 163.324 0.962658 163.87 0.808594C164.527 0.623011 165.734 0.724889 167.442 1.10938C169.222 1.51007 170.088 1.57687 170.235 1.32617C170.377 1.08415 170.688 1.09298 171.168 1.35254C171.628 1.60153 172.421 1.64124 173.368 1.46191C175.279 1.10002 176.838 1.39097 177.342 2.2041C177.784 2.91945 179.379 3.29398 179.599 2.73438C179.955 1.83377 189.283 2.33176 190.442 3.31348C190.953 3.74581 191.186 3.76307 191.764 3.40918C192.186 3.15179 193.22 3.02445 194.345 3.0918C195.379 3.15359 196.683 3.14202 197.243 3.06543C197.803 2.98889 199.84 3.10959 201.768 3.33398C203.696 3.55831 205.446 3.67934 205.659 3.60352C205.87 3.52743 206.284 3.72456 206.578 4.04199C206.991 4.48734 207.215 4.54835 207.557 4.30859C209.02 3.2871 215.799 3.21908 220.857 4.1748C223.346 4.64505 225.628 4.82769 226.356 4.61523C226.67 4.52345 228.306 4.84251 229.99 5.32422C231.674 5.80584 233.103 6.09121 233.165 5.95898C233.227 5.82727 233.289 5.80097 233.304 5.90039C233.32 6.00053 234.802 6.50418 236.597 7.01855C241.069 8.2995 241.483 8.45829 241.87 9.0459C242.14 9.45615 242.326 9.49063 242.8 9.21875C243.486 8.82463 244.932 9.13322 245.381 9.76953C245.569 10.0365 246.564 10.3514 247.933 10.5771C252.83 11.3844 254.422 11.8559 256.47 13.1064C258.395 14.2812 258.472 14.3028 258.769 13.7461C259.03 13.2575 259.183 13.2315 259.783 13.5723C260.172 13.7932 261.199 14.2794 262.066 14.6523C263.048 15.0749 263.781 15.5682 264.009 15.9609C264.234 16.3487 264.438 16.487 264.538 16.3213C264.628 16.1733 265.267 16.2244 265.958 16.4346C267.37 16.8643 267.969 17.6276 268.505 19.6797C269.126 22.0629 268.926 22.4453 267.035 22.4912C265.739 22.5227 265.331 22.8264 265.389 23.7158C265.434 24.3846 265.878 25.1411 266.66 25.8809C267.088 26.2858 267.504 26.8146 267.585 27.0557L267.731 27.4941L267.538 27.7227C267.255 28.0557 265.436 27.6852 263.954 26.9932C262.682 26.3993 262.661 26.3762 262.214 24.9688C261.965 24.1865 261.71 23.535 261.647 23.5195C261.585 23.5056 261.149 24.2102 260.678 25.0859C260.018 26.3154 259.741 26.6615 259.462 26.6055C259.241 26.5611 259.069 26.7113 259.02 26.9912C258.91 27.622 258.94 29.3776 259.078 30.3799C259.22 31.4074 259.586 31.5318 261.317 31.1357C262.651 30.8306 263.046 31.1124 263.227 32.5C263.283 32.9235 263.443 33.5362 263.583 33.8613C264.024 34.8827 265.193 36.4305 265.991 37.0488C266.953 37.7939 267.641 38.9338 267.794 40.0361C267.925 40.9879 267.961 43.5679 267.86 44.8369C267.817 45.3763 267.543 46.4446 267.083 47.8701C266.469 49.7686 266.322 50.0793 266.015 50.1309C265.82 50.1637 265.543 50.3318 265.401 50.5039C265.259 50.6761 264.837 50.7485 264.464 50.665C263.827 50.5227 263.784 50.5575 263.773 51.2275C263.765 51.6916 263.719 51.9323 263.642 51.915C263.577 51.8995 263.543 51.6502 263.566 51.3604C263.589 51.07 263.551 50.8202 263.481 50.8047C263.412 50.79 263.336 51.0139 263.313 51.3037C263.29 51.594 263.233 51.783 263.186 51.7236C263.087 51.5973 262.801 52.6678 262.849 52.9854C262.898 53.3065 264.424 53.6836 264.667 53.4346C264.826 53.2707 264.866 53.3551 264.832 53.7822C264.798 54.2076 264.83 54.2751 264.961 54.0566C265.065 53.8828 265.204 53.912 265.31 54.1299C265.483 54.4844 265.48 54.5661 265.201 57.4502C265.002 59.51 264.807 60.9583 264.559 62.2256C264.364 63.2261 264.133 64.5933 264.046 65.2637C263.85 66.7694 263.578 68.1019 263.345 68.6943C263.248 68.9417 263.008 69.9225 262.811 70.874C262.615 71.8258 262.054 74.2098 261.564 76.1719C261.075 78.1341 260.484 80.7888 260.252 82.0713C259.818 84.4622 259.147 87.3107 258.855 87.998C258.363 89.156 256.017 89.9075 255.065 89.2119C254.774 88.9996 252.624 88.3561 250.288 87.7812C247.951 87.2064 245.743 86.5807 245.38 86.3906C245.017 86.2008 242.167 85.3766 239.047 84.5596C235.926 83.7426 233.075 82.9403 232.711 82.7764C232.347 82.6126 231.974 82.4464 231.883 82.4072C231.791 82.3683 231.579 82.3466 231.411 82.3584C231.243 82.3703 230.704 81.9904 230.215 81.5146C229.404 80.7265 229.255 80.6791 228.545 80.9844C228.116 81.1687 227.538 81.2466 227.262 81.1562C224.91 80.3863 220.091 79.4319 219.238 79.5674C218.481 79.6879 217.892 79.5593 217.088 79.0977C216.478 78.748 215.826 78.4499 215.638 78.4355C214.573 78.3542 214.221 78.0833 213.137 76.5088C211.951 74.7857 211.828 74.7419 211.317 75.8623C211.115 76.3059 211.122 76.3544 211.465 76.8311C212.294 77.9851 211.799 78.3717 210.041 77.9424C209.332 77.7694 208.619 77.6023 208.457 77.5713C207.388 77.3676 206.018 76.7089 205.707 76.248C205.173 75.4567 204.122 75.5583 203.577 76.4541C203.162 77.1354 203.129 77.1397 202.902 76.542C202.617 75.7908 202.484 75.737 202.075 76.207C201.805 76.5169 201.719 76.4466 201.416 75.6631C201.08 74.7975 201.056 74.7838 200.797 75.3193C200.485 75.9633 200.489 75.9344 200.552 76.8711C200.655 78.387 200.404 78.3748 199.464 76.8174C197.507 73.5771 196.889 73.0481 196.774 74.5146C196.748 74.8499 196.819 75.4195 196.931 75.7803C197.044 76.1411 197.122 76.602 197.106 76.8047C197.063 77.3496 196.983 77.2392 196.654 76.1787C196.281 74.9771 196.198 74.9639 195.572 76.0107L195.063 76.8633L194.528 76.1787C194.234 75.8023 193.704 75.0708 193.349 74.5537C192.847 73.8205 192.655 73.6882 192.475 73.9502C192.145 74.4326 192.149 74.8796 192.49 75.2451C192.953 75.7419 193.263 76.587 193.213 77.2158C193.15 78.0003 192.872 77.6406 191.825 75.4248C190.668 72.9769 190.422 73.0251 190.095 75.7607C189.926 77.1769 189.864 77.246 189.588 76.3223C189.419 75.7578 189.321 75.7075 188.875 75.9561C188.584 76.1178 187.886 76.0791 187.286 75.8672C186.273 75.51 186.21 75.4414 186.123 74.6064C186.072 74.1211 185.919 73.597 185.782 73.4414C185.48 73.0985 184.9 73.5344 184.642 74.2988C184.496 74.7342 184.28 74.8317 183.673 74.7363C183.243 74.6688 182.842 74.7108 182.781 74.8291C182.721 74.947 182.656 74.7629 182.637 74.4199C182.612 73.9438 182.438 73.6943 181.903 73.3691C181.177 72.9279 180.925 72.4599 180.83 71.373C180.749 70.4463 180.14 69.7907 179.274 69.7002C178.408 69.6096 178.24 70.0212 178.623 71.2998L178.869 72.1221L178.635 72.8525C178.506 73.2543 178.386 73.7714 178.368 74.001C178.326 74.531 178.068 74.4782 177.803 73.8857C177.691 73.6332 176.981 73.1747 176.227 72.8662C174.748 72.261 174.512 72.0042 174.734 71.2422C174.809 70.9866 174.951 70.7909 175.05 70.8066C175.394 70.8628 175.051 70.1943 174.225 69.2031L173.426 68.2412L172.877 69.0459C172.242 69.9762 172.066 69.9918 171.632 69.1572C171.185 68.2988 171.095 68.3432 171.008 69.4658C170.892 70.9436 170.953 71.2071 171.495 71.5713C171.926 71.8609 172.035 71.8129 172.277 71.2246L172.558 70.541L172.421 71.5342C172.345 72.0806 172.235 72.7012 172.176 72.9131C172.057 73.3388 170.58 73.13 170.143 72.626L169.884 72.3262L170.264 71.5801C170.588 70.9474 170.636 70.7485 170.582 70.2705C170.529 69.8048 170.367 69.7086 169.651 69.7178C169.175 69.7239 168.647 69.5496 168.479 69.3311C167.278 67.7655 166.239 67.2546 162.568 66.4248C160.544 65.9673 158.868 65.465 158.844 65.3086C158.717 64.4676 159.028 64.3279 161.3 64.208C161.75 64.1842 162.087 64.0471 162.049 63.9033C161.925 63.4382 160.592 62.4989 160.124 62.5469C159.874 62.5726 159.475 62.7694 159.239 62.9844C158.88 63.311 158.718 63.2775 158.256 62.7783C157.338 61.7885 156.298 62.4881 156.154 64.1914C156.141 64.345 156.68 64.4856 157.35 64.5039C158.196 64.5269 158.536 64.6443 158.458 64.8857C158.395 65.0773 158.102 65.3634 157.806 65.5215C157.168 65.8628 153.465 65.7009 153.051 65.3135C152.877 65.1512 152.667 65.2114 152.524 65.4648C152.385 65.7106 151.986 65.8382 151.566 65.7705C151.17 65.7066 150.618 65.7275 150.34 65.8174C149.918 65.9535 149.84 65.8923 149.875 65.4541C149.945 64.5762 150.696 64.2284 152.13 64.4092C153.432 64.5733 154.17 64.3106 154.221 63.666C154.235 63.4937 154.037 63.19 153.782 62.9912C153.222 62.5551 148.552 61.9208 147.097 62.083C145.49 62.2624 142.491 62.2312 142.125 62.0312C141.104 61.4735 137.733 61.5512 136.454 62.1621C134.971 62.8706 134.647 62.8792 134.611 62.2109C134.584 61.7042 134.428 61.6987 133.094 62.1562C131.828 62.5902 131.159 62.5886 128.602 62.1475C125.381 61.5918 125.416 61.5949 123.149 61.667C121.455 61.7209 119.836 61.9167 118.73 62.2021C118.321 62.3078 116.784 62.2155 115.315 61.9961C112.756 61.6138 112.626 61.5609 112.205 60.748C111.592 59.5646 111.182 59.5547 110.569 60.708C110.084 61.6206 110.025 61.6489 109.035 61.4336C108.349 61.2843 107.696 61.3824 107.081 61.7275C106.573 62.0125 105.518 62.2639 104.738 62.2861C103.958 62.3084 103.005 62.4144 102.62 62.5215C102.235 62.6286 101.388 62.6022 100.737 62.4629C99.1282 62.1184 98.4146 62.378 97.7214 63.5586C97.4113 64.0869 97.0773 64.5033 96.9792 64.4844C96.8813 64.4658 96.731 64.6052 96.6453 64.7939C96.3209 65.5086 97.3916 65.0349 97.8923 64.2422L98.3943 63.4473L98.4041 64.2998C98.4108 64.9004 98.4731 65.1404 98.613 65.1104C98.7406 65.0835 98.7962 65.2565 98.7693 65.5957C98.7377 65.9933 98.5767 66.1478 98.1189 66.2188C97.7841 66.2707 96.9106 66.4416 96.1775 66.5986C95.1536 66.8179 94.8097 66.7803 94.6951 66.4375C94.5492 66.0013 94.5507 65.9809 94.7468 65.5342C94.8572 65.2828 95.0545 65.1466 95.1853 65.2314C95.5443 65.4639 95.6059 64.629 95.2664 64.1309C94.7919 63.435 93.8396 63.2823 90.2322 63.3252C88.2485 63.3488 88.1913 63.3297 87.5007 62.418C86.5096 61.1094 85.6907 61.0954 85.5271 62.3838C85.4856 62.7106 85.5012 62.9919 85.5623 63.0088C85.6475 63.032 85.6396 63.1071 85.5271 63.332C85.2126 63.9606 83.9818 63.8071 83.0935 63.0283C82.0935 62.1517 81.6225 62.2367 80.5955 63.4795C80.2419 63.9073 79.8453 64.2333 79.7136 64.2041C79.5051 64.1575 79.4884 64.0411 79.5828 63.2959C79.7216 62.1989 79.486 61.8239 78.7341 61.9453C78.4386 61.9931 78.0603 61.8598 77.8933 61.6494C77.6366 61.326 77.5246 61.388 77.1707 62.0469C76.9028 62.5454 76.6182 62.7997 76.3796 62.7539C76.1746 62.7143 75.9141 62.898 75.8015 63.1621C75.6889 63.4262 75.4729 63.6148 75.321 63.5811C75.1693 63.5471 74.8964 63.7462 74.7146 64.0234C74.4104 64.4878 74.3499 64.4748 73.9607 63.8555C73.1853 62.6216 71.7673 62.9498 71.2214 64.4893C70.8341 65.5815 70.4163 65.7479 69.4812 65.1836C68.6631 64.69 68.1202 64.7417 67.5994 65.3633C67.4689 65.519 66.3039 65.3832 65.0066 65.0615C62.9471 64.5508 62.612 64.3878 62.3455 63.7656C62.0448 63.0637 62.0358 63.0637 61.7185 63.7695C61.4691 64.3244 61.331 64.4211 61.1023 64.2012C60.4946 63.6168 58.1309 62.5247 57.824 62.6865C57.6485 62.7792 57.3442 63.2999 57.1472 63.8428C56.8156 64.7564 56.3201 65.4191 56.0164 65.3564C55.9463 65.3419 55.7425 64.8941 55.5632 64.3613C55.1908 63.2545 54.9078 63.1181 54.1277 63.6689C53.5081 64.1065 53.2691 64.089 51.7888 63.4951C51.2171 63.2658 49.9757 62.8552 49.03 62.583C48.0843 62.3108 47.2603 62.0524 47.199 62.0088C46.9827 61.8543 47.3476 61.0051 47.7683 60.6836C48.2196 60.3387 48.2666 60.1204 48.1375 58.9746C48.0614 58.2998 47.9355 58.1441 47.2136 57.8281C46.2464 57.4048 45.6963 56.6578 45.7244 55.8076C45.7547 54.8949 46.3231 54.1452 46.9988 54.126C47.6183 54.1086 48.1057 53.7048 48.1482 53.1738C48.1614 53.0081 48.0914 52.5677 47.9929 52.1963C47.8468 51.6457 47.6582 51.5027 46.9705 51.4199C46.4327 51.3551 45.9664 51.0882 45.6824 50.6826C44.9737 49.6701 43.2789 48.8118 42.575 49.1094C41.9144 49.3886 40.5893 49.2082 40.531 48.8311C40.4343 48.1941 41.086 47.6743 42.4822 47.2764C42.9167 47.1525 43.5153 46.9561 43.8123 46.8389C44.1092 46.7217 44.522 46.7666 44.7292 46.9395C45.1754 47.3112 45.7582 46.6129 46.073 45.3281L46.2732 44.5078L45.9548 44.6758C45.75 44.7838 45.6465 44.7082 45.6658 44.4648C45.7218 43.7602 45.4271 43.1861 45.2458 43.6465C45.1018 44.0127 45.1013 44.1014 45.2371 44.375C45.3219 44.5463 45.3779 44.8501 45.3621 45.0498C45.319 45.5886 44.8296 45.3787 44.363 44.6211C43.8698 43.8202 43.2825 43.922 42.863 44.8818C42.5641 45.566 41.3709 46.3175 40.7878 46.1885C40.6135 46.1498 40.1462 45.7111 39.7498 45.2139C39.1123 44.4144 38.8608 44.2982 37.5779 44.2119C36.7802 44.1583 35.7319 44.2374 35.2478 44.3877C34.7639 44.5381 34.2339 44.638 34.071 44.6094C33.2489 44.4649 31.6531 44.8703 31.3347 45.3047C31.1363 45.5754 30.9024 46.1009 30.8142 46.4727C30.6889 47.0012 30.5608 47.1286 30.2302 47.0547C29.9978 47.0025 29.6891 46.7599 29.5437 46.5156C29.1361 45.8302 27.0577 45.2398 26.8591 45.7529C26.6348 46.3324 26.2476 46.5727 25.5955 46.5371C25.1884 46.5149 24.9098 46.7308 24.5515 47.3457C23.8607 48.5313 23.4027 48.3775 23.1277 46.8672C22.8233 45.1958 22.5038 45.0685 21.1931 46.0967C20.0915 46.9608 20.0623 46.9644 19.281 46.3574C18.461 45.7205 16.5946 45.591 14.0554 45.9941C12.8496 46.1855 12.3488 45.7514 12.2878 44.4629C12.2593 43.8587 12.2913 43.7015 12.4939 43.4561C13.0021 42.8407 14.0843 42.7594 14.6267 43.2959C15.263 43.9254 15.6515 43.6529 16.3289 42.1025C16.7342 41.1747 16.7703 41.0206 16.6423 40.7627C16.3397 40.1525 14.1216 37.7217 13.8015 37.6494C13.6175 37.6083 13.4519 37.4747 13.4333 37.3525C13.4149 37.2301 13.5169 36.5681 13.6599 35.8809C13.803 35.1933 13.9764 34.223 14.0457 33.7256C14.1659 32.8616 14.1532 32.8084 13.7693 32.5215C13.5483 32.3561 13.1565 31.6936 12.8982 31.0498C12.4946 30.0438 12.4312 29.7117 12.449 28.6885C12.4696 27.501 12.4682 27.4971 11.8455 27.1084C11.5021 26.894 11.1267 26.4468 11.0115 26.1152C10.8963 25.7841 10.696 25.4907 10.5662 25.4629C10.194 25.3841 8.91645 26.3914 8.75073 26.8945C8.66844 27.1449 8.23921 29.3659 7.79663 31.8291C7.09007 35.7615 6.93638 36.8326 6.53296 40.6182C6.28033 42.9888 5.97283 45.4193 5.84937 46.0195C5.51644 47.637 5.06133 48.9549 4.85229 48.9082C4.75083 48.8857 4.49051 49.0664 4.27319 49.3096C4.05584 49.5528 3.38374 49.8081 2.78003 49.877C2.17637 49.9457 1.35812 50.2418 0.96167 50.5352C0.166441 51.1238 -0.0252108 50.9075 0.00268555 49.4521C0.0285373 48.1048 0.185172 47.4048 0.679443 46.4199C1.10302 45.5759 1.14763 45.3899 1.25659 44.041C1.36193 42.7369 1.4204 42.4759 1.79272 41.6523L2.21069 40.7285L2.02417 39.2988C1.92158 38.5126 1.79038 37.1825 1.73218 36.3428C1.64149 35.034 1.65322 34.5868 1.81323 33.2119C1.91589 32.3298 2.06349 31.0451 2.14233 30.3574C2.24252 29.4834 2.28095 28.1434 2.26831 25.9062C2.25251 23.1084 2.28132 22.367 2.49976 20.0146C2.6626 18.261 2.82683 17.0101 2.97046 16.4238C3.23306 15.3524 4.3716 12.9673 4.59644 13.0176C4.68405 13.0361 5.00109 12.7905 5.30151 12.4707C5.90754 11.8257 8.03331 11.2776 9.05249 11.5039C9.4133 11.5839 10.3483 11.3677 11.1306 11.0234C11.913 10.6791 12.8661 10.3451 13.2488 10.2812C13.6314 10.2174 14.2481 9.99168 14.6189 9.7793C14.9897 9.56692 15.6539 9.36355 16.0945 9.32715C16.535 9.29069 17.0303 9.13062 17.1951 8.97168C17.3601 8.81275 18.2077 8.69992 19.0789 8.72168C19.9501 8.74343 21.1758 8.62555 21.8025 8.45898C22.4293 8.29241 24.2824 8.04909 25.9207 7.91895C27.5578 7.78889 28.9617 7.60781 29.0417 7.51562C29.1198 7.42352 29.6186 7.46117 30.1501 7.59961C31.1147 7.85086 33.0299 7.60996 34.7009 7.02734C35.1864 6.85826 36.0966 6.82343 36.7234 6.9502C37.3503 7.07688 38.3743 7.05694 38.9998 6.90527C39.6253 6.7536 40.8905 6.63301 41.8103 6.6377C42.73 6.64235 43.6856 6.51482 43.9343 6.35449C44.183 6.19414 45.0938 6.15704 45.9578 6.27148C47.4131 6.46423 49.1907 6.21261 51.6853 5.46094C53.8007 4.82354 54.2074 4.75311 54.9041 4.90234C55.2984 4.98679 55.8995 4.9505 56.24 4.82227C56.5805 4.69401 57.4521 4.66141 58.1765 4.75C58.9007 4.83856 59.8756 4.7477 60.3435 4.54785C60.811 4.34799 61.3737 4.31595 61.5935 4.47656C61.8184 4.64128 62.3443 4.59876 62.7966 4.37891C63.2384 4.16426 63.7893 4.02998 64.0212 4.08008C64.2531 4.13015 64.6086 4.02807 64.8113 3.85352C65.0139 3.67875 65.6374 3.6135 66.196 3.70898C67.3752 3.91042 69.6075 3.72899 71.1179 3.30957C72.8146 2.83837 74.1557 2.77349 75.6072 3.0918C76.7041 3.33234 77.1979 3.26704 78.1658 2.75098C78.9646 2.32503 79.9226 2.11912 81.0359 2.13574C83.6014 2.17404 85.4216 2.04413 85.8679 1.79004C86.0904 1.66325 86.6532 1.63319 87.1179 1.72363C87.5825 1.81397 88.1254 1.776 88.325 1.63965C88.8048 1.31171 90.6776 1.00071 91.5857 1.09766C91.9834 1.14015 92.6845 1.06719 93.1433 0.935547C93.6021 0.803918 94.5652 0.82727 95.2839 0.987305C96.0676 1.16184 96.9109 1.13096 97.3904 0.910156C97.9116 0.670074 98.3702 0.666645 98.7078 0.901367C98.9925 1.09939 99.4719 1.15072 99.7732 1.01465C101.072 0.427617 103.022 0.204767 105.31 0.381836C106.66 0.486299 107.79 0.662203 107.821 0.772461C107.852 0.8825 107.999 0.844999 108.146 0.689453C108.654 0.153021 111.206 -0.077243 114.4 0.125C116.161 0.236505 118.032 0.256047 118.558 0.168945ZM173.826 72.3604C173.797 71.9251 173.989 71.5435 174.078 71.8584C174.152 72.1228 174.04 72.7407 173.923 72.7158C173.882 72.7067 173.838 72.5465 173.826 72.3604ZM173.582 71.5693C173.74 71.2988 173.774 71.3327 173.743 71.7285C173.696 72.3228 173.434 72.7186 173.402 72.2432C173.39 72.0619 173.471 71.7584 173.582 71.5693ZM165.34 71.1357C166.464 70.6871 166.746 70.6858 166.956 71.1289C167.354 71.9678 167.069 72.4386 166.271 72.2607C165.858 72.1687 165.296 72.1801 165.022 72.2861C164.678 72.4192 164.515 72.3539 164.497 72.0762C164.463 71.5659 164.575 71.4406 165.34 71.1357ZM91.9763 65.6768C92.4793 65.4839 92.7462 65.8964 92.5515 66.5654C92.41 67.0513 91.6528 67.0917 91.5808 66.6172C91.4982 66.0726 91.6048 65.8193 91.9763 65.6768ZM99.1208 66.042C98.9212 65.3178 99.2525 64.951 99.8816 65.2002L100.498 65.4443L100.178 66.001C99.834 66.6012 99.281 66.6225 99.1208 66.042ZM102.935 64.6826C103.653 64.3921 104.198 64.7708 104.138 65.5195C104.118 65.7805 104.047 66.0538 103.982 66.127C103.752 66.386 102.251 66.025 102.163 65.6895C102.032 65.1909 102.192 64.9837 102.935 64.6826ZM101.389 65.1064C101.538 65.1397 101.452 65.8915 101.278 66.0742C101.217 66.1385 101.187 65.9404 101.212 65.6338C101.236 65.3274 101.316 65.0902 101.389 65.1064ZM141.259 64.3555C142.235 64.1155 142.91 64.2502 142.939 64.6914C142.978 65.279 142.742 65.5011 141.976 65.5957C141.568 65.6462 141.011 65.7533 140.739 65.833C140.438 65.9212 140.235 65.8374 140.22 65.6191C140.174 64.9239 140.485 64.5456 141.259 64.3555ZM104.933 64.8232C105.045 64.8483 105.043 64.9454 104.923 65.3584C104.842 65.636 104.761 65.8604 104.744 65.8564C104.727 65.8507 104.732 65.6105 104.755 65.3213C104.778 65.0308 104.858 64.8064 104.933 64.8232ZM138.439 64.6279C138.643 63.9304 140.113 64.266 139.988 64.9814C139.94 65.254 139.815 65.528 139.709 65.5898C139.308 65.8236 138.896 65.8579 138.704 65.6738C138.329 65.3141 138.287 65.1493 138.439 64.6279ZM105.57 65.3418C105.543 64.9286 106.136 64.56 106.24 64.9258C106.28 65.0664 106.279 65.3238 106.238 65.498C106.14 65.9136 105.6 65.787 105.57 65.3418ZM123.504 64.5078C123.956 64.3013 124.119 64.7049 123.84 65.3408C123.593 65.9017 123.406 65.8561 123.254 65.1982C123.143 64.7178 123.162 64.6637 123.504 64.5078ZM126.547 65.3672C126.273 64.3747 127.017 64.0338 129.037 64.2266C131.669 64.4778 131.784 64.5094 131.785 64.9688C131.786 65.5916 131.338 65.7655 130.098 65.623C129.483 65.5523 128.492 65.5519 127.896 65.6221C126.571 65.7782 126.665 65.7956 126.547 65.3672ZM121.756 64.6416C121.996 64.6953 122.057 65.2659 121.848 65.5205C121.621 65.7982 121.203 65.6348 121.231 65.2793C121.263 64.8754 121.502 64.5852 121.756 64.6416ZM148.548 64.877C148.579 64.4797 149.035 64.3326 149.2 64.666C149.348 64.9644 149.347 64.9707 149.136 65.3311C148.9 65.7349 148.623 65.7573 148.565 65.377C148.545 65.241 148.537 65.0157 148.548 64.877ZM144.502 65.0801C144.311 64.3868 144.598 64.1895 145.641 64.2979C146.732 64.4111 146.984 64.8555 146.294 65.4473C145.866 65.8139 144.635 65.5616 144.502 65.0801ZM147.106 65.4199C147.01 64.7886 147.144 64.3548 147.373 64.5557C147.587 64.7445 147.68 65.4172 147.486 65.374C147.444 65.3645 147.349 65.4292 147.277 65.5176C147.205 65.6061 147.128 65.5623 147.106 65.4199ZM133.922 65.1631C133.751 64.5617 134.088 64.1007 134.612 64.2178C135.146 64.337 135.279 64.5734 135.098 65.0801C134.958 65.4726 134.028 65.5382 133.922 65.1631ZM136.207 64.9395C136.293 64.4097 136.735 64.4104 136.724 64.9404C136.72 65.1366 136.585 65.3192 136.425 65.3467C136.213 65.3827 136.153 65.2706 136.207 64.9395ZM71.5603 64.1738C71.6037 64.1846 71.6205 64.4299 71.5974 64.7197C71.5541 65.264 71.4421 65.3969 71.3787 64.9795C71.3337 64.6832 71.454 64.1501 71.5603 64.1738ZM66.2283 18.6592C64.198 18.6593 62.459 19.4461 61.0681 20.9697C59.7164 22.4219 58.7368 24.4277 58.0769 26.9102L58.075 26.918C57.4342 29.4091 57.1218 32.3447 57.1218 35.71C57.1218 39.0473 57.4343 41.9685 58.075 44.459L58.0769 44.4668C58.738 46.9538 59.7203 48.9622 61.0759 50.415C62.4691 51.908 64.2057 52.6747 66.2283 52.6748C68.6629 52.6747 70.6672 51.5318 72.198 49.4131L72.2019 49.4072C73.7045 47.2959 74.6208 44.4679 75.0212 41.0029L75.1414 39.9707L74.1052 39.8906L71.3113 39.6748L70.3601 39.6016L70.2419 40.5479C69.944 42.9197 69.3807 44.5721 68.6384 45.6152C67.904 46.6472 67.1079 47.0507 66.2283 47.0508C65.381 47.0507 64.6744 46.7248 64.0544 45.9922C63.4107 45.1776 62.8653 43.934 62.4753 42.1807C62.0866 40.4325 61.8855 38.2803 61.8855 35.71C61.8855 33.11 62.0867 30.9438 62.4753 29.1963L62.4763 29.1934C62.8691 27.3999 63.4171 26.1625 64.0544 25.3848L64.0554 25.3828C64.6815 24.6159 65.389 24.2833 66.2283 24.2832C66.9884 24.2833 67.7088 24.633 68.406 25.5645V25.5654L68.4138 25.5742C69.1294 26.5079 69.6952 27.9899 70.031 30.127L70.1765 31.0527L71.1101 30.9678L73.9353 30.708L74.9822 30.6123L74.8337 29.5713C74.3696 26.3108 73.4284 23.6686 71.9382 21.7305H71.9392C70.4339 19.7436 68.5191 18.6592 66.2283 18.6592ZM84.5798 18.6592C82.5895 18.6592 80.8682 19.3873 79.4734 20.8154L79.4675 20.8223C78.1226 22.2234 77.1492 24.2108 76.489 26.6943L76.4871 26.7021C75.8455 29.1961 75.5339 32.205 75.5339 35.71C75.5339 39.1591 75.8458 42.1389 76.4871 44.6318L76.489 44.6396C77.1492 47.1232 78.1225 49.1106 79.4675 50.5117L79.4734 50.5186C80.8682 51.9467 82.5895 52.6748 84.5798 52.6748C86.5679 52.6747 88.2795 51.9474 89.655 50.5176L89.656 50.5186C91.0257 49.1158 91.9992 47.1248 92.6394 44.6396C93.3028 42.1437 93.6248 39.1611 93.6248 35.71C93.6247 32.4225 93.3427 29.5701 92.7605 27.1689L92.6394 26.6943C91.9992 24.2092 91.0248 22.2182 89.655 20.8154C88.2796 19.3859 86.5676 18.6593 84.5798 18.6592ZM158.291 18.6592C156.261 18.6593 154.521 19.4461 153.131 20.9697C151.779 22.4219 150.799 24.4277 150.139 26.9102L150.137 26.918C149.497 29.4091 149.184 32.3447 149.184 35.71C149.184 39.0473 149.497 41.9685 150.137 44.459L150.139 44.4668C150.8 46.9538 151.783 48.9622 153.138 50.415C154.532 51.908 156.268 52.6747 158.291 52.6748C160.725 52.6747 162.73 51.5318 164.26 49.4131L164.264 49.4072C165.767 47.2959 166.684 44.4679 167.085 41.0029L167.204 39.9707L166.168 39.8906L163.374 39.6748L162.424 39.6016L162.304 40.5479C162.007 42.9197 161.443 44.5721 160.701 45.6152C159.967 46.6472 159.17 47.0507 158.291 47.0508C157.444 47.0507 156.737 46.7248 156.117 45.9922C155.473 45.1776 154.929 43.9339 154.539 42.1807C154.15 40.4325 153.948 38.2804 153.948 35.71C153.948 33.1099 154.15 30.9438 154.539 29.1963V29.1934C154.932 27.3999 155.48 26.1625 156.117 25.3848L156.118 25.3828C156.744 24.6159 157.451 24.2833 158.291 24.2832C159.051 24.2833 159.772 24.6333 160.469 25.5654L160.476 25.5742C161.192 26.5079 161.758 27.9899 162.094 30.127L162.239 31.0527L163.173 30.9678L165.998 30.708L167.045 30.6123L166.896 29.5713C166.432 26.3108 165.491 23.6686 164.001 21.7305H164.002C162.496 19.7436 160.582 18.6592 158.291 18.6592ZM94.9294 19.3496V51.9844H99.5701V31.5439L105.349 51.2656L105.559 51.9844H111.055V19.3496H106.414V39.7861L100.635 20.0684L100.425 19.3496H94.9294ZM112.421 19.3496V24.9736H119.085V51.9844H123.725V24.9736H130.388V19.3496H112.421ZM137.229 19.3496L137.059 20.1377L130.427 50.7725L130.164 51.9844H135.045L135.208 51.1855L136.831 43.2686H142.803L144.427 51.1855L144.591 51.9844H149.47L149.209 50.7725L142.576 20.1377L142.405 19.3496H137.229ZM167.658 19.3496V24.9736H174.322V51.9844H178.963V24.9736H185.627V19.3496H167.658ZM204.791 19.3496V51.9844H209.431V36.8398L211.315 47.7031L211.459 48.5322H215.475L215.62 47.7031L217.504 36.8369V51.9844H222.144V19.3496H216.308L216.167 20.1816L213.468 36.0029L210.768 20.1816L210.627 19.3496H204.791ZM224.431 19.3496V51.9844H239.942V46.3604H229.072V38.3926H239.329V32.8545H229.072V24.9736H239.697V19.3496H224.431ZM157.035 51.5537C157.236 51.5943 157.442 51.6243 157.651 51.6445H157.65C157.441 51.6243 157.236 51.5943 157.035 51.5537ZM18.4861 51.2354C18.4569 50.7915 18.7217 50.4181 18.8201 50.7646C18.8587 50.9009 18.8785 51.1615 18.864 51.3438C18.8287 51.7878 18.5168 51.6983 18.4861 51.2354ZM20.2693 50.9414C20.3352 50.1126 20.4952 49.7555 20.6531 50.0859C20.7574 50.3043 20.7476 50.4007 20.5632 50.9932C20.302 51.8325 20.1999 51.8146 20.2693 50.9414ZM65.2371 51.5986C65.1985 51.5926 65.1601 51.5858 65.1218 51.5791C65.1601 51.5858 65.1985 51.5927 65.2371 51.5986ZM64.8845 51.5332C64.8443 51.5244 64.8043 51.5155 64.7644 51.5059C64.8043 51.5154 64.8443 51.5245 64.8845 51.5332ZM64.5193 51.4404C64.4887 51.4316 64.4579 51.4234 64.4275 51.4141C64.4579 51.4234 64.4887 51.4316 64.5193 51.4404ZM64.0974 51.3027C64.0197 51.2736 63.9432 51.2416 63.8669 51.209C63.9432 51.2416 64.0197 51.2735 64.0974 51.3027ZM27.2917 49.21C27.4204 48.9943 27.454 49.0565 27.4226 49.4512C27.3534 50.3208 26.8545 50.92 26.032 51.1221C25.0938 51.3525 23.4381 51.0269 23.4695 50.6182C23.5491 49.617 24.8055 48.9748 26.1072 49.2705C26.6634 49.3969 27.1965 49.3697 27.2917 49.21ZM63.7244 51.1455C63.691 51.1302 63.6578 51.1147 63.6248 51.0986C63.6578 51.1147 63.6911 51.1301 63.7244 51.1455ZM63.5046 51.0381C63.4283 50.9988 63.3519 50.959 63.2771 50.916C63.3519 50.959 63.4283 50.9987 63.5046 51.0381ZM32.324 48.4385C32.4595 48.3237 32.6221 48.392 32.6853 48.5908C32.7873 48.9116 32.7687 49.0294 32.5193 49.6348C32.1308 50.5778 31.4819 50.918 30.4939 50.6973C29.8785 50.5597 29.6655 50.392 29.6921 50.0693C29.7768 49.043 29.9841 48.6094 30.3816 48.6289C31.5153 48.6844 32.1007 48.6277 32.324 48.4385ZM36.3201 49.1699C36.4152 48.7655 37.7473 48.5865 37.8542 48.9639C37.9984 49.4728 37.6172 49.7279 36.9089 49.5967C36.5404 49.5284 36.2805 49.3401 36.3201 49.1699ZM21.4236 47.6064C21.5986 47.6567 21.5979 47.6668 21.3972 48.1377C21.1129 48.8046 20.8978 48.7484 21.0984 48.0596C21.1791 47.7823 21.3254 47.5787 21.4236 47.6064ZM20.7263 47.4385C20.8243 47.4606 20.8719 47.6594 20.8347 47.8887C20.7527 48.394 20.5949 48.5849 20.5427 48.2412C20.4693 47.7576 20.5512 47.3993 20.7263 47.4385ZM66.0125 48.0449L66.2283 48.0508L66.0115 48.0449C65.9174 48.04 65.8248 48.0299 65.7332 48.0186C65.825 48.0299 65.9181 48.04 66.0125 48.0449ZM158.075 48.0449L158.291 48.0508L158.074 48.0449C157.98 48.04 157.887 48.0299 157.796 48.0186C157.888 48.0299 157.981 48.04 158.075 48.0449ZM32.0427 46.3848C32.089 46.3954 32.1148 46.5524 32.1003 46.7344C32.0859 46.9166 32.0283 47.1553 31.9724 47.2646C31.9166 47.3738 31.8908 47.2159 31.9148 46.9141C31.9388 46.6124 31.9964 46.3744 32.0427 46.3848ZM84.5798 24.2832C85.3766 24.2833 86.0545 24.6006 86.6619 25.3418L86.6707 25.3516C87.323 26.1274 87.8785 27.3605 88.2703 29.1494L88.2712 29.1533C88.6597 30.9002 88.8611 33.0804 88.8611 35.71C88.8611 38.3398 88.6598 40.5206 88.2712 42.2676C87.8804 44.0247 87.3257 45.2459 86.6716 46.0244L86.5574 46.1533C85.9828 46.7755 85.3379 47.0507 84.5798 47.0508C83.7719 47.0508 83.0786 46.738 82.4539 46.0205C81.8198 45.2395 81.2778 44.0183 80.8884 42.2676C80.4999 40.5206 80.2976 38.3398 80.2976 35.71C80.2976 33.0803 80.4999 30.9002 80.8884 29.1533L80.8894 29.1494C81.2805 27.3639 81.8249 26.1299 82.4587 25.3516C83.0889 24.6023 83.7814 24.2832 84.5798 24.2832ZM63.281 46.627C63.2932 46.6415 63.3058 46.6556 63.3181 46.6699C63.3057 46.6555 63.2924 46.6416 63.28 46.627C63.2051 46.5328 63.1338 46.4332 63.0623 46.3311C63.1338 46.4334 63.206 46.5326 63.281 46.627ZM161.177 46.6299C161.165 46.6436 161.152 46.6564 161.14 46.6699C161.156 46.6523 161.172 46.6352 161.187 46.6172L161.177 46.6299ZM91.7888 43.9297C91.7517 44.0827 91.7132 44.2337 91.6736 44.3828C91.6353 44.5318 91.5961 44.6787 91.5554 44.8232C91.5958 44.6787 91.6343 44.5317 91.6726 44.3828C91.7122 44.2337 91.7507 44.0827 91.7878 43.9297H91.7888ZM141.651 37.6445H137.983L139.817 28.6943L141.651 37.6445ZM89.2468 28.9355C89.298 29.1656 89.3466 29.4025 89.3914 29.6455L89.5154 30.3945C89.4386 29.8821 89.3492 29.3958 89.2468 28.9355ZM73.8445 29.7129L71.0193 29.9717L73.8435 29.7129C73.8154 29.5153 73.7863 29.3201 73.7546 29.1279C73.7863 29.3202 73.8163 29.5152 73.8445 29.7129ZM165.907 29.7129L163.082 29.9717L165.906 29.7129C165.878 29.5153 165.849 29.3201 165.817 29.1279C165.849 29.3202 165.879 29.5152 165.907 29.7129ZM153.419 29.6885C153.408 29.7456 153.4 29.8035 153.389 29.8613C153.4 29.8035 153.407 29.7456 153.418 29.6885L153.562 28.9795L153.419 29.6885ZM58.7673 28.3779C58.7893 28.2695 58.8097 28.1615 58.8328 28.0547L58.9314 27.6201C58.8731 27.8679 58.8194 28.1207 58.7673 28.3779ZM150.83 28.3779C150.852 28.2695 150.872 28.1615 150.895 28.0547L150.994 27.6201C150.936 27.8679 150.882 28.1207 150.83 28.3779ZM88.9519 27.7832C88.9952 27.9294 89.0366 28.0792 89.0769 28.2324C89.0366 28.0792 88.9952 27.9294 88.9519 27.7832ZM88.8142 27.3447C88.8553 27.4679 88.8946 27.5939 88.9333 27.7227C88.8946 27.594 88.8552 27.4679 88.8142 27.3447ZM91.6736 26.9512C91.7133 27.1005 91.7516 27.2518 91.7888 27.4053C91.7516 27.2518 91.7123 27.1005 91.6726 26.9512C91.6366 26.8112 91.5993 26.6732 91.5613 26.5371C91.5994 26.6732 91.6375 26.8111 91.6736 26.9512ZM88.7136 27.0557C88.7388 27.1253 88.7635 27.196 88.7878 27.2676C88.7635 27.196 88.7388 27.1253 88.7136 27.0557ZM88.6082 26.7734C88.6257 26.8182 88.6427 26.8636 88.6599 26.9092C88.6427 26.8635 88.6257 26.8182 88.6082 26.7734ZM88.5007 26.5088C88.5153 26.5432 88.5284 26.5784 88.5427 26.6133C88.5237 26.567 88.5055 26.5209 88.4861 26.4756L88.5007 26.5088ZM69.365 25.1836C69.3721 25.1938 69.3784 25.2046 69.3855 25.2148C69.3753 25.1999 69.3656 25.1847 69.3552 25.1699L69.365 25.1836ZM63.281 24.751L63.1375 24.9336C63.1844 24.871 63.2317 24.81 63.28 24.751L63.4324 24.5732C63.3811 24.6305 63.3309 24.6899 63.281 24.751ZM68.8855 24.5723L69.0476 24.7627C68.9939 24.6969 68.9394 24.6336 68.8845 24.5723L68.7185 24.3945C68.7747 24.4516 68.8305 24.5108 68.8855 24.5723ZM60.5691 23.3301C60.5071 23.4365 60.4462 23.5456 60.3865 23.6562H60.3855C60.4453 23.5454 60.506 23.4366 60.5681 23.3301C60.5963 23.2818 60.6264 23.2349 60.655 23.1875C60.6265 23.2348 60.5971 23.2819 60.5691 23.3301ZM152.632 23.3301C152.57 23.4365 152.509 23.5456 152.449 23.6562H152.448C152.508 23.5454 152.569 23.4366 152.631 23.3301C152.659 23.2818 152.689 23.2349 152.718 23.1875C152.689 23.2348 152.66 23.2819 152.632 23.3301ZM84.9939 23.3057C85.0126 23.3077 85.031 23.3111 85.0496 23.3135C85.0268 23.3106 85.0041 23.3071 84.9812 23.3047L84.9939 23.3057ZM158.291 23.2832C158.354 23.2832 158.417 23.2853 158.479 23.2891L158.291 23.2832ZM71.1414 22.334C71.2257 22.4436 71.3085 22.5558 71.3894 22.6709L71.6267 23.0254C71.4719 22.7841 71.3102 22.5533 71.1414 22.334ZM60.783 22.9766C60.8084 22.9365 60.8353 22.8978 60.8611 22.8584C60.8353 22.8978 60.8084 22.9365 60.783 22.9766ZM152.845 22.9766C152.871 22.9365 152.898 22.8978 152.924 22.8584C152.898 22.8978 152.871 22.9365 152.845 22.9766ZM61.0095 22.6367C61.0417 22.5903 61.0744 22.5445 61.1072 22.499C61.0745 22.5445 61.0417 22.5903 61.0095 22.6367ZM153.072 22.6367C153.104 22.5903 153.137 22.5445 153.17 22.499C153.137 22.5445 153.104 22.5903 153.072 22.6367ZM162.948 22.0098C163.035 22.1143 163.12 22.2225 163.205 22.334H163.204C163.101 22.1985 162.996 22.0685 162.89 21.9434C162.909 21.9657 162.929 21.9871 162.948 22.0098ZM61.2566 22.2988C61.283 22.2641 61.308 22.2284 61.3347 22.1943C61.308 22.2284 61.283 22.2641 61.2566 22.2988ZM153.319 22.2988C153.346 22.2641 153.37 22.2284 153.397 22.1943C153.37 22.2284 153.346 22.2641 153.319 22.2988ZM162.587 21.6045C162.674 21.6971 162.76 21.7933 162.845 21.8926C162.76 21.7933 162.674 21.6971 162.587 21.6045ZM162.415 21.4248C162.437 21.447 162.458 21.4706 162.48 21.4932C162.447 21.459 162.413 21.4248 162.38 21.3916L162.415 21.4248ZM63.0164 20.5967C62.7588 20.7672 62.5111 20.9617 62.2722 21.1787L62.0359 21.4033C62.3462 21.0932 62.6728 20.8241 63.0164 20.5967ZM155.079 20.5967C154.821 20.7672 154.574 20.9617 154.335 21.1787L154.098 21.4033C154.409 21.0932 154.735 20.8241 155.079 20.5967ZM162.084 21.1182C162.113 21.1442 162.143 21.1705 162.173 21.1973C162.143 21.1705 162.113 21.1442 162.084 21.1182Z" fill="#FF6900"/>
</svg>
