<svg width="269" height="90" viewBox="0 0 269 90" fill="none" xmlns="http://www.w3.org/2000/svg">
<path d="M118.558 0.168982C119.933 -0.0585649 121.581 -0.0560041 122.847 0.174841C123.452 0.285062 124.645 0.332584 125.499 0.281286C126.352 0.22999 127.255 0.283828 127.506 0.400427C128.24 0.742785 129.156 0.765581 130.417 0.473669C131.066 0.323323 132.445 0.213594 133.482 0.229529C134.519 0.245497 135.986 0.252323 136.742 0.245154C137.498 0.238017 139.045 0.357672 140.179 0.510779C141.314 0.663859 142.316 0.659678 142.405 0.501013C142.494 0.342497 143.094 0.412698 143.738 0.657263C144.421 0.916688 145.418 1.01955 146.128 0.903357C146.797 0.793779 147.57 0.781772 147.845 0.87699C148.121 0.972219 148.705 0.903517 149.144 0.724646C149.715 0.492009 150.347 0.547129 151.36 0.917029C152.522 1.34116 152.904 1.35138 153.475 0.973669C153.859 0.720434 154.201 0.615766 154.237 0.741247C154.273 0.867166 155.011 0.954285 155.878 0.934607C156.744 0.91491 158.027 0.967005 158.728 1.05082C159.429 1.13465 160.358 1.11373 160.792 1.00394C161.225 0.894284 161.871 0.868286 162.228 0.946326C162.585 1.0245 163.324 0.962766 163.87 0.80863C164.527 0.623048 165.734 0.723948 167.442 1.10843C169.222 1.50911 170.088 1.5769 170.235 1.32621C170.377 1.08424 170.687 1.09312 171.167 1.35258C171.627 1.60173 172.42 1.64037 173.368 1.46097C175.279 1.09916 176.838 1.39101 177.341 2.20414C177.784 2.91935 179.378 3.29384 179.598 2.73441C179.953 1.83352 189.281 2.33181 190.441 3.31351C190.952 3.7459 191.185 3.76293 191.763 3.40922C192.184 3.15174 193.219 3.02448 194.345 3.09183C195.378 3.1536 196.681 3.14102 197.242 3.06449C197.802 2.9879 199.839 3.10958 201.768 3.33402C203.697 3.55841 205.447 3.67952 205.659 3.60355C205.87 3.52749 206.283 3.72476 206.577 4.04203C206.989 4.48735 207.213 4.54833 207.556 4.30863C209.018 3.28682 215.798 3.21802 220.857 4.17386C223.346 4.64416 225.628 4.82783 226.356 4.61527C226.67 4.52349 228.305 4.84163 229.989 5.32328C231.673 5.80495 233.101 6.09117 233.164 5.95902C233.226 5.82695 233.289 5.80074 233.304 5.90043C233.32 6.00057 234.802 6.50324 236.597 7.01761C241.069 8.29856 241.483 8.45833 241.87 9.04593C242.14 9.45604 242.326 9.49072 242.799 9.21879C243.486 8.82466 244.932 9.13324 245.381 9.76957C245.569 10.0365 246.564 10.3515 247.933 10.5772C252.829 11.3843 254.421 11.8561 256.469 13.1065C258.394 14.2813 258.472 14.3029 258.769 13.7461C259.03 13.2575 259.183 13.2314 259.783 13.5723C260.172 13.7933 261.199 14.2794 262.066 14.6524C263.048 15.0748 263.78 15.5673 264.008 15.96C264.234 16.3479 264.437 16.4871 264.538 16.3213C264.628 16.1734 265.266 16.2245 265.957 16.4346C267.37 16.8643 267.969 17.6268 268.505 19.6787C269.126 22.0622 268.926 22.4453 267.035 22.4912C265.738 22.5227 265.33 22.8263 265.389 23.7159C265.434 24.3847 265.878 25.1411 266.66 25.8809C267.088 26.286 267.504 26.8147 267.585 27.0557L267.731 27.4942L267.537 27.7227C267.253 28.055 265.436 27.685 263.954 26.9932C262.681 26.3993 262.661 26.3761 262.214 24.9688C261.965 24.1867 261.71 23.5344 261.647 23.5186C261.585 23.5047 261.149 24.2103 260.678 25.086C260.018 26.315 259.741 26.6612 259.462 26.6055C259.24 26.5611 259.068 26.7113 259.019 26.9912C258.909 27.6223 258.939 29.3778 259.077 30.3799C259.218 31.4075 259.586 31.5318 261.317 31.1358C262.651 30.8307 263.046 31.1124 263.227 32.5C263.283 32.9236 263.442 33.5363 263.583 33.8614C264.023 34.8826 265.193 36.4294 265.991 37.0479C266.953 37.7929 267.641 38.933 267.794 40.0352C267.925 40.9866 267.961 43.5678 267.86 44.837C267.817 45.3764 267.543 46.4447 267.083 47.8702C266.469 49.7681 266.322 50.0792 266.015 50.1309C265.82 50.1638 265.543 50.3318 265.401 50.5039C265.259 50.6761 264.837 50.7485 264.464 50.6651C263.826 50.5227 263.784 50.5573 263.773 51.2276C263.765 51.6916 263.719 51.9323 263.642 51.9151C263.577 51.9002 263.543 51.6507 263.566 51.3604C263.589 51.07 263.551 50.8193 263.481 50.8037C263.412 50.7889 263.336 51.0138 263.313 51.3037C263.29 51.5937 263.233 51.7824 263.186 51.7237C263.087 51.5973 262.8 52.6679 262.848 52.9854C262.897 53.3065 264.424 53.6837 264.667 53.4346C264.826 53.2708 264.866 53.3552 264.832 53.7823C264.798 54.2075 264.83 54.2752 264.961 54.0567C265.064 53.8828 265.204 53.912 265.31 54.1299C265.483 54.4843 265.48 54.5664 265.201 57.4502C265.001 59.51 264.807 60.9583 264.559 62.2256C264.364 63.2261 264.133 64.5934 264.046 65.2637C263.85 66.7694 263.577 68.102 263.344 68.6944C263.247 68.9423 263.007 69.923 262.81 70.8741C262.614 71.826 262.052 74.21 261.563 76.1719C261.074 78.1341 260.484 80.7889 260.252 82.0713C259.818 84.4622 259.147 87.3107 258.855 87.9981C258.363 89.156 256.017 89.9076 255.065 89.212C254.775 88.9998 252.625 88.3563 250.288 87.7813C247.95 87.2063 245.741 86.5805 245.379 86.3907C245.015 86.2006 242.166 85.3765 239.047 84.5596C235.927 83.7428 233.076 82.9406 232.711 82.7764C232.346 82.6124 231.973 82.4462 231.881 82.4073C231.79 82.3684 231.578 82.3465 231.41 82.3584C231.241 82.3699 230.704 81.9901 230.214 81.5147C229.403 80.7264 229.254 80.6789 228.544 80.9844C228.115 81.1687 227.538 81.2456 227.262 81.1553C224.91 80.3855 220.092 79.4321 219.238 79.5674C218.481 79.6879 217.891 79.5594 217.087 79.0977C216.478 78.7482 215.826 78.4501 215.638 78.4356C214.573 78.3542 214.221 78.0832 213.137 76.5088C211.951 74.7856 211.828 74.7419 211.317 75.8623C211.115 76.3058 211.122 76.3537 211.464 76.8301C212.294 77.9843 211.798 78.3716 210.041 77.9424C209.332 77.7694 208.619 77.6023 208.457 77.5713C207.387 77.3677 206.018 76.708 205.707 76.2471C205.172 75.4559 204.121 75.5582 203.576 76.4541C203.161 77.1353 203.128 77.1399 202.901 76.542C202.616 75.7909 202.484 75.7371 202.075 76.2071C201.805 76.517 201.719 76.4459 201.416 75.6621C201.08 74.7969 201.056 74.7839 200.797 75.3194C200.484 75.9634 200.489 75.9344 200.552 76.8711C200.655 78.3868 200.404 78.3746 199.464 76.8174C197.507 73.5771 196.889 73.0481 196.774 74.5147C196.748 74.85 196.818 75.4195 196.93 75.7803C197.043 76.1412 197.122 76.6021 197.106 76.8047C197.063 77.3496 196.983 77.239 196.654 76.1787C196.281 74.9772 196.198 74.9639 195.572 76.0108L195.062 76.8633L194.528 76.1787C194.234 75.8023 193.703 75.0708 193.349 74.5537C192.847 73.8202 192.654 73.688 192.474 73.9502C192.144 74.4325 192.149 74.8797 192.49 75.2452C192.953 75.7419 193.263 76.587 193.213 77.2159C193.15 78.0002 192.872 77.6405 191.825 75.4248C190.668 72.9768 190.422 73.0245 190.095 75.7598C189.926 77.1764 189.864 77.2461 189.588 76.3223C189.419 75.7576 189.321 75.7073 188.874 75.9561C188.583 76.1177 187.886 76.0789 187.286 75.8672C186.273 75.51 186.21 75.4414 186.123 74.6065C186.072 74.1214 185.919 73.5973 185.782 73.4414C185.48 73.0986 184.9 73.5345 184.642 74.2989C184.495 74.7343 184.279 74.8319 183.672 74.7364C183.242 74.6689 182.841 74.7108 182.781 74.8291C182.72 74.9471 182.656 74.7629 182.637 74.42C182.612 73.9438 182.438 73.6943 181.903 73.3692C181.176 72.928 180.925 72.4599 180.83 71.3731C180.749 70.4464 180.14 69.7908 179.274 69.7002C178.408 69.6096 178.24 70.0211 178.623 71.2998L178.869 72.1221L178.634 72.8526C178.506 73.2544 178.385 73.7714 178.367 74.001C178.325 74.5308 178.067 74.4782 177.802 73.8858C177.689 73.6332 176.98 73.1747 176.226 72.8662C174.747 72.2611 174.512 72.0042 174.734 71.2422C174.809 70.9864 174.95 70.7905 175.049 70.8067C175.394 70.8629 175.05 70.1934 174.225 69.2022L173.425 68.2412L172.877 69.0459C172.242 69.9762 172.065 69.9918 171.631 69.1573C171.184 68.2991 171.095 68.3433 171.007 69.4659C170.892 70.9438 170.953 71.2071 171.495 71.5713C171.926 71.8608 172.035 71.8128 172.277 71.2246L172.558 70.5411L172.421 71.5342C172.345 72.0807 172.234 72.7013 172.175 72.9131C172.057 73.3389 170.578 73.1302 170.142 72.626L169.883 72.3262L170.264 71.5801C170.588 70.9472 170.636 70.7479 170.582 70.2696C170.528 69.8041 170.366 69.7077 169.65 69.7168C169.174 69.7228 168.647 69.5495 168.479 69.3311C167.278 67.7655 166.239 67.2547 162.567 66.4248C160.543 65.9673 158.867 65.465 158.843 65.3086C158.716 64.4676 159.027 64.328 161.299 64.208C161.75 64.1843 162.087 64.0471 162.048 63.9034C161.925 63.4383 160.592 62.499 160.124 62.5469C159.874 62.5725 159.475 62.7694 159.239 62.9844C158.88 63.3111 158.718 63.2775 158.256 62.7784C157.338 61.7883 156.298 62.488 156.154 64.1914C156.141 64.345 156.679 64.4857 157.35 64.5039C158.196 64.527 158.535 64.6441 158.457 64.8858C158.394 65.0774 158.101 65.3634 157.805 65.5215C157.166 65.8627 153.465 65.7009 153.05 65.3135C152.876 65.1509 152.666 65.2111 152.523 65.4649C152.384 65.7107 151.985 65.8383 151.565 65.7705C151.169 65.7067 150.617 65.7274 150.339 65.8174C149.918 65.9534 149.84 65.8923 149.875 65.4541C149.945 64.5762 150.695 64.2285 152.13 64.4092C153.431 64.5732 154.17 64.3106 154.221 63.6661C154.235 63.4937 154.036 63.1901 153.781 62.9912C153.219 62.5551 148.551 61.9207 147.096 62.083C145.489 62.2623 142.492 62.2311 142.125 62.0313C141.104 61.4735 137.733 61.5513 136.454 62.1621C134.971 62.8706 134.646 62.8791 134.611 62.211C134.584 61.7042 134.428 61.6978 133.093 62.1553C131.827 62.5894 131.159 62.5888 128.601 62.1475C125.38 61.5919 125.415 61.5949 123.148 61.667C121.455 61.7209 119.835 61.9168 118.73 62.2022C118.321 62.3079 116.783 62.2156 115.314 61.9961C112.755 61.6139 112.625 61.5609 112.204 60.7481C111.591 59.5648 111.181 59.5548 110.569 60.708C110.084 61.6205 110.024 61.6489 109.035 61.4336C108.349 61.2843 107.696 61.3825 107.081 61.7276C106.573 62.0126 105.518 62.2639 104.738 62.2862C103.958 62.3084 103.005 62.4144 102.62 62.5215C102.235 62.6287 101.387 62.6023 100.736 62.4629C99.1274 62.1186 98.4144 62.3781 97.7213 63.5586C97.4111 64.0869 97.0772 64.5033 96.9791 64.4844C96.8812 64.4656 96.731 64.6051 96.6452 64.794C96.3208 65.5087 97.3905 65.0349 97.8913 64.2422L98.3942 63.4473L98.4039 64.2998C98.4107 64.9002 98.4721 65.1402 98.612 65.1104C98.7399 65.0829 98.7962 65.256 98.7692 65.5957C98.7376 65.9933 98.5766 66.1478 98.1188 66.2188C97.7842 66.2707 96.9106 66.4416 96.1774 66.5987C95.1535 66.818 94.8097 66.7802 94.695 66.4375C94.5491 66.0014 94.5498 65.9806 94.7457 65.5342C94.8561 65.2829 95.0534 65.1468 95.1842 65.2315C95.5435 65.4646 95.6057 64.6292 95.2663 64.1309C94.7918 63.4351 93.8395 63.2823 90.2321 63.3252C88.2481 63.3488 88.1903 63.3298 87.4996 62.418C86.5086 61.1097 85.6896 61.0955 85.526 62.3838C85.4846 62.7107 85.501 62.9921 85.5621 63.0088C85.6472 63.0322 85.6386 63.107 85.526 63.3321C85.2115 63.9606 83.9817 63.8071 83.0934 63.0284C82.0933 62.1516 81.6224 62.2366 80.5954 63.4795C80.242 63.9071 79.8455 64.2329 79.7135 64.2041C79.505 64.1575 79.4874 64.041 79.5817 63.2959C79.7205 62.199 79.4857 61.8241 78.734 61.9454C78.4385 61.9931 78.0592 61.8599 77.8922 61.6495C77.6356 61.3264 77.5244 61.3882 77.1705 62.0469C76.9026 62.5456 76.6172 62.8 76.3786 62.7539C76.1736 62.7147 75.914 62.8982 75.8014 63.1621C75.6889 63.4261 75.4728 63.6146 75.3209 63.5811C75.1691 63.5472 74.8953 63.746 74.7135 64.0235C74.4093 64.4878 74.3497 64.4747 73.9606 63.8555C73.1852 62.6216 71.7672 62.9498 71.2213 64.4893C70.834 65.5816 70.4162 65.748 69.4811 65.1836C68.6629 64.6898 68.1202 64.7418 67.5993 65.3633C67.4688 65.5191 66.3029 65.3833 65.0055 65.0616C62.9465 64.5509 62.6119 64.3878 62.3453 63.7657C62.0446 63.0636 62.0357 63.0637 61.7184 63.7696C61.469 64.3244 61.3308 64.4211 61.1022 64.2012C60.4948 63.6169 58.1311 62.5249 57.8239 62.6866C57.6485 62.779 57.3442 63.2991 57.1471 63.8418C56.8154 64.7559 56.319 65.4196 56.0153 65.3565C55.9449 65.3403 55.7411 64.8931 55.5621 64.3614C55.1898 63.2547 54.9075 63.1182 54.1276 63.669C53.508 64.1065 53.2689 64.089 51.7887 63.4952C51.2171 63.2658 49.9757 62.8552 49.0299 62.583C48.0842 62.3109 47.2602 62.0524 47.1989 62.0088C46.9822 61.8548 47.3465 61.0056 47.7672 60.6836C48.2186 60.3387 48.2665 60.1204 48.1373 58.9746C48.0613 58.2998 47.9355 58.1432 47.2135 57.8272C46.2463 57.4038 45.6961 56.6578 45.7243 55.8077C45.7545 54.8948 46.3228 54.1441 46.9987 54.125C47.6183 54.1077 48.1058 53.7041 48.1481 53.1729C48.1611 53.0069 48.0912 52.5675 47.9928 52.1963C47.8467 51.6456 47.6581 51.5028 46.9703 51.42C46.4326 51.3552 45.9663 51.0882 45.6823 50.6827C44.9736 49.6703 43.2789 48.8121 42.5748 49.1094C41.914 49.3887 40.5882 49.2076 40.5309 48.8301C40.4345 48.1933 41.0861 47.6742 42.4821 47.2764C42.9166 47.1526 43.5153 46.9551 43.8121 46.8379C44.1089 46.721 44.521 46.7669 44.7282 46.9395C45.1744 47.3116 45.7571 46.6123 46.0719 45.3272L46.2731 44.5069L45.9547 44.6758C45.7499 44.7838 45.6464 44.7082 45.6657 44.4649C45.7217 43.7603 45.427 43.1861 45.2457 43.6465C45.1017 44.0128 45.1002 44.1014 45.236 44.375C45.3208 44.5461 45.3777 44.8491 45.3619 45.0489C45.3191 45.5881 44.8296 45.3787 44.3629 44.6211C43.8697 43.8202 43.2824 43.9221 42.8629 44.8819C42.5639 45.5661 41.3697 46.3179 40.7868 46.1885C40.6121 46.1493 40.1458 45.7107 39.7496 45.2139C39.1123 44.4145 38.8605 44.2983 37.5778 44.212C36.7798 44.1583 35.7306 44.2373 35.2467 44.3877C34.7629 44.5381 34.2338 44.6381 34.0709 44.6094C33.2488 44.4648 31.6531 44.8703 31.3346 45.3047C31.1362 45.5755 30.9012 46.1009 30.8131 46.4727C30.6879 47.0013 30.5607 47.1286 30.2301 47.0547C29.9976 47.0027 29.688 46.7601 29.5426 46.5157C29.135 45.8303 27.0576 45.2398 26.859 45.753C26.6348 46.3324 26.2474 46.5726 25.5953 46.5371C25.1883 46.515 24.9097 46.7308 24.5514 47.3457C23.8606 48.5313 23.4026 48.3774 23.1276 46.8672C22.8232 45.1958 22.5028 45.0685 21.192 46.0967C20.0909 46.9605 20.062 46.9643 19.2809 46.3575C18.461 45.7205 16.5945 45.5901 14.0553 45.9932C12.8494 46.1847 12.3487 45.7514 12.2877 44.4629C12.2592 43.8588 12.2911 43.7016 12.4938 43.4561C13.002 42.8408 14.0842 42.7594 14.6266 43.2959C15.2628 43.9252 15.6514 43.6529 16.3287 42.1026C16.734 41.175 16.77 41.0205 16.6422 40.7627C16.3395 40.1525 14.1199 37.7208 13.8004 37.6495C13.6166 37.6082 13.4508 37.4747 13.4323 37.3526C13.4138 37.2301 13.5157 36.5673 13.6588 35.8799C13.8019 35.1924 13.9763 34.2229 14.0455 33.7256C14.1658 32.8616 14.1531 32.8085 13.7692 32.5215C13.5482 32.3564 13.1564 31.6938 12.8981 31.0498C12.4944 30.0437 12.4311 29.7118 12.4489 28.6885C12.4695 27.5011 12.4678 27.497 11.8453 27.1084C11.502 26.8941 11.1266 26.4469 11.0114 26.1153C10.8961 25.7838 10.695 25.4904 10.5651 25.4629C10.1924 25.3849 8.91625 26.3916 8.75062 26.8946C8.66834 27.1449 8.23907 29.3651 7.79652 31.8282C7.08989 35.761 6.93629 36.8324 6.53285 40.6182C6.28018 42.9892 5.9717 45.4197 5.84828 46.0196C5.51545 47.6366 5.0613 48.9542 4.85218 48.9082C4.75077 48.8856 4.4895 49.0664 4.27211 49.3096C4.05439 49.5528 3.38245 49.8082 2.77894 49.877C2.17519 49.9458 1.35685 50.2419 0.960583 50.5352C0.165569 51.1236 -0.0253184 50.9074 0.00257493 49.4522C0.0284174 48.1049 0.184201 47.4047 0.678356 46.42C1.102 45.5758 1.14749 45.3894 1.25648 44.0401C1.36179 42.7364 1.42032 42.4758 1.79261 41.6524L2.21058 40.7286L2.02406 39.2989C1.92145 38.5125 1.78927 37.1815 1.73109 36.3418C1.64044 35.0334 1.65217 34.5866 1.81215 33.212C1.9148 32.3299 2.06337 31.0452 2.14222 30.3575C2.24242 29.4834 2.27986 28.1435 2.26722 25.9063C2.25142 23.1084 2.28121 22.367 2.49965 20.0147C2.66248 18.2611 2.82575 17.0101 2.96937 16.4239C3.23176 15.3529 4.36995 12.969 4.59535 13.0176C4.68235 13.037 5.00046 12.791 5.3014 12.4707C5.90743 11.8257 8.03319 11.2776 9.05238 11.5039C9.41339 11.5838 10.3484 11.3677 11.1305 11.0235C11.9129 10.6792 12.8661 10.3451 13.2487 10.2813C13.6313 10.2174 14.248 9.9917 14.6188 9.77933C14.9895 9.56704 15.6529 9.36366 16.0934 9.32718C16.534 9.29079 17.0301 9.1307 17.195 8.97172C17.3602 8.81282 18.2078 8.69996 19.0787 8.72172C19.95 8.74343 21.1758 8.62557 21.8024 8.45902C22.4294 8.29245 24.2824 8.04911 25.9205 7.91898C27.5589 7.78883 28.9635 7.6068 29.0416 7.51468C29.1209 7.42309 29.6192 7.46136 30.15 7.59965C31.1145 7.85088 33.0289 7.60994 34.6998 7.02738C35.1851 6.85818 36.0953 6.82348 36.7223 6.95023C37.3492 7.07703 38.3741 7.05705 38.9996 6.90531C39.6251 6.75366 40.8894 6.63308 41.8092 6.63773C42.7291 6.64242 43.6855 6.51488 43.9342 6.35453C44.1831 6.19424 45.0939 6.1571 45.9577 6.27152C47.4129 6.46419 49.1899 6.21254 51.6842 5.46097C53.8 4.82346 54.2072 4.75314 54.9039 4.90238C55.2983 4.98675 55.8995 4.95052 56.2399 4.8223C56.5805 4.69409 57.4521 4.66146 58.1764 4.75004C58.9007 4.83855 59.8756 4.74776 60.3434 4.54789C60.8111 4.34796 61.3737 4.3158 61.5934 4.4766C61.8182 4.64127 62.3433 4.59866 62.7955 4.37894C63.2373 4.16421 63.7892 4.02903 64.0211 4.07914C64.2531 4.1292 64.6085 4.02732 64.8112 3.85258C65.014 3.67798 65.6366 3.61368 66.195 3.70902C67.3741 3.91053 69.6073 3.72909 71.1178 3.30961C72.8145 2.83843 74.1556 2.77353 75.6071 3.09183C76.7037 3.3323 77.197 3.26602 78.1647 2.75004C78.9636 2.32405 79.9225 2.11916 81.0358 2.13578C83.6014 2.17406 85.4217 2.04421 85.8678 1.79008C86.0624 1.67913 86.5171 1.64218 86.9391 1.69535L87.2946 1.75199C87.7125 1.80344 88.1502 1.759 88.3248 1.63968C88.8049 1.31174 90.6777 1.00067 91.5856 1.09769C91.9833 1.14019 92.6844 1.06723 93.1432 0.935583C93.6021 0.80401 94.5652 0.827293 95.2838 0.987341C96.0675 1.16186 96.9108 1.13102 97.3903 0.910193C97.9115 0.670125 98.3701 0.666624 98.7077 0.901404C98.9924 1.09938 99.4718 1.15079 99.7731 1.01468C101.072 0.427694 103.021 0.204839 105.309 0.381872C106.659 0.486331 107.79 0.662226 107.821 0.772497C107.852 0.882339 107.999 0.845011 108.146 0.68949C108.654 0.153043 111.206 -0.0772361 114.4 0.125036C116.161 0.236541 118.032 0.256083 118.558 0.168982ZM173.825 72.3604C173.796 71.9253 173.988 71.543 174.078 71.8575C174.153 72.1219 174.04 72.7422 173.922 72.7159C173.881 72.7061 173.837 72.5461 173.825 72.3604ZM173.582 71.5694C173.74 71.2988 173.774 71.3327 173.743 71.7286C173.696 72.3229 173.433 72.7186 173.402 72.2432C173.39 72.0619 173.471 71.7585 173.582 71.5694ZM165.339 71.1358C166.464 70.6869 166.744 70.686 166.955 71.1289C167.353 71.9679 167.069 72.4376 166.271 72.2598C165.858 72.1678 165.296 72.1802 165.022 72.2862C164.678 72.4192 164.515 72.3539 164.497 72.0762C164.463 71.5659 164.574 71.4406 165.339 71.1358ZM91.9762 65.6768C92.4791 65.4841 92.7461 65.8965 92.5514 66.5655C92.4099 67.0513 91.6527 67.0918 91.5807 66.6172C91.498 66.0725 91.6047 65.8194 91.9762 65.6768ZM99.1207 66.042C98.9209 65.3177 99.2522 64.9509 99.8815 65.2002L100.497 65.4444L100.178 66C99.8339 66.6006 99.2809 66.6227 99.1207 66.042ZM102.934 64.6827C103.652 64.3919 104.197 64.7707 104.137 65.5196C104.117 65.7805 104.047 66.0538 103.982 66.127C103.753 66.3862 102.251 66.025 102.163 65.6895C102.032 65.1909 102.191 64.9837 102.934 64.6827ZM101.389 65.1065C101.538 65.1404 101.451 65.8916 101.278 66.0743C101.217 66.1386 101.187 65.9404 101.212 65.6338C101.236 65.3273 101.316 65.0901 101.389 65.1065ZM141.258 64.3555C142.235 64.1155 142.91 64.2502 142.939 64.6914C142.978 65.2789 142.741 65.5011 141.976 65.5957C141.568 65.6462 141.011 65.7533 140.739 65.833C140.438 65.9212 140.235 65.8373 140.22 65.6192C140.174 64.9239 140.485 64.5456 141.258 64.3555ZM104.933 64.8233C105.045 64.8485 105.043 64.9457 104.923 65.3584C104.842 65.6358 104.761 65.8601 104.744 65.8565C104.726 65.8526 104.73 65.6116 104.754 65.3213C104.777 65.0309 104.858 64.8065 104.933 64.8233ZM138.439 64.628C138.643 63.9304 140.113 64.266 139.988 64.9815C139.94 65.254 139.815 65.528 139.709 65.5899C139.308 65.8239 138.895 65.8575 138.703 65.6729C138.328 65.3134 138.287 65.1492 138.439 64.628ZM105.57 65.3418C105.543 64.9286 106.136 64.56 106.24 64.9258C106.28 65.0665 106.279 65.3239 106.238 65.4981C106.14 65.9136 105.599 65.7871 105.57 65.3418ZM123.504 64.5079C123.956 64.3015 124.119 64.705 123.839 65.3409C123.593 65.9017 123.406 65.8561 123.254 65.1983C123.143 64.7177 123.162 64.6637 123.504 64.5079ZM126.547 65.3672C126.273 64.3745 127.016 64.0338 129.037 64.2266C131.669 64.4778 131.784 64.5095 131.785 64.9688C131.786 65.5916 131.337 65.7656 130.097 65.6231C129.482 65.5524 128.491 65.5519 127.896 65.6221C126.571 65.7783 126.665 65.7956 126.547 65.3672ZM121.756 64.6407C121.996 64.6944 122.056 65.2648 121.848 65.5196C121.621 65.7977 121.203 65.6343 121.231 65.2784C121.263 64.8746 121.502 64.5842 121.756 64.6407ZM148.548 64.877C148.579 64.4797 149.034 64.3326 149.2 64.6661C149.348 64.9643 149.347 64.9709 149.136 65.3311C148.9 65.7349 148.623 65.7572 148.565 65.377C148.544 65.241 148.536 65.0158 148.548 64.877ZM144.502 65.0801C144.31 64.387 144.597 64.1896 145.64 64.2979C146.731 64.4111 146.983 64.8554 146.293 65.4473C145.865 65.8136 144.635 65.5614 144.502 65.0801ZM147.106 65.42C147.01 64.7887 147.143 64.3552 147.372 64.5557C147.586 64.7443 147.68 65.4165 147.486 65.3741C147.443 65.3646 147.349 65.4293 147.277 65.5176C147.205 65.6061 147.128 65.5623 147.106 65.42ZM133.921 65.1631C133.75 64.5618 134.088 64.1007 134.612 64.2178C135.145 64.3371 135.279 64.5735 135.098 65.0801C134.958 65.4727 134.027 65.5382 133.921 65.1631ZM136.207 64.9395C136.293 64.4097 136.734 64.4104 136.723 64.9405C136.719 65.1366 136.585 65.3193 136.424 65.3467C136.213 65.3828 136.153 65.2708 136.207 64.9395ZM71.5592 64.1739C71.6028 64.1836 71.6204 64.4293 71.5973 64.7198C71.554 65.2639 71.442 65.3967 71.3786 64.9795C71.3336 64.6835 71.453 64.1514 71.5592 64.1739ZM66.2282 18.6592C64.198 18.6593 62.4588 19.4462 61.068 20.9698C59.7163 22.4219 58.7367 24.4277 58.0768 26.9102L58.0748 26.918C57.4341 29.4091 57.1217 32.3447 57.1217 35.71C57.1217 39.0473 57.4342 41.9685 58.0748 44.459L58.0768 44.4668C58.7379 46.9538 59.7203 48.9623 61.0758 50.4151C62.4689 51.9079 64.2057 52.6748 66.2282 52.6748C68.6627 52.6747 70.6672 51.5317 72.1979 49.4131L72.2018 49.4073C73.7043 47.296 74.6206 44.4679 75.0211 41.003L75.1413 39.9707L74.1051 39.8907L71.3112 39.6748L70.36 39.6016L70.2418 40.5479C69.9439 42.9197 69.3806 44.5721 68.6383 45.6153C67.904 46.6471 67.1077 47.0507 66.2282 47.0508C65.381 47.0507 64.6743 46.7247 64.0543 45.9922C63.4106 45.1777 62.8652 43.9339 62.4752 42.1807C62.0865 40.4326 61.8854 38.2803 61.8854 35.71C61.8854 33.11 62.0866 30.9438 62.4752 29.1963L62.4762 29.1934C62.8689 27.3999 63.4169 26.1626 64.0543 25.3848L64.0553 25.3828C64.6814 24.616 65.3889 24.2833 66.2282 24.2832C66.9882 24.2834 67.7088 24.6332 68.4059 25.5645V25.5655L68.4137 25.5743C69.1292 26.5079 69.6951 27.9901 70.0309 30.127L70.1764 31.0528L71.11 30.9678L73.9352 30.708L74.9821 30.6123L74.8336 29.5713C74.3695 26.311 73.4282 23.6686 71.9381 21.7305H71.9391C70.4339 19.7437 68.5189 18.6594 66.2282 18.6592ZM84.5797 18.6592C82.5894 18.6592 80.868 19.3874 79.4733 20.8155L79.4674 20.8223C78.1224 22.2234 77.1491 24.2108 76.4889 26.6944L76.487 26.7022C75.8454 29.1962 75.5338 32.205 75.5338 35.71C75.5338 39.1591 75.8457 42.139 76.487 44.6319L76.4889 44.6397C77.1491 47.1231 78.1225 49.1107 79.4674 50.5118L79.4733 50.5186C80.868 51.9466 82.5894 52.6748 84.5797 52.6748C86.5676 52.6747 88.2795 51.9474 89.6549 50.5176L89.6559 50.5186C91.0256 49.1158 91.9991 47.1248 92.6393 44.6397C93.3027 42.1438 93.6246 39.1611 93.6246 35.71C93.6246 32.4226 93.3425 29.5701 92.7604 27.169L92.6393 26.6944C91.9991 24.2093 91.0246 22.2182 89.6549 20.8155C88.2796 19.386 86.5674 18.6594 84.5797 18.6592ZM158.291 18.6592C156.26 18.6593 154.521 19.4462 153.131 20.9698C151.779 22.4219 150.799 24.4277 150.139 26.9102L150.137 26.918C149.497 29.4091 149.184 32.3447 149.184 35.71C149.184 39.0473 149.497 41.9685 150.137 44.459L150.139 44.4668C150.8 46.9538 151.783 48.9623 153.138 50.4151C154.531 51.9079 156.268 52.6747 158.291 52.6748C160.725 52.6747 162.73 51.5317 164.26 49.4131L164.264 49.4073C165.767 47.2959 166.684 44.4679 167.085 41.003L167.204 39.9707L166.168 39.8907L163.374 39.6748L162.423 39.6016L162.304 40.5479C162.006 42.9197 161.443 44.5721 160.701 45.6153C159.966 46.6471 159.17 47.0507 158.291 47.0508C157.444 47.0507 156.737 46.7247 156.117 45.9922C155.473 45.1777 154.929 43.9339 154.539 42.1807C154.15 40.4325 153.948 38.2804 153.948 35.71C153.948 33.1099 154.15 30.9439 154.539 29.1963V29.1934C154.931 27.4 155.479 26.1626 156.117 25.3848L156.118 25.3828C156.744 24.616 157.451 24.2834 158.291 24.2832C159.051 24.2834 159.772 24.6335 160.469 25.5655L160.476 25.5743C161.192 26.5079 161.758 27.9901 162.093 30.127L162.239 31.0528L163.173 30.9678L165.998 30.708L167.045 30.6123L166.896 29.5713C166.432 26.311 165.491 23.6686 164.001 21.7305H164.002C162.496 19.7437 160.581 18.6594 158.291 18.6592ZM94.9293 19.3496V51.9844H99.57V31.544L105.349 51.2657L105.559 51.9844H111.055V19.3496H106.414V39.7862L100.635 20.0684L100.424 19.3496H94.9293ZM112.421 19.3496V24.9737H119.085V51.9844H123.725V24.9737H130.388V19.3496H112.421ZM137.229 19.3496L137.059 20.1377L130.426 50.7725L130.164 51.9844H135.045L135.208 51.1856L136.831 43.2686H142.803L144.426 51.1856L144.59 51.9844H149.47L149.209 50.7725L142.576 20.1377L142.405 19.3496H137.229ZM167.658 19.3496V24.9737H174.322V51.9844H178.963V24.9737H185.627V19.3496H167.658ZM204.791 19.3496V51.9844H209.431V36.8399L211.315 47.7032L211.459 48.5323H215.475L215.62 47.7032L217.504 36.837V51.9844H222.144V19.3496H216.308L216.167 20.1817L213.467 36.003L210.768 20.1817L210.627 19.3496H204.791ZM224.431 19.3496V51.9844H239.942V46.3604H229.072V38.3926H239.329V32.8545H229.072V24.9737H239.697V19.3496H224.431ZM84.8991 51.667C84.7936 51.6719 84.6872 51.6748 84.5797 51.6748L84.5788 51.6739C84.6861 51.6739 84.7928 51.6718 84.8981 51.667H84.8991ZM18.486 51.2354C18.4567 50.7914 18.7216 50.4178 18.82 50.7647C18.8586 50.9009 18.8784 51.1616 18.8639 51.3438C18.8286 51.7878 18.5166 51.6983 18.486 51.2354ZM20.2682 50.9414C20.3341 50.1127 20.4951 49.7556 20.653 50.086C20.7572 50.3042 20.7475 50.4009 20.5631 50.9932C20.3019 51.8325 20.1988 51.8144 20.2682 50.9414ZM27.2916 49.21C27.4203 48.9944 27.4539 49.0566 27.4225 49.4512C27.3533 50.3207 26.8544 50.92 26.0319 51.1221C25.0934 51.3527 23.4359 51.0262 23.4684 50.6172C23.5483 49.6163 24.8055 48.9747 26.1071 49.2705C26.6633 49.397 27.1964 49.3697 27.2916 49.21ZM208.929 28.0909L208.431 25.2207V50.9844L208.43 25.2139L208.929 28.0909ZM32.3229 48.4375C32.4584 48.3227 32.621 48.392 32.6842 48.5909C32.7862 48.9117 32.7676 49.0294 32.5182 49.6348C32.1297 50.5776 31.4816 50.9171 30.4938 50.6963C29.8784 50.5588 29.6644 50.3921 29.6911 50.0694C29.7757 49.0433 29.9833 48.6098 30.3805 48.6289C31.5144 48.6845 32.0996 48.6267 32.3229 48.4375ZM36.32 49.169C36.416 48.7649 37.7463 48.5867 37.8532 48.9639C37.9973 49.4729 37.617 49.7278 36.9088 49.5967C36.54 49.5284 36.2799 49.3393 36.32 49.169ZM21.4235 47.6065C21.5984 47.6568 21.5978 47.6668 21.3971 48.1377C21.1128 48.8046 20.8977 48.7484 21.0983 48.0596C21.1791 47.7821 21.3253 47.5783 21.4235 47.6065ZM20.7252 47.4385C20.8233 47.4604 20.8718 47.6593 20.8346 47.8887C20.7526 48.394 20.5938 48.5849 20.5416 48.2412C20.4683 47.7581 20.5505 47.4002 20.7252 47.4385ZM32.0426 46.3848C32.0887 46.396 32.1147 46.5528 32.1002 46.7344C32.0857 46.9166 32.0282 47.1554 31.9723 47.2647C31.9164 47.3738 31.8907 47.2159 31.9147 46.9141C31.9387 46.6124 31.9963 46.3744 32.0426 46.3848ZM84.5797 24.2832C85.3763 24.2834 86.0544 24.6008 86.6618 25.3418L86.6705 25.3516C87.3228 26.1274 87.8784 27.3607 88.2702 29.1495L88.2711 29.1534C88.6596 30.9002 88.861 33.0805 88.861 35.71C88.861 38.3398 88.6597 40.5207 88.2711 42.2676C87.8803 44.0247 87.3256 45.2459 86.6715 46.0245L86.5573 46.1534C85.9828 46.7755 85.3376 47.0507 84.5797 47.0508C83.7719 47.0508 83.0784 46.7379 82.4538 46.0205C81.8197 45.2395 81.2777 44.0183 80.8883 42.2676C80.4998 40.5207 80.2975 38.3398 80.2975 35.71C80.2975 33.0804 80.4998 30.9002 80.8883 29.1534L80.8893 29.1495C81.2803 27.3639 81.8248 26.1299 82.4586 25.3516C83.0888 24.6024 83.7813 24.2832 84.5797 24.2832ZM91.2965 45.6651C91.2513 45.8008 91.2045 45.9342 91.1569 46.0655C91.0615 46.328 90.9617 46.5816 90.8571 46.8262H90.8561C91.0131 46.4593 91.1604 46.0724 91.2965 45.6651ZM141.651 37.6446H137.983L139.817 28.6944L141.651 37.6446ZM238.329 33.8545V37.3926H238.328V33.8545H238.329ZM73.7545 29.128C73.7862 29.32 73.8163 29.5154 73.8444 29.7129H73.8434C73.8153 29.5153 73.7852 29.3201 73.7536 29.128H73.7545ZM165.817 29.128C165.849 29.32 165.879 29.5153 165.907 29.7129H165.906C165.878 29.5153 165.848 29.3201 165.816 29.128H165.817ZM153.562 28.9795C153.511 29.2077 153.464 29.4421 153.42 29.6827C153.464 29.4418 153.511 29.2069 153.562 28.9786V28.9795ZM69.2067 24.9659C69.2763 25.0568 69.3438 25.1516 69.4098 25.25L69.2067 24.9668L69.0475 24.7627C69.1011 24.8283 69.1543 24.8959 69.2067 24.9659ZM62.9401 25.2139C62.9996 25.1241 63.0608 25.0378 63.1227 24.9541C63.0607 25.0376 62.9996 25.1242 62.9401 25.2139ZM155.003 25.2139C155.062 25.1241 155.123 25.0378 155.185 24.9541C155.123 25.0376 155.062 25.1242 155.003 25.2139ZM63.2799 24.751C63.355 24.659 63.432 24.5717 63.5104 24.4883C63.4322 24.5715 63.3558 24.6592 63.2809 24.751L63.2643 24.7715C63.2697 24.7648 63.2745 24.7576 63.2799 24.751ZM155.495 24.5733C155.444 24.6306 155.393 24.69 155.343 24.751L155.327 24.7715C155.332 24.7648 155.337 24.7576 155.342 24.751L155.495 24.5733ZM164.133 23.7823L164.339 24.1856C164.26 24.0252 164.179 23.8688 164.096 23.7159C164.108 23.7381 164.121 23.7599 164.133 23.7823ZM60.568 23.3311C60.5059 23.4376 60.4452 23.5464 60.3854 23.6573L60.2096 23.9952C60.3247 23.765 60.4439 23.5432 60.568 23.3301V23.3311ZM152.631 23.3311C152.568 23.4376 152.508 23.5464 152.448 23.6573L152.272 23.9952C152.387 23.765 152.506 23.5432 152.631 23.3301V23.3311ZM163.843 23.2754C163.907 23.3808 163.969 23.4884 164.03 23.5977C163.969 23.4883 163.907 23.3808 163.843 23.2754ZM66.86 23.3438C66.927 23.3568 66.9934 23.3715 67.0592 23.3887H67.0582C66.9927 23.3716 66.9266 23.3567 66.86 23.3438ZM158.714 23.3096H158.713H158.714ZM66.6803 23.3145C66.7363 23.3221 66.7921 23.3304 66.8473 23.3409C66.7921 23.3303 66.7363 23.3222 66.6803 23.3145ZM84.9928 23.3057C85.0111 23.3077 85.0293 23.3103 85.0475 23.3125C85.0251 23.3097 85.0027 23.3071 84.9801 23.3047L84.9928 23.3057ZM66.4411 23.2901C66.5027 23.2939 66.5639 23.2995 66.6246 23.3067L66.4411 23.2901ZM163.69 23.0254C163.714 23.0628 163.736 23.1018 163.759 23.1397C163.686 23.0217 163.612 22.9058 163.535 22.793C163.587 22.8697 163.639 22.9465 163.69 23.0254ZM163.205 22.334C163.289 22.4436 163.372 22.5558 163.453 22.6709C163.467 22.6914 163.48 22.7127 163.495 22.7334C163.4 22.5965 163.303 22.4633 163.204 22.334C163.119 22.2227 163.033 22.1152 162.947 22.0108C163.034 22.1152 163.12 22.2226 163.205 22.334ZM70.6207 21.7071C70.7986 21.9021 70.9724 22.1111 71.1413 22.334C71.0569 22.2227 70.971 22.1152 70.8844 22.0108L70.6207 21.7071ZM153.646 21.8926H153.645H153.646ZM85.1129 19.6807C85.1593 19.6844 85.2056 19.6878 85.2516 19.6924C85.2056 19.6878 85.1593 19.6843 85.1129 19.6807ZM84.8991 19.6661C84.9304 19.6675 84.9616 19.67 84.9928 19.6719C84.9468 19.6692 84.9006 19.6669 84.8541 19.6651L84.8991 19.6661Z" fill="#FF6900"/>
</svg>
