<svg width="731" height="598" viewBox="0 0 731 598" fill="none" xmlns="http://www.w3.org/2000/svg">
<path d="M17.8081 65.2428C14.5008 65.2428 11.6994 63.9238 9.40378 61.286C7.10816 58.6481 5.35726 54.8965 4.15109 50.0312C2.98382 45.1658 2.40019 39.3919 2.40019 32.7093C2.40019 25.9681 2.98382 20.1649 4.15109 15.2995C5.35726 10.4341 7.10816 6.68254 9.40378 4.0447C11.6994 1.34823 14.5008 0 17.8081 0C21.4655 0 24.5782 1.81718 27.1462 5.45155C29.7142 9.0273 31.4262 14.0392 32.2822 20.4873L26.9128 21.0149C26.2513 16.5012 25.1035 13.1013 23.4693 10.8152C21.8741 8.52904 19.987 7.38597 17.8081 7.38597C15.5903 7.38597 13.7227 8.38249 12.2052 10.3755C10.7267 12.31 9.59833 15.1823 8.82015 18.9925C8.04197 22.7441 7.65288 27.3164 7.65288 32.7093C7.65288 38.0436 8.04197 42.5866 8.82015 46.3382C9.59833 50.0898 10.7267 52.9621 12.2052 54.9552C13.7227 56.8896 15.5903 57.8568 17.8081 57.8568C20.2204 57.8568 22.2632 56.5965 23.9362 54.0759C25.6093 51.5553 26.7377 47.8037 27.3213 42.8211L32.6324 43.2607C31.8931 50.1191 30.22 55.512 27.6131 59.4395C25.0062 63.3083 21.7379 65.2428 17.8081 65.2428Z" fill="white"/>
<path d="M48.4844 63.8359V17.2339H52.5698L53.0367 29.0163L52.5698 28.8405C52.9589 24.8544 53.7954 21.9234 55.0794 20.0476C56.4023 18.1718 58.1532 17.2339 60.3321 17.2339H66.6937V23.9165H60.3905C58.873 23.9165 57.589 24.3854 56.5385 25.3233C55.5269 26.2026 54.7487 27.5215 54.204 29.2801C53.6593 30.9801 53.3869 33.1196 53.3869 35.6989V63.8359H48.4844ZM40.4302 63.8359V57.3292H63.1919V63.8359H40.4302ZM40.4302 23.7406V17.2339H51.1691V23.7406H40.4302Z" fill="white"/>
<path d="M88.207 64.891C85.2888 64.891 82.7597 63.8945 80.6197 61.9015C78.5187 59.9084 76.8845 57.0947 75.7172 53.4604C74.5889 49.7674 74.0247 45.4589 74.0247 40.5349C74.0247 35.6109 74.5889 31.3318 75.7172 27.6974C76.8845 24.063 78.4992 21.2493 80.5614 19.2563C82.6625 17.2046 85.1332 16.1788 87.9735 16.1788C90.6582 16.1788 93.0317 17.146 95.0938 19.0804C97.156 20.9562 98.7707 23.7113 99.938 27.3457C101.105 30.9801 101.689 35.4058 101.689 40.6228V42.8211H79.1607C79.3552 47.8037 80.2307 51.5553 81.787 54.0759C83.3823 56.5965 85.5223 57.8568 88.207 57.8568C90.2302 57.8568 91.8839 57.1534 93.1679 55.7465C94.4908 54.281 95.4051 52.3759 95.9109 50.0312L101.164 50.6467C100.347 54.8086 98.7902 58.2378 96.4946 60.9343C94.2378 63.5721 91.4753 64.891 88.207 64.891ZM79.1607 36.3144H96.3195C96.086 31.8007 95.2106 28.4887 93.6931 26.3785C92.1757 24.2682 90.2691 23.2131 87.9735 23.2131C85.6001 23.2131 83.6352 24.3268 82.0788 26.5543C80.5614 28.7232 79.5887 31.9766 79.1607 36.3144Z" fill="white"/>
<path d="M118.591 64.891C116.646 64.891 114.895 64.3635 113.339 63.3083C111.782 62.2532 110.557 60.7877 109.662 58.9119C108.767 56.9775 108.32 54.75 108.32 52.2294C108.32 48.2433 109.098 45.1658 110.654 42.9969C112.249 40.7694 114.739 39.1574 118.125 38.1609L128.513 34.9954C128.513 31.0094 127.91 28.0491 126.704 26.1147C125.537 24.1803 123.844 23.2131 121.626 23.2131C119.486 23.2131 117.813 23.9458 116.607 25.4113C115.401 26.8181 114.564 28.8698 114.097 31.5662L108.903 30.9507C109.487 26.5543 110.868 23.0079 113.047 20.3114C115.265 17.5563 118.125 16.1788 121.626 16.1788C125.362 16.1788 128.26 17.8787 130.322 21.2786C132.385 24.6199 133.416 29.2508 133.416 35.1713V54.5155C133.416 55.5706 133.571 56.3034 133.883 56.7137C134.194 57.1241 134.661 57.3292 135.283 57.3292H137.268V63.8359C137.034 63.8945 136.665 63.9238 136.159 63.9238C135.653 63.9825 135.167 64.0118 134.7 64.0118C133.377 64.0118 132.248 63.6894 131.315 63.0446C130.42 62.3997 129.739 61.3739 129.272 59.9671C128.805 58.5016 128.552 56.6258 128.513 54.3397H129.447C129.175 56.3327 128.513 58.1499 127.463 59.7912C126.451 61.3739 125.167 62.6342 123.611 63.5721C122.054 64.4514 120.381 64.891 118.591 64.891ZM119.058 58.3844C121.159 58.3844 122.91 57.8568 124.311 56.8016C125.712 55.6879 126.762 54.1638 127.463 52.2294C128.163 50.2363 128.513 47.9502 128.513 45.371V41.3263L119.058 44.14C116.957 44.7262 115.498 45.6348 114.681 46.8658C113.864 48.0381 113.455 49.5915 113.455 51.526C113.455 53.6949 113.942 55.3948 114.915 56.6258C115.926 57.7982 117.307 58.3844 119.058 58.3844Z" fill="white"/>
<path d="M162.224 63.8359C159.228 63.8359 156.991 62.7808 155.513 60.6705C154.034 58.5602 153.295 55.3362 153.295 50.9984V6.33083H158.197V50.9984C158.197 53.1673 158.528 54.7793 159.189 55.8344C159.851 56.831 160.863 57.3292 162.224 57.3292H170.512V63.8359H162.224ZM143.081 23.7406V17.2339H170.512V23.7406H143.081Z" fill="white"/>
<path d="M192.259 63.8359V17.2339H197.161V63.8359H192.259ZM179.827 63.8359V57.3292H207.842V63.8359H179.827ZM180.411 23.7406V17.2339H197.161V23.7406H180.411ZM191.792 9.93589V1.31892H196.928V9.93589H191.792Z" fill="white"/>
<path d="M224.569 63.8359L213.072 17.2339H218.441L227.662 56.2741L236.884 17.2339H242.253L230.756 63.8359H224.569Z" fill="white"/>
<path d="M263.183 64.891C260.265 64.891 257.736 63.8945 255.596 61.9015C253.495 59.9084 251.86 57.0947 250.693 53.4604C249.565 49.7674 249.001 45.4589 249.001 40.5349C249.001 35.6109 249.565 31.3318 250.693 27.6974C251.86 24.063 253.475 21.2493 255.537 19.2563C257.638 17.2046 260.109 16.1788 262.949 16.1788C265.634 16.1788 268.008 17.146 270.07 19.0804C272.132 20.9562 273.747 23.7113 274.914 27.3457C276.081 30.9801 276.665 35.4058 276.665 40.6228V42.8211H254.137C254.331 47.8037 255.206 51.5553 256.763 54.0759C258.358 56.5965 260.498 57.8568 263.183 57.8568C265.206 57.8568 266.86 57.1534 268.144 55.7465C269.467 54.281 270.381 52.3759 270.887 50.0312L276.139 50.6467C275.322 54.8086 273.766 58.2378 271.47 60.9343C269.214 63.5721 266.451 64.891 263.183 64.891ZM254.137 36.3144H271.295C271.062 31.8007 270.186 28.4887 268.669 26.3785C267.151 24.2682 265.245 23.2131 262.949 23.2131C260.576 23.2131 258.611 24.3268 257.055 26.5543C255.537 28.7232 254.565 31.9766 254.137 36.3144Z" fill="white"/>
<path d="M685.26 330.646C681.291 330.646 678.159 329.21 675.863 326.338C673.568 323.407 672.42 319.274 672.42 313.94C672.42 311.244 672.673 308.87 673.179 306.818C673.685 304.708 674.521 302.685 675.688 300.751C676.895 298.816 678.529 296.765 680.591 294.596C679.696 292.837 678.937 291.196 678.315 289.672C677.692 288.089 677.206 286.507 676.856 284.924C676.544 283.341 676.389 281.641 676.389 279.824C676.389 275.31 677.284 271.793 679.073 269.273C680.902 266.693 683.392 265.404 686.544 265.404C689.657 265.404 692.05 266.605 693.723 269.009C695.396 271.354 696.232 274.607 696.232 278.769C696.232 282.11 695.571 285.129 694.248 287.825C692.925 290.463 690.707 293.336 687.594 296.442L697.049 314.644C697.75 313.178 698.275 311.332 698.625 309.104C698.975 306.877 699.15 304.268 699.15 301.278L704.053 301.982C704.014 305.499 703.625 308.899 702.886 312.182C702.185 315.464 701.271 318.131 700.143 320.183L705.103 329.24H699.209L697.049 325.283C695.921 326.924 694.365 328.243 692.38 329.24C690.435 330.178 688.061 330.646 685.26 330.646ZM685.844 323.612C687.828 323.612 689.481 323.26 690.804 322.557C692.127 321.854 693.119 320.974 693.781 319.919L683.509 300.399C681.408 302.568 679.91 304.678 679.015 306.73C678.12 308.782 677.673 311.185 677.673 313.94C677.673 316.871 678.315 319.216 679.599 320.974C680.922 322.733 683.003 323.612 685.844 323.612ZM684.91 291.079C686.388 289.672 687.575 288.382 688.47 287.21C689.365 285.979 690.007 284.719 690.396 283.429C690.785 282.139 690.979 280.762 690.979 279.296C690.979 277.186 690.59 275.574 689.812 274.46C689.034 273.347 687.945 272.79 686.544 272.79C684.988 272.79 683.781 273.405 682.925 274.636C682.069 275.867 681.641 277.596 681.641 279.824C681.641 280.996 681.739 282.169 681.933 283.341C682.128 284.455 682.458 285.627 682.925 286.858C683.431 288.089 684.093 289.496 684.91 291.079Z" fill="#FF6900"/>
<path d="M0 329.289V95.4832H26.4971C36.1575 95.4832 44.2999 99.9837 50.9242 108.985C57.6405 117.986 62.7467 131.268 66.2428 148.83C69.739 166.174 71.4871 187.359 71.4871 212.386C71.4871 237.413 69.739 258.598 66.2428 275.941C62.7467 293.285 57.6405 306.567 50.9242 315.787C44.2999 324.788 36.1575 329.289 26.4971 329.289H0ZM24.8411 277.259H27.3252C33.5814 277.259 38.2736 271.88 41.4018 261.123C44.5299 250.366 46.094 234.12 46.094 212.386C46.094 190.652 44.5299 174.406 41.4018 163.649C38.2736 152.892 33.5814 147.513 27.3252 147.513H24.8411V277.259Z" fill="white"/>
<path d="M86.3378 329.289V95.4832H148.716V147.513H111.179V186.7H147.06V237.413H111.179V277.259H149.821V329.289H86.3378Z" fill="white"/>
<path d="M199.725 334.557C191.996 334.557 185.51 331.155 180.266 324.349C175.114 317.543 171.158 307.664 168.397 294.712C165.729 281.759 164.119 265.953 163.567 247.292L188.27 244.658C188.822 253.659 189.65 261.123 190.754 267.05C191.858 272.758 193.284 277.039 195.033 279.893C196.781 282.527 198.851 283.845 201.243 283.845C203.083 283.845 204.693 283.186 206.073 281.869C207.453 280.332 208.511 278.137 209.247 275.283C210.075 272.429 210.489 268.916 210.489 264.745C210.489 259.696 209.937 255.305 208.833 251.573C207.821 247.621 206.119 244.109 203.727 241.035C201.335 237.962 198.161 235.327 194.204 233.132C187.856 229.619 182.52 225.119 178.196 219.631C173.872 214.142 170.605 207.007 168.397 198.226C166.281 189.225 165.223 177.809 165.223 163.978C165.223 148.83 166.511 135.768 169.087 124.791C171.756 113.595 175.666 105.033 180.818 99.1056C185.97 93.1781 192.272 90.2144 199.725 90.2144C206.901 90.2144 213.019 93.1781 218.08 99.1056C223.14 105.033 227.05 114.034 229.81 126.108C232.662 137.963 234.272 153.002 234.64 171.223L209.661 173.528C209.293 166.283 208.603 160.246 207.591 155.416C206.671 150.587 205.429 146.964 203.865 144.549C202.301 142.135 200.507 140.927 198.483 140.927C195.907 140.927 193.836 142.683 192.272 146.196C190.8 149.708 190.064 154.538 190.064 160.685C190.064 165.296 190.57 169.357 191.582 172.869C192.686 176.163 194.481 179.236 196.965 182.09C199.541 184.724 203.037 187.249 207.453 189.664C214.537 193.396 220.104 198.665 224.152 205.471C228.2 212.276 231.052 220.399 232.708 229.839C234.456 239.059 235.33 249.597 235.33 261.452C235.33 276.6 233.95 289.662 231.19 300.639C228.43 311.396 224.382 319.739 219.046 325.666C213.801 331.594 207.361 334.557 199.725 334.557Z" fill="white"/>
<path d="M250.457 329.289V277.259H269.778V147.513H250.457V95.4832H313.94V147.513H294.619V277.259H313.94V329.289H250.457Z" fill="white"/>
<path d="M365.5 334.557C357.772 334.557 351.055 329.728 345.351 320.068C339.647 310.189 335.231 296.139 332.103 277.917C328.974 259.696 327.41 237.962 327.41 212.715C327.41 187.469 328.928 165.735 331.965 147.513C335.001 129.072 339.371 114.912 345.075 105.033C350.779 95.1539 357.588 90.2144 365.5 90.2144C372.308 90.2144 378.151 93.3976 383.027 99.7642C387.995 106.131 392.089 115.79 395.309 128.743C398.529 141.476 400.83 157.612 402.21 177.15L376.955 180.443C376.311 166.613 375.022 156.734 373.09 150.806C371.158 144.879 368.72 141.915 365.776 141.915C363.016 141.915 360.67 144.659 358.738 150.148C356.806 155.416 355.334 163.32 354.322 173.857C353.309 184.395 352.803 197.348 352.803 212.715C352.803 227.863 353.355 240.706 354.46 251.244C355.656 261.562 357.312 269.465 359.428 274.954C361.636 280.222 364.304 282.857 367.432 282.857C369.732 282.857 371.664 281.649 373.228 279.234C374.884 276.6 376.126 272.758 376.955 267.709C377.875 262.66 378.381 256.183 378.473 248.28H364.948V205.471H401.382V329.289H386.891L385.787 281.869L390.893 270.673C390.893 281.649 389.835 292.077 387.719 301.956C385.695 311.616 382.797 319.519 379.025 325.666C375.252 331.594 370.744 334.557 365.5 334.557Z" fill="white"/>
<path d="M414.576 329.289V95.4832H435.277L457.358 213.045V95.4832H480.819V329.289H460.118L438.037 211.727V329.289H414.576Z" fill="white"/>
<path d="M500.086 329.289V95.4832H562.465V147.513H524.927V186.7H560.809V237.413H524.927V277.259H563.569V329.289H500.086Z" fill="white"/>
<path d="M579.523 329.289V95.4832H612.369C623.133 95.4832 631.46 101.85 637.348 114.583C643.328 127.316 646.318 144.44 646.318 165.954C646.318 177.809 645.306 188.127 643.282 196.909C641.35 205.471 638.59 212.276 635.002 217.325C631.414 222.155 627.273 225.009 622.581 225.887L622.029 221.277C629.85 221.277 635.646 224.79 639.418 231.815C643.282 238.84 645.49 250.036 646.042 265.404L648.25 329.289H623.133L621.753 283.845C621.477 273.966 620.879 266.721 619.959 262.111C619.039 257.281 617.659 254.207 615.819 252.89C613.979 251.353 611.541 250.585 608.505 250.585H604.364V329.289H579.523ZM604.364 198.555H611.265C614.393 198.555 616.785 196.36 618.441 191.969C620.097 187.359 620.925 180.992 620.925 172.869C620.925 164.747 620.097 158.49 618.441 154.099C616.785 149.708 614.393 147.513 611.265 147.513H604.364V198.555Z" fill="white"/>
<path d="M0 592.731V358.926H26.4971C36.1575 358.926 44.2999 363.426 50.9242 372.427C57.6405 381.428 62.7467 394.71 66.2428 412.273C69.739 429.616 71.4871 450.801 71.4871 475.828C71.4871 500.856 69.739 522.041 66.2428 539.384C62.7467 556.727 57.6405 570.009 50.9242 579.23C44.2999 588.231 36.1575 592.731 26.4971 592.731H0ZM24.8411 540.701H27.3252C33.5814 540.701 38.2736 535.323 41.4018 524.565C44.5299 513.808 46.094 497.563 46.094 475.828C46.094 454.094 44.5299 437.849 41.4018 427.092C38.2736 416.334 33.5814 410.956 27.3252 410.956H24.8411V540.701Z" fill="white"/>
<path d="M86.3378 592.731V358.926H148.716V410.956H111.179V450.143H147.06V500.856H111.179V540.701H149.821V592.731H86.3378Z" fill="white"/>
<path d="M187.856 592.731L159.979 358.926H186.2L203.589 526.87H195.309L212.697 358.926H238.918L211.041 592.731H187.856Z" fill="white"/>
<path d="M251.837 592.731V358.926H314.216V410.956H276.678V450.143H312.56V500.856H276.678V540.701H315.32V592.731H251.837Z" fill="white"/>
<path d="M335.967 592.731V358.926H360.808V579.23L340.659 540.701H399.449V592.731H335.967Z" fill="white"/>
<path d="M447.698 598C439.693 598 432.885 593.28 427.273 583.84C421.753 574.4 417.52 560.679 414.576 542.677C411.632 524.456 410.16 502.283 410.16 476.158C410.16 450.033 411.632 427.86 414.576 409.639C417.52 391.417 421.753 377.586 427.273 368.146C432.885 358.487 439.693 353.657 447.698 353.657C455.702 353.657 462.51 358.487 468.122 368.146C473.735 377.586 477.967 391.417 480.819 409.639C483.763 427.86 485.235 450.033 485.235 476.158C485.235 502.283 483.763 524.456 480.819 542.677C477.967 560.679 473.735 574.4 468.122 583.84C462.51 593.28 455.702 598 447.698 598ZM447.698 547.287C450.458 547.287 452.712 544.982 454.46 540.372C456.3 535.762 457.634 528.297 458.462 517.979C459.382 507.442 459.842 493.501 459.842 476.158C459.842 458.814 459.382 444.874 458.462 434.336C457.634 423.799 456.3 416.225 454.46 411.614C452.712 406.785 450.458 404.37 447.698 404.37C445.029 404.37 442.775 406.785 440.935 411.614C439.095 416.225 437.715 423.799 436.795 434.336C435.967 444.874 435.553 458.814 435.553 476.158C435.553 493.501 435.967 507.442 436.795 517.979C437.715 528.297 439.095 535.762 440.935 540.372C442.775 544.982 445.029 547.287 447.698 547.287Z" fill="white"/>
<path d="M498.706 592.731V358.926H531.551C538.268 358.926 544.248 362.329 549.492 369.134C554.736 375.72 558.83 384.831 561.775 396.466C564.811 408.102 566.329 421.493 566.329 436.641C566.329 451.789 564.811 465.181 561.775 476.816C558.83 488.232 554.736 497.233 549.492 503.819C544.248 510.405 538.268 513.698 531.551 513.698H523.547V592.731H498.706ZM523.547 461.668H529.067C533.023 461.668 535.968 459.583 537.9 455.412C539.924 451.24 540.936 444.984 540.936 436.641C540.936 428.08 539.924 421.713 537.9 417.542C535.968 413.151 533.023 410.956 529.067 410.956H523.547V461.668Z" fill="white"/>
<path d="M582.836 592.731V358.926H645.214V410.956H607.677V450.143H643.558V500.856H607.677V540.701H646.318V592.731H582.836Z" fill="white"/>
<path d="M662.273 592.731V358.926H695.118C705.883 358.926 714.209 365.292 720.098 378.025C726.078 390.758 729.068 407.882 729.068 429.397C729.068 441.252 728.056 451.57 726.032 460.351C724.1 468.913 721.34 475.719 717.751 480.768C714.163 485.598 710.023 488.452 705.331 489.33L704.779 484.72C712.599 484.72 718.396 488.232 722.168 495.257C726.032 502.282 728.24 513.479 728.792 528.846L731 592.731H705.883L704.503 547.287C704.227 537.408 703.629 530.164 702.709 525.553C701.789 520.724 700.409 517.65 698.569 516.333C696.729 514.796 694.29 514.028 691.254 514.028H687.114V592.731H662.273ZM687.114 461.998H694.014C697.143 461.998 699.535 459.802 701.191 455.412C702.847 450.801 703.675 444.435 703.675 436.312C703.675 428.189 702.847 421.933 701.191 417.542C699.535 413.151 697.143 410.956 694.014 410.956H687.114V461.998Z" fill="white"/>
</svg>
