<svg width="733" height="775" viewBox="0 0 733 775" fill="none" xmlns="http://www.w3.org/2000/svg">
<path d="M491.885 774.128C490.151 773.399 488.292 771.979 487.753 770.972C487.215 769.964 486.498 757.89 486.161 744.14C485.824 730.39 485.199 717.565 484.773 715.64L483.999 712.14L475.537 711.468C466.246 710.73 452.027 706.488 444.36 702.166C438.013 698.588 430.415 691.623 426.637 685.918C424.931 683.343 422.33 677.614 420.858 673.188L418.181 665.14L417.838 625.14C417.496 585.216 417.006 577.998 414.177 571.228C410.712 562.935 409.791 567.408 408.844 597.14C407.508 639.111 407.869 666.289 409.875 674.553C413.127 687.953 419.811 698.373 429.431 705.04C435.303 709.109 436.65 714.826 433.036 720.341C431.032 723.399 427.954 724.006 417.727 723.359C398.944 722.171 385.127 712.947 377.086 696.228C371.002 683.579 370.598 679.31 369.967 620.889C369.656 592.151 369.079 567.43 368.684 565.954C367.482 561.457 365.971 562.295 364.652 568.19C363.098 575.136 362.907 577.252 362.038 597.14C361.654 605.94 361.182 613.411 360.99 613.741C360.798 614.072 360.604 624.422 360.558 636.741C360.408 676.484 358.239 690.353 350.219 702.818C346.419 708.726 344.2 710.924 337.576 715.341C327.142 722.299 308.68 727.182 302.741 724.553C298.913 722.858 295.429 716.931 296.293 713.582C296.639 712.239 300.582 707.54 305.054 703.14C310.282 697.997 314.344 692.915 316.429 688.91C322.207 677.81 322.604 673.761 322.437 627.64C322.355 604.815 322.386 583.215 322.505 579.64C322.624 576.065 322.429 570.752 322.07 567.833C321.497 563.175 321.227 562.684 319.86 563.819C317.555 565.732 315.029 572.281 313.756 579.64C313.138 583.215 312.393 603.073 312.101 623.77C311.809 644.466 311.145 663.591 310.626 666.27C307.13 684.317 297.136 697.909 282.545 704.457C274.36 708.13 262.312 709.97 251.135 709.254C245.602 708.9 238.601 707.91 235.576 707.055C232.551 706.201 228.715 705.153 227.051 704.727C218.056 702.424 198.003 693.084 182.576 684.012C137.056 657.244 92.1725 614.904 62.8167 571.041C40.3262 537.436 22.7745 498.116 12.1233 457.477C-1.40482 405.861 -3.48447 359.164 5.25004 303.14C11.0343 266.04 21.7995 233.855 40.7897 196.887C68.292 143.349 107.473 98.5526 157.076 63.9355C182.185 46.412 202.367 35.5988 226.576 26.6984C244.278 20.19 248.807 18.6816 262.076 14.8734C315.587 -0.484418 365.82 -3.80186 423.076 4.24078C429.126 5.09062 436.101 6.23089 438.576 6.77473C462.036 11.9298 469.511 13.8902 486.497 19.3434C496.078 22.4195 505.078 25.5419 506.497 26.2821C507.915 27.0222 509.387 27.6306 509.767 27.634C510.583 27.641 526.544 34.8661 531.576 37.5065C543.792 43.9162 551.475 48.2678 554.17 50.3033C555.872 51.5885 557.571 52.6401 557.945 52.6401C559.212 52.6401 572.025 61.0302 582.076 68.4403C619.869 96.3053 656.444 136.061 680.363 175.275C701.965 210.69 718.969 252.797 726.089 288.508C731.548 315.884 732.869 329.337 732.976 358.64C733.106 394.369 730.997 415.255 724.446 443.14C716.682 476.188 706.822 504.27 693.55 531.14C673.06 572.621 651.778 601.334 616.45 635.158C601.893 649.096 568.477 673.63 551.076 683.157C539.68 689.396 527.133 696.959 526.305 698.088C525.881 698.667 525.83 706.824 526.191 716.214C526.668 728.642 526.511 734.308 525.611 737.034C523.647 742.983 518.275 743.864 514.922 738.786C513.554 736.715 513.045 733.046 512.575 721.89C512.231 713.736 511.507 707.171 510.881 706.546C509.206 704.87 506.511 705.842 504.182 708.961C502.182 711.639 502.047 713.303 501.511 741.961C501.2 758.559 500.863 772.241 500.761 772.364C500.659 772.488 499.329 773.233 497.806 774.021C495.473 775.227 494.539 775.244 491.885 774.128ZM262.19 666.583C265.272 665.431 270.25 658.974 271.295 654.774C272.038 651.788 271.935 597.666 271.185 596.916C271.059 596.79 267.608 597.682 263.516 598.898C257.19 600.779 253.68 601.11 240.076 601.109C217.578 601.109 206.134 598.07 190.125 587.856C181.629 582.435 172.029 573.352 165.603 564.656C162.955 561.072 157.142 550.798 152.685 541.824C148.228 532.85 143.269 523.625 141.665 521.324C136.884 514.466 128.653 507.209 118.817 501.182C108.099 494.614 106.028 491.775 107.039 485.036C108.762 473.546 124.251 471.952 143.212 481.314C149.388 484.364 153.12 487.271 161.598 495.64C170.246 504.177 173.513 508.291 179.069 517.64C186.902 530.821 199.395 544.168 208.434 549.011C223.115 556.879 249.038 558.12 267.514 551.84L272.915 550.004L275.253 541.198C276.539 536.355 278.955 529.832 280.624 526.702C283.955 520.45 293.108 508.64 294.621 508.64C295.146 508.64 295.576 508.248 295.576 507.769C295.576 507.29 291.413 506.584 286.326 506.2C245.998 503.156 212.298 488.993 185.431 463.799C165.371 444.987 152.154 422.41 145.237 395.14C141.391 379.977 138.332 347.855 139.189 331.64C140.17 313.087 144.01 292.23 148.585 280.611C154.286 266.131 164.197 249.498 172.607 240.296L177.372 235.083L174.974 227.933C169.139 210.536 168.531 181.146 173.566 159.943C177.049 145.281 179.903 141.688 188.076 141.68C196.871 141.671 210.296 145.222 225.546 151.589C242.37 158.614 269.358 174.505 273.717 179.952L275.358 182.003L283.717 179.382C297.651 175.012 302.541 173.83 315.679 171.66C333.266 168.756 333.355 168.749 359.576 168.172C396.975 167.35 426.756 170.7 453.431 178.728C456.926 179.779 460.11 180.64 460.506 180.64C460.901 180.64 464.116 178.131 467.65 175.065C475.354 168.38 486.668 161.404 499.576 155.38C519.326 146.161 531.565 142.54 543.789 142.298C551.275 142.149 551.867 142.296 554.071 144.85C560.065 151.793 564.345 180.803 562.535 202.221C561.622 213.017 559.352 223.53 556.454 230.374L554.661 234.607L559.162 239.374C565.959 246.57 575.273 260.758 580.614 272.049C591.362 294.772 594.734 311.673 594.786 343.075C594.843 378.159 589.048 405.483 576.877 427.508C555.791 465.667 523.51 490.113 479.576 501.193C467.978 504.117 451.259 506.627 443.326 506.634C439.063 506.634 435.576 506.995 435.576 507.428C435.576 507.861 437.775 510.381 440.462 513.029C450.603 523.017 457.515 543.03 459.669 568.64C460.535 578.943 460.504 590.2 459.538 616.173C458.841 634.891 458.591 651.906 458.98 653.983C460.539 662.293 472.022 669.648 481.46 668.383C492.221 666.939 523.161 651.952 543.539 638.313C605.833 596.617 649.031 541.388 673.039 472.745C684.564 439.794 689.233 412.327 690.227 371.64C690.757 349.921 689.411 324.597 687.064 312.14C682.36 287.176 680.763 280.69 674.384 260.64C665.94 234.101 649.414 201.38 633.221 179.14C609.816 146.995 582.729 120.757 550.076 98.6012C528.156 83.7287 498.476 68.9871 474.023 60.8278C437.342 48.588 416.082 44.8439 373.232 43.0779C346.615 41.9809 302.775 46.6532 283.076 52.6864C281.426 53.1917 275.351 54.9974 269.576 56.699C253.829 61.3388 246.445 64.08 227.576 72.2916C211.432 79.3169 188.867 92.8761 167.076 108.645C152.853 118.938 130.932 139.421 120.576 152.095C87.7923 192.217 69.2177 225.828 56.5888 267.881C38.0098 329.748 38.0678 401.869 56.7457 463.14C62.4895 481.982 75.7648 512.592 85.0306 528.358C94.4228 544.339 111.612 568.258 123.322 581.64C132.73 592.392 147.414 606.451 159.703 616.473C175.056 628.993 177.043 630.48 187.568 637.316C192.797 640.713 198.201 644.334 199.576 645.364C203.921 648.619 215.674 654.294 227.576 658.885C237.341 662.651 241.94 664.205 254.576 668.011C256.08 668.463 258.244 668.058 262.19 666.583ZM480.076 651.64C479.736 651.09 479.934 650.64 480.517 650.64C481.099 650.64 481.576 651.09 481.576 651.64C481.576 652.19 481.377 652.64 481.135 652.64C480.892 652.64 480.416 652.19 480.076 651.64ZM669.576 597.581C669.576 596.999 670.026 596.8 670.576 597.14C671.126 597.48 671.576 597.957 671.576 598.199C671.576 598.442 671.126 598.64 670.576 598.64C670.026 598.64 669.576 598.164 669.576 597.581ZM672.576 130.64C672.576 130.09 673.052 129.64 673.635 129.64C674.217 129.64 674.416 130.09 674.076 130.64C673.736 131.19 673.259 131.64 673.017 131.64C672.774 131.64 672.576 131.19 672.576 130.64Z" fill="#F8FAFC"/>
</svg>
