<svg width="1650" height="16" viewBox="0 0 1650 16" fill="none" xmlns="http://www.w3.org/2000/svg">
<path d="M348.737 2.29999C345.993 2.50796 344.196 2.53059 339.608 2.41492C335.964 2.32306 334.483 2.32347 325.115 2.41895C321.497 2.45582 313.675 2.51904 307.733 2.55943C301.791 2.59982 296.606 2.63908 296.21 2.64668C294.812 2.67355 296.718 2.84148 299.183 2.90858C301.828 2.98054 302.03 3.023 300.77 3.24159C300.028 3.3703 299.192 3.39864 294.612 3.45027C288.476 3.51944 284.782 3.65588 284.612 3.81959C284.429 3.99539 287.633 4.14673 291.794 4.15887C295.608 4.17 298.448 4.25368 298.494 4.35627C298.508 4.38827 297.9 4.47183 297.143 4.54196C296.019 4.64599 294.8 4.67111 290.525 4.67837C287.181 4.68405 284.197 4.72947 282.282 4.80385C277.503 4.98946 266.707 5.1329 262.486 5.06687C258.524 5.00489 250.274 5.02301 249.769 5.09481C248.915 5.21597 252.724 5.32389 261.173 5.41791C263.803 5.44717 267.414 5.4926 269.197 5.51885C270.981 5.54511 273.543 5.54156 274.891 5.51096C277.793 5.44509 281.103 5.58669 282.526 5.83756L283.434 5.9977L281.535 5.96139C280.315 5.93806 279.649 5.95123 279.67 5.99826C279.731 6.13437 277.682 6.24093 276.75 6.15011C276.01 6.07793 276.038 6.06101 276.986 6.01014C277.578 5.97832 278.049 5.9207 278.032 5.88209C277.985 5.77793 274.882 5.81211 271.698 5.95187C268.332 6.09955 264.754 6.0725 262.555 5.88275C260.987 5.74752 253.93 5.5882 250.283 5.60572C249.192 5.61096 246.135 5.68934 243.489 5.77988C239.235 5.92546 237.638 5.94457 229.692 5.94501C224.75 5.94527 218.315 5.91689 215.392 5.8819C212.468 5.84691 209.246 5.82111 208.23 5.82457C203.102 5.84202 193.424 5.74402 191.635 5.65654C190.521 5.60201 189.287 5.49804 188.894 5.42549C188.335 5.32235 187.602 5.29637 185.533 5.30641C184.078 5.31347 182.073 5.35618 181.078 5.40133C178.287 5.52789 165.233 5.61521 164.216 5.51412C163.067 5.39993 160.777 5.34889 156.741 5.34752C154.222 5.34666 152.59 5.30167 150.629 5.17902C146.848 4.94251 143.964 4.96631 141.657 5.25304C139.105 5.57036 137.081 5.59082 129.413 5.37677C122.969 5.19687 122.793 5.19575 117.73 5.30254C112.417 5.41461 100.856 5.41608 85.3599 5.30667C77.9999 5.2547 74.7362 5.33174 73.8399 5.5786C73.4197 5.69432 73.5543 5.72479 74.7047 5.77451C77.5894 5.89917 84.229 5.92841 87.7909 5.83213C91.969 5.7192 94.2552 5.77643 97.8059 6.08283C99.9316 6.26626 100.092 6.29633 99.1985 6.34428C97.0853 6.45773 82.4197 6.89694 80.4211 6.90663C79.2696 6.91222 78.1935 6.93581 78.0297 6.95905C77.866 6.9823 78.2269 7.11088 78.8318 7.24478C79.4367 7.37869 80.1166 7.56715 80.3427 7.66358C80.7356 7.83116 80.6387 7.84125 78.1552 7.89156C76.726 7.92052 74.0403 8.04277 72.1869 8.16325C69.2909 8.3515 68.7675 8.41449 68.4639 8.61133C68.1115 8.83977 68.1002 8.84053 64.103 8.90738C61.8988 8.94424 59.4043 9.02534 58.5598 9.0876C57.7152 9.14986 56.3595 9.20378 55.5472 9.20743C53.2202 9.21788 45.7515 9.00813 44.9351 8.90941C44.5288 8.86027 42.7774 8.4283 41.0433 7.94947C38.2743 7.18494 37.7572 6.97725 36.7986 6.24475C36.1982 5.78598 35.2825 5.3151 34.7637 5.19836C33.3641 4.88339 31.093 4.62452 29.7851 4.63087C29.1506 4.63394 27.615 4.59598 26.3727 4.54651C25.1304 4.49704 21.0903 4.43954 17.3948 4.41872C13.6993 4.39791 8.77291 4.33068 6.44729 4.26932C1.78124 4.14621 0.515604 4.18528 0.0997304 4.46526C-0.285339 4.7245 0.394674 4.86099 3.04505 5.05646C5.31651 5.22397 5.51966 5.26024 5.64669 5.52086C5.76946 5.77274 6.02466 5.82348 7.98798 5.9864L10.1915 6.16924L8.46352 6.44159C7.51314 6.59137 6.1645 6.84532 5.46653 7.00592C4.37859 7.25624 4.2693 7.34222 4.70063 7.6084C4.97735 7.77917 5.37429 8.0278 5.58272 8.16093C5.84763 8.33011 5.53897 8.588 4.55724 9.01772C3.32951 9.55512 3.2099 9.69794 3.6067 10.1527C3.9025 10.4916 4.40749 10.734 5.05637 10.8485C6.24217 11.0576 12.2994 11.5303 13.7063 11.5234C14.2507 11.5208 16.1086 11.5721 17.835 11.6374C21.3116 11.769 34.1986 11.901 40.5749 11.8703C42.8315 11.8595 48.5117 11.9128 53.1975 11.9888C57.8833 12.0648 63.6264 12.1409 65.9599 12.158C68.2934 12.1751 72.0034 12.2263 74.2043 12.2718C76.4051 12.3172 80.4168 12.3647 83.1191 12.3772C85.8213 12.3898 88.8113 12.4267 89.7634 12.4593C90.7156 12.492 95.8978 12.5242 101.279 12.531C106.661 12.5378 114.171 12.5759 117.969 12.6158C121.766 12.6557 133.097 12.7257 143.147 12.7713C153.198 12.817 161.785 12.8696 162.23 12.8883C162.674 12.9069 165.766 12.9059 169.101 12.886C175.15 12.8499 186.858 12.9202 196.928 13.0532C199.852 13.0918 205.45 13.1099 209.368 13.0934C213.286 13.077 219.597 13.0938 223.393 13.1308C227.189 13.1678 234.937 13.2068 240.612 13.2175C246.286 13.2282 252.13 13.2647 253.599 13.2986C255.068 13.3326 260.666 13.3512 266.04 13.3401C275.092 13.3214 285.95 13.3921 301.03 13.5679C313.82 13.717 316.298 13.7357 320.655 13.7158C323.121 13.7045 326.815 13.719 328.863 13.7479C330.911 13.7768 336.271 13.794 340.774 13.7861C345.277 13.7782 351.255 13.808 354.058 13.8523C356.862 13.8966 360.317 13.9098 361.736 13.8817C363.189 13.8529 366.412 13.8677 369.112 13.9156C371.75 13.9624 375.095 13.9953 376.545 13.9886C377.996 13.9818 380.148 14.0059 381.327 14.042C382.506 14.0782 386.321 14.0985 389.805 14.0872C397.157 14.0633 410.853 14.1262 419.998 14.2258C430.27 14.3376 438.512 14.367 447.591 14.3241C454.452 14.2917 457.469 14.3106 463.229 14.4219C467.983 14.5138 473.809 14.5653 480.681 14.5761C496.52 14.601 507.693 14.649 510.34 14.7035C511.66 14.7306 515.115 14.7434 518.017 14.7319C520.92 14.7204 524.256 14.7344 525.432 14.7631C528.259 14.8322 539.682 14.9156 545.32 14.9084C547.79 14.9053 552.082 14.9281 554.858 14.9592C557.634 14.9902 563.584 14.9979 568.081 14.9762C572.984 14.9525 578.17 14.9691 581.038 15.0175C584.155 15.0702 586.98 15.0765 589.157 15.0357C590.993 15.0012 593.97 14.9975 595.774 15.0274C603.548 15.1566 615.475 15.2239 629.66 15.2187C638.028 15.2156 645.069 15.1961 645.306 15.1753C645.543 15.1545 646.43 15.1635 647.278 15.1953C650.194 15.3047 665.835 15.3811 685.614 15.3824C696.517 15.3832 708.063 15.4029 711.271 15.4262C719.656 15.4873 729.821 15.5076 737.726 15.4792C741.499 15.4656 748.876 15.4714 754.118 15.492C759.361 15.5126 764.951 15.5137 766.542 15.4944C771.21 15.4379 776.871 15.445 784.525 15.5169C788.466 15.554 796.928 15.5925 803.329 15.6024C809.729 15.6124 818.776 15.6295 823.433 15.6404C828.09 15.6513 837.676 15.6478 844.737 15.6327C851.798 15.6175 857.971 15.631 858.456 15.6626C858.941 15.6942 862.671 15.6882 866.745 15.6493C871.064 15.6081 877.248 15.6009 881.577 15.6322C885.66 15.6617 890.423 15.6737 892.161 15.6588C893.899 15.644 897.476 15.6645 900.11 15.7044C903.535 15.7563 907.452 15.7537 913.85 15.6954C921.186 15.6286 923.542 15.6314 926.914 15.7112C929.177 15.7647 931.25 15.789 931.521 15.7653C931.792 15.7416 936.38 15.7341 941.716 15.7488C947.052 15.7635 954.983 15.7696 959.341 15.7623C963.699 15.755 969.415 15.7708 972.043 15.7973C974.672 15.8239 978.65 15.837 980.883 15.8265C983.117 15.8159 987.646 15.8372 990.948 15.8737C994.923 15.9176 1002.41 15.9133 1013.1 15.8609C1024.24 15.8063 1029.6 15.8043 1030.41 15.8543C1031.18 15.9026 1033.1 15.9048 1036.17 15.861C1039.11 15.8189 1044.01 15.8213 1049.78 15.8677C1061.42 15.9613 1071.15 15.9249 1074.58 15.775C1077.6 15.6432 1087.59 15.5913 1088.72 15.7016C1090.54 15.8791 1148.27 15.9008 1155.81 15.7267C1159.14 15.6501 1160.58 15.6498 1164.01 15.7251C1166.5 15.7798 1172.83 15.8173 1179.8 15.8185C1186.19 15.8196 1194.23 15.8384 1197.65 15.8601C1201.08 15.8819 1213.69 15.8843 1225.67 15.8654C1237.66 15.8466 1248.5 15.8453 1249.77 15.8626C1251.04 15.8798 1253.67 15.8471 1255.61 15.7898C1258.34 15.7094 1259.74 15.7005 1261.76 15.7509C1270.36 15.9656 1312.14 16.0641 1343.72 15.9442C1359.26 15.8851 1373.41 15.8787 1377.81 15.9287C1379.71 15.9503 1389.92 15.9096 1400.5 15.8382C1411.08 15.7669 1420.01 15.7299 1420.34 15.7561C1420.67 15.7823 1421.04 15.7881 1421.18 15.7691C1421.31 15.75 1430.65 15.6721 1441.93 15.5959C1470.03 15.406 1472.64 15.3806 1475.26 15.2726C1477.1 15.1972 1478.26 15.1929 1481.07 15.2511C1485.14 15.3354 1494.18 15.2943 1497.21 15.1777C1498.47 15.1288 1504.74 15.0808 1513.27 15.0547C1543.79 14.9612 1553.8 14.8906 1566.94 14.6761C1579.28 14.4746 1579.77 14.4714 1581.38 14.5822C1582.79 14.6794 1583.72 14.6864 1587.56 14.6284C1590.04 14.5909 1596.58 14.5104 1602.07 14.4497C1608.3 14.3809 1613.01 14.2953 1614.58 14.2227C1616.12 14.151 1617.44 14.1269 1617.99 14.16C1618.48 14.1896 1622.44 14.1879 1626.79 14.1562C1635.67 14.0914 1639.68 13.9524 1643.81 13.5648C1648.6 13.1147 1647.53 13.0386 1635.88 13.006C1627.9 12.9836 1625.51 12.9202 1626.23 12.75C1626.77 12.6221 1629.81 12.4823 1634.93 12.35C1637.74 12.2776 1640.52 12.1812 1641.11 12.1359L1642.19 12.0536L1641.09 12.0073C1639.48 11.9397 1628.12 11.9879 1618.7 12.1022C1610.61 12.2003 1610.48 12.2045 1607.15 12.4694C1605.3 12.6167 1603.46 12.7388 1603.07 12.7407C1602.68 12.7426 1600.28 12.6017 1597.73 12.4275C1594.15 12.1829 1592.58 12.1129 1590.84 12.1202C1589.46 12.1259 1588.46 12.095 1588.27 12.0406C1587.84 11.918 1588.74 11.5809 1590 11.3901C1591.28 11.1945 1593.6 11.1753 1604.11 11.2732C1612.21 11.3486 1614.76 11.2994 1616.44 11.035C1616.95 10.9543 1618.19 10.8386 1619.19 10.778C1622.32 10.5873 1630.15 10.3047 1635.32 10.196C1641.56 10.0649 1646.26 9.85459 1647.64 9.64471C1648.84 9.46358 1650.1 8.96818 1649.99 8.72306C1649.95 8.61888 1648.69 8.41015 1646.42 8.13042C1643.41 7.75793 1642.63 7.69642 1640.76 7.68265C1639.56 7.67387 1637.93 7.63815 1637.12 7.60328C1636.31 7.56841 1633.74 7.54915 1631.4 7.56048C1627.42 7.57982 1627.17 7.57269 1627.37 7.44375C1627.51 7.35449 1627.33 7.30767 1626.85 7.31001C1626.44 7.31199 1626.12 7.35951 1626.15 7.41561C1626.17 7.47171 1625.84 7.51933 1625.4 7.52145C1624.97 7.52356 1624.59 7.47938 1624.57 7.42329C1624.54 7.36719 1624.27 7.3302 1623.95 7.34108C1623.29 7.36412 1621.96 7.1547 1622.38 7.09436C1622.81 7.03326 1632.38 6.98009 1633.77 7.03105C1634.69 7.06453 1634.97 7.0488 1634.93 6.96631C1634.9 6.88411 1635.12 6.87156 1635.84 6.91522C1636.41 6.94992 1637.28 6.94603 1638.02 6.90549C1639.23 6.83955 1639.25 6.82385 1638.69 6.26621C1638.29 5.8679 1637.68 5.58718 1636.66 5.34055C1635.86 5.14587 1634.99 4.8803 1634.72 4.75041C1634.13 4.45864 1632.99 4.19926 1631.79 4.0825C1631.29 4.03379 1630.2 3.84231 1629.38 3.65698C1628.55 3.47166 1626.05 3.00653 1623.83 2.62336C1621.6 2.2402 1619.03 1.7227 1618.12 1.47336C1616.41 1.00854 1613.42 0.452859 1611.9 0.317116C1609.34 0.0884154 1595.17 -0.0856121 1589.02 0.0360764C1587.14 0.0731821 1573.63 0.169869 1558.98 0.250935C1544.34 0.332001 1530.46 0.42444 1528.15 0.456356C1525.84 0.488273 1507.93 0.610691 1488.36 0.728396C1468.79 0.846101 1450.88 0.964429 1448.57 0.991346C1446.25 1.01826 1443.89 1.04546 1443.31 1.05179C1442.73 1.05812 1441.41 1.0597 1440.38 1.0553C1439.35 1.0509 1435.88 1.11705 1432.67 1.2023C1427.34 1.34355 1426.41 1.35072 1422.15 1.28308C1419.58 1.24225 1416.06 1.22021 1414.32 1.23409C1399.5 1.35242 1369.39 1.47504 1364.19 1.43825C1359.57 1.40556 1355.89 1.42287 1350.74 1.50146C1346.84 1.56097 1342.7 1.60999 1341.54 1.61038C1334.94 1.61261 1332.66 1.66028 1325.34 1.94915C1317.33 2.26533 1316.55 2.27217 1313.85 2.05043C1312.78 1.96267 1312.85 1.95356 1315.15 1.86628C1320.73 1.65495 1317.83 1.57439 1306.82 1.63475C1302.38 1.65907 1297.92 1.68217 1296.9 1.68608C1290.23 1.71175 1281.51 1.8212 1279.41 1.90583C1275.79 2.05116 1269.36 2.01836 1266.36 1.83934C1264.07 1.7032 1263.87 1.70196 1262.23 1.814C1260.17 1.95474 1259.33 1.96332 1257 1.86784C1255.46 1.8049 1254.9 1.81745 1252.71 1.96422C1250.3 2.12631 1250.14 2.12861 1248.76 2.02246C1247.09 1.89474 1247.11 1.90043 1247.88 1.72123C1249.12 1.43121 1247.57 1.43043 1241.14 1.71787C1227.77 2.31581 1223.75 2.40964 1223.63 2.12641C1223.6 2.06166 1224.26 1.95312 1225.1 1.8852C1225.94 1.81727 1226.62 1.72968 1226.6 1.69054C1226.55 1.5853 1226.02 1.60555 1223.56 1.80517C1220.77 2.03135 1220.26 2.03277 1216.82 1.82372L1214.02 1.65361L1210.45 1.77838C1208.48 1.84701 1204.91 1.98079 1202.52 2.07568C1199.13 2.2103 1197.89 2.23338 1196.89 2.18072C1195.04 2.08387 1195.25 1.99802 1197.5 1.93208C1200.56 1.84246 1202.81 1.68405 1202.76 1.56259C1202.69 1.41106 1200.83 1.47657 1193.47 1.88914C1185.35 2.34497 1183.85 2.33273 1182.95 1.803C1182.47 1.52869 1182.12 1.51459 1180.04 1.68862C1178.77 1.795 1178.15 1.8034 1175.49 1.74997C1173.77 1.71524 1169.45 1.714 1165.66 1.74715C1159.27 1.80305 1158.86 1.81536 1157.98 1.97469C1157.47 2.06733 1156.32 2.16615 1155.41 2.19429C1153.4 2.25637 1150.01 2.16525 1148.73 2.0151C1148 1.92959 1146.7 1.90816 1142.92 1.91886C1140.24 1.92644 1137.79 1.91341 1137.46 1.88991C1137.14 1.86641 1136.67 1.90097 1136.42 1.9667C1136.07 2.05787 1134.89 2.10354 1131.46 2.15928C1126.8 2.23491 1125.06 2.3217 1124.04 2.52938C1123.16 2.70642 1119.14 2.8246 1113.77 2.8311C1108.39 2.83761 1107.52 2.75655 1110.4 2.51568L1112.25 2.3607L1111.1 2.21739C1110.47 2.13857 1109.93 2.03781 1109.91 1.99347C1109.87 1.89106 1108.26 1.89788 1106.39 2.0084C1105.59 2.0555 1101.03 2.13478 1096.25 2.18457C1086.89 2.28223 1085.33 2.32847 1086.39 2.47768C1086.75 2.52779 1087.55 2.56728 1088.16 2.56542C1090.31 2.55896 1087.92 2.68315 1082.43 2.86321L1077.11 3.03783L1074.05 2.87631C1070.51 2.68959 1069.43 2.68433 1066.42 2.83921C1063.31 2.99856 1062.78 2.98895 1062.69 2.77208C1062.58 2.48667 1063.06 2.43686 1066.55 2.37371C1069.33 2.32348 1069.98 2.33413 1071.23 2.45024L1072.69 2.58511L1072.25 2.39245C1072 2.28648 1071.57 2.16589 1071.29 2.12446C1070.73 2.04117 1061.53 2.06272 1058.64 2.1541L1056.92 2.20849L1058.97 2.35662C1060.71 2.48229 1060.92 2.52105 1060.39 2.61227C1059.88 2.7011 1058.84 2.71753 1054.43 2.70676C1051.49 2.69959 1048.17 2.72637 1047.05 2.76627C1039.01 3.05195 1032.4 3.13696 1009.42 3.25019C996.755 3.31262 986.219 3.38804 986.009 3.41779C984.882 3.57777 986.744 3.60848 1000.71 3.66012C1003.47 3.67035 1005.5 3.70093 1005.2 3.72808C1004.25 3.81587 995.653 3.97965 992.786 3.96454C991.254 3.95647 988.879 3.91362 987.508 3.86933C985.425 3.80203 984.415 3.8065 981.361 3.8966C975.303 4.07528 969.168 3.92767 968.971 3.59852C968.953 3.56885 972.33 3.54861 976.475 3.55355C981.703 3.55977 983.841 3.54156 983.453 3.49414C983.145 3.45653 981.454 3.39786 979.694 3.36377C975.895 3.29016 952.998 3.2747 950.286 3.34392C949.147 3.37297 947.88 3.35876 947.098 3.30819C946.341 3.25921 943.931 3.22975 941.314 3.23749C938.846 3.24479 935.451 3.23374 933.77 3.21294C931.228 3.18149 930.721 3.19225 930.759 3.27689C930.835 3.4465 935.322 3.5228 944.24 3.50612C952.336 3.49098 956.783 3.55064 956.839 3.67513C956.854 3.7084 955.511 3.76427 953.855 3.79929C950.225 3.87604 921.172 3.93922 912.267 3.88972C902.429 3.83503 883.923 3.8033 881.584 3.83711C875.063 3.93142 854.306 3.87405 846.667 3.74058C837.805 3.58576 835.81 3.58004 835.322 3.70804C834.952 3.80507 833.988 3.80419 825.945 3.69949C818.314 3.60015 814.192 3.59198 798.242 3.64458C778.155 3.71081 778.371 3.71066 764.421 3.66827C753.999 3.6366 744.093 3.57851 737.391 3.50975C734.909 3.48427 725.393 3.4828 716.245 3.50648C700.309 3.54772 699.486 3.55611 696.561 3.70699C692.303 3.92671 689.774 3.92351 686.463 3.6942C683.842 3.51273 683.482 3.5065 677.292 3.53542C672.999 3.55546 669.017 3.5284 665.362 3.45433C662.344 3.39318 655.945 3.33161 651.142 3.31751C646.338 3.30341 640.502 3.27107 638.172 3.24564C635.843 3.22021 630.607 3.2146 626.537 3.23319C616.477 3.27913 612.185 3.2204 608.387 2.98484C606.688 2.87941 604.797 2.79512 604.184 2.79751C603.572 2.79991 602.701 2.77126 602.248 2.73385C600.536 2.59245 606.947 2.69695 609.714 2.85556L612.491 3.01471L612.895 2.85093C613.179 2.73561 613.657 2.69031 614.508 2.69784C615.286 2.70473 615.7 2.67219 615.671 2.60654C615.637 2.52975 614.708 2.49818 611.913 2.47878C609.872 2.46461 604.553 2.42077 600.094 2.38136C593.868 2.32632 591.731 2.32916 590.886 2.39359C589.81 2.47556 589.809 2.47953 590.838 2.56782C591.417 2.61751 592.579 2.64617 593.42 2.63151C595.73 2.59122 595.774 2.75255 593.477 2.84402C590.27 2.97174 584.34 2.98901 562.111 2.93537C549.886 2.90586 549.524 2.9088 544.897 3.0753C538.256 3.31425 533.2 3.3067 532.712 3.05709C532.588 2.99374 532.801 2.93992 533.184 2.93749C533.719 2.93409 533.699 2.91951 533.095 2.87482C531.41 2.75009 523.761 2.76412 517.969 2.90257C511.447 3.05844 508.579 3.03618 502.747 2.78445C500.739 2.69778 498.423 2.63013 497.599 2.63413C496.294 2.64046 496.143 2.66265 496.424 2.80705C496.837 3.01958 495.235 3.08856 490.647 3.05576C488.844 3.04286 486.456 3.06367 485.341 3.102C483.627 3.16093 482.964 3.14776 481.048 3.01669C479.597 2.91747 477.944 2.86499 476.453 2.87083C475.173 2.87585 473.644 2.83727 473.056 2.78509C472.469 2.73291 471.21 2.69399 470.26 2.6986C469.31 2.70321 467.707 2.66148 466.698 2.60588C465.01 2.51283 464.634 2.51465 461.984 2.62875C456.704 2.85605 448.091 2.77518 445.346 2.47253C443.399 2.25778 440.894 2.22052 434.899 2.31719C429.654 2.40177 426.326 2.38498 423.365 2.25897C422.623 2.2274 415.384 2.23876 407.253 2.28425C394.347 2.35646 392.216 2.38358 390.321 2.49977C388.183 2.63089 388.13 2.63078 386.459 2.49115C385.145 2.38141 384.329 2.36103 382.831 2.40041C378.849 2.50504 363.833 2.68513 362.006 2.65018C360.961 2.6302 359.291 2.52647 358.295 2.41967C356.619 2.23988 353.832 2.10619 351.933 2.11449C351.496 2.11641 350.057 2.19988 348.737 2.29999ZM314.255 3.145C315.828 3.19065 317.434 3.21032 317.823 3.18871C318.733 3.13815 323.672 3.32118 324.485 3.4356C325.59 3.59104 323.659 3.62284 318.273 3.53791C315.459 3.49355 312.381 3.44514 311.433 3.43033C310.485 3.41553 309.453 3.34868 309.139 3.28178C308.059 3.05162 309.609 3.01018 314.255 3.145ZM441.27 2.61886C440.819 2.68281 439.298 2.57726 439.611 2.50373C439.825 2.45329 440.171 2.4545 440.716 2.5076C441.152 2.55012 441.401 2.60019 441.27 2.61886ZM305.867 4.24714C307.484 4.34775 307.197 4.42701 305.004 4.486C301.984 4.56722 298.006 4.34755 299.636 4.18957C300.372 4.11826 304.393 4.15541 305.867 4.24714ZM313.324 4.42122C313.339 4.45462 312.995 4.48367 312.56 4.48578C312.125 4.4879 311.749 4.44468 311.724 4.38976C311.697 4.32893 311.995 4.30369 312.488 4.3252C312.933 4.34461 313.309 4.38782 313.324 4.42122ZM286.415 5.63719C286.994 5.67319 287.48 5.73216 287.496 5.76824C287.547 5.88088 286.153 5.84677 285.091 5.70936C283.976 5.56508 284.658 5.52788 286.415 5.63719ZM254.282 5.96671C254.336 6.08679 253.191 6.07139 252.809 5.94688C252.674 5.90303 252.94 5.86533 253.399 5.8631C253.858 5.86087 254.256 5.9075 254.282 5.96671ZM291.169 5.70666C291.175 5.72136 290.833 5.75273 290.407 5.77637C289.982 5.8 289.62 5.7897 289.604 5.75348C289.588 5.71725 289.931 5.68589 290.366 5.68378C290.801 5.68166 291.162 5.69196 291.169 5.70666ZM305.829 5.91325C307.198 6.03475 306.263 6.04078 304.481 5.92196C303.607 5.86378 303.413 5.82889 303.94 5.82478C304.391 5.82126 305.242 5.86108 305.829 5.91325ZM291.387 6.19394C291.411 6.24783 291.193 6.29307 290.903 6.29448C290.613 6.29589 290.348 6.23404 290.313 6.15703C290.279 6.08003 290.496 6.03478 290.797 6.05649C291.097 6.07819 291.363 6.14005 291.387 6.19394ZM1168.3 2.0122C1169.41 2.06049 1168.5 2.2418 1167.12 2.24851C1165.86 2.2546 1164.63 2.08278 1165.54 2.02964C1166.5 1.97417 1167.31 1.96904 1168.3 2.0122ZM1177.39 2.16368C1177.46 2.33033 1176.21 2.37617 1174.83 2.25748C1173.46 2.14048 1174.11 1.99644 1175.92 2.01451C1176.91 2.02449 1177.34 2.06808 1177.39 2.16368ZM1126.99 2.6348C1127.13 2.67865 1126.86 2.71635 1126.4 2.71858C1125.94 2.72081 1125.55 2.67418 1125.52 2.61497C1125.47 2.49489 1126.61 2.51029 1126.99 2.6348ZM1164.32 2.49409C1164.38 2.6311 1162.89 2.80502 1162.27 2.73275C1162.07 2.7087 1162.02 2.60832 1162.17 2.50967C1162.48 2.30112 1164.23 2.28845 1164.32 2.49409ZM1296.47 1.87896C1297.75 1.83397 1297.63 2.02443 1296.33 2.10954C1294.71 2.21512 1293.84 2.13782 1294.18 1.91913C1294.36 1.80321 1294.6 1.78158 1295.13 1.83293C1295.51 1.87064 1296.12 1.89135 1296.47 1.87896ZM1309.22 2.03482C1309.26 2.12336 1305.48 2.39507 1304.12 2.40168C1302.3 2.41048 1302.86 2.29609 1305.43 2.13364C1308.14 1.96204 1309.17 1.93508 1309.22 2.03482ZM1256.95 3.09049C1257.33 3.24524 1257 3.39084 1256.37 3.34524C1255.73 3.29894 1255.57 2.97791 1256.19 2.97492C1256.44 2.97367 1256.78 3.02568 1256.95 3.09049ZM1563.92 1.98442C1563.62 2.08444 1563.16 2.16726 1562.91 2.16848C1562.66 2.1697 1562.79 2.07421 1563.21 1.95629C1564.1 1.70013 1564.71 1.72411 1563.92 1.98442ZM1077.94 4.32251C1078.51 4.42694 1077.45 4.5491 1076.39 4.50273C1075.65 4.47063 1075.6 4.44358 1076.09 4.35884C1076.81 4.23521 1077.41 4.22334 1077.94 4.32251ZM1521.63 2.43825C1521.48 2.51318 1521.17 2.57543 1520.93 2.57659C1520.13 2.58044 1519.75 2.37019 1520.28 2.22314C1520.76 2.09204 1520.86 2.08892 1521.36 2.19018C1521.66 2.25169 1521.78 2.36332 1521.63 2.43825ZM1570.95 2.19762C1570.99 2.27242 1570.78 2.33477 1570.49 2.33618C1570.2 2.33758 1569.95 2.30706 1569.93 2.26834C1569.91 2.21989 1569.59 2.22149 1568.9 2.27349C1567.63 2.37068 1566.9 2.25204 1568.15 2.14936C1569.63 2.02631 1570.89 2.04784 1570.95 2.19762ZM1569.06 2.68384C1569.07 2.72124 1568.61 2.75415 1568.03 2.75696C1567.45 2.75977 1566.96 2.73148 1566.95 2.69408C1566.93 2.65668 1567.39 2.62378 1567.97 2.62096C1568.55 2.61815 1569.04 2.64644 1569.06 2.68384ZM1602.59 2.61203C1602.67 2.78927 1601.63 2.78317 1601.35 2.60476C1601.18 2.49527 1601.33 2.45348 1601.82 2.47188C1602.22 2.48663 1602.56 2.5497 1602.59 2.61203ZM1549.85 3.46176C1549.86 3.49295 1549.62 3.54028 1549.32 3.56694C1548.61 3.62884 1547.52 3.50451 1547.93 3.40856C1548.27 3.32865 1549.81 3.3713 1549.85 3.46176ZM1360.58 4.58507C1360.59 4.62026 1360.37 4.65021 1360.08 4.65162C1359.79 4.65302 1359.53 4.60647 1359.5 4.54816C1359.48 4.48986 1359.7 4.45991 1360 4.48162C1360.3 4.50333 1360.56 4.54988 1360.58 4.58507ZM1276.11 5.208C1275.97 5.26307 1275.83 5.24756 1275.77 5.16847C1275.72 5.0969 1275.83 5.05613 1276.01 5.07788C1276.2 5.09962 1276.24 5.15818 1276.11 5.208ZM1333.59 5.7041C1333.62 5.7624 1333.39 5.79235 1333.09 5.77064C1332.79 5.74894 1332.53 5.70238 1332.52 5.66719C1332.5 5.632 1332.72 5.60205 1333.02 5.60065C1333.31 5.59924 1333.56 5.64579 1333.59 5.7041ZM1577.55 7.38614C1578.67 7.54381 1576.99 7.68817 1573.84 7.70341C1570.69 7.7187 1570.36 7.57788 1573.15 7.4109C1575.65 7.26158 1576.63 7.2561 1577.55 7.38614ZM1619.98 7.20155C1619.59 7.25664 1618.26 7.31399 1617.02 7.32901C1615.77 7.34402 1611.57 7.40862 1607.67 7.47257C1603.78 7.53651 1599.46 7.59832 1598.09 7.60992C1595.49 7.63185 1595 7.68624 1596.52 7.78548C1597.71 7.86315 1597.21 7.96132 1594.45 8.19099C1592.66 8.34043 1592.01 8.36503 1591.49 8.30308C1590.98 8.24157 1591.28 8.16873 1592.83 7.9792C1594.79 7.74048 1594.81 7.73231 1593.74 7.63538C1592.89 7.55931 1591.93 7.54998 1589.62 7.59548C1587.48 7.63769 1586.6 7.63194 1586.58 7.57561C1586.55 7.52729 1586.14 7.5152 1585.5 7.54463C1584.9 7.57298 1584.45 7.56197 1584.43 7.51794C1584.41 7.46489 1584.11 7.46499 1583.41 7.5183C1582.1 7.61841 1581.84 7.61512 1581.78 7.49792C1581.69 7.28214 1583.53 7.25303 1602.1 7.17723C1618.15 7.11173 1620.59 7.11505 1619.98 7.20155ZM1557.46 7.49001C1557.49 7.55723 1554.4 8.00215 1553.89 8.00465C1553.03 8.0088 1553.43 7.83883 1554.72 7.64656C1555.96 7.46275 1557.41 7.37986 1557.46 7.49001ZM1567 7.5298C1567.03 7.61557 1565.31 7.74543 1564.09 7.74846C1563.26 7.75054 1563.29 7.73246 1564.32 7.61107C1565.58 7.46253 1566.95 7.42093 1567 7.5298ZM1542.99 8.22787C1543.02 8.28397 1542.68 8.3316 1542.25 8.33371C1541.81 8.33582 1541.43 8.29165 1541.41 8.23555C1541.38 8.17945 1541.72 8.13182 1542.16 8.12971C1542.59 8.1276 1542.97 8.17177 1542.99 8.22787ZM1555.57 8.27951C1556.03 8.33385 1556.08 8.39346 1555.72 8.49245C1555.31 8.60334 1555.12 8.61215 1554.71 8.53799C1554.08 8.42247 1553.95 8.20881 1554.51 8.20609C1554.74 8.20497 1555.22 8.238 1555.57 8.27951ZM1574.82 10.1346C1574.28 10.2104 1573.93 10.1095 1574.27 9.97693C1574.59 9.85258 1574.62 9.85223 1574.86 9.96967C1575 10.0375 1574.98 10.1117 1574.82 10.1346ZM1581.12 10.7401C1581.16 10.834 1579.55 10.7372 1578.95 10.6099C1578.11 10.4305 1578.97 10.3763 1580.1 10.5381C1580.64 10.6171 1581.1 10.708 1581.12 10.7401ZM1118.06 13.1089C1118.07 13.1417 1117.75 13.2084 1117.33 13.257C1116.51 13.3531 1116.4 13.3316 1116.82 13.1629C1117.11 13.0474 1118.01 13.0079 1118.06 13.1089ZM1550.27 11.5123C1550.34 11.6499 1548.85 11.7782 1547.13 11.7827C1545.96 11.7857 1545.98 11.7764 1547.54 11.5884C1548.43 11.4797 1549.15 11.3472 1549.13 11.2938C1549.08 11.1476 1550.19 11.3614 1550.27 11.5123ZM1182.03 13.134C1182.06 13.2055 1180.98 13.3572 1180.42 13.3599C1180.18 13.3611 1180.21 13.2996 1180.49 13.2233C1180.98 13.0863 1181.98 13.0285 1182.03 13.134ZM1534.31 11.8904C1534.9 11.939 1535.9 11.9762 1536.53 11.9732C1537.15 11.9701 1537.93 12.0047 1538.25 12.05C1538.71 12.1144 1538.07 12.1375 1535.32 12.1557C1532.82 12.1723 1530.02 12.2622 1525.6 12.4684C1522.18 12.6276 1518.74 12.7753 1517.95 12.7966C1516.61 12.8328 1516.5 12.8194 1516.4 12.597C1516.31 12.3803 1516.49 12.3471 1518.49 12.2311C1519.69 12.1609 1522.78 12.0211 1525.35 11.9204C1530.13 11.7333 1532.29 11.726 1534.31 11.8904ZM1561.31 12.0282C1562.83 12.2071 1562.49 12.3724 1560.48 12.4316C1558.22 12.4977 1554.37 12.3925 1554.31 12.2631C1554.26 12.1356 1555.12 12.0671 1557.63 12.001C1558.78 11.9707 1559.88 11.9413 1560.08 11.9356C1560.27 11.93 1560.82 11.9717 1561.31 12.0282ZM1110.12 14.2801C1110.15 14.3362 1109.93 14.3833 1109.64 14.3847C1109.35 14.3861 1109.09 14.3413 1109.07 14.2852C1109.04 14.2291 1109.26 14.1821 1109.55 14.1807C1109.84 14.1793 1110.1 14.224 1110.12 14.2801ZM1506.67 12.7205C1506.26 12.7814 1504.27 12.6546 1504.23 12.565C1504.19 12.4822 1504.42 12.485 1505.51 12.5805C1506.23 12.6443 1506.76 12.7073 1506.67 12.7205ZM1556.71 13.2112C1556.54 13.2347 1556.09 13.2393 1555.7 13.2215C1555.27 13.2018 1555.39 13.1851 1556 13.1789C1556.56 13.1732 1556.87 13.1878 1556.71 13.2112ZM1332.77 15.3544C1331.94 15.4734 1330.83 15.3694 1331.57 15.2413C1331.98 15.1706 1332.34 15.1603 1332.75 15.2076C1333.15 15.255 1333.16 15.2999 1332.77 15.3544ZM446.516 2.38035C446.119 2.43672 446.643 2.54059 447.308 2.53736C447.581 2.53604 447.784 2.48906 447.759 2.43296C447.712 2.3278 447.076 2.30089 446.516 2.38035ZM114.798 4.35525C114.437 4.44022 115.921 4.51537 116.668 4.44993C116.961 4.42424 117.188 4.37442 117.172 4.33923C117.134 4.25348 115.175 4.2667 114.798 4.35525ZM125.673 4.43429C125.744 4.59435 126.589 4.66497 127.696 4.60348C128.428 4.5628 128.408 4.54418 127.51 4.42798C126.238 4.26342 125.597 4.26562 125.673 4.43429ZM571.756 2.31984C571.026 2.42347 571.579 2.47343 573.813 2.50549C576.838 2.54892 578.651 2.47302 577.72 2.34197C577.044 2.24683 572.392 2.22958 571.756 2.31984ZM145.277 4.53671C145.364 4.73007 152.855 4.86919 161.002 4.82872C164.483 4.81143 167.759 4.82338 168.282 4.85527C168.988 4.89833 169.221 4.88683 169.187 4.81061C169.112 4.64266 166.277 4.52116 161.286 4.47198C155.592 4.41587 145.242 4.45772 145.277 4.53671ZM618.018 2.52523C616.493 2.66189 618.388 2.7365 622.37 2.69651L626.266 2.65737L624.524 2.54657C622.643 2.42683 619.24 2.41567 618.018 2.52523ZM126.27 4.95645C125.622 5.04846 125.982 5.11827 127.078 5.11295C127.691 5.10997 128.068 5.07243 127.932 5.02789C127.63 4.92977 126.73 4.89108 126.27 4.95645ZM129.625 4.99838C130.012 5.05272 130.832 5.09377 131.449 5.08958C132.548 5.08212 132.549 5.08011 131.502 4.98711C130.018 4.85539 128.667 4.8635 129.625 4.99838ZM183.427 4.72035C183.535 4.91864 184.639 5.00447 187.098 5.00573C194.112 5.00933 197.698 5.02777 198.998 5.06693C199.787 5.0907 200.817 5.07954 201.288 5.04213C202.046 4.98176 201.979 4.95898 200.685 4.83952C198.67 4.65343 194.812 4.57994 188.63 4.60993C184.778 4.62862 183.394 4.65801 183.427 4.72035ZM630.747 2.62996C630.773 2.68917 631.171 2.7358 631.63 2.73357C632.561 2.72905 632.334 2.58346 631.337 2.54617C630.986 2.53304 630.72 2.57074 630.747 2.62996ZM636.638 2.63125C635.63 2.72545 636.524 2.76721 640.989 2.83444C645.3 2.89934 648.81 2.83344 648.746 2.68882C648.723 2.63842 648.402 2.585 648.032 2.57012C646.721 2.51743 637.316 2.56789 636.638 2.63125ZM652.467 2.73471C652.492 2.79081 652.897 2.83484 653.368 2.83256C654.069 2.82916 654.097 2.81052 653.522 2.72959C653.135 2.67525 652.73 2.63122 652.62 2.63175C652.511 2.63228 652.441 2.67861 652.467 2.73471ZM657.508 2.74089C657.172 2.81996 660.682 2.89837 661.47 2.82938C661.772 2.80286 661.87 2.75335 661.688 2.71934C661.253 2.63828 657.869 2.65571 657.508 2.74089ZM223.939 4.97669C224.362 5.0556 232.501 5.10667 233.313 5.03552C234.409 4.93951 232.163 4.88571 227.741 4.90202C225.439 4.91051 223.76 4.94347 223.939 4.97669ZM195.861 5.35451C195.887 5.41281 196.146 5.45937 196.436 5.45796C196.726 5.45655 196.951 5.42661 196.935 5.39142C196.919 5.35623 196.66 5.30967 196.36 5.28797C196.06 5.26626 195.835 5.2962 195.861 5.35451ZM754.056 2.95015C754.092 3.0282 755.447 3.08699 757.034 3.07929C758.538 3.072 759.138 2.96312 757.957 2.91159C756.668 2.85529 754.026 2.88142 754.056 2.95015ZM766.495 2.99109C765.616 3.08203 765.714 3.09258 767.757 3.12683C770.465 3.17223 771.633 3.09682 770.167 2.97111C768.875 2.86019 767.698 2.86659 766.495 2.99109ZM786.868 3.00006C784.779 3.18734 789.228 3.26213 801.766 3.25051C818.101 3.23537 818.821 3.23086 819.011 3.14262C819.268 3.0229 816.574 2.98384 808.872 2.99563C805.049 3.00149 798.94 2.98911 795.296 2.96814C787.185 2.92144 787.77 2.91923 786.868 3.00006ZM832.262 3.13202C830.968 3.24545 832.861 3.33841 836.14 3.3225C839.479 3.3063 840.397 3.26252 839.487 3.1629C838.782 3.0857 833.069 3.06128 832.262 3.13202ZM1023.6 2.18873C1023.19 2.28635 1023.83 2.3117 1028.41 2.37988C1035.17 2.48031 1036.9 2.48407 1038.38 2.40154C1041.17 2.24536 1039.61 2.1515 1034.62 2.17563C1032.03 2.18812 1028.57 2.17884 1026.92 2.15502C1024.86 2.12511 1023.83 2.13555 1023.6 2.18873ZM846.268 3.20377C846.584 3.30669 849.304 3.31219 849.455 3.21021C849.511 3.17246 848.755 3.1356 847.776 3.12831C846.485 3.11869 846.07 3.13942 846.268 3.20377ZM861.958 3.09425C859.502 3.15865 859.18 3.18965 859.905 3.29174C860.877 3.42839 870.083 3.38241 869.6 3.24332C869.416 3.19035 868.751 3.1362 868.123 3.12299C865.747 3.07299 863.218 3.0612 861.958 3.09425ZM871.291 3.12381C870.726 3.25683 872.489 3.33336 877.185 3.37962C883.114 3.43804 887.322 3.42061 887.681 3.33614C888.158 3.22374 886.79 3.17809 882.109 3.15029C879.61 3.13544 876.219 3.10796 874.574 3.08922C872.754 3.06849 871.469 3.08204 871.291 3.12381ZM1078.59 2.26864C1078.44 2.30332 1078.81 2.36257 1079.42 2.40031C1080.29 2.45435 1080.51 2.44829 1080.48 2.3718C1080.43 2.25702 1078.97 2.1777 1078.59 2.26864ZM1081.24 2.25149C1080.89 2.33475 1081.92 2.41056 1082.59 2.35117C1083.16 2.30131 1082.72 2.18088 1081.98 2.18447C1081.73 2.18571 1081.39 2.21587 1081.24 2.25149ZM897.474 3.28127C896.015 3.41206 897.704 3.45348 904.183 3.44579C910.955 3.43776 912.688 3.35561 908.67 3.2332C906.181 3.15737 898.487 3.1904 897.474 3.28127ZM913.671 3.24867C912.825 3.36878 913.474 3.45379 914.964 3.41806C916.363 3.3845 917.211 3.25633 915.994 3.26223C915.728 3.26353 915.174 3.24993 914.764 3.23201C914.354 3.2141 913.862 3.22159 913.671 3.24867ZM922.653 3.27537C922.471 3.30124 922.331 3.34434 922.343 3.37114C922.377 3.44787 925.124 3.48195 926.278 3.41997C927.313 3.36443 927.312 3.36322 926.155 3.29125C924.86 3.21068 923.163 3.20298 922.653 3.27537Z" fill="#8497B3"/>
</svg>
