<svg width="509" height="485" viewBox="0 0 509 485" fill="none" xmlns="http://www.w3.org/2000/svg">
<path d="M0.0548361 180.593C0.146036 180.502 0.437149 180.427 0.701809 180.427C1.00546 180.427 1.18301 180.236 1.18301 179.91C1.18301 179.559 1.05707 179.442 0.789272 179.545C0.506192 179.653 0.395595 179.517 0.395596 179.061C0.395596 178.399 1.35604 177.508 2.43856 177.164C2.76267 177.061 2.96859 176.881 2.89615 176.764C2.82375 176.647 3.12028 176.404 3.5552 176.223C4.23832 175.941 4.41654 175.96 4.86422 176.365C5.14925 176.623 5.38247 176.716 5.38247 176.571C5.38247 176.125 4.45272 175.44 3.84762 175.44C3.35365 175.44 3.297 175.339 3.44516 174.718C3.53996 174.321 3.72202 173.863 3.8497 173.7C4.1147 173.362 5.52059 172.99 6.30111 173.051C6.75811 173.087 6.73239 173.014 6.10244 172.483C5.53733 172.008 5.44818 171.805 5.69558 171.558C5.8698 171.383 6.23626 171.241 6.50992 171.241C6.78358 171.241 7.32102 171.073 7.70419 170.867C8.84626 170.255 11.1342 169.971 13.711 170.121C15.417 170.221 16.2482 170.168 16.5199 169.943C16.9489 169.587 17.9511 169.802 18.3736 170.341C18.5185 170.526 19.2276 170.733 19.9494 170.801C21.4456 170.941 21.8053 171.049 23.6239 171.903C26.9309 173.456 29.5999 173.686 37.7971 173.125C39.8181 172.987 41.6489 172.805 41.8654 172.721C42.5175 172.467 49.0843 171.997 53.2827 171.904C55.4481 171.856 58.1056 171.652 59.1883 171.45C60.2709 171.248 63.2237 171.05 65.7499 171.011C68.2761 170.972 71.1698 170.823 72.1803 170.679C74.3899 170.366 75.03 170.372 77.4779 170.732C79.0205 170.959 79.614 170.935 80.7408 170.6C81.4984 170.375 82.915 170.191 83.8888 170.191C84.8627 170.191 86.5243 170.071 87.5813 169.925C88.6384 169.778 91.7473 169.614 94.4901 169.559C102.835 169.391 112.935 168.791 114.535 168.367C115.059 168.228 117.791 168.132 120.606 168.153C123.421 168.174 127.318 168.042 129.267 167.858C131.216 167.675 135.054 167.491 137.797 167.45C140.54 167.409 144.142 167.239 145.802 167.073C147.463 166.906 150.35 166.708 152.22 166.632C154.089 166.556 155.762 166.374 155.938 166.228C156.114 166.083 157.183 165.989 158.314 166.021C161.527 166.112 167.085 165.829 168.243 165.516C169.605 165.148 175.953 164.651 176.721 164.852C177.047 164.937 177.989 164.818 178.815 164.587C180.27 164.181 185.763 163.587 188.978 163.488C189.844 163.461 191.557 163.31 192.784 163.151C194.011 162.992 195.606 162.867 196.327 162.873C198.827 162.893 204.205 162.388 204.989 162.059C205.502 161.843 208.152 161.656 212.6 161.521C216.354 161.406 220.334 161.228 221.446 161.124C222.558 161.02 226.691 160.914 230.632 160.889C234.573 160.864 239.451 160.703 241.472 160.53C243.493 160.358 249.162 160.152 254.07 160.075C258.978 159.997 265.592 159.865 268.768 159.783C271.944 159.701 276.528 159.596 278.955 159.552C281.382 159.507 283.703 159.353 284.114 159.21C284.588 159.044 286.088 159.03 288.226 159.17C291.486 159.383 293.497 159.22 295.098 158.611C296.129 158.219 304.167 150.602 309.188 145.258C309.621 144.797 310.444 144.105 311.015 143.719C311.76 143.218 312.107 142.767 312.237 142.13C312.36 141.529 312.804 140.912 313.606 140.226C314.26 139.668 315.061 138.77 315.388 138.231C315.715 137.692 316.501 136.636 317.136 135.883L318.291 134.515L317.611 133.884C317.237 133.538 316.931 133.109 316.931 132.932C316.931 132.754 316.398 131.907 315.746 131.05C315.094 130.193 314.335 128.9 314.061 128.177C313.786 127.455 313.139 126.395 312.622 125.823C312.105 125.251 311.682 124.551 311.682 124.267C311.682 123.984 311.327 123.39 310.894 122.947C310.461 122.504 310.107 121.909 310.107 121.625C310.107 121.341 309.651 120.666 309.094 120.125C308.419 119.47 307.745 118.352 307.077 116.779C306.525 115.48 305.814 114.028 305.499 113.552C304.583 112.173 302.942 110.927 301.595 110.588C300.426 110.294 299.71 109.546 300.048 108.972C300.111 108.864 299.89 108.652 299.557 108.5C297.266 107.454 297.141 102.738 299.354 100.837C300.898 99.5104 302.699 98.275 303.088 98.275C303.282 98.275 303.56 98.1555 303.706 98.0094C303.885 97.8303 304.522 97.836 305.661 98.0264C306.591 98.1821 308.334 98.3977 309.536 98.5056C310.773 98.6167 311.808 98.8409 311.92 99.0223C312.029 99.1985 312.482 99.5453 312.927 99.7929C313.863 100.314 315.619 102.344 315.619 102.906C315.619 103.117 315.848 103.725 316.129 104.259C316.41 104.793 317.082 106.448 317.623 107.936C318.163 109.424 318.701 110.7 318.818 110.773C318.935 110.845 319.031 111.236 319.031 111.643C319.031 112.135 319.468 112.928 320.343 114.023C321.065 114.926 321.655 115.81 321.655 115.988C321.655 116.166 321.951 116.747 322.312 117.278C322.673 117.81 322.97 118.447 322.974 118.693C322.987 119.734 325.369 123.865 325.956 123.865C326.381 123.865 327.132 122.828 328.142 120.847C328.4 120.341 328.818 119.774 329.07 119.585C329.323 119.396 329.529 119.029 329.529 118.769C329.529 118.509 329.943 117.857 330.448 117.322C330.953 116.786 331.367 116.134 331.367 115.873C331.367 115.289 332.645 112.448 332.908 112.448C333.013 112.448 333.248 112.034 333.431 111.529C333.613 111.024 333.871 110.611 334.003 110.611C334.338 110.611 335.304 108.651 335.304 107.972C335.304 107.431 335.672 106.854 337.221 104.972C337.627 104.48 337.928 103.923 337.891 103.735C337.855 103.547 338.081 102.875 338.395 102.242C338.709 101.608 338.898 100.981 338.815 100.848C338.545 100.41 339.281 99.062 339.791 99.062C340.194 99.062 340.25 98.9236 340.117 98.2605C339.988 97.6143 340.099 97.3108 340.69 96.6937C341.28 96.0778 341.5 95.4779 341.817 93.6237C342.033 92.3563 342.213 90.225 342.216 88.8876C342.221 86.7966 342.141 86.3477 341.65 85.683C341.335 85.2579 341.078 84.7365 341.078 84.5244C341.078 84.2013 340.152 84.1157 335.369 83.9972C332.23 83.9192 329.365 83.8336 329.005 83.8066C328.644 83.7796 326.518 83.8596 324.28 83.9831C322.043 84.1072 319.799 84.1707 319.293 84.1244C318.125 84.0172 313.858 84.0554 310.632 84.2014C309.26 84.2634 307.041 84.3303 305.7 84.3497C304.359 84.3687 302.993 84.4872 302.665 84.6119C302.336 84.7367 301.197 84.7432 300.133 84.6259C298.901 84.4906 297.954 84.5125 297.525 84.6859C297.155 84.8359 296.026 84.9997 295.015 85.05C293.139 85.143 288.032 85.7114 284.839 86.182C283.862 86.3261 282.267 86.6766 281.296 86.9609C280.324 87.2453 278.939 87.552 278.217 87.6426C277.495 87.7326 276.387 87.9931 275.753 88.2204C274.869 88.5377 273.956 88.6026 271.816 88.4999C268.738 88.3521 267.224 87.8817 266.78 86.9359C266.624 86.6036 265.897 85.8593 265.164 85.2818C264.431 84.7044 263.259 83.6549 262.56 82.9496C261.546 81.9279 261.288 81.4883 261.288 80.7865C261.288 80.19 261.119 79.7999 260.763 79.5779C259.945 79.067 260.086 78.0896 261.026 77.7622C261.939 77.4437 262.032 77.0148 261.288 76.5501C260.608 76.1256 260.619 75.1769 261.317 73.8069C261.622 73.2092 261.896 72.3746 261.925 71.9521C261.954 71.5296 262.166 71.079 262.395 70.9508C262.624 70.8225 263.443 70.2028 264.216 69.5736C264.988 68.9444 266.141 68.164 266.777 67.8393C267.802 67.3163 268.161 67.2702 269.926 67.4346C271.022 67.5366 272.145 67.7409 272.423 67.8886C272.7 68.0363 273.574 68.1423 274.365 68.1241C275.155 68.1061 275.96 68.2221 276.153 68.3824C276.368 68.561 276.785 68.595 277.229 68.4704C277.628 68.3584 278.073 68.3087 278.217 68.36C278.478 68.453 285.343 68.6062 289.11 68.6036C290.192 68.6029 293.086 68.7076 295.54 68.8362C297.994 68.9648 300.71 68.9879 301.575 68.8872C302.439 68.7868 306.042 68.8062 309.58 68.9292C313.118 69.0529 317.661 69.1564 319.675 69.1593C322.02 69.1593 323.467 69.2719 323.698 69.4632C323.969 69.6884 324.108 69.681 324.261 69.4332C324.372 69.2525 324.924 68.945 325.487 68.7499C326.362 68.4471 326.523 68.4496 326.596 68.7669C326.706 69.2478 327.43 69.2534 327.43 68.7769C327.43 68.5759 327.236 68.3369 326.998 68.2458C326.761 68.1548 326.643 68.0041 326.737 67.911C326.83 67.818 326.721 67.537 326.495 67.287C326.035 66.7789 326.092 66.7222 327.525 66.2596L328.54 65.9324L328.421 64.508C328.356 63.7245 328.402 63.0225 328.523 62.9479C328.894 62.7182 328.765 62.0559 328.348 62.0559C327.836 62.0559 327.836 61.2891 328.348 61.1291C328.565 61.0611 328.922 60.9497 329.142 60.8808C329.475 60.7763 329.486 60.6673 329.21 60.2246C328.945 59.8011 328.944 59.5883 329.204 59.1724C329.383 58.8856 329.529 58.3686 329.529 58.0234C329.529 57.6782 329.707 57.2488 329.923 57.0691C330.477 56.609 330.412 55.8263 329.792 55.4943C329.247 55.2026 329.063 54.4444 329.538 54.4444C330.131 54.4444 330.076 53.6035 329.427 52.7532C328.586 51.6506 328.585 51.6039 329.391 51.2976C330.184 50.996 330.526 49.8827 330.02 49.2501C329.822 49.0033 329.385 48.2518 329.047 47.5802C328.56 46.6106 328.493 46.2492 328.719 45.8258C329.111 45.0932 329.083 43.6842 328.676 43.6792C328.446 43.6792 328.459 43.6052 328.72 43.4397C328.961 43.2872 329.076 42.8035 329.047 42.0658C329.008 41.088 329.13 40.7977 329.912 40.0087C330.412 39.5035 331.193 38.6472 331.646 38.1058C332.352 37.264 332.626 37.1216 333.542 37.1216C334.131 37.1216 335.127 36.8726 335.756 36.5683C336.545 36.1865 337.16 36.0642 337.742 36.1737C338.205 36.2607 339.057 36.4077 339.634 36.4999C340.212 36.5919 340.802 36.7527 340.947 36.8568C341.091 36.9609 341.953 37.2067 342.861 37.4029C343.769 37.5992 344.725 37.958 344.985 38.2002C345.245 38.4424 345.818 38.8267 346.258 39.0543C346.698 39.2818 347.436 39.9445 347.897 40.527C348.358 41.1094 348.851 41.5146 348.993 41.4272C349.541 41.088 349.985 42.2537 349.994 44.0563C350 45.3269 350.125 46.0093 350.413 46.3268C350.786 46.7388 350.783 47.1164 350.389 50.4157C350.15 52.415 349.927 54.4167 349.893 54.864C349.859 55.3114 349.574 56.093 349.26 56.6011C348.594 57.6799 348.484 58.3535 349.053 57.8819C349.582 57.4422 349.65 57.8249 349.627 61.1633C349.613 63.3179 349.682 63.9751 349.893 63.6871C350.117 63.3806 350.244 63.6261 350.488 64.8422C350.754 66.1645 350.741 66.4286 350.4 66.6781C349.962 66.9988 349.862 67.5678 350.244 67.5678C350.377 67.5678 350.625 67.9892 350.795 68.5044C351.032 69.2203 351.206 69.3987 351.537 69.2615C351.776 69.1625 356.577 69.0295 362.207 68.9654C367.837 68.9014 373.152 68.8015 374.018 68.7435C374.884 68.6855 376.478 68.5815 377.561 68.5122C379.886 68.3634 381.688 67.9201 382.417 67.3178C382.705 67.079 383.516 66.7392 384.218 66.5626C384.92 66.3861 386.041 65.9924 386.71 65.6877C387.79 65.1955 388.234 65.1513 390.683 65.2911C394.368 65.5015 395.123 65.7604 397.473 67.6213C399.944 69.5782 400.516 70.3989 400.307 71.6865C400.182 72.4547 400.28 72.7844 400.822 73.4288C401.515 74.2517 401.534 74.5691 401.055 77.279C400.722 79.1571 400.646 79.3472 400.161 79.5013C399.888 79.5883 399.518 80.0139 399.338 80.4481C399.018 81.2211 396.89 83.2142 395.754 83.805C395.043 84.1751 393.659 84.1943 393.438 83.837C393.332 83.6659 392.249 83.6332 390.403 83.745C387.958 83.8935 387.379 83.8498 386.492 83.4498C385.599 83.047 385.291 83.0248 384.327 83.2939C382.892 83.6948 381.785 83.6987 379.661 83.3099C377.649 82.9422 377.407 82.9361 372.968 83.142C371.091 83.229 368.61 83.203 367.454 83.085C366.299 82.9664 364.822 82.9417 364.174 83.03L362.994 83.191L363.052 84.6966C363.104 86.0395 363.054 86.2022 362.593 86.2022C362.212 86.2022 362.075 86.3805 362.075 86.876C362.075 87.3043 361.745 87.8612 361.169 88.4045C360.533 89.0043 360.304 89.4164 360.401 89.7866C360.504 90.182 360.173 90.6488 359.076 91.6509C358.212 92.4405 357.613 93.2078 357.613 93.5253C357.613 93.8568 357.312 94.2185 356.827 94.4693C356.043 94.8747 354.978 96.625 354.626 98.0853C354.53 98.4858 354.04 99.3511 353.539 100.008C353.037 100.665 352.627 101.387 352.627 101.611C352.627 101.836 352.403 102.388 352.13 102.838C351.857 103.288 351.554 104.032 351.457 104.491C351.36 104.95 351.12 105.459 350.924 105.622C350.728 105.784 350.489 106.387 350.392 106.961C350.295 107.536 349.947 108.326 349.619 108.718C348.866 109.619 347.961 111.391 347.8 112.282C347.654 113.089 347.599 113.184 346.175 115.125C345.572 115.947 344.999 117.045 344.902 117.564C344.778 118.221 344.536 118.581 344.108 118.744C343.69 118.903 343.051 119.821 342.118 121.605C341.363 123.049 340.579 124.294 340.378 124.372C340.176 124.45 339.678 125.253 339.272 126.158C338.866 127.063 338.327 127.975 338.074 128.185C337.379 128.762 335.304 131.526 335.304 131.875C335.304 132.044 334.89 132.665 334.385 133.255C333.191 134.651 333.147 135.646 334.263 136.035C334.804 136.223 335.187 136.618 335.458 137.267C335.822 138.138 339.295 141.758 341.399 143.46C341.872 143.842 343.027 144.792 343.965 145.57C346.589 147.746 350.708 150.462 351.925 150.819C352.528 150.996 353.586 151.47 354.279 151.873C354.971 152.277 355.681 152.606 355.857 152.606C356.033 152.606 356.648 152.859 357.224 153.167C357.799 153.476 358.978 153.96 359.844 154.244C360.711 154.527 362.128 155.115 362.994 155.549C364.991 156.55 365.624 156.744 368.429 157.211C369.685 157.42 371.309 157.827 372.038 158.114C373.238 158.587 375.62 158.75 379.398 158.619C380.273 158.589 386.897 158.85 387.141 158.924C387.285 158.968 387.911 158.912 388.532 158.799C389.487 158.624 389.801 158.687 390.581 159.208C391.527 159.841 392.259 161.139 392.259 162.187C392.259 164.514 389.723 166.634 386.091 167.344C382.164 168.112 373.68 168.43 372.606 167.85C372.263 167.665 371.024 167.447 369.852 167.367C368.42 167.269 367.29 167.02 366.407 166.609C365.685 166.273 364.614 165.996 364.029 165.995C363.443 165.994 361.992 165.638 360.806 165.205C359.619 164.772 358.445 164.417 358.196 164.416C357.948 164.415 357.39 164.227 356.957 163.998C356.524 163.769 355.402 163.345 354.464 163.055C353.526 162.765 352.344 162.32 351.839 162.066C351.334 161.811 349.342 160.813 347.413 159.846C345.484 158.88 343.063 157.519 342.032 156.822C341.002 156.126 339.628 155.291 338.978 154.968C337.153 154.059 334.57 152.139 334.383 151.551C334.291 151.261 333.73 150.775 333.137 150.473C332.033 149.909 328.241 146.493 327.299 145.212C327.01 144.82 326.596 144.453 326.38 144.396C325.844 144.256 325.33 144.453 325.33 144.798C325.33 145.261 323.942 146.7 320.458 149.851C319.181 151.005 317.363 152.764 316.418 153.759C315.473 154.754 314.346 155.724 313.913 155.914C313.263 156.2 313.223 156.262 313.684 156.271C313.991 156.281 314.389 156.458 314.569 156.675C314.753 156.897 315.325 157.068 315.881 157.068C317.791 157.068 318.407 157.327 318.996 158.375C319.793 159.793 321.524 161.438 322.404 161.614C323.268 161.787 324.805 162.988 324.805 163.49C324.805 163.676 324.628 163.975 324.411 164.155C323.709 164.738 323.946 165.205 324.945 165.205C325.96 165.205 326.073 165.359 326.187 166.911C326.254 167.808 326.345 167.95 326.817 167.884C327.339 167.811 327.369 167.922 327.364 169.852C327.357 172.07 327.117 172.745 325.87 174.049C325.429 174.51 325.068 175.051 325.068 175.249C325.068 175.566 324.355 176.339 322.388 178.16C321.959 178.557 321.892 178.846 322.029 179.705C322.122 180.286 322.089 181.129 321.955 181.579C321.822 182.028 321.564 183.282 321.382 184.365C321.201 185.448 320.827 186.712 320.551 187.176C319.853 188.351 319.542 190.959 319.338 197.357C319.241 200.389 319.077 202.999 318.973 203.158C318.87 203.318 318.926 203.822 319.099 204.28C319.349 204.943 319.342 205.224 319.063 205.671C318.808 206.079 318.684 207.836 318.605 212.161C318.545 215.423 318.383 218.683 318.244 219.404C317.558 222.975 317.459 237.958 318.114 239.224C318.464 239.901 319.881 240.786 320.645 240.804C320.84 240.809 321.225 240.983 321.501 241.192C321.777 241.401 322.251 241.509 322.554 241.433C322.858 241.357 323.813 241.496 324.677 241.741C325.542 241.987 327.194 242.276 328.348 242.383C329.503 242.491 331.393 242.714 332.548 242.878C334.868 243.208 337.163 243.312 347.246 243.541C350.999 243.626 354.279 243.761 354.533 243.839C355.172 244.037 356.874 242.948 356.772 242.406C356.728 242.17 356.454 241.872 356.164 241.744C355.709 241.543 355.641 241.279 355.668 239.836C355.709 237.717 356.266 236.538 357.943 235.021C359.176 233.906 359.339 233.838 360.859 233.807C362.265 233.778 362.765 233.919 364.808 234.922C366.095 235.554 367.305 236.071 367.498 236.071C367.692 236.071 367.85 236.186 367.85 236.327C367.85 236.467 368.209 236.768 368.648 236.995C369.088 237.223 369.567 237.669 369.714 237.986C369.95 238.498 372.267 239.751 372.969 239.747C373.113 239.746 373.813 240.159 374.524 240.664C375.235 241.169 375.921 241.583 376.049 241.583C376.333 241.583 379.215 242.921 379.398 243.138C379.47 243.224 380.12 243.545 380.842 243.852C382.271 244.459 384.192 244.887 387.313 245.291C389.625 245.591 391.902 246.388 391.786 246.857C391.666 247.339 392.283 247.609 392.787 247.294C393.121 247.086 393.484 247.148 394.254 247.546C394.817 247.837 395.632 248.239 396.065 248.438C397.42 249.062 399.166 251.087 399.805 252.774C400.13 253.631 400.396 254.463 400.396 254.623C400.396 254.782 400.564 254.977 400.769 255.056C400.983 255.138 401.087 255.41 401.013 255.694C400.929 256.013 401.136 256.417 401.591 256.826C403.403 258.455 403.587 258.681 403.432 259.084C403.037 260.115 403.618 261.295 405.449 263.178C407.49 265.278 409.97 268.484 410.373 269.545C410.516 269.922 411.09 270.783 411.648 271.458C412.609 272.622 413.242 273.54 416.473 278.455C417.23 279.607 418.745 281.438 419.84 282.523C420.935 283.608 422.116 285.026 422.465 285.674C423.424 287.456 425.522 290.154 428.311 293.191C429.566 294.558 430.251 295.595 430.857 297.042C431.224 297.92 431.982 297.898 432.109 297.007C432.17 296.581 432.042 296.36 431.681 296.266C431.293 296.164 431.125 295.82 430.998 294.869C430.906 294.175 430.656 293.462 430.443 293.284C430.229 293.107 430.055 292.652 430.056 292.272C430.058 291.477 429.435 289.432 428.728 287.908C428.46 287.331 427.812 285.5 427.286 283.84C426.761 282.18 426.121 280.29 425.863 279.641C425.605 278.991 425.254 277.869 425.083 277.147C424.912 276.425 424.546 275.594 424.269 275.299C423.983 274.993 423.583 273.878 423.341 272.705C423.107 271.574 422.565 269.825 422.137 268.818C421.708 267.812 421.126 265.925 420.842 264.624C420.558 263.324 420.153 261.845 419.941 261.338C419.729 260.831 419.556 260.076 419.556 259.661C419.556 259.246 419.458 258.906 419.338 258.906C418.957 258.906 417.53 256.709 417.339 255.829C417.238 255.364 416.753 254.537 416.262 253.992C415.77 253.446 415.366 252.829 415.362 252.621C415.359 252.412 415.061 251.934 414.701 251.558C414.163 250.996 414.016 250.513 413.876 248.86C413.762 247.512 413.804 246.728 414.002 246.489C414.228 246.217 414.111 245.553 413.515 243.714C413.084 242.384 412.732 241.095 412.732 240.848C412.732 240.602 412.377 240.066 411.944 239.657C411.135 238.893 410.912 238.034 411.475 237.846C411.669 237.781 411.363 237.231 410.69 236.433C409.65 235.199 408.27 232.371 408.27 231.473C408.27 230.826 407.334 229.17 406.62 228.553C406.039 228.052 405.982 227.837 406.092 226.585C406.161 225.811 406.22 224.626 406.224 223.951C406.23 222.849 406.333 222.642 407.232 221.92C407.782 221.477 408.27 220.85 408.317 220.525C408.367 220.174 408.721 219.783 409.188 219.563C409.621 219.359 410.035 219.109 410.107 219.007C410.394 218.601 411.895 218.021 413.404 217.733C416.011 217.235 417.639 217.765 419.491 219.717C420.105 220.364 420.685 221.208 420.78 221.593C420.874 221.977 421.18 222.732 421.459 223.271C422.012 224.34 422.34 226.436 422.681 231.084C422.881 233.796 423.113 234.761 424.009 236.59C424.113 236.804 424.542 237.055 424.961 237.149C425.381 237.243 426.379 237.618 427.181 237.982C427.983 238.345 429.09 238.643 429.643 238.643C430.195 238.643 430.72 238.753 430.81 238.888C431.071 239.28 433.436 239.954 435.539 240.235C436.607 240.378 437.565 240.632 437.668 240.799C437.771 240.966 438.535 241.15 439.365 241.209C440.194 241.268 441.362 241.447 441.959 241.608C443.283 241.964 454.58 241.968 460.763 241.615C463.145 241.479 469.582 241.407 475.068 241.455C485.452 241.546 486.788 241.439 487.306 240.471C487.487 240.133 487.478 239.542 487.277 238.614C486.347 234.307 486.481 232.314 487.782 231.099C488.38 230.54 488.583 229.981 488.983 227.803C489.515 224.906 489.522 224.656 489.211 220.323C488.911 216.158 488.942 214.996 489.468 210.494C489.721 208.335 489.859 206.297 489.776 205.965C489.686 205.607 489.806 205.083 490.07 204.68C490.409 204.162 490.448 203.89 490.232 203.544C489.818 202.882 490.148 193.422 490.64 191.813C490.794 191.31 490.803 190.093 490.664 188.664C490.538 187.382 490.373 175.527 490.295 162.318C490.218 149.11 490.15 138.066 490.145 137.778C490.139 137.489 490.149 135.068 490.167 132.397C490.185 129.726 490.125 126.892 490.034 126.098C489.943 125.304 489.871 124.536 489.874 124.392C489.877 124.247 489.879 119.877 489.879 114.68C489.879 109.484 489.905 104.877 489.937 104.444C490.05 102.889 489.912 101.367 489.626 101.023C489.465 100.828 489.348 99.8166 489.364 98.7521C489.38 97.6964 489.373 92.0492 489.349 86.2027C489.286 71.0034 489.556 50.9676 489.903 44.9954C490.242 39.1526 490.039 31.5059 489.523 30.6909C489.34 30.4022 489.123 29.8707 489.04 29.5098C488.658 27.843 488.057 26.7297 487.234 26.1641C486.68 25.7839 486.354 25.3431 486.354 24.9757C486.354 24.412 486.26 24.3905 483.648 24.3575C481.079 24.3245 479.969 24.1257 474.018 22.6288C473.352 22.4613 472.624 21.9932 472.029 21.3493C470.451 19.6433 468.473 19.0314 462.732 18.4734C461.432 18.3471 459.424 18.0593 458.27 17.8339C457.115 17.6085 453.749 17.3138 450.789 17.179C445.597 16.9426 438.477 16.282 437.666 15.9614C436.957 15.6813 429.781 15.0902 423.755 14.8155C420.507 14.6674 416.609 14.4126 415.094 14.2492C411.369 13.8478 403.28 13.6995 386.274 13.7207C377.286 13.7317 371.033 13.8511 369.345 14.0433C367.873 14.2109 363.657 14.4448 359.976 14.5631C356.295 14.6814 351.806 14.8972 350.002 15.0426C348.197 15.188 345.008 15.3683 342.915 15.4433C333.279 15.7884 326.731 16.1462 323.23 16.5188C321.137 16.7417 316.531 16.9663 312.994 17.018C309.346 17.071 305.144 17.2898 303.283 17.5229C301.462 17.7509 296.789 17.9989 292.784 18.0802C285.292 18.2322 283.249 18.3288 278.611 18.7499C277.095 18.8876 272.548 19.0738 268.506 19.1638C256.575 19.4294 255.306 19.4714 255.076 19.6082C254.667 19.8522 251.976 20.1483 249.739 20.1956C246.811 20.2576 240.507 20.7667 238.847 21.0754C238.125 21.2096 234.877 21.4577 231.629 21.6267C225.701 21.9352 224.128 22.0849 219.033 22.8259C216.646 23.173 210.744 24.7159 209.582 25.2964C209.365 25.4046 209.06 25.7464 208.902 26.0561C208.494 26.8602 207.716 27.6725 207.353 27.6725C206.871 27.6725 205.09 29.788 205.17 30.265C205.21 30.4992 205.031 31.1372 204.772 31.6827C204.458 32.3428 204.319 33.1766 204.357 34.1761C204.387 35.002 204.276 36.0103 204.11 36.4167C203.697 37.4265 203.724 37.5845 204.348 37.7823C204.813 37.9301 204.885 38.1592 204.864 39.4404C204.836 41.251 205.022 43.3118 205.247 43.6765C205.339 43.8244 205.578 43.9455 205.779 43.9455C205.979 43.9455 206.24 44.1167 206.357 44.3258C206.636 44.8258 206.449 47.1361 206.144 46.9476C206.014 46.8676 205.907 46.9266 205.907 47.0796C205.907 47.2325 206.026 47.3576 206.17 47.3576C206.559 47.3576 206.472 48.7264 206.048 49.286C205.846 49.5526 205.747 49.9422 205.827 50.1516C205.907 50.3611 205.761 50.6876 205.502 50.8772C205.242 51.0668 204.981 51.445 204.922 51.7176C204.697 52.7469 204.64 56.1378 204.84 56.5294C205.108 57.0524 204.496 64.4373 204.055 65.9928C203.871 66.6424 203.691 67.7644 203.654 68.4862C203.618 69.208 203.46 70.6253 203.303 71.6358C203.146 72.6463 202.888 74.418 202.73 75.5728C202.571 76.7277 202.277 78.4403 202.077 79.3786C201.682 81.2246 200.905 87.2804 200.763 89.6148C200.715 90.4088 200.56 91.5899 200.419 92.2395C199.936 94.4674 199.864 95.7855 200.116 97.7513C200.302 99.2084 200.274 100.299 200.008 101.951C199.668 104.059 199.325 113.4 199.289 121.505C199.267 126.691 199.357 128.544 199.652 128.904C199.822 129.11 199.753 130.026 199.449 131.609C199.007 133.906 199.007 134.034 199.462 134.804C199.829 135.425 199.899 135.916 199.775 136.972C199.624 138.263 199.661 138.38 200.465 139.135C200.932 139.574 201.51 140.001 201.749 140.084C202.43 140.321 203.85 142.577 203.988 143.64C204.056 144.169 204.001 144.895 203.866 145.254C203.692 145.713 203.737 146.253 204.018 147.077C204.392 148.176 204.387 148.265 203.931 148.525C203.36 148.849 202.612 149.615 201.73 150.777C201.382 151.237 200.585 151.832 199.959 152.1C198.716 152.633 198.431 153.024 199.477 152.762C200.492 152.507 200.263 153.082 199.149 153.585C198.607 153.83 197.97 154.19 197.731 154.385C197.493 154.581 196.785 154.783 196.157 154.835C195.529 154.887 194.119 155.051 193.025 155.199C191.487 155.409 190.731 155.39 189.694 155.116C188.957 154.922 188.296 154.82 188.225 154.891C187.792 155.324 186.211 154.451 184.389 152.774C183.267 151.74 181.805 150.623 181.142 150.292C180.478 149.96 179.874 149.591 179.8 149.47C179.725 149.35 179.831 148.779 180.034 148.203C180.275 147.518 180.354 146.607 180.26 145.574C180.129 144.124 180.201 143.821 181.127 141.935C181.683 140.803 182.289 139.721 182.474 139.531C182.659 139.34 182.81 139.019 182.81 138.818C182.81 138.617 183.001 137.892 183.233 137.206C183.628 136.043 183.626 135.903 183.196 135.104C182.828 134.421 182.774 133.944 182.928 132.732C183.035 131.898 183.15 130.212 183.184 128.985C183.219 127.758 183.394 124.47 183.573 121.679C183.752 118.887 183.83 116.423 183.745 116.204C183.661 115.985 183.706 115.375 183.846 114.849C183.985 114.324 184.168 111.944 184.253 109.563C184.535 101.64 184.623 100.264 185.01 97.6203C185.222 96.1768 185.406 94.0075 185.418 92.7997C185.43 91.592 185.506 90.3432 185.585 90.0247C185.665 89.7062 185.781 88.8637 185.843 88.1524C186.335 82.4738 186.666 79.9247 186.956 79.5742C187.254 79.2151 187.598 76.8242 187.947 72.6859C188.008 71.9641 188.186 70.411 188.344 69.2345C188.546 67.7265 188.549 66.9424 188.353 66.5766C188.151 66.1992 188.192 65.3517 188.504 63.4664C189.087 59.9493 189.16 54.7869 188.658 52.6071C188.442 51.6688 187.963 50.385 187.594 49.7541C187.045 48.816 186.978 48.5179 187.228 48.1173C187.658 47.43 187.609 46.1137 187.146 45.8541C186.932 45.7345 186.68 45.2493 186.585 44.776C186.438 44.0398 186.495 43.8939 186.981 43.7668C187.423 43.6511 187.508 43.4948 187.365 43.0602C187.265 42.7533 187.203 42.1879 187.229 41.8038C187.255 41.4197 187.152 40.7771 186.999 40.3759C186.77 39.7724 186.815 39.521 187.259 38.9196C187.555 38.5198 187.797 38.0345 187.797 37.8409C187.797 37.6474 187.935 37.3505 188.105 37.1812C188.325 36.9607 188.336 36.7038 188.142 36.2758C187.987 35.9336 187.946 35.1 188.046 34.3258C188.142 33.582 188.13 32.7265 188.018 32.4246C187.874 32.0352 187.959 31.7419 188.31 31.4147C189.022 30.7514 189.005 28.0379 188.287 27.8503C187.685 27.6927 187.634 26.4667 188.199 25.7198C188.727 25.0217 188.7 24.921 187.761 24.0426C187.097 23.4226 186.97 23.1391 187.109 22.5857C187.223 22.1338 187.46 21.8986 187.802 21.8986C188.089 21.8986 188.322 21.7223 188.322 21.5049C188.322 21.2883 188.1 21.1112 187.83 21.1112C187.01 21.1112 186.727 18.8239 187.386 17.5235C187.593 17.1148 187.997 16.1922 188.283 15.4732C188.704 14.4181 188.96 14.1257 189.612 13.9569C190.056 13.8419 190.613 13.4509 190.851 13.088C191.436 12.1951 193.303 11.1374 194.294 11.1374C195.481 11.1374 195.933 10.8903 195.933 10.2422C195.933 9.50446 197.212 8.31229 199.214 7.18369C200.832 6.27159 201.199 6.20921 205.776 6.06791C206.642 6.04091 207.941 6.16587 208.663 6.34427C209.385 6.52297 210.33 6.6724 210.763 6.6763C211.634 6.6863 212.932 7.10707 214.253 7.81357C215.262 8.35347 216.085 8.39905 220.868 8.18015C222.816 8.09115 226.537 7.94626 229.135 7.85856C231.734 7.77056 235.1 7.5343 236.616 7.3328C239.167 6.9937 245.716 6.46067 249.739 6.26487C250.677 6.21887 253.875 6.04881 256.844 5.88621C264.411 5.47191 276.322 5.03827 281.76 4.97917C284.286 4.95117 288.184 4.77927 290.421 4.59617C292.659 4.41297 296.698 4.27777 299.396 4.29558C302.095 4.31358 305.053 4.20761 305.971 4.06151C306.889 3.91491 310.645 3.66517 314.319 3.50657C317.993 3.34788 322.062 3.17007 323.361 3.11137C324.66 3.05237 327.151 3.01238 328.896 3.02238C330.64 3.03238 332.816 2.90431 333.73 2.73851C334.644 2.57281 336.464 2.38518 337.775 2.32158C339.086 2.25858 341.34 2.08776 342.784 1.94316C345.501 1.67106 349.366 1.51218 358.138 1.31188C360.953 1.24788 364.142 1.07441 365.225 0.926806C366.307 0.779306 370.146 0.589493 373.755 0.504993C377.364 0.419993 381.498 0.272996 382.941 0.177296C386.439 -0.0546035 391.064 -0.0589894 393.965 0.166311C395.264 0.267511 397.39 0.254319 398.689 0.13732C400.498 -0.0255803 401.185 0.00629434 401.621 0.273794C402.048 0.535594 403.494 0.618079 407.395 0.60308C410.622 0.59108 413.981 0.743108 416.234 1.00451C418.233 1.23631 421.126 1.42797 422.664 1.43047C424.202 1.43047 426.583 1.5636 427.954 1.7207C429.326 1.8778 431.511 2.03878 432.81 2.07848C434.109 2.11848 435.822 2.2873 436.616 2.4544C437.41 2.6214 439.628 2.87199 441.545 3.01129C443.462 3.15049 445.528 3.3753 446.138 3.5108C446.747 3.6463 449.779 3.82557 452.876 3.90917C455.972 3.99318 458.925 4.16729 459.437 4.29699C463.167 5.24109 467.955 5.38169 470.8 4.63049C474.408 3.67749 475.63 3.46549 476.79 3.59009C478.292 3.75139 480.725 4.4423 480.938 4.768C481.029 4.9072 481.511 5.01933 482.008 5.01703C482.505 5.01703 482.958 5.15081 483.014 5.31921C483.07 5.48761 483.319 5.62543 483.567 5.62543C484.136 5.62543 485.43 6.21699 485.432 6.47839C485.433 6.58669 485.727 6.67529 486.084 6.67529C486.441 6.67529 487.238 6.89902 487.855 7.17242C490.428 8.31192 492.379 8.78041 494.538 8.77771C495.72 8.77671 497.019 8.9045 497.425 9.0628C497.832 9.221 498.627 9.39783 499.193 9.45563C500.68 9.60753 501.239 10.0824 502.303 12.0982C502.824 13.0854 503.553 14.2999 503.923 14.7971C504.292 15.2944 504.595 15.8414 504.595 16.0127C504.595 16.1841 504.971 16.6924 505.431 17.1423C506.261 17.9534 506.268 17.9806 506.217 20.3593C506.161 22.9568 505.745 24.5418 504.723 26.0462C504.364 26.5747 504.07 27.2033 504.07 27.443C504.07 27.6828 503.88 27.9519 503.647 28.0411C503.322 28.1659 503.264 28.4115 503.395 29.1085C503.493 29.633 503.399 30.6536 503.17 31.5351C502.954 32.3718 502.787 33.9705 502.8 35.0878C502.813 36.2051 502.703 37.2674 502.555 37.4485C502.403 37.6349 502.161 40.9634 501.996 45.1267C501.837 49.1687 501.568 52.9232 501.398 53.47C501.154 54.2548 501.163 54.7522 501.442 55.8322C501.933 57.7363 502.002 60.8657 501.675 66.3866C501.521 68.985 501.396 74.4771 501.397 78.5913C501.398 84.3804 501.305 86.5167 500.987 88.0401C500.5 90.3664 500.521 91.5344 501.078 93.0736C501.408 93.9863 501.516 95.9783 501.63 103.263C501.8 114.052 501.8 113.756 501.605 118.201C501.521 120.137 501.548 121.85 501.666 122.007C501.784 122.164 501.784 123.65 501.666 125.31C501.514 127.455 501.539 128.499 501.754 128.917C501.988 129.372 501.972 129.757 501.685 130.623C501.404 131.47 501.318 133.299 501.329 138.171C501.337 141.708 501.347 146.669 501.35 149.195C501.364 161.235 501.467 165.647 501.753 166.518C502.291 168.15 502.031 188.782 501.427 192.502C501.274 193.44 501.162 196.334 501.178 198.932C501.248 210.314 501.407 227.094 501.452 227.935C501.553 229.781 502.06 232.282 502.46 232.896C502.736 233.321 502.854 234.053 502.821 235.15C502.779 236.555 502.898 237.009 503.698 238.516C504.282 239.616 504.997 240.525 505.642 240.986C506.271 241.436 506.977 242.321 507.485 243.299C508.25 244.772 508.295 245.004 508.119 246.58C508.009 247.574 507.732 248.532 507.451 248.893C507.187 249.233 506.896 249.911 506.804 250.401C506.6 251.487 505.212 252.78 504.01 253.002C502.231 253.331 495.267 253.551 494.49 253.303C493.442 252.968 475.784 252.831 472.445 253.131C471 253.262 466.586 253.434 462.635 253.515C458.685 253.596 455.201 253.719 454.893 253.789C453.731 254.051 444.886 254.707 442.442 254.712C440.529 254.716 439.356 254.876 437.719 255.357C436.522 255.708 434.809 256.073 433.913 256.168C431.841 256.387 430.054 257.221 430.054 257.969C430.054 258.269 430.514 259.72 431.075 261.193C432.177 264.083 432.82 266.39 432.718 267.082C432.683 267.32 433.006 268.265 433.435 269.182C433.864 270.098 434.341 271.544 434.494 272.394C434.648 273.244 434.886 274.073 435.022 274.238C435.37 274.657 436.509 278.222 436.747 279.635C436.856 280.282 437.11 281.063 437.312 281.371C437.514 281.68 437.958 282.745 438.299 283.739C438.64 284.733 439.175 286.196 439.489 286.99C439.803 287.784 440.338 289.201 440.677 290.14C441.4 292.141 443.448 297.024 444.062 298.211C444.297 298.666 444.49 299.292 444.49 299.603C444.49 299.913 444.781 300.716 445.137 301.387C445.493 302.058 446.264 303.621 446.85 304.86C447.435 306.1 448.25 307.458 448.659 307.879C449.069 308.299 449.492 308.939 449.599 309.3C449.92 310.375 451.355 313.206 451.742 313.528C451.939 313.692 452.101 313.988 452.101 314.186C452.101 314.385 452.692 315.15 453.414 315.887C454.2 316.69 454.726 317.463 454.726 317.816C454.726 318.14 454.975 318.63 455.279 318.905C455.583 319.18 456.071 319.877 456.364 320.455C456.657 321.032 456.985 321.564 457.095 321.636C457.204 321.708 457.739 322.528 458.283 323.459C459.12 324.889 459.696 325.573 461.351 327.1C461.458 327.198 461.852 327.663 462.227 328.132C462.602 328.601 463.12 328.985 463.379 328.985C463.637 328.985 463.995 329.162 464.175 329.379C464.442 329.701 464.424 329.772 464.076 329.772C463.841 329.772 463.65 329.95 463.65 330.166C463.65 330.383 463.745 330.56 463.861 330.56C464.379 330.56 466.012 332.379 466.013 332.957C466.013 333.339 466.291 333.768 466.735 334.072C468.265 335.12 470.474 338.693 470.474 340.121C470.474 340.434 470.581 340.803 470.712 340.94C470.843 341.077 471.256 341.744 471.63 342.42C472.448 343.9 472.563 346.041 471.967 348.717C471.546 350.613 471.367 351.032 470.98 351.032C470.843 351.032 469.85 351.456 468.773 351.974C467.205 352.728 466.646 352.878 465.955 352.729C464.754 352.469 462.633 351.368 461.607 350.473C461.132 350.059 460.577 349.72 460.372 349.72C459.72 349.72 458.663 349.123 458.663 348.755C458.663 348.559 458.22 348.214 457.679 347.988C455.493 347.074 454.317 346.355 454.031 345.757C453.865 345.41 453.545 344.689 453.319 344.154C453.079 343.586 452.577 343.011 452.111 342.77C451.474 342.44 451.314 342.188 451.312 341.511C451.312 341.046 451.105 340.356 450.853 339.978C449.362 337.743 448.947 337.191 448.334 336.624C447.961 336.277 447.524 335.598 447.364 335.114C447.204 334.63 446.966 334.234 446.835 334.234C446.629 334.234 445.777 333.096 444.883 331.628C444.739 331.391 444.284 330.847 443.873 330.419C443.462 329.991 442.962 329.267 442.763 328.809C442.385 327.941 439.721 324.639 438.927 324.055C438.676 323.869 438.239 323.196 437.957 322.559C437.675 321.922 436.753 320.716 435.908 319.878C435.063 319.04 434.149 318.001 433.876 317.568C433.432 316.863 431.81 314.861 430.486 313.386C429.472 312.254 427.356 309.425 427.093 308.85C426.943 308.52 426.725 308.25 426.61 308.25C426.494 308.25 425.923 307.549 425.341 306.692C424.759 305.836 423.574 304.51 422.707 303.747C421.84 302.984 421.13 302.258 421.13 302.135C421.13 301.326 417.86 297.08 414.034 292.923C413.09 291.897 411.582 290.114 410.682 288.959C407.946 285.448 405.363 282.458 403.06 280.14C401.855 278.928 400.567 277.466 400.198 276.892C398.933 274.926 393.359 268.798 392.36 268.275C391.997 268.085 391.558 267.645 391.385 267.297C391.006 266.536 388.854 265.816 388.145 266.212C387.51 266.568 385.835 265.916 384.665 264.859C384.134 264.38 383.175 263.769 382.534 263.501C381.855 263.218 380.982 262.546 380.448 261.895C379.942 261.279 379.381 260.768 379.201 260.759C379.021 260.75 378.873 260.635 378.873 260.501C378.873 260.368 378.478 260.129 377.995 259.969C377.512 259.81 376.952 259.371 376.75 258.994C376.548 258.616 375.91 258.083 375.331 257.807C374.753 257.532 373.807 257.056 373.23 256.75C372.635 256.434 371.498 256.142 370.605 256.075C369.739 256.01 368.864 255.823 368.662 255.66C368.228 255.31 339.118 255.234 333.002 255.566C330.526 255.701 329.084 255.678 328.747 255.497C328.389 255.305 327.903 255.315 327.112 255.531C325.964 255.843 324.707 255.9 322.238 255.75C321.445 255.702 320.726 255.793 320.556 255.963C320.373 256.146 319.821 256.2 319.12 256.104L317.981 255.948L317.981 256.88C317.981 257.393 317.857 257.854 317.706 257.904C317.277 258.047 317.523 260.815 318.019 261.436C318.164 261.617 318.154 261.978 317.992 262.355C317.623 263.213 317.212 272.56 317.517 273.166C318.084 274.293 318.112 282.778 317.555 284.653C317.22 285.781 317.204 286.37 317.458 288.322C317.624 289.6 317.683 290.771 317.589 290.923C317.495 291.076 317.366 293.826 317.301 297.035C317.237 300.244 317.059 303.182 316.906 303.563C316.71 304.053 316.711 304.554 316.909 305.269C317.249 306.494 317.285 311.808 316.961 312.87C316.123 315.61 315.692 330.89 316.392 333.013C316.632 333.739 316.606 334.401 316.262 336.246C316.024 337.521 315.722 339.267 315.59 340.125C315.257 342.287 315.407 357.377 315.765 357.759C315.918 357.922 316.021 358.72 315.993 359.531C315.965 360.381 316.056 361.006 316.209 361.006C316.523 361.006 316.227 364.132 315.873 364.559C315.548 364.951 315.36 372.53 315.656 373.31C315.791 373.665 315.885 374.497 315.865 375.158C315.845 375.819 315.816 376.792 315.801 377.319C315.779 378.079 315.977 378.503 316.756 379.365C317.577 380.273 317.728 380.619 317.678 381.469C317.645 382.028 317.751 382.645 317.914 382.841C318.519 383.57 319.118 385.854 319.087 387.316C319.062 388.525 319.15 388.873 319.533 389.078C319.796 389.219 320.086 389.259 320.177 389.168C320.268 389.077 320.343 389.258 320.343 389.571C320.343 389.884 320.237 390.14 320.108 390.14C319.978 390.14 319.787 391.111 319.682 392.297C319.528 394.031 319.37 394.586 318.877 395.119C317.517 396.59 317.253 397.003 317.373 397.465C317.458 397.788 317.241 398.131 316.715 398.505C316.284 398.812 315.829 399.064 315.705 399.064C315.581 399.064 315.068 399.284 314.565 399.554C312.796 400.501 308.456 401.039 306.834 400.512C306.252 400.323 305 400.112 304.052 400.044C302.596 399.939 302.123 399.771 300.999 398.964C300.268 398.439 299.522 397.653 299.342 397.219C299.163 396.785 298.555 396.065 297.991 395.619C297.428 395.172 296.787 394.46 296.568 394.034C295.96 392.859 294.351 391.355 293.177 390.866C291.939 390.349 284.208 388.445 281.76 388.054C280.822 387.904 279.168 387.78 278.086 387.778C277.003 387.776 275.408 387.638 274.542 387.472C273.676 387.305 271.786 387.145 270.343 387.114C266.757 387.039 251.894 386.26 250.92 386.096C250.03 385.946 231.568 385.678 214.81 385.572C208.663 385.533 203.521 385.432 203.382 385.346C203.243 385.26 201.864 385.345 200.316 385.534C198.434 385.765 196.873 385.806 195.602 385.659C192.735 385.326 189.608 385.377 185.879 385.816C183.707 386.072 180.589 386.193 177.072 386.16C174.077 386.131 171.515 386.177 171.379 386.261C171.242 386.345 169.299 386.487 167.062 386.575C164.824 386.664 162.614 386.806 162.15 386.891C161.224 387.06 158.138 389.829 158.138 390.49C158.138 390.701 157.725 391.236 157.219 391.679C156.714 392.123 156.301 392.646 156.301 392.842C156.301 393.038 155.991 393.484 155.612 393.834C154.417 394.939 152.889 397.179 152.889 397.826C152.889 398.169 152.18 399.464 151.314 400.706C150.448 401.947 149.739 403.086 149.739 403.236C149.739 403.387 149.402 403.759 148.989 404.064C147.952 404.831 146.508 406.781 145.555 408.703C145.114 409.591 144.638 410.389 144.498 410.476C144.357 410.563 144.005 411.131 143.715 411.739C143.425 412.346 142.775 413.375 142.271 414.024C140.495 416.314 138.37 419.419 137.772 420.598C137.191 421.743 135.183 424.155 133.193 426.098C132.315 426.955 130.288 429.856 129.525 431.347C129.164 432.052 126.469 435.257 125.331 436.334C124.214 437.391 122.717 439.39 122.307 440.373C122.098 440.873 121.7 441.354 121.424 441.442C121.148 441.53 119.581 443.044 117.942 444.808C116.304 446.571 114.785 448.123 114.569 448.256C114.187 448.491 113.326 449.363 111.924 450.932C111.552 451.348 110.967 452.161 110.624 452.738C109.931 453.907 108.228 455.948 105.61 458.75C104.653 459.774 103.605 461.144 103.282 461.793C102.959 462.443 101.912 463.809 100.955 464.828C99.9974 465.848 98.6236 467.436 97.9018 468.357C97.18 469.278 95.923 470.747 95.1084 471.621C93.3478 473.511 90.9907 476.603 90.6716 477.443C90.4249 478.092 89.5742 478.592 87.928 479.057C84.4434 480.041 84.5196 480.004 84.4346 480.739C84.3161 481.765 83.1054 481.987 81.9842 481.189C81.0652 480.534 78.7067 480.202 77.9575 480.621C77.6521 480.792 77.16 480.754 76.4337 480.504C75.3914 480.145 74.1486 480.223 74.1486 480.649C74.1486 480.764 73.5101 481.534 72.7297 482.359C71.4557 483.706 71.1753 483.876 69.9821 484.017C69.0459 484.128 68.4762 484.062 68.0544 483.795C67.7251 483.587 66.9014 483.209 66.224 482.956C65.2427 482.59 64.939 482.326 64.7297 481.659C64.1879 479.933 64.3682 478.466 65.2646 477.309C65.5313 476.965 65.7496 476.354 65.7496 475.951C65.7496 475.549 66.0449 474.869 66.4058 474.44C66.7667 474.011 67.0619 473.549 67.0619 473.413C67.0619 473.277 67.4162 472.85 67.8493 472.465C68.3259 472.04 68.6367 471.505 68.6367 471.109C68.6367 470.749 68.7526 470.455 68.8942 470.455C69.0358 470.455 69.2279 470.13 69.321 469.733C69.4142 469.336 69.8299 468.448 70.2447 467.761C70.6595 467.073 70.9989 466.402 70.9989 466.27C70.9989 466.139 71.2953 465.798 71.6576 465.513C72.0199 465.228 72.4909 464.5 72.7043 463.895C72.9177 463.29 73.389 462.443 73.7516 462.012C74.1143 461.581 74.411 461.066 74.411 460.868C74.411 460.669 74.5985 460.402 74.8276 460.274C75.0568 460.146 75.5217 459.358 75.8608 458.524C76.1998 457.69 76.721 456.748 77.0189 456.431C77.334 456.095 77.5606 455.501 77.5606 455.011C77.5606 454.548 78.0921 453.046 78.7417 451.674C79.3913 450.303 79.9228 449.08 79.9228 448.957C79.9228 448.835 80.0924 448.593 80.2996 448.421C80.5069 448.249 80.7548 447.733 80.8505 447.274C80.9462 446.815 81.3189 445.908 81.6786 445.258C82.0383 444.608 82.6857 443.191 83.1172 442.108C83.5487 441.026 84.2964 439.543 84.7788 438.814C85.2611 438.085 85.8286 437.081 86.0399 436.583C86.858 434.656 87.5916 432.623 87.9248 431.359C88.116 430.635 88.7728 429.125 89.3844 428.004C91.3589 424.386 93.0335 421.027 93.338 420.073C93.5014 419.561 93.8464 418.729 94.1047 418.224C95.0653 416.345 96.1958 413.69 96.1958 413.314C96.1958 413.099 96.3587 412.611 96.5578 412.227C97.7956 409.845 98.8227 407.527 98.8217 407.118C98.821 406.856 99.0435 406.088 99.3161 405.412C99.5887 404.735 100.203 402.942 100.68 401.426C101.158 399.91 101.88 397.961 102.284 397.095C103.064 395.426 103.235 393.978 102.692 393.643C100.812 392.481 87.8611 392.872 79.1196 394.354C78.317 394.49 76.4197 394.602 74.9035 394.602C73.3872 394.602 70.7959 394.789 69.145 395.017C67.494 395.245 64.4897 395.471 62.4688 395.519C60.4478 395.566 58.221 395.737 57.5204 395.898C56.5477 396.122 56.0343 396.114 55.3485 395.866C54.6217 395.603 54.2891 395.609 53.604 395.895C53.1384 396.089 52.0463 396.28 51.1771 396.318C49.6471 396.387 47.0435 397.057 46.4115 397.545C46.2178 397.695 45.8237 397.64 45.3569 397.399C44.6057 397.01 43.1774 397.089 43.1774 397.52C43.1774 397.647 42.3012 397.751 41.2304 397.751C39.0943 397.751 38.453 397.901 38.453 398.397C38.453 398.627 37.6865 398.767 35.8865 398.866C32.9673 399.027 31.1295 399.482 30.6297 400.168C30.4382 400.431 29.9553 400.639 29.5361 400.639C29.1232 400.639 28.7436 400.764 28.6925 400.917C28.6363 401.086 27.6686 401.198 26.2428 401.201C24.4455 401.205 23.7738 401.307 23.4133 401.631C22.9758 402.025 22.8586 402.014 21.8386 401.487C21.2324 401.173 19.8542 400.611 18.7759 400.238C15.9938 399.274 14.3343 398.394 13.1249 397.241C12.5475 396.691 11.7212 396.077 11.2887 395.877C10.2664 395.405 9.53895 393.933 9.91767 393.101C10.1099 392.68 10.1005 392.205 9.88587 391.488C9.42483 389.949 9.50173 389.528 10.5105 388.061C11.0214 387.318 11.3687 386.596 11.2824 386.457C11.1961 386.317 11.2483 386.203 11.3984 386.203C11.5486 386.203 11.7473 385.901 11.84 385.531C11.9418 385.126 12.1443 384.911 12.3507 384.99C12.5389 385.063 12.8003 384.981 12.9316 384.809C13.3044 384.321 13.0134 376.898 12.595 376.221C12.5318 376.119 12.4723 372.683 12.4627 368.586C12.4467 361.72 12.3584 360.557 11.6776 358.25C11.5498 357.817 11.374 356.518 11.2869 355.363C11.1998 354.208 11.0147 352.222 10.8755 350.949C10.7363 349.676 10.6853 348.533 10.7622 348.409C10.9108 348.168 10.6114 346.752 9.81001 343.903C9.53943 342.941 9.37947 341.994 9.4546 341.798C9.5297 341.603 9.34097 340.5 9.03511 339.348C8.09789 335.817 8.04944 335.34 8.0096 329.247C7.9884 325.999 7.98629 323.165 8.00459 322.948C8.02329 322.732 7.90062 321.314 7.73207 319.799C7.55855 318.238 7.50478 316.189 7.60805 315.074C7.96336 311.239 7.99299 310.689 8.12837 305.407C8.20357 302.471 8.33089 299.963 8.41127 299.833C8.70497 299.358 8.53001 294.41 8.14278 292.24C7.92387 291.013 7.7446 288.753 7.7444 287.219C7.74412 285.026 7.65753 284.358 7.33925 284.094C7.05839 283.861 7.01822 283.674 7.20803 283.484C7.80771 282.885 7.32191 280.116 6.26003 278.081C6.06754 277.712 5.90929 277.137 5.9084 276.802C5.90751 276.468 5.76224 275.937 5.58553 275.621C5.40882 275.306 5.25516 274.516 5.2441 273.867C5.233 273.217 5.1253 271.891 5.00466 270.919C4.83836 269.579 4.869 269.05 5.13143 268.734C5.64092 268.12 6.69161 265.431 6.69301 264.737C6.69368 264.407 6.87597 263.86 7.09816 263.521C7.32034 263.181 7.48913 262.507 7.47322 262.021C7.45733 261.535 7.54333 260.547 7.66445 259.825C7.80084 259.012 7.76925 257.664 7.5815 256.282C7.38107 254.806 7.35983 253.562 7.51864 252.607C7.65074 251.813 7.69478 249.628 7.61654 247.751C7.53824 245.875 7.41828 241.196 7.34994 237.355C7.25044 231.763 7.30108 230.114 7.6036 229.087C7.9178 228.02 7.96823 225.195 7.90322 212.318C7.83222 198.265 7.78227 196.723 7.36251 195.652C7.10811 195.002 6.85565 193.965 6.80148 193.346C6.68708 192.04 6.2956 191.19 5.8085 191.19C5.44753 191.19 4.29428 190.002 2.74771 188.038C1.19575 186.067 0.941509 185.524 0.634059 183.529C0.47134 182.474 0.237029 181.419 0.113369 181.185C-0.0102912 180.951 -0.0369343 180.685 0.0542257 180.594L0.0548361 180.593ZM24.8114 219.011C24.9592 219.516 25.127 222.35 25.1843 225.309C25.2416 228.268 25.4033 232.107 25.5437 233.839C25.9384 238.707 25.9242 252.599 25.5241 253.082C25.0036 253.709 25.1899 263.852 25.7537 265.581C25.9919 266.312 26.2771 267.028 26.3875 267.172C26.4978 267.317 26.7391 267.966 26.9236 268.616C27.1081 269.266 27.3861 269.963 27.5413 270.166C27.6997 270.373 27.8549 272.04 27.8953 273.971C28.037 280.752 28.1229 282.675 28.333 283.772C28.4803 284.542 28.4478 285.005 28.2278 285.27C28.001 285.543 27.9348 286.744 27.9976 289.442C28.0771 292.855 28.0369 293.285 27.5925 293.777C27.1844 294.229 27.129 294.563 27.2725 295.708C27.9633 301.226 27.9296 303.507 27.1428 304.468C26.8788 304.791 27.3116 313.596 27.664 315.073C27.7846 315.578 27.9049 319.062 27.9315 322.815C27.9581 326.569 28.1218 330.939 28.2953 332.527C28.4688 334.115 28.5779 336.819 28.5377 338.535C28.4921 340.48 28.6159 342.533 28.8658 343.982C29.0865 345.26 29.267 347.341 29.267 348.605C29.267 349.869 29.3979 351.316 29.5579 351.82C29.934 353.005 30.0476 354.603 30.1549 360.217C30.2184 363.54 30.37 365.282 30.7031 366.516C31.5203 369.545 31.5907 370.274 31.3497 373.209C31.2194 374.797 31.1109 377.49 31.1085 379.194L31.1045 382.291L32.0841 382.7C32.6228 382.925 34.7192 383.287 36.7428 383.503C41.2062 383.981 53.2434 384.055 55.9077 383.621C56.9182 383.457 60.6772 383.263 64.261 383.19C67.8448 383.117 70.8835 382.992 71.0136 382.912C71.2678 382.755 82.2553 382.41 84.6478 382.484C88.4494 382.601 90.0354 382.573 93.3908 382.331C96.579 382.1 97.1945 381.977 98.5011 381.309C99.4417 380.828 100.278 380.144 100.782 379.445C101.312 378.709 101.732 378.375 102.042 378.443C102.365 378.513 102.615 378.289 102.858 377.714C103.298 376.67 105.448 374.758 106.615 374.373C107.227 374.171 107.732 374.163 108.26 374.347C109.368 374.734 110.053 374.487 109.912 373.751C109.836 373.353 109.949 373.094 110.25 372.979C110.814 372.762 112.469 373.054 112.469 373.37C112.469 373.498 112.595 373.603 112.749 373.603C112.903 373.603 113.897 374.004 114.958 374.494C116.462 375.189 116.907 375.522 116.975 376.004C117.043 376.481 117.265 376.651 117.957 376.753C118.665 376.856 118.957 377.089 119.361 377.87C119.655 378.438 120.111 378.901 120.436 378.963C121.62 379.19 124.708 379.648 125.459 379.708C125.989 379.75 126.275 379.931 126.338 380.264C126.416 380.677 126.303 380.738 125.632 380.639C125.029 380.551 124.88 380.606 125.024 380.864C125.214 381.204 127.561 382.789 127.874 382.789C127.963 382.789 128.432 383.091 128.916 383.46C129.624 384 129.764 384.255 129.633 384.774C129.532 385.177 129.639 385.674 129.92 386.102C130.231 386.576 130.315 387.037 130.194 387.609C130.099 388.062 129.958 388.931 129.881 389.54C129.748 390.589 129.661 390.685 128.257 391.338C125.805 392.477 123.95 393.083 122.778 393.128C122.168 393.151 121.525 393.314 121.348 393.491C121.171 393.668 120.698 393.813 120.297 393.813C119.403 393.813 117.187 395.858 116.6 397.225C116.383 397.73 115.955 398.703 115.649 399.387C115.344 400.072 115.094 400.715 115.094 400.817C115.094 400.919 114.791 401.319 114.42 401.706C113.746 402.409 113.619 402.896 112.99 407.172C112.854 408.096 112.578 409.04 112.377 409.272C111.983 409.725 110.816 412.711 111.033 412.711C111.206 412.711 109.882 414.782 109.246 415.507C108.973 415.818 108.64 416.561 108.506 417.159C108.291 418.115 107.56 419.164 106.135 420.558C105.397 421.28 104.598 422.787 104.589 423.472C104.584 423.833 104.289 424.659 103.932 425.309C103.576 425.959 103.097 426.903 102.869 427.409C102.641 427.914 102.006 429.213 101.459 430.296C100.912 431.378 100.317 432.737 100.136 433.314C99.9545 433.892 99.5859 434.606 99.3167 434.903C99.0474 435.199 98.5167 436.439 98.1373 437.659C97.758 438.878 97.1627 440.256 96.8146 440.721C96.4664 441.186 95.2646 443.43 94.1438 445.708C93.023 447.986 91.9165 450.145 91.6848 450.506C91.4531 450.867 90.9998 451.958 90.6774 452.93C90.3551 453.902 89.9296 454.832 89.7318 454.996C89.5341 455.16 89.3722 455.436 89.3722 455.609C89.3722 455.782 88.9589 456.406 88.4536 456.996C87.4158 458.209 87.1948 459.105 88.046 458.65C89.2894 457.984 93.8402 453.742 95.409 451.785C95.9142 451.155 97.1745 449.812 98.2097 448.801C99.2448 447.79 100.566 446.326 101.147 445.547C101.727 444.769 102.582 443.947 103.048 443.722C103.513 443.496 104.081 442.983 104.31 442.58C104.539 442.177 104.852 441.847 105.006 441.846C105.159 441.845 105.667 441.335 106.133 440.713C106.599 440.091 107.323 439.38 107.741 439.133C108.159 438.885 109.069 438.007 109.763 437.18C110.986 435.724 112.144 434.448 114.533 431.928C115.163 431.264 115.985 430.241 116.36 429.655C116.735 429.069 117.721 427.881 118.549 427.015C119.378 426.149 120.903 424.318 121.937 422.947C122.971 421.575 124.25 420.082 124.779 419.629C125.308 419.176 126.063 418.167 126.458 417.387C126.864 416.584 127.51 415.771 127.946 415.513C128.37 415.263 128.967 414.707 129.273 414.278C129.578 413.849 129.984 413.498 130.176 413.498C130.552 413.498 130.842 412.938 130.842 412.211C130.842 411.961 131.131 411.504 131.484 411.197C131.845 410.884 132.204 410.203 132.306 409.641C132.533 408.383 132.813 407.832 133.833 406.637C134.281 406.112 135.333 404.849 136.17 403.83C137.006 402.811 137.911 401.907 138.18 401.822C138.892 401.596 140.649 399.12 141.07 397.75C141.269 397.1 141.646 396.327 141.908 396.031C142.169 395.736 142.455 395.13 142.544 394.685C142.711 393.853 142.949 393.572 145.081 391.694C146.134 390.767 146.328 390.449 146.332 389.646C146.337 388.519 146.545 388.133 147.221 388.003C148.314 387.794 147.831 387.099 145.871 386.063C143.965 385.056 143.496 384.695 142.148 383.197C141.217 382.161 139.787 379.819 139.937 379.575C140.009 379.459 139.871 378.852 139.632 378.226C139.393 377.6 139.237 376.688 139.285 376.199C139.359 375.449 139.295 375.322 138.879 375.394C138.458 375.466 138.413 375.37 138.573 374.738C138.677 374.33 138.781 373.617 138.805 373.153C138.828 372.689 139.063 372.057 139.327 371.748C139.591 371.44 139.855 370.935 139.914 370.627C140.05 369.921 141.026 369.154 141.8 369.147C142.214 369.143 142.391 368.984 142.391 368.616C142.391 368.266 142.566 368.091 142.916 368.091C143.297 368.091 143.441 367.916 143.441 367.45C143.441 367.098 143.554 366.74 143.692 366.654C144.135 366.38 147.451 365.925 149.238 365.892C150.745 365.864 151.107 365.957 152.059 366.618C152.66 367.034 153.152 367.588 153.152 367.849C153.152 368.516 153.698 368.776 154.06 368.281C154.427 367.779 155.107 368.107 155.147 368.805C155.162 369.062 155.191 369.519 155.213 369.821C155.263 370.532 156.404 371.092 156.883 370.64C157.068 370.465 157.663 370.117 158.204 369.867C158.937 369.528 159.188 369.253 159.188 368.79C159.188 368.043 160.287 366.782 160.948 366.77C161.207 366.765 161.649 366.589 161.929 366.377C162.244 366.139 162.997 365.998 163.898 366.009C165.944 366.033 167.656 367.018 168.672 368.753C170.088 371.171 170.082 371.148 169.541 372.154C168.76 373.603 169.013 373.684 174.601 373.769C192.76 374.044 198.239 374.178 200.79 374.409C202.377 374.553 209.464 374.719 216.538 374.778C232.899 374.914 249.262 375.337 256.826 375.82C260.074 376.027 265.507 376.327 268.9 376.488C275.067 376.78 277.067 376.949 283.467 377.717C285.343 377.942 287.623 378.165 288.533 378.211C289.443 378.258 290.565 378.418 291.027 378.568C291.488 378.717 292.991 378.878 294.365 378.925C295.74 378.972 297.017 379.105 297.204 379.22C297.67 379.508 298.559 378.653 298.559 377.915C298.559 377.588 298.417 377.274 298.243 377.216C298.03 377.145 298.171 376.695 298.674 375.836C299.396 374.605 299.421 374.441 299.422 370.999C299.422 369.039 299.296 367.125 299.141 366.747C298.926 366.222 298.955 365.785 299.26 364.909C299.481 364.277 299.691 362.784 299.727 361.59C299.763 360.397 299.87 359.344 299.963 359.25C300.231 358.982 300.162 357.641 299.871 357.461C299.48 357.22 299.554 356.127 299.985 355.769C300.604 355.256 300.706 354.188 300.823 347.003C301.083 330.934 301.462 322.252 302.014 319.721C302.275 318.525 302.278 318.092 302.027 317.69C301.631 317.055 301.588 310.538 301.976 309.814C302.125 309.535 302.231 307.664 302.217 305.566C302.202 303.505 302.202 300.342 302.216 298.537C302.23 296.733 302.232 295.138 302.221 294.994C301.866 290.345 302.336 278.688 303.317 267.829C303.877 261.634 304.053 241.998 303.561 240.703C303.399 240.277 303.403 239.733 303.572 239.172C303.833 238.307 304.154 232.798 304.104 230.033C304.09 229.239 304.194 227.113 304.335 225.309C304.477 223.504 304.661 218.548 304.744 214.295C304.828 210.042 304.951 206.472 305.019 206.362C305.087 206.252 305.198 201.405 305.264 195.591C305.351 188.006 305.476 184.846 305.705 184.403C305.98 183.873 305.952 183.732 305.507 183.403C305.002 183.029 305.002 183.01 305.481 182.654C305.972 182.291 305.915 181.477 305.399 181.477C305.147 181.477 304.532 180.301 303.234 177.333C302.78 176.294 302.462 175.912 301.971 175.815C301.61 175.743 300.901 175.552 300.396 175.39C299.889 175.227 297.36 175.07 294.753 175.039C289.988 174.983 288.386 175.212 287.273 176.109C287.056 176.283 286.347 176.672 285.698 176.974C285.048 177.276 284.221 177.764 283.86 178.059C282.543 179.135 279.702 179.978 277.301 180.007L275.072 180.033L274.121 179.054C273.566 178.482 273.031 177.578 272.836 176.882C272.653 176.226 272.373 175.609 272.215 175.512C271.43 175.027 259.488 175.09 256.33 175.596C254.974 175.814 252.877 175.974 251.671 175.952C249.216 175.908 249.371 175.905 244.49 176.066C242.542 176.13 240.297 176.255 239.504 176.342C237.533 176.559 232.01 176.698 218.375 176.872C212.023 176.953 206.059 177.133 205.12 177.273C204.182 177.412 201.052 177.71 198.165 177.934C195.278 178.159 192.412 178.457 191.796 178.597C191.181 178.738 190.214 178.852 189.648 178.852C189.082 178.852 188.293 178.976 187.895 179.128C186.566 179.633 183.249 179.922 178.742 179.925C175.211 179.928 173.828 180.037 172.114 180.448C170.922 180.733 168.973 181.086 167.783 181.232C166.593 181.378 165.383 181.57 165.094 181.659C164.412 181.87 160.23 182.049 155.842 182.056C153.929 182.059 152.364 182.152 152.364 182.263C152.364 182.375 152.83 182.886 153.398 183.4C154.276 184.193 154.554 184.727 155.236 186.937C155.677 188.369 156.039 189.972 156.039 190.499C156.039 191.026 156.185 191.692 156.364 191.979C156.646 192.43 156.593 192.59 155.971 193.167C155.575 193.534 155.252 194.059 155.252 194.335C155.252 194.61 154.956 195.154 154.595 195.544C154.223 195.946 153.922 196.604 153.9 197.066C153.879 197.514 153.849 198.082 153.835 198.328C153.82 198.573 153.587 198.936 153.317 199.135C152.601 199.66 152.511 204.545 153.193 205.863C153.447 206.355 153.595 206.857 153.52 206.978C153.388 207.191 153.4 213.726 153.539 217.697C153.577 218.78 153.787 220.965 154.006 222.553C154.224 224.141 154.485 226.798 154.586 228.458C154.686 230.119 154.926 232.067 155.119 232.789C155.489 234.177 156.537 238.813 157.225 242.107C157.451 243.189 157.756 244.43 157.904 244.863C158.052 245.296 158.232 246.116 158.304 246.685C158.377 247.254 158.537 247.906 158.659 248.135C158.782 248.364 159.076 249.729 159.314 251.169C159.741 253.756 160.516 256.48 161.706 259.581C162.043 260.458 162.385 261.91 162.466 262.808C162.706 265.451 164.365 269.428 165.787 270.767C167.276 272.17 167.85 273.176 167.85 274.382C167.85 274.983 167.723 275.711 167.568 276.001C167.168 276.75 167.783 280.973 168.553 282.756C168.888 283.532 169.162 284.451 169.162 284.798C169.162 285.145 169.527 286.151 169.973 287.035C170.506 288.091 170.738 288.874 170.65 289.324C170.533 289.921 171.787 294.435 172.626 296.437C172.777 296.798 173.05 297.684 173.231 298.406C173.413 299.128 173.772 300.309 174.029 301.031C175.225 304.39 175.58 305.355 176.249 307.067C176.644 308.078 177.236 309.613 177.566 310.479C178.621 313.257 181.709 317.141 187.164 322.553C189.929 325.296 192.366 327.894 192.581 328.327C193.246 329.669 192.054 332.225 190.616 332.541C190.218 332.629 189.521 332.886 189.068 333.112C188.427 333.432 188.137 333.456 187.762 333.222C187.497 333.056 186.988 332.92 186.632 332.92C186.276 332.92 185.714 332.814 185.382 332.684C185.05 332.555 184.029 332.237 183.111 331.978C182.194 331.72 181.382 331.347 181.306 331.15C181.231 330.953 180.091 330.252 178.774 329.592C175.712 328.058 174.815 327.372 171.86 324.31C170.299 322.692 169.112 321.179 168.518 320.048C168.011 319.083 167.424 318.151 167.213 317.976C166.502 317.385 165.223 315.159 164.825 313.819C164.608 313.088 163.895 311.778 163.241 310.908C162.329 309.695 161.996 308.979 161.809 307.829C161.675 307.004 160.971 304.582 160.246 302.445C159.52 300.308 158.926 298.276 158.926 297.929C158.926 297.583 158.438 295.954 157.841 294.309C157.244 292.665 156.732 291.009 156.703 290.63C156.631 289.691 155.509 286.208 155.044 285.479C154.548 284.703 153.645 284.728 152.675 285.545C152.14 285.995 151.579 286.201 150.888 286.201C149.881 286.201 147.842 286.878 146.011 287.821C145.475 288.097 143.216 288.656 140.989 289.064C138.763 289.473 136.804 289.891 136.636 289.995C136.469 290.098 135.362 290.216 134.178 290.256C132.993 290.296 131.315 290.525 130.448 290.765C129.582 291.006 128.009 291.214 126.952 291.228C125.249 291.252 125.004 291.319 124.81 291.812C124.689 292.118 124.182 292.796 123.683 293.317C123.021 294.008 122.578 294.897 122.045 296.598C121.643 297.881 121.166 299.108 120.985 299.325C120.803 299.541 120.52 300.225 120.355 300.844C120.19 301.463 119.766 302.515 119.412 303.18C119.058 303.845 118.769 304.661 118.769 304.993C118.769 305.325 118.057 307.004 117.187 308.723C115.911 311.246 115.535 312.288 115.238 314.121C115.036 315.37 114.641 316.774 114.361 317.241C113.112 319.325 112.153 321.288 111.656 322.779C111.36 323.665 110.907 324.753 110.649 325.197C110.39 325.641 110.095 326.675 109.993 327.495C109.862 328.544 109.664 329.062 109.323 329.244C109.025 329.404 108.726 330.031 108.544 330.88C108.381 331.642 107.97 332.553 107.626 332.917C107.284 333.28 106.902 334.108 106.777 334.758C106.578 335.793 106.459 335.949 105.808 336.024C105.126 336.103 105.08 336.177 105.232 336.943C105.424 337.914 105.42 339.471 105.225 339.788C105.15 339.908 104.847 340.007 104.552 340.007C104.161 340.007 104.059 340.125 104.179 340.438C104.458 341.165 104.084 341.799 103.271 341.978C102.507 342.146 102.244 342.504 102.758 342.675C102.902 342.724 102.282 342.978 101.38 343.242C100.478 343.505 99.1471 344.007 98.423 344.357C96.7988 345.143 96.4648 345.158 96.6529 344.439C96.7795 343.955 96.7177 343.909 96.169 344.077C95.8231 344.184 95.374 344.404 95.171 344.567C94.9466 344.747 94.0207 344.83 92.8088 344.778C90.5425 344.683 88.9055 344.061 86.9118 342.539C86.2218 342.013 85.5457 341.582 85.4093 341.582C84.8773 341.582 83.0189 340.139 82.662 339.449C82.4549 339.048 82.2855 338.3 82.2855 337.786C82.2855 337.271 82.1425 336.621 81.9678 336.342C81.5307 335.642 81.9778 334.456 82.8328 334.046C83.6946 333.633 84.3688 332.447 83.9049 332.161C83.4131 331.857 83.8232 331.115 84.7451 330.642C85.1968 330.409 86.451 329.351 87.5322 328.289C88.6135 327.227 89.6347 326.359 89.8016 326.359C90.0566 326.359 90.815 325.572 91.993 324.087C92.1253 323.92 92.6038 323.182 93.0563 322.447C93.5088 321.711 93.9834 321.109 94.1109 321.109C94.2385 321.109 94.7723 320.43 95.2971 319.6C95.8219 318.77 96.5825 317.737 96.9874 317.304C97.3924 316.871 97.8705 316.016 98.0499 315.406C98.2422 314.751 98.5751 314.232 98.861 314.141C99.1277 314.057 99.3458 313.87 99.3458 313.726C99.3458 313.582 99.9459 312.379 100.679 311.053C102.576 307.624 102.652 307.473 103.225 306.018C103.508 305.296 104.005 304.056 104.329 303.262C104.653 302.468 105.087 301.357 105.294 300.794C105.501 300.23 105.901 299.476 106.183 299.118C106.486 298.732 106.695 298.061 106.695 297.473C106.695 296.225 106.911 295.65 107.379 295.65C107.58 295.65 107.745 295.414 107.745 295.125C107.745 294.582 107.112 294.401 106.826 294.863C106.737 295.007 106.051 295.13 105.301 295.136C104.471 295.142 103.379 295.388 102.505 295.765C101.308 296.281 101.025 296.324 100.799 296.021C100.477 295.592 99.3458 295.811 99.3458 296.303C99.3458 296.826 97.5726 296.984 96.4987 296.555C95.9715 296.345 94.9495 296.12 94.2277 296.057C92.3553 295.892 90.7681 295.516 90.2299 295.11C89.1331 294.283 87.7973 292.892 87.7973 292.578C87.7973 292.391 87.6841 292.238 87.5459 292.238C87.2449 292.238 85.96 290.109 85.96 289.611C85.96 289.418 86.1358 289.067 86.3506 288.829C86.5654 288.592 86.8164 288.022 86.9083 287.562C87.0455 286.876 86.9926 286.726 86.6146 286.726C85.7558 286.726 86.3107 284.969 87.5231 283.85C88.107 283.311 88.5847 282.694 88.5847 282.48C88.5847 282.053 89.9807 280.866 91.5524 279.956C92.1892 279.587 92.9986 279.375 93.7834 279.372C94.4609 279.369 95.8419 279.238 96.8524 279.081C99.723 278.635 107.14 278.739 107.899 279.237C108.458 279.603 108.639 279.594 109.901 279.136C110.664 278.859 111.656 278.558 112.105 278.467C112.933 278.299 113.252 277.869 113.946 275.982C114.129 275.487 114.227 274.999 114.164 274.898C114.102 274.797 114.286 274.416 114.573 274.052C114.859 273.687 115.094 273.044 115.094 272.622C115.094 272.201 115.38 271.151 115.73 270.29C116.366 268.726 116.783 267.053 117.59 262.842C117.825 261.615 118.424 259.311 118.921 257.724C119.418 256.136 119.824 254.479 119.822 254.042C119.82 253.605 119.996 252.994 120.212 252.684C120.794 251.855 122.031 245.553 121.777 244.717C121.708 244.492 122.014 243.606 122.457 242.748C122.899 241.89 123.312 240.806 123.375 240.338C123.513 239.311 123.78 238.255 124.691 235.151C125.666 231.827 126.351 228.754 126.367 227.638C126.374 227.114 126.557 226.538 126.774 226.359C126.99 226.179 127.167 225.825 127.167 225.571C127.167 225.318 127.345 224.964 127.561 224.784C127.994 224.424 128.117 223.078 127.692 223.34C127.548 223.43 127.43 223.318 127.43 223.093C127.43 222.868 127.526 222.684 127.643 222.684C128.011 222.684 127.86 218.347 127.476 217.885C126.918 217.211 127.19 216.042 127.955 215.831C128.316 215.731 128.463 215.638 128.283 215.624C128.102 215.609 127.953 215.391 127.952 215.138C127.95 214.886 127.655 214.165 127.295 213.537C126.936 212.908 126.642 212.238 126.642 212.046C126.642 211.855 126.495 211.539 126.314 211.344C125.725 210.708 124.805 209.325 124.805 209.075C124.805 208.94 124.995 208.757 125.228 208.668C125.556 208.541 125.611 208.298 125.474 207.57C125.378 207.055 125.409 206.495 125.543 206.326C125.677 206.156 125.932 205.397 126.109 204.64C126.324 203.725 126.566 203.262 126.83 203.262C127.106 203.262 127.184 203.091 127.084 202.708C126.986 202.335 127.148 201.944 127.578 201.515C127.93 201.163 128.218 200.792 128.219 200.691C128.22 200.589 128.405 200.152 128.63 199.721C128.888 199.226 128.981 198.625 128.882 198.098C128.739 197.333 128.788 197.254 129.456 197.178C130.003 197.115 130.186 196.952 130.186 196.527C130.186 196.215 130.274 195.871 130.383 195.761C130.743 195.398 130.596 194.338 130.186 194.338C129.694 194.338 129.691 194.038 130.17 192.89C130.507 192.084 130.503 191.959 130.135 191.753C129.818 191.576 129.763 191.296 129.899 190.567C129.998 190.043 130.193 189.613 130.332 189.613C130.615 189.613 131.892 186.973 131.892 186.388C131.892 186.184 132.184 185.468 132.541 184.797C133.049 183.841 133.105 183.577 132.803 183.577C132.591 183.577 132.328 183.577 132.22 183.577C132.112 183.577 132.011 183.943 131.997 184.39C131.972 185.161 131.476 185.775 131.076 185.528C130.853 185.39 131.081 184.36 131.434 183.908C131.611 183.682 131.553 183.531 131.245 183.413C130.839 183.257 121.742 183.643 117.325 184.003C116.314 184.086 113.362 184.247 110.763 184.362C102.402 184.731 96.3896 185.146 93.8341 185.53C92.4627 185.736 89.8052 186.033 87.9286 186.19C86.0519 186.347 82.5315 186.65 80.1055 186.863C77.6795 187.077 74.8417 187.251 73.7994 187.251C71.6025 187.251 68.3036 187.62 65.4723 188.183C64.1431 188.447 61.7183 188.588 58.1232 188.61C55.1467 188.628 52.5289 188.759 52.2435 188.904C51.9606 189.048 50.8976 189.145 49.8813 189.118C48.865 189.092 47.0887 189.199 45.9338 189.356C44.779 189.513 42.4297 189.81 40.7132 190.017C38.2488 190.315 37.3411 190.541 36.3974 191.094C35.5874 191.569 34.8445 191.789 34.0918 191.778C33.2018 191.764 32.8338 191.911 32.2396 192.517C31.8318 192.933 31.099 193.352 30.6112 193.447C30.0612 193.555 29.6757 193.807 29.5963 194.111C29.437 194.72 28.0974 194.78 27.5211 194.204C26.9741 193.657 26.6424 193.946 26.6424 194.969C26.6424 195.498 26.4396 196.015 26.1175 196.306C25.5488 196.821 25.4267 197.741 25.8686 198.183C26.3024 198.617 26.2213 201.547 25.7558 202.257C25.4344 202.748 25.3526 203.73 25.3554 207.07C25.3584 210.873 24.9744 216.041 24.6654 216.35C24.4509 216.564 24.5329 218.062 24.8114 219.011ZM130.552 186.236C130.711 185.985 130.912 185.952 131.225 186.127C131.622 186.35 131.597 186.424 130.994 186.82C130.291 187.28 130.073 186.992 130.552 186.236ZM54.8381 177.796C55.004 177.63 54.7297 177.548 54.057 177.563C53.0324 177.585 53.0294 177.588 53.8014 177.818C54.2844 177.962 54.68 177.954 54.8381 177.796ZM126.117 207.855C126.262 207.944 126.38 207.781 126.38 207.492C126.38 207.203 126.262 206.894 126.117 206.805C125.973 206.716 125.855 206.879 125.855 207.168C125.855 207.456 125.973 207.766 126.117 207.855ZM128.411 202.687C128.981 202.578 129.196 201.687 128.652 201.687C128.291 201.687 128.026 202.029 127.975 202.559C127.964 202.678 128.16 202.736 128.411 202.687ZM133.034 278.46C134.745 278.386 136.238 278.267 136.352 278.197C136.466 278.126 137.901 277.89 139.541 277.672C141.18 277.454 143.27 277.04 144.185 276.752C145.1 276.463 146.097 276.228 146.399 276.228C146.702 276.228 147.429 276.004 148.016 275.731C148.603 275.457 149.406 275.16 149.8 275.071C150.231 274.973 150.678 274.597 150.92 274.128C151.281 273.43 151.282 273.152 150.925 271.442C150.706 270.393 150.527 269.258 150.527 268.92C150.527 268.582 150.294 268.009 150.009 267.647C149.724 267.284 149.418 266.557 149.33 266.03C149.241 265.504 148.894 264.305 148.558 263.367C148.223 262.428 147.874 261.188 147.784 260.611C147.694 260.033 147.389 258.852 147.106 257.986C146.823 257.12 146.406 255.734 146.18 254.907C145.953 254.08 145.658 253.334 145.523 253.251C145.388 253.168 145.277 252.346 145.277 251.424C145.277 250.503 145.159 249.676 145.015 249.587C144.871 249.498 144.753 248.907 144.753 248.275C144.753 247.642 144.634 247.052 144.49 246.963C144.346 246.873 144.228 246.409 144.228 245.93C144.228 245.452 144.05 244.558 143.834 243.944C143.617 243.33 143.44 242.327 143.44 241.714C143.44 241.102 143.206 239.869 142.921 238.975C142.635 238.081 142.324 236.559 142.229 235.594C142.135 234.629 141.955 233.709 141.83 233.55C141.705 233.391 141.527 232.534 141.434 231.647C141.342 230.759 141.178 230.033 141.07 230.033C140.962 230.033 140.582 231.185 140.225 232.592C139.868 234 139.19 236.037 138.719 237.12C138.248 238.203 137.625 239.641 137.335 240.315C137.045 240.99 136.873 241.715 136.954 241.926C137.035 242.137 136.938 242.542 136.739 242.826C136.176 243.631 135.574 245.556 135.57 246.569C135.564 247.95 134.866 251.328 134.403 252.216C134.178 252.647 133.994 253.191 133.993 253.425C133.992 253.659 133.756 254.382 133.469 255.032C133.111 255.841 132.96 256.708 132.99 257.787C133.025 259.049 132.92 259.505 132.463 260.087C132.059 260.6 131.892 261.177 131.892 262.057C131.892 262.741 131.697 263.818 131.46 264.449C131.222 265.081 130.938 266.247 130.829 267.041C130.72 267.835 130.443 269.016 130.213 269.666C129.983 270.316 129.578 272.382 129.311 274.259L128.827 277.671L129.375 278.133C129.853 278.537 130.321 278.579 133.034 278.46ZM193.186 14.9121C193.551 14.6726 193.788 14.4147 193.713 14.3389C193.586 14.2127 192.522 15.0279 192.522 15.2508C192.522 15.3038 192.821 15.1518 193.186 14.9121ZM194.179 154.465C194.384 154.26 194.277 154.18 193.799 154.18C192.934 154.18 192.563 154.548 193.314 154.662C193.633 154.71 194.023 154.622 194.179 154.465ZM213.026 9.2985C213.526 9.2985 213.739 8.53861 213.256 8.47831C213.112 8.46031 212.846 8.4233 212.666 8.3953C212.1 8.3093 211.907 8.54297 212.226 8.92777C212.395 9.13147 212.755 9.2985 213.026 9.2985ZM253.414 13.7605C253.558 13.7605 253.676 13.6354 253.676 13.4825C253.676 13.3296 253.558 13.2775 253.414 13.3668C253.27 13.4558 253.151 13.5811 253.151 13.6447C253.151 13.7087 253.27 13.7605 253.414 13.7605ZM253.676 12.0544C253.821 12.1434 253.939 11.9664 253.939 11.6607C253.939 11.355 253.821 11.1778 253.676 11.267C253.532 11.356 253.414 11.5334 253.414 11.6607C253.414 11.788 253.532 11.9652 253.676 12.0544ZM273.967 170.191C274.475 170.191 275.36 169.478 275.134 169.251C274.886 169.003 273.624 169.565 273.624 169.923C273.624 170.07 273.778 170.191 273.967 170.191ZM290.437 11.9232C291.006 11.9232 291.472 11.8051 291.472 11.6607C291.472 11.5164 290.933 11.3983 290.275 11.3983C289.544 11.3983 289.142 11.5004 289.241 11.6607C289.33 11.8051 289.868 11.9232 290.437 11.9232ZM301.155 78.8523C301.432 78.8523 301.711 78.2017 301.7 77.5841C301.693 77.2064 301.638 77.2163 301.306 77.6561C300.876 78.2249 300.796 78.8523 301.155 78.8523ZM315.482 73.7617C316.161 73.3168 316.166 72.8156 315.49 72.8156C314.917 72.8156 314.228 73.6299 314.538 73.9401C314.718 74.1196 315.025 74.0616 315.482 73.7617ZM316.668 397.75C316.813 397.75 316.931 397.566 316.931 397.341C316.931 397.116 316.813 397.004 316.668 397.094C316.524 397.183 316.406 397.367 316.406 397.503C316.406 397.639 316.524 397.75 316.668 397.75ZM317.407 384.304C317.599 384.368 317.657 384.248 317.559 383.992C317.472 383.764 317.284 383.577 317.143 383.577C316.798 383.577 317.015 384.173 317.407 384.304ZM318.236 148.141C318.423 148.436 318.558 148.459 318.786 148.231C319.013 148.004 319.008 147.689 318.766 146.955C318.531 146.245 318.383 146.079 318.217 146.341C317.918 146.813 317.927 147.652 318.236 148.141ZM319.871 76.2801C320.044 76.1069 320.434 75.9652 320.737 75.9652C321.29 75.9652 321.918 75.5184 321.918 75.1253C321.918 74.8172 321.491 74.8673 320.466 75.2956C319.919 75.5243 319.556 75.8592 319.556 76.1355C319.556 76.493 319.626 76.5251 319.871 76.2801ZM320.868 148.669C321.012 148.669 321.13 148.544 321.13 148.391C321.13 148.238 321.012 148.186 320.868 148.275C320.724 148.364 320.606 148.489 320.606 148.553C320.606 148.617 320.724 148.669 320.868 148.669ZM323.23 80.4271C323.375 80.4271 323.491 80.2204 323.489 79.9678C323.486 79.5753 323.448 79.5657 323.23 79.9018C322.91 80.3971 322.91 80.4271 323.23 80.4271ZM330.186 59.1673C330.412 59.1673 330.579 58.9304 330.579 58.6102C330.579 58.1448 330.514 58.1069 330.186 58.3799C329.969 58.5596 329.792 58.8103 329.792 58.9369C329.792 59.0636 329.969 59.1673 330.186 59.1673ZM340.816 38.1699C340.96 38.1699 341.078 38.1179 341.078 38.0542C341.078 37.9902 340.96 37.8654 340.816 37.7762C340.671 37.6872 340.553 37.7392 340.553 37.8919C340.553 38.0448 340.671 38.1699 340.816 38.1699ZM346.787 91.8427C347.039 91.7387 347.453 91.5942 347.705 91.5216C348.448 91.3079 348.231 90.897 347.443 91.0265C347.046 91.0915 346.632 91.1548 346.524 91.1667C346.416 91.1787 346.327 91.3781 346.327 91.6101C346.327 91.9088 346.461 91.9767 346.787 91.8427ZM370.404 255.412C370.659 255.346 370.514 255.287 370.081 255.281C369.648 255.276 369.439 255.33 369.616 255.402C369.794 255.474 370.148 255.478 370.404 255.412ZM445.774 244.732C446.04 244.732 446.403 243.932 446.22 243.749C446.154 243.683 445.974 243.707 445.82 243.802C445.481 244.012 445.446 244.732 445.774 244.732ZM458.663 11.3983C458.808 11.3983 458.926 11.2732 458.926 11.1203C458.926 10.9674 458.808 10.9153 458.663 11.0046C458.519 11.0936 458.401 11.2188 458.401 11.2825C458.401 11.3465 458.519 11.3983 458.663 11.3983ZM473.04 15.0728C473.741 15.0728 473.184 14.4161 472.423 14.3451C471.691 14.2771 471.679 14.2921 472.165 14.6731C472.445 14.893 472.839 15.0728 473.04 15.0728ZM490.931 123.472C491.036 123.472 491.199 123.394 491.294 123.299C491.526 123.067 490.947 122.391 490.666 122.564C490.417 122.718 490.637 123.472 490.931 123.472ZM492.875 194.141C492.969 194.105 493.046 194.016 493.046 193.944C493.046 193.872 493.046 193.695 493.046 193.55C493.046 193.406 492.939 193.288 492.807 193.288C492.676 193.288 492.598 193.495 492.635 193.747C492.672 194 492.78 194.177 492.875 194.141ZM494.416 123.472C494.733 123.472 494.884 123.271 494.884 122.848C494.884 122.115 494.264 121.514 493.723 121.721C493.172 121.933 493.781 123.472 494.416 123.472ZM495.606 59.3061C496.213 59.1507 497.022 59.0279 498.117 58.925C498.526 58.887 498.163 57.7288 497.716 57.6436C496.996 57.5064 494.884 58.5566 494.884 59.0519C494.884 59.4007 495.032 59.4529 495.606 59.3061ZM496.205 96.7001C496.436 97.0453 496.5 97.0398 496.727 96.6551C496.87 96.4137 497.34 96.1386 497.772 96.0437C498.426 95.9 498.558 95.7425 498.558 95.1045C498.558 94.0321 497.641 94.0745 496.685 95.1915C495.852 96.1648 495.85 96.1697 496.205 96.7001ZM497.741 194.036C498.028 194.488 498.813 194.338 499.177 193.76C499.563 193.147 499.272 192.942 498.315 193.153C497.462 193.34 497.38 193.466 497.741 194.036ZM499.724 158.905C500.278 158.905 500.488 158.414 500.124 157.975C499.65 157.404 499.346 157.511 499.346 158.249C499.346 158.645 499.495 158.905 499.724 158.905ZM507.29 246.339C507.547 246.08 507.517 246.05 507.143 246.192C506.884 246.291 506.738 246.437 506.819 246.518C506.9 246.599 507.112 246.518 507.29 246.339ZM63.1846 477.802C63.6631 477.802 64.0597 478.268 63.8013 478.526C63.7112 478.616 63.4379 478.49 63.1938 478.246C62.7847 477.837 62.7837 477.802 63.1846 477.802ZM252.798 389.792C252.893 389.697 253.424 389.693 253.979 389.782C254.885 389.926 254.989 389.885 254.989 389.384C254.989 389.077 255.107 388.826 255.251 388.826C255.679 388.826 255.551 389.499 255.034 389.966C254.263 390.664 252.096 390.494 252.798 389.792ZM328.364 255.917C328.91 255.707 329.041 255.797 328.786 256.208C328.677 256.386 328.452 256.426 328.254 256.303C327.987 256.138 328.012 256.052 328.364 255.917Z" fill="#FF6900"/>
</svg>
