<svg width="776" height="829" viewBox="0 0 776 829" fill="none" xmlns="http://www.w3.org/2000/svg">
<path d="M593.815 826.083C592.181 823.589 592.068 820.423 592.374 785.833C592.73 745.61 591.988 735.635 588.501 733.769C585.721 732.281 581.492 732.63 576.87 734.729C570.014 737.842 569.252 739.888 568.518 757.155C568.165 765.48 567.541 773.043 567.131 773.963C565.552 777.514 559.368 777.203 557.372 773.473C556.654 772.132 556.295 764.934 556.368 753.338C556.5 732.351 555.798 729.129 550.542 726.62C534.052 718.752 410.182 713.821 328.542 717.783C240.405 722.061 228.284 722.805 225.568 724.105C220.93 726.325 220.659 729.145 220.598 775.818C220.535 824.401 220.56 824.215 214.203 823.597C209.454 823.135 208.366 819.877 208.668 807.023C209.167 785.762 208.374 741.211 207.431 737.547C206.209 732.798 203.178 731.171 193.828 730.25L186.703 729.548L185.628 733.419C185.037 735.548 184.544 745.391 184.533 755.291C184.519 767.727 184.123 774.063 183.254 775.791C181.588 779.101 177.552 779.565 174.996 776.74C173.223 774.781 173.01 772.547 172.548 751.104L172.042 727.614L169.107 725.091C165.894 722.329 168.163 722.359 145.042 724.778C141.192 725.181 134.171 725.461 129.441 725.401L120.84 725.291L102.961 716.321C84.7115 707.167 81.1842 704.624 76.0109 696.896C74.3929 694.479 71.8263 691.582 70.3074 690.459C64.2931 686.013 57.3457 671.492 51.981 652.156C49.4099 642.889 49.2518 641.139 49.3719 623.291C49.4422 612.841 49.9253 602.837 50.4454 601.06C51.055 598.977 51.031 596.525 50.3779 594.159C49.6895 591.666 49.6939 589.817 50.3918 588.39C50.9567 587.235 51.6899 577.066 52.021 565.791C52.3522 554.516 52.8997 538.991 53.2378 531.291C53.5758 523.591 53.8011 516.166 53.7383 514.791C53.6755 513.416 53.6642 506.666 53.7132 499.791C53.7621 492.916 53.7554 466.366 53.6982 440.791C53.641 415.216 53.6394 393.391 53.6942 392.291C53.7494 391.191 53.7603 386.016 53.7184 380.791C53.6765 375.566 53.693 366.341 53.755 360.291C54.1786 318.996 52.7951 182.01 51.9404 180.627C51.6588 180.171 51.4213 164.384 51.4126 145.545C51.3944 105.962 52.3755 96.4684 57.535 86.3033C60.7488 79.9722 70.6356 68.7906 73.0201 68.7906C73.7393 68.7906 74.5826 68.1265 74.8941 67.3149C75.2056 66.5032 77.6162 64.8834 80.2511 63.7152C88.7276 59.9572 89.7669 59.3529 90.4099 57.8084C90.8235 56.8149 92.5458 56.2434 95.396 56.1538C97.7909 56.0785 100.716 55.5223 101.896 54.9177C103.076 54.3132 106.517 53.3858 109.542 52.857C117.602 51.4479 123.764 49.5352 126.926 47.4607C128.46 46.4543 129.976 45.8918 130.295 46.2107C130.614 46.5297 130.35 46.7906 129.708 46.7906C129.067 46.7906 128.542 47.213 128.542 47.7293C128.542 48.2456 130.679 48.9452 133.292 49.2839C135.904 49.6227 139.111 50.1231 140.418 50.396C142.301 50.7891 142.665 50.5549 142.172 49.2688C141.719 48.0896 142.027 47.7499 143.295 48.0274C144.256 48.2375 144.929 48.9452 144.792 49.6C144.574 50.6384 147.35 51.3311 149.897 50.874C150.367 50.7896 151.38 51.2413 152.147 51.878C153.225 52.7723 153.545 52.7234 153.557 51.6631C153.568 50.6687 153.779 50.616 154.323 51.4716C154.883 52.3508 157.705 52.4241 165.368 51.7585C171.029 51.2667 177.03 51.1382 178.702 51.4728C180.407 51.8136 182.029 51.6244 182.393 51.0425C182.822 50.3556 184.89 50.2971 188.5 50.8699C191.502 51.3462 194.202 51.3866 194.5 50.9597C194.798 50.5328 204.379 50.2076 215.792 50.2371C227.204 50.2665 236.542 49.9619 236.542 49.5601C236.542 48.608 241.264 49.246 244.901 50.6894C246.827 51.4537 248.865 51.5193 251.143 50.8902C253.236 50.3122 254.746 50.3119 255.103 50.8892C255.456 51.4607 282.295 51.6074 324.361 51.2679C362.135 50.963 422.742 50.5358 459.042 50.3186C495.342 50.1014 534.942 49.5563 547.042 49.1072C559.142 48.6581 591.992 48.3382 620.042 48.3964L671.042 48.5022L686.173 53.0591C706.752 59.2569 705.437 58.4471 720.093 73.9455C727.642 81.9284 728.444 83.185 737.2 100.736C743.811 113.989 744.763 119.378 742.141 128.722C740.694 133.878 740.511 140.748 740.67 183.951C740.828 227.099 739.497 294.158 737.975 319.791C735.618 359.461 735.395 460.111 737.565 504.791C739.782 550.461 740.574 614.178 739.265 641.502C738.15 664.75 733.66 679.323 722.959 694.418C718.278 701.021 706.09 712.791 703.932 712.791C703.205 712.791 700.505 714.126 697.931 715.758C688.986 721.431 683.619 722.459 657.717 723.46C637.317 724.249 637.851 723.908 637.21 736.568C636.71 746.454 635.705 748.791 631.954 748.791C628.866 748.791 627.912 746.725 627.072 738.214C626.688 734.321 626.016 730.557 625.578 729.85C624.486 728.082 615.731 728.088 612.132 729.86C605.782 732.983 605.148 735.06 604.275 755.596C603.837 765.878 603.752 785.541 604.084 799.291C604.677 823.779 604.647 824.337 602.577 826.541C599.672 829.634 596.015 829.443 593.815 826.083ZM321.542 704.233C333.367 703.446 347.317 702.546 352.542 702.233C374.604 700.912 403.809 696.978 405.513 695.098C406.243 694.292 365.877 695.604 353.298 696.796C347.657 697.33 330.442 698.464 315.042 699.317C288.407 700.791 261.731 703.507 253.042 705.629C247.4 707.007 294.206 706.053 321.542 704.233ZM422.042 670.766C457.792 670.892 488.617 670.992 490.542 670.988C492.467 670.988 500.567 670.967 508.542 670.95C528.278 670.908 528.728 670.881 530.225 669.639C531.191 668.837 531.542 668.869 531.542 669.759C531.542 672.127 591.948 669.141 597.469 666.499C599.969 665.303 600.051 664.958 600.366 654.28C600.544 648.236 600.381 635.028 600.003 624.928C599.242 604.593 598.637 602.791 592.562 602.791C588.395 602.791 582.247 605.432 580.719 607.878C579.949 609.112 579.232 614.799 578.926 622.112C578.299 637.086 578.033 638.458 575.492 639.818C569.511 643.018 567.555 637.811 567.547 618.663C567.54 601.511 567.989 602.028 554.603 603.734C544.396 605.035 541.342 604.698 538.189 601.925C533.092 597.441 533.257 600.825 533.638 508.841C534.106 396.153 534.273 403.82 531.15 394.895C519.603 361.9 476.774 349.528 445.674 370.203C433.426 378.346 425.901 388.348 420.782 403.291L418.042 411.291L418.076 467.791C418.095 498.866 418.695 539.07 419.409 557.133C420.816 592.703 420.684 594.157 415.769 597.378C413.455 598.894 408.946 599.053 370.62 598.975C347.202 598.927 327.22 598.866 326.215 598.84C325.21 598.813 323.133 597.536 321.6 596.003C319.065 593.468 318.741 592.307 318.039 583.253C317.614 577.774 317.307 509.469 317.358 431.465C317.445 297.119 317.544 289.449 319.246 286.029C320.234 284.044 322.312 281.491 323.865 280.355C326.617 278.343 327.806 278.291 370.865 278.291C395.162 278.291 416.23 278.625 417.681 279.032C419.133 279.44 420.6 280.5 420.94 281.387C421.281 282.275 420.179 287.024 418.491 291.94C415.509 300.623 414.953 306.781 417.088 307.479C417.664 307.668 421.939 305.302 426.588 302.223C452.714 284.919 478.907 276.612 507.542 276.55C524.589 276.513 534.528 277.867 547.542 281.997C583.536 293.422 613.047 320.434 621.605 349.791C623.664 356.854 623.837 360.147 624.577 406.291C625.009 433.241 625.383 485.891 625.408 523.291C625.458 597.263 625.46 597.232 619.916 601.291C618.413 602.391 615.802 604.491 614.113 605.958L611.042 608.624V636.457V664.291L615.32 664.599C621.456 665.042 643.229 660.395 651.87 656.798C661.082 652.963 664.651 650.353 671.406 642.515C680.584 631.865 684.27 620.917 685.115 601.791C685.418 594.916 685.946 588.616 686.286 587.791C686.627 586.966 687.024 537.691 687.169 478.291C687.313 418.891 687.608 364.441 687.824 357.291C689.542 300.465 689.722 279.366 688.671 257.791C688.042 244.866 687.302 225.291 687.027 214.291C686.021 174.037 685.151 163.851 681.82 153.348C677.985 141.251 666.059 126.54 654.628 119.804C651.005 117.67 643.008 113.626 636.857 110.818C625.754 105.751 625.514 105.693 604.357 103.031C584.012 100.472 581.016 100.352 538.542 100.402C514.067 100.431 479.192 100.992 461.042 101.648C397.354 103.953 355.689 104.161 320.542 102.352C302.667 101.431 286.692 100.488 285.042 100.255C283.392 100.023 270.792 99.7944 257.042 99.748C221.739 99.629 201.501 102.097 179.286 109.231C161.614 114.905 160.542 116.022 160.542 128.756C160.542 133.085 160.269 137.339 159.935 138.209C158.198 142.735 155.645 136.938 154.853 126.672C154.075 116.586 152.367 115.838 143.542 121.717C142.268 122.565 141.966 128.399 141.542 160.421C141.16 189.234 140.748 198.223 139.798 198.54C139.114 198.767 138.157 197.904 137.673 196.622C137.188 195.34 136.597 178.665 136.36 159.567C136.123 140.47 135.66 124.576 135.332 124.248C134.241 123.157 126.899 127.619 123.598 131.379C120.185 135.267 117.353 141.006 115.974 146.83C114.981 151.026 115.007 150.931 114.292 152.791C109.817 164.428 106.846 180.2 103.367 210.791C101.798 224.588 101.106 497.917 102.555 531.791C103.664 557.742 105.083 579.065 106.512 591.291C107.779 602.133 111.882 620.288 114.307 625.791C116.922 631.722 124.083 641.312 130.924 648.045C138.426 655.428 154.85 663.445 164.5 664.435C166.953 664.686 169.428 665.268 170 665.727C172.488 667.721 187.486 668.723 222.542 669.239C265.071 669.864 296.803 670.834 297.542 671.53C297.817 671.79 311.317 671.672 327.542 671.269C343.767 670.866 386.292 670.64 422.042 670.766ZM312.542 639.85C312.542 639.332 312.992 638.63 313.542 638.291C314.092 637.951 314.542 638.374 314.542 639.232C314.542 640.089 314.092 640.791 313.542 640.791C312.992 640.791 312.542 640.367 312.542 639.85ZM199.908 638.574C199.495 637.905 198.906 629.82 198.599 620.607C197.933 600.597 197.979 600.683 187.535 599.726C179.486 598.988 177.242 597.505 174.329 590.994C172.464 586.824 172.402 582.316 172.224 437.494L172.042 288.291L174.371 285.026C179.199 278.257 180.436 278.061 223.042 277.321C263.05 276.627 267.758 277.441 272.003 285.791C274.237 290.186 274.515 307.488 274.665 451.829C274.798 579.363 274.655 593.67 273.224 596.438C270.554 601.601 267.803 602.114 249.366 600.879C240.388 600.277 227.999 599.674 221.835 599.538C206.33 599.196 206.958 598.34 207.347 619.296C207.542 629.818 207.26 636.448 206.562 637.753C205.357 640.005 201.116 640.528 199.908 638.574ZM258.258 475.041C258.793 470.778 258.89 464.591 258.471 461.291C258.053 457.991 257.659 452.591 257.596 449.291C257.387 438.392 255.498 445.821 254.853 460.071C254.255 473.31 254.931 482.791 256.474 482.791C256.919 482.791 257.722 479.303 258.258 475.041ZM671.177 619.284C669.474 617.58 669.144 614.875 670.172 611.041C671.111 607.536 673.369 608.377 674.197 612.541C675.449 618.839 673.99 622.096 671.177 619.284ZM109.064 527.702C108.094 525.184 108.93 510.291 110.042 510.291C111.37 510.291 111.901 525.328 110.651 527.554C109.783 529.1 109.609 529.116 109.064 527.702ZM431.542 472.804C430.381 472.064 430.292 471.445 431.149 470.069C433.429 466.406 437.442 468.281 435.903 472.291C435.245 474.006 433.711 474.187 431.542 472.804ZM516.542 456.291C516.542 455.466 516.992 454.791 517.542 454.791C518.092 454.791 518.542 455.466 518.542 456.291C518.542 457.116 518.092 457.791 517.542 457.791C516.992 457.791 516.542 457.116 516.542 456.291ZM148.542 359.872C148.542 357.88 149.821 355.791 151.042 355.791C152.519 355.791 153.821 358.529 152.986 359.881C152.251 361.069 148.542 361.062 148.542 359.872ZM602.743 293.535C601.811 292.411 601.759 291.774 602.56 291.28C604.04 290.365 604.797 291.233 604.38 293.368C604.075 294.93 603.913 294.947 602.743 293.535ZM449.542 272.791C449.542 272.241 450.018 271.791 450.601 271.791C451.183 271.791 451.382 272.241 451.042 272.791C450.702 273.341 450.225 273.791 449.983 273.791C449.74 273.791 449.542 273.341 449.542 272.791ZM144.042 271.791C144.382 271.241 145.083 270.791 145.601 270.791C146.118 270.791 146.542 271.241 146.542 271.791C146.542 272.341 145.84 272.791 144.983 272.791C144.125 272.791 143.702 272.341 144.042 271.791ZM557.229 269.145C555.689 267.604 556.582 264.791 558.611 264.791C560.167 264.791 560.601 265.33 560.361 266.962C560.029 269.218 558.422 270.338 557.229 269.145ZM210.534 251.817C203.273 250.879 198.419 249.264 190.542 245.166C171.87 235.451 160.245 216.961 158.87 194.791C157.073 165.808 176.468 139.907 205.837 132.07C214.071 129.873 230.047 129.883 238.322 132.09C268.424 140.118 285.233 165.229 282.465 198.036C281.188 213.169 275.817 224.835 265.596 234.676C251.257 248.482 231.745 254.557 210.534 251.817ZM193.542 207.232C193.542 206.374 193.084 205.955 192.525 206.301C191.966 206.646 191.768 207.348 192.084 207.86C192.942 209.247 193.542 208.988 193.542 207.232ZM670.113 251.219C667.874 248.98 668.17 246.08 670.814 244.348C672.914 242.972 677.524 243.183 677.555 244.657C677.563 245.006 677.823 246.236 678.133 247.392C679.276 251.648 673.364 254.47 670.113 251.219ZM292.722 246.551C293.105 243.868 296.031 243.018 296.919 245.332C297.763 247.532 296.851 248.791 294.413 248.791C292.902 248.791 292.482 248.234 292.722 246.551ZM659.871 184.207C659.155 182.339 660.932 180.296 662.455 181.237C664.042 182.218 663.782 184.484 662.004 185.167C661.113 185.509 660.216 185.105 659.871 184.207ZM504.2 152.115C503.229 151.145 503.4 147.791 504.419 147.791C504.902 147.791 505.808 148.406 506.432 149.158C507.289 150.191 507.235 150.8 506.212 151.649C505.467 152.267 504.562 152.477 504.2 152.115ZM302.148 137.207C301.774 136.233 301.998 135.776 302.729 136.02C304.223 136.518 305.046 138.791 303.732 138.791C303.195 138.791 302.482 138.078 302.148 137.207ZM598.742 108.591C596.775 106.624 597.374 104.791 599.983 104.791C603.141 104.791 603.973 106.216 601.979 108.21C600.088 110.102 600.236 110.085 598.742 108.591ZM593.542 541.791C593.542 541.241 593.092 540.791 592.542 540.791C591.992 540.791 591.542 541.241 591.542 541.791C591.542 542.341 591.992 542.791 592.542 542.791C593.092 542.791 593.542 542.341 593.542 541.791ZM721.526 531.041C721.518 529.528 721.075 527.616 720.542 526.791C719.832 525.692 719.568 526.428 719.557 529.541C719.549 531.878 719.992 533.791 720.542 533.791C721.092 533.791 721.535 532.553 721.526 531.041ZM721.292 511.541C720.926 509.424 720.856 509.454 720.114 512.038C719.681 513.55 719.679 515.575 720.11 516.538C720.799 518.077 720.942 518.016 721.288 516.041C721.504 514.803 721.506 512.778 721.292 511.541ZM722.008 496.411C721.626 493.87 720.916 491.791 720.428 491.791C719.413 491.791 719.225 498.803 720.174 501.276C721.411 504.5 722.705 501.065 722.008 496.411ZM73.5418 459.232C73.5418 458.374 73.0918 457.951 72.5418 458.291C71.9918 458.631 71.5418 459.332 71.5418 459.85C71.5418 460.367 71.9918 460.791 72.5418 460.791C73.0918 460.791 73.5418 460.089 73.5418 459.232ZM337.542 453.791C337.542 453.241 337.343 452.791 337.101 452.791C336.858 452.791 336.382 453.241 336.042 453.791C335.702 454.341 335.9 454.791 336.483 454.791C337.065 454.791 337.542 454.341 337.542 453.791ZM585.225 441.603C584.906 440.805 584.669 441.042 584.621 442.207C584.577 443.261 584.814 443.852 585.146 443.52C585.478 443.188 585.514 442.325 585.225 441.603ZM76.5418 366.732C76.5418 358.28 76.1889 353.891 75.5418 354.291C73.8672 355.326 74.4669 379.791 76.1668 379.791C76.373 379.791 76.5418 373.914 76.5418 366.732ZM397.542 349.791C397.542 349.241 397.343 348.791 397.101 348.791C396.858 348.791 396.382 349.241 396.042 349.791C395.702 350.341 395.9 350.791 396.483 350.791C397.065 350.791 397.542 350.341 397.542 349.791ZM499.225 306.603C498.906 305.805 498.669 306.042 498.621 307.207C498.577 308.261 498.814 308.852 499.146 308.52C499.478 308.188 499.514 307.325 499.225 306.603ZM76.2311 276.041C75.9796 275.078 75.7738 275.866 75.7738 277.791C75.7738 279.716 75.9796 280.503 76.2311 279.541C76.4826 278.578 76.4826 277.003 76.2311 276.041ZM81.8315 115.791C82.1192 114.691 81.9466 113.791 81.4481 113.791C80.9496 113.791 80.5418 114.691 80.5418 115.791C80.5418 116.891 80.7143 117.791 80.9251 117.791C81.136 117.791 81.5438 116.891 81.8315 115.791ZM483.542 89.6152C485.385 88.4538 441.354 89.4707 434.042 90.7584C430.903 91.3112 438.905 91.4383 455.542 91.0997C470.117 90.8031 482.717 90.1351 483.542 89.6152ZM628.542 67.3496C628.542 66.2942 626.623 65.8507 626.052 66.7743C625.706 67.3333 626.125 67.7906 626.983 67.7906C627.84 67.7906 628.542 67.5922 628.542 67.3496ZM443.87 55.7002C460.84 54.18 461.347 52.6314 444.792 52.882C437.504 52.9923 431.542 53.454 431.542 53.908C431.542 54.362 430.079 55.1557 428.292 55.6718L425.042 56.6102L428.37 56.7004C430.2 56.75 437.175 56.2999 443.87 55.7002ZM698.542 746.898C698.542 744.93 701.048 743.367 702.632 744.346C703.132 744.656 703.542 745.782 703.542 746.85C703.542 748.253 702.85 748.791 701.042 748.791C699.256 748.791 698.542 748.25 698.542 746.898ZM651.903 735.291C651.119 733.248 652.273 730.534 653.721 731.017C654.369 731.233 655.381 732.183 655.97 733.129C656.784 734.433 656.68 735.078 655.542 735.804C653.438 737.145 652.568 737.022 651.903 735.291ZM743.241 678.45C742.539 676.62 744.06 674.375 745.43 675.221C747.025 676.207 746.804 679.791 745.149 679.791C744.383 679.791 743.524 679.187 743.241 678.45ZM757.542 632.791C754.866 630.115 755.02 627.221 757.996 624.245C761.08 621.162 763.969 621.126 766.978 624.136C768.674 625.832 769.182 627.224 768.811 629.165C767.806 634.418 761.272 636.521 757.542 632.791ZM756.797 581.754C757.471 580.674 758.35 579.791 758.751 579.791C759.959 579.791 758.491 582.596 756.979 583.176C755.818 583.622 755.786 583.372 756.797 581.754ZM29.9415 557.025C26.2354 554.551 25.9921 548.417 29.5551 547.286C34.5756 545.693 37.761 552.472 33.713 556.136C31.6492 558.003 31.4697 558.046 29.9415 557.025ZM0.111788 539.904C-0.189622 539.416 0.139785 538.539 0.843805 537.955C1.80572 537.157 2.16032 537.377 2.27065 538.842C2.42107 540.838 1.0932 541.492 0.111788 539.904ZM29.0418 532.791C29.3817 532.241 30.1098 531.791 30.6598 531.791C31.2098 531.791 31.3817 532.241 31.0418 532.791C30.7018 533.341 29.9737 533.791 29.4237 533.791C28.8737 533.791 28.7018 533.341 29.0418 532.791ZM33.0418 487.791C32.7018 487.241 32.8737 486.791 33.4237 486.791C33.9737 486.791 34.7018 487.241 35.0418 487.791C35.3817 488.341 35.2098 488.791 34.6598 488.791C34.1098 488.791 33.3817 488.341 33.0418 487.791ZM16.9824 223.695C15.9899 222.089 19.2544 219.103 20.5674 220.416C21.1394 220.988 21.3194 222.206 20.9675 223.123C20.2417 225.015 17.9973 225.337 16.9824 223.695ZM773.542 204.35C773.542 203.492 773.992 202.791 774.542 202.791C775.092 202.791 775.542 203.214 775.542 203.732C775.542 204.249 775.092 204.951 774.542 205.291C773.992 205.631 773.542 205.207 773.542 204.35ZM5.04176 199.791C5.38168 199.241 5.85824 198.791 6.10078 198.791C6.34332 198.791 6.54176 199.241 6.54176 199.791C6.54176 200.341 6.0652 200.791 5.48274 200.791C4.90028 200.791 4.70184 200.341 5.04176 199.791ZM751.356 151.541C748.71 149.43 748.274 144.059 750.563 141.77C754.323 138.01 760.542 140.551 760.542 145.847C760.542 151.12 755.077 154.507 751.356 151.541ZM13.5418 133.35C13.5418 132.557 13.9918 131.631 14.5418 131.291C15.0918 130.951 15.5418 131.599 15.5418 132.732C15.5418 133.864 15.0918 134.791 14.5418 134.791C13.9918 134.791 13.5418 134.142 13.5418 133.35ZM37.5418 44.7906C37.5418 43.6906 37.9496 42.7906 38.4481 42.7906C38.9466 42.7906 39.1192 43.6906 38.8315 44.7906C38.5438 45.8906 38.136 46.7906 37.9251 46.7906C37.7143 46.7906 37.5418 45.8906 37.5418 44.7906ZM97.0418 42.7906C97.3817 42.2406 97.8582 41.7906 98.1008 41.7906C98.3433 41.7906 98.5418 42.2406 98.5418 42.7906C98.5418 43.3406 98.0652 43.7906 97.4827 43.7906C96.9003 43.7906 96.7018 43.3406 97.0418 42.7906ZM239.042 40.7906C238.702 40.2406 238.9 39.7906 239.483 39.7906C240.065 39.7906 240.542 40.2406 240.542 40.7906C240.542 41.3406 240.343 41.7906 240.101 41.7906C239.858 41.7906 239.382 41.3406 239.042 40.7906ZM135.542 34.7906C135.542 34.2406 135.965 33.7906 136.483 33.7906C137 33.7906 137.702 34.2406 138.042 34.7906C138.382 35.3406 137.958 35.7906 137.101 35.7906C136.243 35.7906 135.542 35.3406 135.542 34.7906ZM70.0147 33.7468C69.0775 32.2305 71.6176 29.4665 72.8322 30.681C73.9537 31.8025 73.0811 34.7906 71.6321 34.7906C71.0973 34.7906 70.3695 34.3209 70.0147 33.7468ZM117.042 18.7906C117.382 18.2406 117.858 17.7906 118.101 17.7906C118.343 17.7906 118.542 18.2406 118.542 18.7906C118.542 19.3406 118.065 19.7906 117.483 19.7906C116.9 19.7906 116.702 19.3406 117.042 18.7906ZM138.451 8.18099C137.455 6.98086 137.519 6.38454 138.782 5.12211C140.615 3.28889 142.542 4.11933 142.542 6.74265C142.542 9.16899 140.01 10.0593 138.451 8.18099ZM289.871 3.20653C289.155 1.33917 290.932 -0.704183 292.455 0.236767C294.042 1.21805 293.782 3.48428 292.004 4.16677C291.113 4.50874 290.216 4.10496 289.871 3.20653Z" fill="#FF6900"/>
</svg>
