<svg width="756" height="642" viewBox="0 0 756 642" fill="none" xmlns="http://www.w3.org/2000/svg">
<path d="M562.93 639.116C561.037 636.711 560.854 635.122 560.824 620.866C560.807 612.278 560.584 596.926 560.33 586.751C559.006 533.802 558.762 531.395 554.356 527.93C553.019 526.878 552.135 525.807 552.391 525.551C552.647 525.294 552.236 525.085 551.477 525.085C550.718 525.085 547.932 524.067 545.286 522.823C542.014 521.285 537.254 520.272 530.415 519.657C524.883 519.16 519.457 518.554 518.357 518.31C517.257 518.067 511.632 517.601 505.857 517.275C500.082 516.949 490.632 516.265 484.857 515.756C472.201 514.639 365.182 513.578 230.357 513.232C175.907 513.093 129.107 512.603 126.357 512.143C123.607 511.684 118.483 511.295 114.971 511.28C109.301 511.255 108.38 511.531 106.745 513.751C104.18 517.234 104.035 520.297 103.941 573.047L103.857 619.842L101.378 622.321C98.5477 625.152 94.7994 624.883 91.357 621.603C89.4395 619.776 89.3491 618.264 89.1665 584.974C88.8591 528.911 87.8775 517.795 82.831 513.228C81.2747 511.819 79.8391 511.592 75.6223 512.085C72.5993 512.438 70.9348 512.338 71.7137 511.851C72.6485 511.266 72.1819 510.997 70.2137 510.989C68.6425 510.979 66.907 511.263 66.357 511.614C65.807 511.964 63.557 512.701 61.357 513.251C55.1981 514.791 53.8605 518.377 53.8585 533.352C53.8577 540.007 53.3743 546.837 52.7844 548.53C50.7805 554.278 42.9402 554.602 40.7236 549.028C40.1163 547.501 39.4892 540.759 39.3302 534.045C39.1712 527.332 38.5392 520.319 37.9259 518.46C36.316 513.582 32.4096 510.39 23.607 506.76C16.5331 503.843 15.3376 502.878 15.7634 500.427C15.8421 499.974 15.4944 499.857 14.9906 500.169C13.3895 501.158 7.36153 493.427 4.90225 487.229C3.59751 483.941 2.04106 480.62 1.44348 479.848C-0.153499 477.786 -0.526777 433.354 0.837783 407.751C1.46804 395.926 1.96207 385.261 1.93564 384.051C1.90924 382.841 2.37874 381.547 2.97905 381.176C3.75149 380.698 3.72433 380.287 2.88606 379.769C1.59682 378.973 1.36618 358.208 1.7106 273.941C1.81471 248.47 1.6387 227.207 1.3194 226.691C1.00018 226.174 1.24209 225.751 1.85698 225.751C2.4719 225.751 2.67043 225.258 2.29817 224.656C0.972991 222.512 -0.227474 26.6411 1.05608 21.9925C2.06828 18.3266 3.97562 15.7513 5.67856 15.7513C6.209 15.7513 6.92646 15.0126 7.27289 14.1099C7.79956 12.7374 7.65323 12.6755 6.37988 13.7323C5.46136 14.4946 4.85698 14.5817 4.85698 13.9517C4.85698 12.3839 12.6449 6.0289 17.2814 3.81319C22.6252 1.25947 30.6543 0.375327 45.357 0.721517C51.957 0.876927 62.307 0.939558 68.357 0.860708C91.6742 0.556798 96.5484 0.534637 102.357 0.706167C105.657 0.803667 113.419 0.590162 119.607 0.231802C126.377 -0.160268 130.857 -0.0477156 130.857 0.514394C130.857 1.07629 132.949 1.12952 136.107 0.64797C140.315 0.00626981 588.085 -0.119874 670.622 0.497396C693.461 0.668206 701.677 1.71099 709.017 5.37029C718.212 9.9549 725.329 19.7766 724.318 26.4886C724.007 28.5581 724.437 36.2793 725.273 43.6469C726.11 51.0144 726.594 57.3685 726.347 57.767C725.001 59.9456 723.879 266.486 724.989 307.751C727.955 417.96 727.601 478.418 723.932 488.056C722.479 491.875 716.289 499.85 715.439 499C715.061 498.622 715.026 499.029 715.362 499.904C716.437 502.705 703.508 512.239 694.857 515.025C692.132 515.903 683.688 517.43 677.357 518.192C659.912 520.289 654.627 520.744 641.857 521.246C633.882 521.56 626.183 522.049 624.747 522.333C621.678 522.939 617.408 527.13 615.963 530.955C614.981 533.555 614.089 550.059 613.474 577.013C613.203 588.919 613.021 589.948 610.77 592.356C608.732 594.535 607.741 594.854 604.392 594.41C602.211 594.121 599.849 593.093 599.142 592.126C597.614 590.037 597.345 570.228 598.793 566.419C599.308 565.065 599.528 563.756 599.282 563.51C599.036 563.264 598.581 556.13 598.27 547.657C597.67 531.265 596.889 528.183 592.75 525.863C590.365 524.526 589.728 524.608 585.287 526.826C581.609 528.663 579.876 530.342 578.141 533.751L575.849 538.251L575.968 586.751C576.045 618.211 575.722 636.17 575.048 637.865C573.163 642.612 566.241 643.326 562.93 639.116ZM574.55 629.02C574.296 628.047 574.072 628.601 574.052 630.251C574.032 631.901 574.239 632.697 574.513 632.02C574.787 631.343 574.803 629.993 574.55 629.02ZM574.54 619.564C574.221 618.766 573.984 619.003 573.936 620.168C573.892 621.222 574.129 621.813 574.461 621.48C574.793 621.148 574.829 620.286 574.54 619.564ZM564.456 582.472C564.57 581.801 564.963 580.351 565.329 579.251C565.784 577.885 565.509 578.043 564.461 579.751C563.618 581.126 562.912 582.889 562.892 583.668C562.852 585.295 564.144 584.307 564.456 582.472ZM564.54 571.564C564.221 570.766 563.984 571.003 563.936 572.168C563.892 573.222 564.129 573.813 564.461 573.48C564.793 573.148 564.829 572.286 564.54 571.564ZM611.54 567.564C611.221 566.766 610.984 567.003 610.936 568.168C610.892 569.222 611.129 569.813 611.461 569.48C611.793 569.148 611.829 568.286 611.54 567.564ZM564.857 552.751C564.857 552.201 564.658 551.751 564.416 551.751C564.173 551.751 563.697 552.201 563.357 552.751C563.017 553.301 563.215 553.751 563.798 553.751C564.38 553.751 564.857 553.301 564.857 552.751ZM573.271 550.766C572.624 550.118 572.286 550.456 572.286 551.751C572.286 553.047 572.624 553.385 573.271 552.737C573.919 552.089 573.919 551.413 573.271 550.766ZM600.54 549.564C600.221 548.766 599.984 549.003 599.936 550.168C599.893 551.222 600.129 551.813 600.461 551.48C600.793 551.148 600.829 550.286 600.54 549.564ZM256.357 491.734C258.749 491.299 251.867 489.943 246.857 489.862C239.965 489.751 232.794 490.852 235.113 491.666C236.567 492.176 253.627 492.231 256.357 491.734ZM293.586 491.147C293.254 490.815 292.391 490.779 291.669 491.068C290.872 491.387 291.109 491.624 292.274 491.672C293.328 491.715 293.918 491.479 293.586 491.147ZM311.585 489.423C315.011 489.46 317.584 489.119 317.303 488.665C317.023 488.21 316.132 488.092 315.325 488.402C314.518 488.712 313.857 488.467 313.857 487.858C313.857 486.427 308.962 486.444 303.198 487.895C300.474 488.581 298.394 488.671 298.005 488.12C297.614 487.566 294.38 487.646 289.857 488.323L282.357 489.445L290.357 489.939C294.757 490.21 299.932 490.19 301.857 489.894C303.782 489.597 308.16 489.386 311.585 489.423ZM7.20207 486.208C6.87638 485.359 6.39544 484.88 6.13332 485.142C5.87119 485.404 5.95334 486.098 6.31587 486.685C7.30192 488.28 7.87825 487.97 7.20207 486.208ZM724.6 475.514C724.727 473.827 724.55 473.631 723.879 474.716C723.389 475.508 723.211 476.515 723.482 476.954C724.236 478.174 724.417 477.941 724.6 475.514ZM173.107 468.089C172.419 467.812 171.294 467.812 170.607 468.089C169.919 468.366 170.482 468.593 171.857 468.593C173.232 468.593 173.794 468.366 173.107 468.089ZM214.126 468.095C213.449 467.821 212.099 467.804 211.126 468.058C210.153 468.311 210.707 468.536 212.357 468.556C214.007 468.576 214.803 468.369 214.126 468.095ZM230.137 468.02C227.816 467.811 223.766 467.808 221.137 468.014C218.508 468.221 220.407 468.392 225.357 468.396C230.307 468.399 232.458 468.23 230.137 468.02ZM249.107 468.089C248.419 467.811 247.294 467.811 246.607 468.089C245.919 468.366 246.482 468.593 247.857 468.593C249.232 468.593 249.794 468.366 249.107 468.089ZM272.126 468.095C271.449 467.821 270.099 467.804 269.126 468.058C268.153 468.311 268.707 468.535 270.357 468.556C272.007 468.576 272.803 468.369 272.126 468.095ZM284.586 468.146C284.254 467.814 283.391 467.779 282.669 468.068C281.872 468.387 282.109 468.624 283.274 468.672C284.328 468.715 284.918 468.479 284.586 468.146ZM288.586 468.146C288.254 467.814 287.391 467.779 286.669 468.068C285.872 468.387 286.109 468.624 287.274 468.672C288.328 468.715 288.918 468.479 288.586 468.146ZM304.619 468.064C303.663 467.813 301.863 467.804 300.619 468.043C299.375 468.282 300.157 468.487 302.357 468.498C304.557 468.509 305.575 468.314 304.619 468.064ZM360.619 468.064C359.663 467.813 357.863 467.804 356.619 468.043C355.375 468.282 356.157 468.487 358.357 468.498C360.557 468.509 361.575 468.314 360.619 468.064ZM485.641 468.017C483.046 467.812 478.546 467.81 475.641 468.012C472.735 468.215 474.857 468.383 480.357 468.385C485.857 468.388 488.235 468.222 485.641 468.017ZM501.586 468.146C501.254 467.814 500.391 467.779 499.669 468.068C498.872 468.387 499.109 468.624 500.274 468.672C501.328 468.715 501.918 468.479 501.586 468.146ZM520.107 468.046C518.869 467.807 516.844 467.807 515.607 468.046C514.369 468.284 515.382 468.479 517.857 468.479C520.332 468.479 521.344 468.284 520.107 468.046ZM560.214 465.73C617.776 465.715 620.999 465.621 619.729 463.983C618.99 463.031 614.78 458.574 610.372 454.08C605.964 449.586 600.557 443.928 598.357 441.507C596.157 439.087 591.657 434.185 588.357 430.614C571.686 412.575 565.779 405.687 566.282 404.873C566.586 404.381 566.165 403.422 565.346 402.742C564.527 402.062 563.857 401.749 563.857 402.046C563.857 402.343 560.235 398.911 555.809 394.419L547.761 386.251L546.077 389.001C544.816 391.062 543.605 391.751 541.248 391.751C537.01 391.751 535.472 389.655 536.127 384.773C537.11 377.446 535.3 372.975 528.059 364.847C521.131 357.07 501.978 336.953 488.857 323.671C478.952 313.645 466.976 300.958 458.444 291.453C454.642 287.217 450.954 283.751 450.248 283.751C449.542 283.751 442.519 289.714 434.641 297.001C426.764 304.289 417.218 312.951 413.428 316.251C409.639 319.551 405.106 323.601 403.355 325.251C386.974 340.688 382.46 344.605 376.564 348.501C370.824 352.293 368.81 353.064 363.564 353.476C357.754 353.933 357.055 353.749 352.645 350.608C347.532 346.966 339.557 340.263 327.976 329.873C323.916 326.231 319.87 322.831 318.986 322.317C313.851 319.336 302.199 308.727 302.632 307.427C302.783 306.974 302.445 306.888 301.882 307.236C301.061 307.743 286.165 295.017 277.614 286.501C276.648 285.539 275.465 284.751 274.986 284.751C273.581 284.751 265.125 293.439 254.022 306.29C242.812 319.265 213.35 349.927 172.357 391.282C142.201 421.704 124.915 437.905 123.527 437.047C122.988 436.715 122.839 436.913 123.194 437.488C124.054 438.879 116.089 446.013 114.662 445.131C113.971 444.704 113.83 444.898 114.29 445.643C114.754 446.394 112.846 448.873 109.195 452.26C105.984 455.239 103.04 457.693 102.652 457.714C102.265 457.734 100.889 458.81 99.5956 460.104C98.3019 461.397 96.5939 462.686 95.8002 462.967C91.5837 464.459 98.6311 465.049 126.066 465.498C142.726 465.771 156.432 466.052 156.524 466.123C156.615 466.194 233.79 466.138 328.024 465.999C422.257 465.86 526.743 465.739 560.214 465.73ZM563.857 403.692C563.857 403.11 564.307 402.911 564.857 403.251C565.407 403.591 565.857 404.068 565.857 404.31C565.857 404.553 565.407 404.751 564.857 404.751C564.307 404.751 563.857 404.275 563.857 403.692ZM56.3845 440.352C57.4693 439.582 62.857 434.585 68.357 429.247C90.645 407.615 102.96 396.264 103.883 396.501C104.419 396.639 104.744 396.363 104.607 395.889C104.469 395.415 120.557 378.612 140.357 358.549C172.832 325.643 213.375 283.947 231.153 265.171C234.84 261.277 237.857 257.313 237.857 256.362C237.857 255.411 237.438 254.892 236.925 255.209C236.413 255.526 235.295 254.787 234.441 253.568C233.232 251.842 233.162 251.156 234.122 250.475C235.021 249.837 234.949 249.715 233.857 250.026C232.236 250.487 225.515 245.206 211.405 232.386C206.481 227.912 199.731 221.826 196.405 218.861C193.078 215.896 188.557 211.825 186.357 209.813C184.157 207.801 177.857 202.129 172.357 197.208C166.857 192.288 161.682 187.526 160.857 186.626C160.032 185.727 153.507 179.676 146.357 173.179C139.207 166.683 127.92 156.252 121.274 150C114.628 143.748 107.878 137.823 106.274 136.835C103.11 134.886 99.066 130.751 100.323 130.751C101.297 130.751 93.6865 123.315 91.4066 122.039C88.0652 120.169 75.9273 107.447 76.5396 106.456C76.9124 105.853 76.6631 105.753 75.9239 106.21C75.133 106.699 73.3513 105.515 71.0194 102.953C65.6758 97.0801 56.5984 87.7316 52.6749 84.0601C46.3115 78.1056 46.6179 72.4844 46.3713 199.699C46.1157 331.578 47.3914 429.357 49.4562 436.154C50.1314 438.376 52.7443 441.751 53.7895 441.751C54.1318 441.751 55.2996 441.122 56.3845 440.352ZM676.932 434.501C678.837 427.47 679.549 420.199 679.779 405.404C679.899 397.665 680.195 391.014 680.436 390.623C680.795 390.042 680.894 83.2349 680.537 77.5013C680.477 76.5388 680.311 75.7513 680.167 75.7513C679.356 75.7513 660.795 94.7005 659.352 97.0013C658.403 98.5138 657.257 99.7513 656.804 99.7513C656.352 99.7513 652.884 102.789 649.098 106.501C638.899 116.502 633.075 121.75 632.166 121.761C631.721 121.766 628.396 124.579 624.777 128.011C621.159 131.443 614.193 137.626 609.298 141.751C604.403 145.876 593.638 155.348 585.377 162.801C571.569 175.257 568.188 178.274 562.265 183.43C557.037 187.982 541.696 201.901 534.874 208.284C530.74 212.152 525.317 217.102 522.823 219.284C510.7 229.891 487.909 251.174 487.483 252.284C486.904 253.791 496.252 264.047 538.357 308.102C569.698 340.894 571.857 343.228 571.857 344.322C571.857 344.623 571.407 344.591 570.857 344.251C570.307 343.911 569.857 344.062 569.857 344.585C569.857 345.109 570.555 345.805 571.409 346.133C572.299 346.474 572.7 346.307 572.35 345.74C572.014 345.196 572.174 344.751 572.707 344.751C573.239 344.751 576.772 348.239 580.557 352.501C595.802 369.667 650.033 424.625 659.857 432.864C666.176 438.163 667.021 438.565 672.068 438.672C675.608 438.748 675.833 438.555 676.932 434.501ZM629.857 425.48C630.739 425.145 630.236 424.877 628.638 424.83C626.553 424.77 626.061 425.12 626.528 426.335C626.862 427.206 627.41 427.499 627.746 426.985C628.082 426.471 629.032 425.794 629.857 425.48ZM3.5401 387.564C3.22088 386.766 2.98391 387.003 2.93593 388.168C2.89253 389.222 3.12885 389.813 3.46115 389.48C3.79344 389.148 3.82901 388.286 3.5401 387.564ZM118.857 383.251C120.149 381.876 120.981 380.751 120.706 380.751C120.431 380.751 119.149 381.876 117.857 383.251C116.565 384.626 115.733 385.751 116.008 385.751C116.283 385.751 117.565 384.626 118.857 383.251ZM143.985 358.001C145.228 356.415 145.193 356.38 143.607 357.624C142.644 358.379 141.857 359.166 141.857 359.374C141.857 360.197 142.678 359.667 143.985 358.001ZM372.857 348.783C372.857 348.25 372.182 348.073 371.357 348.39C370.532 348.706 369.857 349.142 369.857 349.358C369.857 349.574 370.532 349.751 371.357 349.751C372.182 349.751 372.857 349.315 372.857 348.783ZM3.51927 338.501C3.24186 337.814 3.01488 338.376 3.01488 339.751C3.01488 341.126 3.24186 341.689 3.51927 341.001C3.79668 340.314 3.79668 339.189 3.51927 338.501ZM723.55 325.02C723.296 324.047 723.072 324.601 723.052 326.251C723.032 327.901 723.239 328.697 723.513 328.02C723.787 327.343 723.803 325.993 723.55 325.02ZM388.357 314.751C388.697 314.201 388.498 313.751 387.916 313.751C387.333 313.751 386.857 314.201 386.857 314.751C386.857 315.301 387.055 315.751 387.298 315.751C387.54 315.751 388.017 315.301 388.357 314.751ZM413.383 313.944C413.076 313.637 412.269 313.944 411.59 314.627C410.61 315.615 410.725 315.73 412.15 315.187C413.136 314.812 413.691 314.252 413.383 313.944ZM198.985 302.001C200.228 300.415 200.193 300.38 198.607 301.624C197.644 302.379 196.857 303.166 196.857 303.374C196.857 304.197 197.678 303.667 198.985 302.001ZM357.857 297.31C357.857 296.255 355.938 295.811 355.367 296.735C355.022 297.294 355.44 297.751 356.298 297.751C357.155 297.751 357.857 297.553 357.857 297.31ZM365.036 294.496C367.059 293.261 372.099 288.994 376.236 285.014C381.661 279.794 384.26 277.938 385.557 278.358C386.858 278.779 386.995 278.68 386.052 278.002C384.775 277.085 387.173 274.812 433.263 233.251C446.51 221.306 458.515 210.642 474.707 196.439C482.05 189.998 491.687 181.471 496.124 177.49C500.561 173.509 506.735 168.001 509.845 165.251C512.955 162.501 518.992 157.142 523.261 153.343C527.53 149.543 532.946 144.818 535.296 142.843C537.646 140.867 545.371 134.066 552.463 127.729C559.555 121.392 568.044 113.967 571.328 111.229C580.118 103.902 582.777 101.614 586.764 97.9455C588.74 96.1273 593.247 92.0773 596.78 88.9455C619.341 68.9457 642.691 46.2457 641.706 45.2703C640.392 43.9695 379.355 43.0455 181.857 43.6424C176.632 43.6582 167.857 43.6024 162.357 43.5185C153.035 43.3763 99.6597 44.6668 91.857 45.223C89.932 45.3603 87.1195 45.5353 85.607 45.6119C84.0945 45.6886 82.857 46.2069 82.857 46.7637C82.857 48.1283 111.642 75.6936 113.107 75.7317C113.519 75.7424 113.857 76.2279 113.857 76.8103C113.857 77.3928 113.337 77.5483 112.702 77.1558C111.981 76.7102 111.82 76.8819 112.272 77.6131C112.67 78.257 113.398 78.5352 113.89 78.2311C114.382 77.9271 115.614 78.4823 116.628 79.4648C117.643 80.4474 122.461 84.8513 127.335 89.2513C132.209 93.6513 136.694 97.7013 137.301 98.2513C137.909 98.8013 142.67 103.071 147.881 107.74C153.093 112.408 163.224 121.633 170.395 128.24C177.566 134.846 186.729 143.176 190.758 146.751C202.517 157.185 214.535 168.986 212.274 167.879C210.626 167.072 210.19 167.179 210.19 168.39C210.19 169.498 210.903 169.783 212.774 169.421C214.909 169.008 216.571 170.077 222.357 175.586C226.207 179.252 232.258 184.726 235.804 187.751C239.349 190.776 244.974 195.768 248.304 198.844C255.262 205.274 260.89 210.28 265.772 214.382C271.796 219.444 274.917 222.844 274.364 223.74C274.067 224.22 274.351 224.939 274.995 225.337C275.726 225.789 275.898 225.627 275.452 224.906C273.808 222.246 276.993 224.097 282.496 229.001C285.736 231.889 294.905 239.847 302.872 246.685C310.839 253.524 319.617 261.174 322.379 263.685C325.141 266.197 330.54 270.951 334.378 274.251C338.215 277.551 343.605 282.29 346.356 284.782C355.833 293.367 359.865 296.751 360.61 296.746C361.021 296.743 363.012 295.731 365.036 294.496ZM509.357 279.751C509.017 279.201 508.289 278.751 507.739 278.751C507.189 278.751 507.017 279.201 507.357 279.751C507.697 280.301 508.425 280.751 508.975 280.751C509.525 280.751 509.697 280.301 509.357 279.751ZM3.51927 275.501C3.24186 274.814 3.01488 275.376 3.01488 276.751C3.01488 278.126 3.24186 278.689 3.51927 278.001C3.79668 277.314 3.79668 276.189 3.51927 275.501ZM300.357 246.751C300.017 246.201 299.203 245.758 298.548 245.767C297.832 245.776 297.956 246.169 298.857 246.751C300.778 247.993 301.124 247.993 300.357 246.751ZM722.54 233.564C722.221 232.766 721.984 233.003 721.936 234.168C721.893 235.222 722.129 235.813 722.461 235.48C722.793 235.148 722.829 234.286 722.54 233.564ZM722.54 215.564C722.221 214.766 721.984 215.003 721.936 216.168C721.893 217.222 722.129 217.813 722.461 217.48C722.793 217.148 722.829 216.286 722.54 215.564ZM23.1442 197.003C23.3287 183.66 22.4928 174.011 21.0237 172.526C20.1085 171.601 19.6754 201.489 20.5004 208.64C21.5738 217.944 22.9377 211.941 23.1442 197.003ZM189.219 195.251C189.535 194.426 189.358 193.751 188.826 193.751C188.293 193.751 187.857 194.426 187.857 195.251C187.857 196.076 188.034 196.751 188.25 196.751C188.466 196.751 188.902 196.076 189.219 195.251ZM235.857 189.751C235.857 189.201 235.38 188.751 234.798 188.751C234.215 188.751 234.017 189.201 234.357 189.751C234.697 190.301 235.173 190.751 235.416 190.751C235.659 190.751 235.857 190.301 235.857 189.751ZM722.546 173.001C722.295 172.039 722.089 172.826 722.089 174.751C722.089 176.676 722.295 177.464 722.546 176.501C722.798 175.539 722.798 173.964 722.546 173.001ZM723.23 150.479C723.502 148.979 723.304 147.751 722.791 147.751C722.277 147.751 721.857 149.176 721.857 150.918C721.857 154.603 722.52 154.391 723.23 150.479ZM23.6684 137.251C23.6948 133.951 23.3737 130.375 22.9547 129.305C22.2 127.376 22.1883 127.376 21.6874 129.305C20.8341 132.59 20.7046 144.705 21.4978 147.043C22.2012 149.116 22.289 149.068 22.9337 146.251C23.3114 144.601 23.642 140.551 23.6684 137.251ZM148.857 111.374C148.857 111.166 148.069 110.379 147.107 109.624C145.521 108.38 145.486 108.415 146.729 110.001C148.036 111.667 148.857 112.197 148.857 111.374ZM705.545 104.001C705.58 97.2849 705.24 97.5731 703.483 105.751C703.243 106.867 704.751 110.751 705.424 110.751C705.472 110.751 705.526 107.714 705.545 104.001ZM723.54 98.5638C723.221 97.7661 722.984 98.003 722.936 99.168C722.893 100.222 723.129 100.813 723.461 100.48C723.793 100.148 723.829 99.2857 723.54 98.5638ZM627.857 93.2513C627.857 92.4263 627.407 91.7513 626.857 91.7513C626.307 91.7513 625.857 92.4263 625.857 93.2513C625.857 94.0763 626.307 94.7513 626.857 94.7513C627.407 94.7513 627.857 94.0763 627.857 93.2513ZM724.519 54.5013C724.242 53.8138 724.015 54.3763 724.015 55.7513C724.015 57.1263 724.242 57.6888 724.519 57.0013C724.797 56.3138 724.797 55.1888 724.519 54.5013ZM722.519 28.5013C722.242 27.8138 722.015 28.3763 722.015 29.7513C722.015 31.1263 722.242 31.6888 722.519 31.0013C722.797 30.3138 722.797 29.1888 722.519 28.5013ZM217.774 24.1121C218.003 23.9137 215.839 23.7513 212.965 23.7513C209.728 23.7513 207.975 24.1327 208.358 24.7535C208.905 25.6375 216.619 25.112 217.774 24.1121ZM485.586 1.14715C485.254 0.814856 484.391 0.779317 483.669 1.06823C482.872 1.38745 483.109 1.6244 484.274 1.67238C485.328 1.71578 485.918 1.47944 485.586 1.14715ZM508.586 1.14715C508.254 0.814856 507.391 0.779317 506.669 1.06823C505.872 1.38745 506.109 1.6244 507.274 1.67238C508.328 1.71578 508.918 1.47944 508.586 1.14715ZM566.107 1.08904C565.419 0.81163 564.294 0.81163 563.607 1.08904C562.919 1.36645 563.482 1.59343 564.857 1.59343C566.232 1.59343 566.794 1.36645 566.107 1.08904ZM492.857 559.751C492.857 559.201 493.307 558.751 493.857 558.751C494.407 558.751 494.857 559.201 494.857 559.751C494.857 560.301 494.407 560.751 493.857 560.751C493.307 560.751 492.857 560.301 492.857 559.751ZM646 557.861C645.054 557.262 644.979 556.794 645.75 556.317C646.359 555.941 646.857 556.136 646.857 556.751C646.857 557.366 647.376 557.548 648.011 557.156C648.727 556.714 648.895 556.881 648.452 557.597C647.61 558.96 647.717 558.949 646 557.861ZM490.357 528.751C490.017 528.201 490.215 527.751 490.798 527.751C491.38 527.751 491.857 528.201 491.857 528.751C491.857 529.301 491.658 529.751 491.416 529.751C491.173 529.751 490.697 529.301 490.357 528.751ZM754.357 448.751C754.017 448.201 754.215 447.751 754.798 447.751C755.38 447.751 755.857 448.201 755.857 448.751C755.857 449.301 755.658 449.751 755.416 449.751C755.173 449.751 754.697 449.301 754.357 448.751ZM746.857 427.192C746.857 426.335 747.314 425.916 747.873 426.261C748.432 426.607 748.631 427.308 748.314 427.82C747.457 429.207 746.857 428.949 746.857 427.192ZM743.316 132.685C742.953 132.098 742.871 131.404 743.133 131.142C743.395 130.88 743.876 131.359 744.202 132.208C744.878 133.97 744.302 134.28 743.316 132.685ZM745.857 78.7513C745.857 78.2013 746.307 77.7513 746.857 77.7513C747.407 77.7513 747.857 78.2013 747.857 78.7513C747.857 79.3013 747.407 79.7513 746.857 79.7513C746.307 79.7513 745.857 79.3013 745.857 78.7513Z" fill="#F8FAFC"/>
</svg>
